<?xml version="1.0" encoding="UTF-8"?>
<svg id="a" xmlns="http://www.w3.org/2000/svg" width="1000" height="575.64" viewBox="0 0 1000 575.64">
  <path d="M452.308,297.239c-13.095,9.36-26.277,18.6-39.3,28.058-6.652,4.831-12.149,10.878-16.588,17.806-4.39,6.85-6.873,14.294-6.204,22.553,.499,6.158,3.629,10.465,9.45,12.586,5.459,1.989,10.931,1.87,16.313-.468,10.314-4.481,18.35-11.726,25.23-20.467,2.586-3.285,4.262-6.859,5.268-10.892,2.544-10.199,5.32-20.34,7.854-30.541,1.901-7.651,4.404-15.171,5.749-24.603-3.411,2.626-5.539,4.37-7.772,5.967Zm-22.713,59.187c-2.411,2.588-5.006,5.007-7.838,7.132,3.629-5.384,8.115-10.23,13.377-14.051-1.781,1.291-3.864,5.12-5.539,6.919Z" fill="#232323"/>
  <path d="M959.792,164.793c-6.719-6.719-13.167-14.97-22.218-18.512-24.413-9.551-51.329,7.382-67.989,23.994,9.529-35.47,19.057-70.941,28.585-106.411,1.206-4.49,4.078-10.906,2.588-15.57-1.927-6.032-10.564-12.068-15.012-16.515-5.319-5.319-12.463-11.139-19.116-3.798-6.078,6.707-9.886,15.497-15.964,22.365-7.026,7.94-15.625,14.864-24.489,20.644-9.367,6.108-19.565,11.1-30.243,14.447-7.994,2.505-17.622,7.127-10.666,16.917,2.329,3.278,4.296,4.885,4.433,9.183,.162,5.055-1.668,10.4-2.875,15.26-1.515,6.103-3.162,12.174-4.774,18.252-7.096,26.752-14.193,53.505-21.31,80.252-4.596-18.19-19.533-32.322-33.341-44.203-14.062-12.1-33.481-15.434-51.469-13.123-37.878,4.866-70.576,31.452-93.275,60.719-7.496,9.664-13.79,20.17-19.433,31.005-5.086,9.764-8.866,20.774-17.326,28.244,5.874-22.467,16.265-47.715,7.02-70.645-4.507-11.18-13.619-18.903-21.947-27.232-8.789-8.789-17.434-15.383-29.656-18.63-44.582-11.843-92.991,6.108-116.837,45.816-7.11,11.84-12.289,24.94-10.443,38.996,1.898,14.456,11.707,22.61,21.371,32.441-13.445,7.111-26.456,15.384-37.517,25.898-.923-2.747-3.012-4.063-4.754-6.134-3.271-3.888-4.715-8.449-4.798-13.506-.224-13.655,4.742-28.798,7.338-42.143,6.016-30.929,11.767-62.417,21.259-92.506,7.571-23.997,19.509-48.189,41.084-62.49,7.963-5.279,22.318-9.213,19.564-21.512-1.465-6.542-8.803-11.639-13.374-16.21-3.005-3.005-5.91-6.609-9.693-8.611-4.511-2.388-10.027-2.508-14.965-3.361-13.86-2.393-27.276-6.689-40.433-11.584-28.135-10.466-55.551-19.411-85.825-20.412-27.43-.907-56.192,4.241-78.479,21.194-19.047,14.489-31.733,35.444-33.878,59.45-1.273,14.246,.289,29.28,7.777,41.73,5.126,8.522,13.082,15.236,20.07,22.224,9.901,9.9,20.503,17.364,34.467,20.298,16.15,3.393,33.661,.857,48.101-7.158-8.06,26.339-12.904,53.521-18.412,80.469-2.283,11.171-3.612,23.322-12.392,31.538-5.681,5.316-17.619,9.088-14.338,19.387,1.236,3.88,5.154,6.177,7.401,9.387,3.627,5.18,3.232,10.877,2.231,16.833-2.244,13.348-6.321,26.571-10.077,39.556-7.755,26.81-16.381,53.665-28.485,78.865,3.027-12.585,2.927-26.717-1.967-38.824-3.724-9.212-10.373-15.832-17.252-22.71-5.957-5.957-11.648-12.44-18.738-17.072-10.89-7.114-23.629-10.337-36.566-10.348-49.492-.041-92.041,37.79-96.72,87.543-2.419,25.724,5.34,51.122,23.629,69.593,12.863,12.991,25.091,26.295,42.374,33.429,26.314,10.862,56.482,9.517,83.799,3.568,23.719-5.166,45.983-15.564,65.148-30.471,47.864-37.23,72.151-96.917,88.061-153.612-.515,9.844,1.438,20.094,6.095,28.825,4.459,8.361,11.853,14.589,18.466,21.202,14.367,14.366,29.892,22.413,50.778,19.753,9.903-1.261,19.39-4.415,28.156-9.174,2.65-1.438,5.139-3.41,7.833-4.732,3.207-1.573,1.736-1.483,4.475,.632,3.914,3.022,7.117,7.296,10.705,10.708,14.32,13.616,37.119,13.015,54.565,6.081,20.281-8.06,35.05-25.736,40.374-46.755,7.138,12.179,18.966,22.949,29.465,32.273,11.138,9.891,25.447,15.782,40.161,17.596,28.334,3.493,57.112-6.239,77.106-26.611,3.997,5.118,9.464,9.539,14.058,14.132,3.421,3.421,6.038,5.791,10.983,6.101,7.114,.446,14.402,0,21.527,0,19.577,0,39.183,.318,58.758,0,4.129-.067,8.027-.507,10.492-4.471,4.844-7.794-4.574-18.066-5.1-26.32,3.921,8.98,12.523,15.618,19.333,22.428,9.603,9.603,20.427,15.137,34.258,15.756,21.611,.967,43.021-8.021,55.043-26.374,6.555-10.007,12.202-24.028,10.77-36.257-.951-8.122-12.108-15.874-17.744-21.42-1.962-1.931-4.139-2.793-4.28-4.845-.146-2.126,2.705-7.117,3.546-9.091,2.375-5.573,5.49-10.751,9.825-15.028,5.642-5.568,17.72-9.027,16.88-18.836-.299-3.492-2.797-5.208-3.854-8.318-.823-2.422-.497-5.726-.33-8.196,.512-7.605,2.768-14.821,2.788-22.55,.037-14.438-4.753-25.261-15.131-35.178,29.088,9.323,58.03-24.777,55.147-51.988-1.158-10.928-6.941-18.076-14.404-25.538ZM293.312,384.116c-9.79,27.676-21.664,54.339-38.758,78.41-19.797,27.877-44.867,49.156-77.268,61.003-13.153,4.809-26.801,7.528-40.775,9.112-14.059,1.594-27.92,1.199-41.684-1.646-15.72-3.248-29.703-9.987-40.825-21.925-10.793-11.586-16.547-25.334-18.369-41.027-2.605-22.444,3.085-42.772,15.766-61.019,16.306-23.462,39.295-35.288,67.757-36.597,12.543-.577,24.285,1.76,35.042,8.746,12.22,7.937,18.189,19.428,18.921,33.458,1.112,21.29-6.694,38.717-24.655,50.891-11.487,7.785-24.4,10.308-38.099,9.345-1.123-.079-2.073-.492-2.528-1.718-.01-2.118,1.913-2.597,3.223-3.596,8.079-6.165,11.562-16.698,9.045-26.438-1.049-4.058-3.378-6.903-6.782-9.005-9.026-5.572-18.061-4.572-26.944,.304-7.853,4.311-13.134,11.06-16.748,19.065-12.267,27.173,.845,56.236,29.397,64.931,13.948,4.248,28.136,3.954,41.968-.325,26.934-8.333,45.967-26.089,59.03-50.755,7.669-14.48,14.187-29.445,19.671-44.865,9.085-25.543,16.936-51.464,23.367-77.803,1.221-5.002,2.299-10.088,2.822-15.199,.798-7.809-1.26-14.923-6.702-20.83-1.297-1.408-2.633-2.779-4.016-4.235,.973-2.55,2.673-3.221,4.119-4.042,11.25-6.394,17.434-16.357,20.063-28.692,3.135-14.711,5.995-29.48,9.034-44.212,5.131-24.87,10.869-49.582,20.585-73.154,7.848-19.038,18.019-36.648,32.554-51.474,12.818-13.075,27.831-22.92,44.554-30.252,2.126-.932,4.45-1.498,6.274-3.075-.626-1.896-2.296-1.918-3.671-2.174-16.054-2.999-32.065-6.285-48.197-8.793-14.421-2.242-28.917-4.219-43.626-1.91-13.345,2.094-25.467,6.391-34.356,17.174-7.681,9.317-11.416,20.266-11.516,32.177-.123,14.581,12.21,24.782,26.689,22.646,3.366-.497,6.672-1.407,9.896-2.103,1.801,1.23,1.214,2.763,.776,4.151-2.149,6.813-6.395,12.186-12.012,16.401-18.451,13.845-47.348,15.822-67.206,1.768-11.292-7.991-17.291-19.391-18.655-32.607-3.03-29.358,7.767-53.191,31.595-70.592,11.215-8.19,24.107-12.934,37.827-15.73,15.815-3.222,31.621-2.871,47.501-1.471,24.08,2.123,46.422,10.653,68.77,19.034,15.347,5.755,30.917,10.523,47.207,12.758,2.716,.373,5.558,.657,7.957,2.253,1.697,3.416-.752,4.748-2.998,6.039-3.354,1.927-6.902,3.536-10.169,5.594-14.746,9.286-25.546,22.165-33.798,37.366-8.277,15.249-13.536,31.641-17.775,48.32-8.314,32.719-14.755,65.855-21.04,99.016-.56,2.955-1.1,5.916-1.734,8.856-2.856,13.251-2.388,25.703,8.575,35.309-.6,2.053-2.088,2.604-3.351,3.354-10.753,6.389-17.19,15.771-20.345,27.848-4.564,17.471-9.355,34.895-15.383,51.935Zm-190.241,95.871c4.147,4.407,8.564,8.607,12.864,12.864,15.113,14.963,45.314,2.699,59.416-8.692-10.177,10.77-22.994,18.566-37.134,22.941-8.544,2.644-17.604,3.6-26.491,2.458-4.641-.596-9.269-1.7-13.61-3.457-4.377-1.771-5.039-4.437-6.119-8.938-3.497-14.587,2.608-33.414,16.549-40.417-2.896,4.099-7.935,5.587-9.57,10.71-1.642,5.145,.688,8.913,4.093,12.531ZM277.167,120.752c-6.74-6.697-11.292-5.096-20.01-3.597,3.105-37.32,43.037-39.857,72.045-35.698-17.377,13.445-30.963,30.814-41.052,50.258-3.591-3.715-7.317-7.319-10.983-10.962Zm228.27,289.011c-12.548,10.347-27.157,14.387-43.331,12.787-13.645-1.35-23.099-11.225-24.595-25.611-.236-2.275,.443-4.77-1.442-6.842-2.553-.463-3.732,1.677-5.267,2.994-11.235,9.647-23.475,17.603-38.143,20.712-13.174,2.792-26.059,2.2-37.796-5.701-8.75-5.891-13.438-14.266-15.492-24.324-3.007-14.724,1.212-28.143,8.161-40.801,9.145-16.658,23.155-28.526,39.077-38.44,16.303-10.15,34.01-17.492,51.131-26.007,9.061-4.507,17.965-9.235,25.798-15.772,4.097-3.419,7.026-7.42,8.3-12.683,2.827-11.682,6.404-23.187,7.426-35.27,.316-3.73-.046-7.337-.816-10.869-1.72-7.891-8.503-12.165-16.514-10.626-10.321,1.982-17.92,8.213-23.929,16.352-6.457,8.746-9.21,18.832-9.002,29.703,.071,3.711,1.021,7.232,2.552,10.588,2.652,5.814,7.287,8.801,13.571,9.457,2.302,.24,4.691-.491,6.931,.541-.104,.475-.051,1.035-.296,1.239-12.419,10.332-26.315,17.162-42.839,16.721-15.553-.415-25.408-10.949-25.844-26.473-.212-7.56,1.73-14.559,4.979-21.127,15.433-31.201,40.562-48.515,75.19-52.454,12.176-1.385,24.015-.308,35.732,2.691,22.369,5.725,34.073,23.626,31.173,46.449-1.527,12.016-4.82,23.544-8.072,35.124-1.336,4.755-2.723,9.526-3.578,14.379-1.448,8.216-.245,15.872,6.081,22.031,.758,.738,1.59,1.464,1.591,2.814-.868,2.02-2.951,2.876-4.673,4.081-9.194,6.432-15.158,15.169-18.124,25.884-3.554,12.839-6.828,25.755-10.24,38.634-.951,3.591-1.244,7.226-.509,10.861,1.706,8.438,8.164,11.667,15.949,8.007,5.667-2.664,9.458-7.323,12.821-12.386,1.618-2.437,3.132-4.942,5.127-7.156-2.018,16.136-8.424,30.051-21.09,40.494Zm-50.042-160.837c-.3-2.645,1.382-6.687,2.317-9.042,2.227-5.61,5.961-10.752,10.513-14.712-.993,4.903-2.238,9.751-3.485,14.594-1.262,4.901-1.818,10.348-5.471,14.147-2.304-2.751-3.494-1.632-3.874-4.987Zm85.733,121.673c-4.181-3.781-8.321-10.77-14.648-10.732,2.876-10.757,5.498-20.765,14.433-28.168-.925,13.369-2.278,25.542,.215,38.9Zm83.641,50.848c-13.269,1.472-26.224,.39-38.543-4.871-18.997-8.113-30.539-22.695-34.847-42.709-2.302-10.693-3.788-21.569-2.054-32.649,.895-5.715,1.24-11.559,1.3-17.351,.078-7.587-.759-15.075-5.709-20.898-.155-2.548,1.367-3.533,2.765-4.489,7.672-5.246,13.077-12.318,17.044-20.638,7.23-15.163,14.957-30.039,25.347-43.366,17.769-22.79,38.919-41.249,66.245-51.784,11.583-4.466,23.622-6.794,36.022-5.775,23.226,1.91,41.26,15.793,44.041,41.65,3.689,34.296-15.78,62.944-40.22,75.597-9.535,4.937-19.703,6.851-30.611,4.926-14.142-2.496-22.605-14.031-21.209-29.153,.733-7.944,3.369-15.536,7.471-22.496,.299-.508,.912-.832,1.341-1.209,2.122,.6,1.556,2.432,1.95,3.748,2.178,7.273,8.171,10.698,15.499,8.676,8.163-2.252,14.643-7.165,20.122-13.411,7.476-8.522,13.202-18.035,15.487-29.318,.382-1.888,.842-3.854,.699-5.741-.86-11.339-6.256-18.966-20.054-15.496-11.57,2.91-20.239,10.266-27.998,18.741-14.359,15.683-25.141,33.766-34.391,52.804-1.31,2.696-2.185,5.602-3.263,8.41-3.541,9.219-3.993,18.077,4.291,26.876-1.422,.849-2.166,1.288-2.904,1.736-10.52,6.379-16.176,15.925-17.431,27.952-1.276,12.225-1.686,24.434,3.146,36.218,5.757,14.039,23.519,26.48,43.284,18.24,12.902-5.379,22.753-14.521,31.048-25.481,5.874-7.76,10.615-16.168,13.646-25.483,.433-1.331,.382-3.101,2.53-3.724,1.93,1.855,1.282,4.347,1.099,6.513-1.984,23.499-10.081,44.497-27.059,61.209-13.249,13.04-29.416,20.675-48.084,22.746Zm108.757-104.426c1.055,5.071-1.229,11.262-2.337,16.198-1.587,7.074-3.343,14.109-5.247,21.104,.549-4.986-.223-9.882-4.012-13.524-5.737-5.507-10.981-11.76-17.019-16.931,6.67-1.807,12.941-4.804,18.72-8.572,.596-.389,5.84-4.668,6.372-4.588,1.663,.251,3.245,4.98,3.522,6.313Zm-68.847,.976c7.274,5.691,16.386,7.784,25.489,7.829-1.377,1.668-2.311,3.784-2.813,5.874-4.495,14.293-14.27,27.95-25.951,37.278-5.452,4.354-12.16,8.533-19.156,9.622-2.11,.328-6.658,.849-8.536-.37-2.554-1.658-2.803-7.454-3.104-10.617-1.267-13.268-.49-29.508,11.099-38.122,3.915-2.91,8.932-4.519,9.702-10.074,1.105-7.973-8.153-11.653-6.167-20.49,6.404,6.273,12.374,13.541,19.437,19.068Zm27.317-90.65c-2.321,4.198-5.182,8.094-8.341,11.697-3.01,3.431-6.53,6.509-10.614,8.595,5.561-7.322,11.643-14.645,18.955-20.292Zm226.402-10.614c-4.471,1.256-9.201,1.484-13.788-.182,.272-2.793,2.447-3.827,3.646-5.518,4.312-6.079,4.882-12.525,1.324-16.671-3.583-4.174-10-4.743-16.666-1.247-4.204,2.205-7.97,5.118-11.524,8.247-9.239,8.134-17.166,17.485-24.778,27.113-.921,1.164-1.911,2.364-1.801,4.061,1.767,1.248,3.282-.038,4.792-.607,6.295-2.373,12.742-3.79,19.507-3.826,15.872-.085,27.753,10.962,28.872,26.94,.514,7.349,.075,14.629-1.731,21.776-1.128,4.46-.906,8.963-.889,13.475,.015,4.087,2.165,7.33,4.291,10.347-.575,2.221-2.36,2.776-3.791,3.595-10.934,6.258-18.22,15.614-22.756,27.152-4.877,12.406-9.494,24.914-13.614,37.599-1.352,4.163-1.941,8.388-1.532,12.718,.471,4.975,3.315,7.685,8.318,8.238,4.294,.474,8.118-.705,11.455-3.362,4.071-3.242,7.593-6.976,9.975-11.688,.824-1.63,1.299-3.525,3.64-5.545,.159,9.07-1.874,16.641-5.254,23.793-9.24,19.554-25.555,28.314-46.467,29.281-6.425,.297-12.942-.786-18.985-3.145-10.198-3.98-15.588-11.636-16.363-22.634-.759-10.775,1.954-20.883,5.404-30.901,7.852-22.8,18.019-44.662,27.048-66.985,2.666-6.593,4.815-13.342,6.001-20.378,.469-2.786,.64-5.571,.035-8.335-1.186-5.419-5.036-8.354-10.387-7.108-6.554,1.527-12.683,4.249-16.821,9.978-6.674,9.241-13.212,18.579-19.893,27.814-1.933,2.672-3.164,5.574-4.006,8.726-5.715,21.391-11.564,42.748-17.169,64.168-2.634,10.065-4.019,20.206-.673,30.522,1.123,3.463,3.613,6.292,4.693,10.872-27.894,.007-55.209,.006-83.884,0,4.965-5.694,9.691-9.413,13.234-14.266,3.461-4.742,6.572-9.696,8.414-15.176,6.715-19.977,12.235-40.302,16.355-60.98,1.573-7.892-.342-14.933-6.151-20.725-.609-.607-1.21-1.215-1.242-2.213,.405-1.608,1.925-2.19,3.132-2.984,10.807-7.109,17.16-17.328,20.431-29.573,11.707-43.82,23.331-87.663,34.96-131.505,1.432-5.4,2.8-10.819,4.04-16.266,2.011-8.837,2.713-17.493-5.464-25.092,12.142-3.084,22.678-7.755,32.71-13.522,10.297-5.92,19.567-13.159,28.161-21.414,8.387-8.055,14.489-17.783,20.725-27.468,.442,.226,.884,.451,1.327,.677-19.241,71.627-38.482,143.255-57.777,215.083,2.778,.353,3.212-1.339,3.946-2.466,12.695-19.487,26.309-38.307,41.611-55.827,9.471-10.844,19.093-21.651,31.655-29.178,9.98-5.98,20.592-9.642,32.468-8.67,12.032,.985,19.81,9.273,21.082,21.275,2.03,19.164-14.131,37.594-29.847,42.01Z" fill="#232323"/>
  <path d="M852.016,77.53c-.03,.025-.062,.048-.092,.073h.072l.02-.073Z" fill="#232323"/>
  <path d="M829.399,255.502c-.015,.019-.028,.045-.043,.064,.011-.014,.034-.048,.047-.064h-.005Z" fill="#232323"/>
  <path d="M417.752,389.178c-.309,.105-.622,.18-.932,.275h.558c.126-.096,.248-.178,.374-.275Z" fill="#232323"/>
  <path d="M402.587,308.342c-1.864,1.014-3.702,2.081-5.532,3.148h.079c1.734-1.026,3.546-2.074,5.452-3.148Z" fill="#232323"/>
  <path d="M388.477,316.794c-1.166,.775-2.312,1.554-3.419,2.335,1.116-.764,2.278-1.541,3.496-2.335h-.077Z" fill="#232323"/>
  <path d="M449.115,285.504c.139-.108,.254-.196,.399-.309,0,0-.199,.117-.525,.309h.126Z" fill="#232323"/>
  <path d="M615.785,222.6c-.784,.765-1.582,1.476-2.36,2.266h.051c.76-.768,1.536-1.514,2.309-2.266Z" fill="#232323"/>
  <path d="M606.828,231.984c-.455,.516-.913,1.021-1.366,1.546h.009c.449-.519,.902-1.033,1.357-1.546Z" fill="#232323"/>
  <path d="M659.319,395.597h-2.364c-.346,.15-.675,.341-1.024,.487-2.033,.848-4.094,1.489-6.164,2.031h6.176c1.143-.805,2.273-1.636,3.375-2.518Z" fill="#232323"/>
  <path d="M634.99,206.67c.586-.406,1.184-.789,1.776-1.185-.593,.392-1.187,.781-1.776,1.185Z" fill="#232323"/>
  <path d="M716.231,198.879h.026c-.127-.134-.246-.284-.375-.415,.12,.122,.231,.286,.35,.415Z" fill="#232323"/>
  <path d="M130.089,459.856c1.114-.325,2.205-.696,3.278-1.105h-2.929c-.118,.368-.219,.741-.349,1.105Z" fill="#232323"/>
  <path d="M130.995,456.89h6.497c1.588-.81,3.143-1.694,4.642-2.71,1.904-1.291,3.645-2.662,5.272-4.09h-15.299c-.16,2.308-.528,4.584-1.113,6.8Z" fill="#232323"/>
  <path d="M132.187,448.133h17.219c2.126-2.105,4.046-4.315,5.623-6.705h-23.339c.377,2.24,.532,4.481,.497,6.705Z" fill="#232323"/>
  <path d="M131.034,438.291c.093,.361,.155,.725,.238,1.087h24.931c1.213-2.101,2.254-4.296,3.075-6.613h-30.366c.889,1.724,1.613,3.557,2.122,5.526Z" fill="#232323"/>
  <path d="M127.667,430.62h32.323c.613-2.083,1.052-4.265,1.369-6.518h-39.786c2.467,1.866,4.49,4.05,6.094,6.518Z" fill="#232323"/>
  <path d="M397.134,311.49h-.079c-1.495,.872-3.008,1.711-4.48,2.628-1.426,.888-2.753,1.783-4.098,2.677h.077c2.6-1.694,5.47-3.465,8.579-5.304Z" fill="#232323"/>
  <path d="M667.511,287.977c2.127,.376,4.257,.566,6.329,.566,4.789,0,9.44-1.037,14.128-3.039h-26.601c1.72,1.182,3.751,2.05,6.144,2.473Z" fill="#232323"/>
  <path d="M657.775,281.771h37.31c2.322-1.454,4.602-3.097,6.807-4.93h-46.039c.363,1.843,1.017,3.487,1.921,4.93Z" fill="#232323"/>
  <path d="M605.462,233.53c-.088,.102-.173,.215-.261,.317,.091-.105,.179-.213,.27-.317h-.009Z" fill="#232323"/>
  <path d="M613.426,224.866c-.704,.715-1.392,1.492-2.091,2.228,.712-.746,1.419-1.496,2.142-2.228h-.051Z" fill="#232323"/>
  <path d="M926.965,198.879h-3.92c.093,1.04,.178,2.083,.127,3.15,1.32-.925,2.577-2.006,3.793-3.15Z" fill="#232323"/>
  <polygon points="428.922 202.966 428.927 202.959 428.921 202.966 428.922 202.966" fill="#232323"/>
  <path d="M933.734,190.216h-13.341c.733,1.274,1.32,2.609,1.764,3.996h9.004c.952-1.275,1.814-2.609,2.573-3.996Z" fill="#232323"/>
  <path d="M887.671,183.12c1.135-.595,2.287-1.116,3.448-1.567h-.51c-1.059,.562-2.04,1.096-2.938,1.567Z" fill="#232323"/>
  <path d="M936.757,181.554h-25.877c2.125,.97,4.066,2.278,5.77,3.9h19.135c.433-1.286,.754-2.585,.972-3.9Z" fill="#232323"/>
  <path d="M849.669,86.267h-9.162c-1.425,.981-2.852,1.952-4.299,2.874h12.689l.772-2.874Z" fill="#232323"/>
  <path d="M851.996,77.603h-.072c-1.149,.96-2.309,1.867-3.467,2.782h2.792l.748-2.782Z" fill="#232323"/>
  <path d="M322.111,45.362c.036,.006,.071,.01,.107,.016,.074,.012,.147,.024,.221,.035-.057-.018-.114-.033-.171-.051h-.157Z" fill="#232323"/>
  <path d="M829.357,255.566c.049-.024,.106-.04,.155-.064h-.108c-.013,.016-.036,.05-.047,.064Z" fill="#232323"/>
  <polygon points="739.048 403.735 739.048 403.734 729.553 403.732 739.048 403.735" fill="#232323"/>
  <polygon points="936.322 172.491 936.312 172.485 936.313 172.488 936.322 172.491" fill="#232323"/>
  <path d="M431.854,198.879h.356c.108-.124,.207-.268,.315-.391-.23,.122-.442,.268-.671,.391Z" fill="#232323"/>
  <path d="M463.218,411.32c-.153-.015-.287-.06-.438-.079,.278,.105,.438,.079,.438,.079Z" fill="#232323"/>
  <path d="M648.062,198.879c3.281-1.708,6.615-3.275,10.017-4.668,.725-.297,1.428-.646,2.158-.928-8.208,3.102-16.045,7.238-23.471,12.202,1.332-.882,2.688-1.695,4.04-2.519,2.385-1.453,4.806-2.812,7.255-4.087Z" fill="#232323"/>
  <path d="M634.99,206.67c-1.812,1.254-3.597,2.56-5.358,3.908,1.377-1.048,2.766-2.056,4.164-3.037,.401-.281,.791-.595,1.194-.871Z" fill="#232323"/>
  <path d="M611.335,227.094c-1.528,1.601-3.034,3.228-4.507,4.89,.836-.948,1.69-1.83,2.533-2.748,.658-.715,1.312-1.445,1.974-2.142Z" fill="#232323"/>
  <path d="M618.244,220.239c-.829,.774-1.643,1.568-2.458,2.361,.734-.717,1.469-1.426,2.209-2.121,.084-.079,.166-.161,.25-.24Z" fill="#232323"/>
  <path d="M715.881,198.464c.049,.13,.072,.284,.12,.415h.23c-.119-.129-.229-.293-.35-.415Z" fill="#232323"/>
  <path d="M605.201,233.847c-2.132,2.47-4.216,4.988-6.227,7.569,.928-1.191,1.881-2.274,2.818-3.425,1.134-1.393,2.262-2.809,3.41-4.144Z" fill="#232323"/>
  <path d="M67.443,415.439c.688-.769,1.423-1.546,2.199-2.331h92.197c-.123-2.238-.449-4.331-.909-6.331H76.709c.987-.794,2.031-1.602,3.126-2.423h80.434c-.705-2.234-1.641-4.314-2.819-6.239H89.73c1.738-.913,3.488-1.754,5.248-2.518h60.75c-1.783-2.29-3.978-4.327-6.555-6.144h-33.239c17.767-3.065,32.119-.815,32.119-.815-.997-.648-2.018-1.24-3.055-1.797-6.513-3.497-13.822-5.213-22.241-5.213-1.02,0-2.047,.025-3.08,.072-9.51,.438-18.141,2.146-25.959,5.141-2.027,.776-3.986,1.66-5.904,2.611-3.532,1.752-6.885,3.796-10.057,6.144-1.086,.805-2.153,1.643-3.199,2.518-2.281,1.909-4.461,3.992-6.549,6.239-.735,.791-1.467,1.589-2.178,2.423-1.7,1.991-3.334,4.099-4.901,6.331-.085,.122-.177,.234-.262,.357-.454,.654-.827,1.318-1.26,1.974-1.402,2.127-2.687,4.269-3.861,6.426-.405,.744-.799,1.489-1.177,2.237-1.089,2.155-2.068,4.328-2.934,6.518-.283,.716-.611,1.424-.87,2.144-.786,2.185-1.461,4.389-2.03,6.613-.173,.677-.275,1.369-.428,2.05-.496,2.213-.887,4.448-1.171,6.705-.082,.65-.152,1.303-.216,1.957-.22,2.243-.337,4.51-.351,6.8-.004,.622-.042,1.236-.031,1.862,.04,2.271,.187,4.57,.426,6.892,.038,.369,.037,.728,.08,1.098,.027,.229,.071,.444,.1,.672,.301,2.41,.725,4.73,1.236,6.987,.126,.556,.228,1.129,.367,1.676,.623,2.455,1.409,4.799,2.294,7.079,.204,.525,.384,1.066,.602,1.583,1.055,2.498,2.296,4.879,3.684,7.174,.302,.5,.607,.999,.925,1.489,1.479,2.282,3.11,4.477,4.938,6.566-.802-1.426-1.545-2.892-2.228-4.399-.322-.711-.551-1.447-.842-2.167h-.088c-.206-.491-.408-.985-.608-1.489h.117c-.878-2.358-1.626-4.745-2.178-7.174h-.438c-.161-.527-.326-1.048-.479-1.583h.568c-.46-2.337-.737-4.701-.898-7.079h-1.412c-.115-.555-.211-1.117-.316-1.676h1.657c-.088-2.321-.044-4.65,.151-6.987h-2.838c-.063-.59-.126-1.18-.176-1.77h3.13c.262-2.299,.663-4.598,1.198-6.892h-4.595c.005-.623,.018-1.243,.04-1.862h5.079c.607-2.281,1.356-4.547,2.234-6.8h-6.69c.101-.658,.219-1.309,.344-1.957h7.116c.184-.431,.317-.869,.511-1.298,.856-1.897,1.807-3.679,2.8-5.407h-8.59c.076-.207,.133-.424,.212-.629,.186-.482,.364-.949,.544-1.421h9.036c1.502-2.382,3.143-4.586,4.919-6.613h-11.365c.297-.721,.601-1.436,.911-2.144h12.483c2.455-2.482,5.135-4.662,8.045-6.518h-17.239c.436-.746,.899-1.492,1.386-2.237h19.823c6.166-3.156,12.324-4.822,18.322-4.822,6.045,0,11.887,1.665,17.413,4.822h43.566c.197-2.071,.278-4.213,.239-6.426H67.443Z" fill="#232323"/>
  <path d="M449.514,285.195c-19.844,8.846-35.08,16.47-46.927,23.146-1.907,1.074-3.718,2.122-5.452,3.148-3.109,1.839-5.98,3.611-8.579,5.304-1.218,.794-2.381,1.571-3.496,2.335-18.919,12.951-23.458,21.675-27.632,29.279-.639,1.163-1.194,2.285-1.752,3.41-.501,1.01-.961,2.003-1.398,2.985-.878,1.972-1.637,3.896-2.258,5.77-.324,.975-.603,1.938-.858,2.892-.532,1.991-.944,3.948-1.182,5.865-.117,.94-.172,1.87-.219,2.798-.101,2.003-.072,3.988,.147,5.957,.1,.903,.245,1.804,.411,2.705,.045,.243,.061,.487,.111,.73,.391,1.915,.893,3.682,1.502,5.323,.337,.908,.705,1.781,1.112,2.611,1.148,2.338,2.583,4.371,4.326,6.144,.896,.912,1.896,1.738,2.96,2.518,.282,.206,.543,.427,.837,.625,5.295,3.565,11.195,5.298,18.036,5.298,3.432,0,7.068-.417,11.117-1.276,4.503-.954,8.886-2.479,13.316-4.648h-42.725c-.211-.529-.541-1.402-.928-2.518h48.296c2.971-1.744,5.987-3.774,9.099-6.144h-.558c-3.126,.961-6.314,1.471-9.524,1.471h0c-3.199,0-6.413-.513-9.584-1.471h-39.556c-.208-.831-.406-1.709-.596-2.611h34c-2.812-1.601-5.212-3.635-7.139-6.052h-27.832c-.096-.891-.173-1.792-.223-2.705h26.203c-1.087-1.829-1.928-3.825-2.539-5.957h-23.572c.055-.633,.109-1.266,.199-1.894,.043-.302,.117-.602,.166-.904h22.55c-.161-.908-.329-1.812-.406-2.761-.084-1.037-.107-2.071-.118-3.104h-20.703c.283-.97,.61-1.932,.954-2.892h19.831c.109-1.932,.326-3.856,.693-5.77h-18.059c.506-1.004,1.03-2.003,1.606-2.985h17.123c.501-1.905,1.161-3.797,1.919-5.678h-15.176c.808-1.048,1.662-2.072,2.559-3.077h13.971c.902-1.875,1.916-3.738,3.075-5.583h-11.59c1.108-1.044,2.283-2.105,3.489-3.172h10.285c1.332-1.907,2.727-3.738,4.189-5.491h-7.984c1.337-1.086,2.698-2.175,4.094-3.266h6.665c1.786-1.915,3.672-3.7,5.622-5.396h-5.174c1.523-1.127,3.06-2.247,4.608-3.359h4.747c.267-.2,.512-.432,.782-.628,2.154-1.564,4.331-3.117,6.501-4.676h-4.507c1.696-1.173,3.382-2.32,5.057-3.453h4.25c2.453-1.753,4.87-3.476,7.308-5.209h-3.734c1.874-1.228,3.696-2.408,5.467-3.546h3.253c.609-.433,1.236-.88,1.842-1.31,1.785-1.267,3.566-2.539,5.351-3.807h-2.375c2.142-1.34,4.115-2.56,5.874-3.638h1.614c1.156-.823,2.314-1.643,3.469-2.468,1.026-.734,2.114-1.574,3.37-2.554h-.126c.326-.192,.525-.309,.525-.309Z" fill="#232323"/>
  <path d="M431.854,198.879c-2.291,1.242-4.481,2.623-6.61,4.087-2.064,1.42-4.051,2.945-5.965,4.575-1.554,1.324-3.06,2.719-4.516,4.182-1.419,1.427-2.792,2.921-4.12,4.481-1.168,1.373-2.302,2.798-3.4,4.274-1.055,1.419-2.087,2.872-3.077,4.388-.932,1.426-1.861,2.857-2.736,4.369-.799,1.381-1.547,2.842-2.299,4.294-.313,.604-.652,1.169-.956,1.786-.447,.904-.793,1.787-1.16,2.675-.586,1.414-1.077,2.815-1.464,4.199-.427,1.53-.76,3.05-.948,4.556-.171,1.373-.256,2.742-.231,4.107,.002,.089-.013,.179-.011,.269,.037,1.306,.189,2.821,.542,4.38,.303,1.34,.759,2.709,1.439,4.014,.942,1.807,2.322,3.472,4.291,4.743,2.108,1.361,4.888,2.272,8.592,2.37,.403,.01,.803,.016,1.203,.016h.005c4.819,0,9.492-.812,14.136-2.386,.928-.315,1.857-.613,2.783-.993-1.184-1.131-2.261-2.388-3.238-3.751h-16.648c-1.715-1.03-3.109-2.353-4.014-4.014h18.279c-.144-.291-.306-.565-.442-.863-.573-1.257-1.077-2.519-1.513-3.785h-17.46c-.107-1.391-.126-2.76-.054-4.107h16.359c-.344-1.519-.562-3.038-.707-4.556h-15.092c.278-1.427,.633-2.827,1.076-4.199h13.85c.005-1.505,.047-2.995,.148-4.461h-12.293c.667-1.468,1.413-2.897,2.216-4.294h10.498c.203-1.478,.457-2.934,.763-4.369h-8.485c1.037-1.505,2.11-2.976,3.223-4.388h6.387c.43-1.45,.922-2.873,1.462-4.274h-4.302c1.347-1.558,2.686-3.059,3.976-4.481h2.279c.697-1.422,1.456-2.816,2.276-4.182h-.776c1.453-1.636,2.76-3.167,3.799-4.575,.002-.002,.004-.005,.006-.007,1.061-1.438,2.161-2.784,3.283-4.08h-.356Z" fill="#232323"/>
  <path d="M725.459,229.236c.051-1.442,.081-2.891,.034-4.369h-4.687c.229-.746,.453-1.431,.684-2.206,.215-.724,.323-1.453,.464-2.181h3.251c-.023-.237-.021-.465-.046-.703-.133-1.238-.308-2.427-.519-3.571h-2.225c.018-1.523-.084-3.022-.319-4.481h1.433c-.448-1.477-.951-2.882-1.529-4.182h-.94c-.533-1.634-1.162-3.192-1.918-4.575h.353c-.994-1.506-2.079-2.865-3.239-4.087h-.256c.465,1.291,.851,2.661,1.177,4.087,.331,1.448,.551,2.994,.733,4.575,.071,.61,.204,1.166,.252,1.795,.062,.821,.071,1.619,.043,2.387-.061,1.66-.295,3.163-.544,4.481-.096,.51-.195,1.007-.286,1.452l-.105,.511c-.157,.777-.369,1.541-.555,2.311-.355,1.474-.762,2.937-1.221,4.388-.465,1.467-.983,2.924-1.555,4.369-.571,1.441-1.195,2.873-1.874,4.294-.715,1.497-1.491,2.984-2.327,4.461-.797,1.407-1.649,2.807-2.557,4.199-.996,1.526-2.058,3.045-3.19,4.556-1.028,1.374-2.114,2.743-3.256,4.107-.512,.612-.992,1.226-1.527,1.836-.862,.982-1.736,1.911-2.618,2.812-1.416,1.448-2.865,2.771-4.337,4.014-2.122,1.791-4.308,3.369-6.562,4.743-2.567,1.565-5.22,2.88-7.981,3.92-1.346,.507-2.71,.972-4.107,1.357-2.357,.651-4.725,.98-7.036,.98-3.684,0-7.111-.83-10.163-2.337-.141-.07-.292-.12-.432-.192-.011,.064-.015,.128-.025,.192-.154,.931-.282,1.863-.368,2.797-.065,.708-.041,1.365-.044,2.039h3.903c3.47,2.741,10.02,4.649,21.488,0h25.149c1.539-1.521,3.026-3.129,4.442-4.835h-19.267c2.374-1.244,4.558-2.527,6.58-3.92h15.709c1.087-1.527,2.13-3.1,3.1-4.743h-13.033c1.212-1.209,2.358-2.562,3.474-4.014h11.742c.753-1.509,1.455-3.058,2.097-4.648h-10.671c.76-1.268,1.504-2.65,2.239-4.107h9.911c.485-1.487,.91-3.01,1.289-4.556h-9.08c.575-1.327,1.15-2.723,1.722-4.199h8.22c.256-1.464,.455-2.952,.609-4.461h-7.177c.484-1.378,.97-2.794,1.459-4.294h6.019Z" fill="#232323"/>
  <path d="M496.528,220.479h22.752c.01-1.464-.039-2.897-.193-4.274h-22.138c.023-1.385-.05-2.884-.276-4.245-.011-.067-.033-.166-.045-.236h21.61c-.383-1.457-.867-2.853-1.455-4.182h-21.202c-.467-1.262-.838-2.769-1.542-4.575h20.14c-1.055-1.477-2.271-2.84-3.639-4.087h-18.094c-.054-.139-.097-.249-.152-.391-.565-1.458-1.332-2.929-2.245-4.277h13.556c-2.256-1.108-4.717-2.037-7.424-2.73-1.94-.497-3.845-.896-5.743-1.266h-4.336c-1.006-.626-2.089-1.056-3.247-1.181,.359,.367,.663,.79,.999,1.181,1.056,1.229,2.016,2.549,2.828,3.996,.817,1.455,1.485,3.019,2.024,4.668,.284,.868,.569,1.736,.769,2.652,.106,.486,.171,.955,.263,1.435,.296,1.55,.521,3.075,.669,4.575,.14,1.409,.228,2.804,.238,4.182,.01,1.352-.023,2.697-.136,4.034-.013,.152-.041,.296-.055,.447-.129,1.445-.335,2.855-.522,4.274-.194,1.472-.387,2.941-.633,4.388-.25,1.468-.52,2.925-.812,4.369-.292,1.444-.6,2.872-.924,4.294-.34,1.491-.668,2.991-1.03,4.461-.348,1.413-.708,2.802-1.064,4.199-.232,.91-.461,1.832-.693,2.736-.156,.606-.304,1.215-.459,1.821-.351,1.367-.695,2.736-1.036,4.107-.156,.627-.322,1.25-.474,1.877-.229,.944-.497,1.866-.799,2.771-.462,1.385-1.031,2.715-1.667,4.014-.806,1.646-1.754,3.226-2.847,4.743-.975,1.354-2.067,2.66-3.275,3.92-1.067,1.112-2.198,2.2-3.45,3.245-.677,.564-1.39,1.05-2.079,1.591-1.705,1.337-3.423,2.627-5.181,3.827-1.646,1.124-3.298,2.232-4.963,3.25,.509-.07,1.021-.104,1.534-.104,1.957,0,3.921,.509,5.686,1.538,.127,.074,.235,.169,.358,.247,1.514,.963,2.735,2.247,3.622,3.733,.905,1.517,1.446,3.231,1.565,5.022,.051,.772,.053,1.553-.06,2.34-.064,.449-.15,.857-.219,1.298-.274,1.763-.574,3.472-.907,5.117-.244,1.208-.496,2.397-.761,3.546-.415,1.799-.843,3.543-1.278,5.209-.311,1.19-.619,2.324-.924,3.453-.089,.33-.182,.683-.27,1.008-.392,1.445-.762,2.869-1.134,4.297-.156,.599-.327,1.203-.476,1.802-.129,.52-.27,1.037-.4,1.557-.452,1.801-.924,3.598-1.387,5.396-.28,1.088-.557,2.178-.839,3.266-.475,1.829-.933,3.663-1.411,5.491,0,.003-.001,.005-.002,.008-.275,1.054-.539,2.11-.814,3.164-.485,1.86-.958,3.722-1.437,5.583-.264,1.026-.531,2.051-.792,3.077-.255,1.004-.524,2.004-.774,3.008-.229,.92-.527,1.789-.808,2.67-.325,1.019-.686,2.014-1.081,2.985-.816,2.009-1.753,3.942-2.881,5.77-.611,.99-1.293,1.947-2,2.892-.203,.271-.371,.557-.582,.825-1.398,1.776-2.825,3.435-4.267,5.041-.856,.953-1.711,1.904-2.584,2.798-2.112,2.163-4.283,4.131-6.502,5.957-.265,.218-.521,.459-.787,.672,.713,.027,1.433,.105,2.145,.234,1.559,.283,3.011,.919,4.306,1.798,.732,.497,1.427,1.05,2.03,1.712,1.3,1.429,2.176,2.902,2.811,4.34,.395,.893,.707,1.771,.919,2.611,.586,2.321,.592,4.366,.589,5.678,0,.175-.001,.322,0,.466,0,.054-.002,.13,0,.174,.085,.82,.246,1.58,.401,2.344,.48,2.357,1.255,4.465,2.363,6.239,.554,.888,1.188,1.692,1.889,2.423,2.364,2.464,5.545,3.994,9.39,4.464,.151,.018,.285,.064,.438,.079,1.904,.188,3.795,.284,5.621,.284,7.559,0,14.39-1.616,20.69-4.826h-30.009c-.307-.696-.624-1.497-.952-2.423h35.148c1.505-.981,2.99-2.026,4.435-3.211-2.573-.538-4.92-1.601-7.038-3.028h-34.366c-.162-.723-.32-1.569-.469-2.518h31.77c-1.724-1.733-3.199-3.781-4.337-6.144h-28.146c-.07-.861-.133-1.733-.182-2.611h27.249c-.428-1.213-.797-2.472-1.066-3.801-.149-.74-.216-1.499-.312-2.252h-25.983c.022-.95,.067-1.857,.138-2.705h25.602c-.085-1.954-.003-3.941,.256-5.957h-24.579c.246-.795,.539-1.73,.874-2.798h24.187c.155-.759,.276-1.512,.479-2.277,.317-1.195,.627-2.392,.942-3.588h-23.759c.293-.929,.595-1.89,.91-2.892h23.607c.504-1.924,1.012-3.846,1.515-5.77h-23.319c.305-.981,.612-1.974,.924-2.985h23.179c.491-1.88,.991-3.779,1.49-5.678h-22.935c.31-1.023,.619-2.05,.925-3.077h22.817c.492-1.863,.995-3.715,1.495-5.583h-22.668c.31-1.068,.614-2.127,.91-3.172h22.615c.495-1.832,.98-3.667,1.484-5.491h-22.579c.301-1.12,.589-2.213,.859-3.266h22.725c.601-1.847,1.257-3.656,2.01-5.396h-23.434c.265-1.193,.493-2.302,.671-3.294,.004-.021,.009-.044,.013-.065h24.354c.938-1.834,1.966-3.604,3.086-5.304h-26.32c.264-1.139,.536-2.291,.811-3.453h27.976c1.415-1.825,2.948-3.561,4.594-5.209h-31.386c.25-1.183,.475-2.366,.677-3.546h34.552c.009-.007,.016-.015,.025-.022-.879-1.542-1.667-3.243-2.329-5.095h-31.601c.094-1.226,.147-2.443,.119-3.638h30.438c-.368-1.584-.664-3.239-.812-5.022h-30.22c-.287-1.283-.688-2.53-1.224-3.733h31.331c.021-1.567,.164-3.223,.381-4.93h-30.282c1.408-1.394,2.684-2.647,3.863-3.827h27.063c.321-1.636,.667-3.253,1.056-4.835h-23.827c.911-1.217,1.72-2.492,2.396-3.92h22.445c.372-1.367,.736-2.752,1.113-4.089l.184-.655h-22.111c.193-.772,.399-1.513,.552-2.381,.081-.458,.207-1.05,.33-1.633h22.347c.436-1.556,.871-3.111,1.292-4.648h-22.584c.302-1.278,.624-2.651,.965-4.107h22.701c.399-1.52,.808-3.045,1.178-4.556h-22.842c.305-1.378,.602-2.775,.891-4.199h22.89c.33-1.486,.685-2.974,.971-4.461h-23.014c.256-1.452,.482-2.883,.678-4.294h23.03c.194-1.221,.436-2.434,.592-3.661,.031-.24,.038-.47,.065-.708h-23.07c.203-1.357,.397-3.103,.575-4.388Z" fill="#232323"/>
  <g>
    <path d="M662.475,392.973c-1.8,.967-3.652,1.813-5.519,2.625h2.364c1.065-.851,2.129-1.703,3.156-2.625Z" fill="#232323"/>
    <g>
      <path d="M614.265,410.763c2.957,0,6.072-.179,9.259-.533,5.428-.602,10.602-1.767,15.523-3.453h-46.802c6.749,2.64,13.956,3.986,22.019,3.986Z" fill="#232323"/>
      <path d="M663.666,192.036c-.9,.309-1.807,.636-2.719,.981-.191,.072-.379,.132-.571,.206-.047,.018-.092,.042-.14,.06-.73,.283-1.434,.632-2.158,.928-3.402,1.393-6.736,2.96-10.017,4.668-2.449,1.275-4.87,2.634-7.255,4.087-1.352,.824-2.708,1.637-4.04,2.519-.592,.396-1.19,.779-1.776,1.185-.402,.276-.793,.589-1.194,.871-1.398,.981-2.787,1.99-4.164,3.037-.519,.395-1.054,.741-1.57,1.145-.631,.494-1.241,1.054-1.868,1.562-.756,.614-1.502,1.261-2.252,1.895-.405,.342-.813,.675-1.215,1.023-1.506,1.302-3.002,2.647-4.484,4.035-.084,.078-.166,.161-.25,.24-.74,.695-1.475,1.405-2.209,2.121-.772,.752-1.549,1.498-2.309,2.266-.723,.731-1.43,1.482-2.142,2.228-.662,.697-1.316,1.426-1.974,2.142-.844,.918-1.697,1.8-2.533,2.748-.455,.513-.907,1.027-1.357,1.546-.091,.105-.179,.212-.27,.317-1.147,1.335-2.276,2.751-3.41,4.144-.937,1.151-1.89,2.234-2.818,3.425-.198,.253-.38,.519-.576,.774-1.148,1.496-2.27,3.013-3.356,4.556-.952,1.354-1.883,2.723-2.791,4.107-1.006,1.533-1.98,3.085-2.936,4.648-.813,1.329-1.601,2.668-2.38,4.014-.912,1.574-1.803,3.154-2.673,4.743-.715,1.305-1.422,2.61-2.111,3.92-.848,1.611-1.681,3.223-2.495,4.835-.644,1.277-1.281,2.553-1.906,3.827-.81,1.651-1.605,3.294-2.389,4.93-.148,.308-.301,.62-.448,.928-.468,.983-1.003,1.865-1.5,2.805-.919,1.74-1.877,3.425-2.895,5.022-.791,1.242-1.586,2.479-2.44,3.638-1.328,1.803-2.734,3.508-4.22,5.117-1.155,1.251-2.393,2.408-3.647,3.546-.5,.454-.954,.957-1.47,1.394,.527,1.264,.946,2.54,1.317,3.816,.335,1.153,.625,2.305,.853,3.453,.356,1.792,.601,3.569,.753,5.304,.1,1.143,.158,2.26,.196,3.359,.045,1.315,.061,2.603,.049,3.831-.006,.538-.029,1.038-.039,1.565-.021,1.101-.041,2.205-.082,3.266-.074,1.89-.18,3.718-.319,5.491-.085,1.081-.19,2.129-.3,3.172-.196,1.877-.418,3.715-.695,5.484-.005,.033-.007,.066-.012,.099-.158,1.026-.268,2.052-.362,3.077-.173,1.901-.234,3.795-.218,5.678,.009,1,.03,1.996,.083,2.985,.104,1.951,.287,3.877,.527,5.77,.124,.976,.263,1.937,.413,2.892,.316,2.011,.674,3.969,1.06,5.865,.148,.726,.295,1.457,.447,2.163,.048,.221,.121,.417,.17,.636,.467,2.069,1.021,4.055,1.664,5.957,.316,.934,.693,1.81,1.052,2.705,.85,2.123,1.807,4.149,2.9,6.052,.515,.896,1.062,1.764,1.631,2.611,1.483,2.21,3.15,4.258,5.006,6.144,.862,.876,1.773,1.71,2.716,2.518,2.765,2.367,5.876,4.448,9.35,6.239,1.228,.633,2.439,1.28,3.757,1.843,0,0-.737-.631-1.926-1.843h56.394c3.787-1.724,7.386-3.822,10.819-6.239h-6.176c-3.615,.946-7.269,1.477-10.933,1.477h-.002c-3.643,0-7.256-.531-10.763-1.477h-44.655c-.592-.784-1.193-1.623-1.81-2.518h39.513c-3.531-1.619-6.867-3.684-9.902-6.144h-33.404c-.468-.846-.931-1.704-1.387-2.611h31.847c-1.936-1.859-3.719-3.878-5.304-6.052h-29.24c-.348-.88-.678-1.782-1.002-2.705h28.42c-1.18-1.897-2.218-3.886-3.094-5.957h-27.123c-.237-.921-.47-1.842-.677-2.798h26.76c-.706-1.956-1.307-3.911-1.799-5.865h-25.963c-.127-.952-.244-1.91-.336-2.892h25.601c-.392-1.928-.684-3.851-.908-5.77h-25.104c-.046-1.031-.06-2.003-.081-2.985h24.9c-.147-1.901-.238-3.795-.26-5.678h-24.642c.028-1.062,.077-2.074,.13-3.077h24.534c.035-1.874,.111-3.735,.229-5.583h-24.343c.108-1.09,.222-2.149,.347-3.172h24.217c.12-1.431,.249-2.858,.397-4.269,.043-.416,.129-.811,.181-1.222h-24.048c.166-1.125,.329-2.206,.486-3.266h24.044c.348-1.852,.801-3.646,1.332-5.396h-24.661c.124-1.137,.217-2.255,.274-3.359h25.527c.707-1.838,1.541-3.598,2.459-5.304h-28.053c-.08-.918-.189-1.84-.354-2.775,.187-.223,.351-.453,.534-.678h29.92c1.209-1.833,2.573-3.561,4.047-5.209h-30.176c.758-1.17,1.463-2.354,2.137-3.546h31.561c.296-.267,.562-.556,.866-.817-.603-1.403-1.057-2.843-1.443-4.3h-28.316c.578-1.208,1.127-2.421,1.659-3.638h25.931c-.227-1.642-.359-3.31-.328-5.022h-23.492c.505-1.246,1.001-2.49,1.496-3.733h22.255c.197-1.608,.541-3.259,.953-4.93h-21.217c.531-1.285,1.08-2.559,1.643-3.827h20.685c.267-.802,.516-1.598,.83-2.414,.308-.801,.596-1.611,.885-2.421h-20.108c.678-1.326,1.407-2.631,2.172-3.92h19.419c.391-.972,.795-1.956,1.28-2.956,.298-.614,.599-1.182,.898-1.788h-18.594c.878-1.342,1.773-2.679,2.688-4.014h17.922c.8-1.573,1.603-3.128,2.408-4.648h-17.067c.991-1.374,1.985-2.748,3.009-4.107h16.27c.851-1.549,1.709-3.061,2.568-4.556h-15.311c1.117-1.415,2.254-2.81,3.399-4.199h14.348c.915-1.527,1.845-2.989,2.771-4.461h-13.354c1.252-1.451,2.513-2.882,3.787-4.294h12.32c.982-1.484,1.972-2.94,2.971-4.369h-11.259c.958-1.014,1.913-2.036,2.878-3.023,.459-.47,.944-.91,1.416-1.364h10.139c1.07-1.446,2.146-2.882,3.239-4.274h-8.583c1.856-1.533,3.757-3.015,5.673-4.481h6.516c1.196-1.429,2.422-2.807,3.649-4.182h-4.739c1.875-1.472,3.713-2.99,5.495-4.575h3.466c1.314-1.357,2.709-2.719,4.196-4.087h-2.366c2.111-1.457,4.69-3.17,7.023-4.668h.844c1.626-1.243,3.341-2.443,5.15-3.573-1.486,.427-2.956,.904-4.419,1.398Z" fill="#232323"/>
    </g>
  </g>
  <path d="M937.021,175.912c-.104-.981-.311-2.004-.6-3.02h-21.52c13.888-2.92,21.208-.179,21.413-.404,0,0-.747-2.869-3.175-5.049-1.893-1.7-4.952-2.86-9.775-2.86-5.054,0-10.062,1.105-15.351,3.364-2.436,1.04-4.926,2.302-7.517,3.855-.568,.34-1.104,.735-1.662,1.093-1.84,1.183-3.625,2.455-5.359,3.809-1.978,1.544-3.913,3.151-5.765,4.853-1.382,1.27-2.733,2.571-4.051,3.896,1.341-.854,2.673-1.626,4.014-2.329,.898-.471,1.88-1.004,2.938-1.567,2.687-1.427,6.087-3.102,10.971-4.853h35.449c-.017-.263,.018-.526-.009-.789Z" fill="#232323"/>
  <path d="M825.376,176.7l1.023-3.809h-18.955c.475-1.649,.951-3.299,1.427-4.948h18.857l.998-3.713h-18.784c.486-1.686,.971-3.367,1.454-5.042h18.684l.973-3.622h-18.612c.497-1.722,.991-3.435,1.482-5.134h18.509l.948-3.53h-18.438c.509-1.762,1.012-3.504,1.51-5.227h18.332l.923-3.435h-18.263c.521-1.804,1.033-3.577,1.537-5.321h18.155l.898-3.343h-18.088c.534-1.848,1.057-3.656,1.564-5.413h17.977l.873-3.248h-17.911c.551-1.907,1.083-3.745,1.592-5.508h17.798l.848-3.156h-17.734c.574-1.985,1.118-3.866,1.621-5.601h17.617l.823-3.061h-17.555c.633-2.19,1.188-4.104,1.648-5.695h17.437l.798-2.969h-17.375c.454-1.569,.704-2.433,.704-2.433-1.483,.852-2.949,1.648-4.413,2.433-1.945,1.043-3.881,2.038-5.806,2.969-3.747,1.81-7.472,3.426-11.226,4.843,.08,.287,.119,.566,.189,.852,.256,1.033,.462,2.053,.609,3.061,.283,1.934,.403,3.817,.38,5.601-.014,1.094-.079,2.141-.17,3.156-.184,2.047-.485,3.894-.807,5.508-.215,1.08-.434,2.082-.623,2.913-.025,.109-.053,.225-.078,.334-.399,1.745-.83,3.557-1.281,5.413-.266,1.093-.54,2.205-.825,3.343-.43,1.713-.886,3.49-1.365,5.321-.196,.748-.383,1.474-.587,2.243l-.316,1.191-1.386,5.227-.937,3.53-.005,.02c-.449,1.692-.907,3.417-1.357,5.114-.319,1.202-.641,2.418-.96,3.622-.445,1.676-.892,3.362-1.338,5.042-.328,1.237-.656,2.474-.985,3.713-.438,1.652-.874,3.293-1.313,4.948-.338,1.274-.672,2.533-1.01,3.809-.431,1.622-.857,3.228-1.288,4.853-.344,1.295-.691,2.604-1.036,3.9-.42,1.583-.843,3.176-1.264,4.761-.353,1.33-.707,2.664-1.061,3.996-.413,1.556-.826,3.11-1.24,4.668-.362,1.364-.723,2.722-1.085,4.087-.406,1.527-.809,3.046-1.215,4.575-.371,1.397-.74,2.785-1.111,4.182-.397,1.492-.795,2.988-1.192,4.481-.378,1.424-.758,2.85-1.137,4.274-.389,1.462-.778,2.925-1.167,4.388-.387,1.457-.775,2.912-1.162,4.369-.381,1.432-.761,2.862-1.142,4.294-.396,1.488-.791,2.974-1.187,4.461-.373,1.4-.745,2.799-1.117,4.199-.406,1.522-.81,3.035-1.215,4.556-.366,1.371-.73,2.736-1.095,4.107-.414,1.551-.827,3.098-1.24,4.648-.357,1.339-.714,2.676-1.071,4.014-.422,1.581-.844,3.164-1.265,4.743-.348,1.305-.697,2.616-1.046,3.92-.34,1.274-.682,2.557-1.021,3.829-.092,.343-.209,.666-.304,1.006-.365,1.294-.736,2.582-1.159,3.827-.576,1.693-1.215,3.331-1.898,4.93-.544,1.273-1.116,2.52-1.728,3.733-.877,1.74-1.837,3.406-2.852,5.022-.784,1.249-1.606,2.464-2.472,3.638-1.328,1.799-2.768,3.496-4.287,5.117-1.155,1.232-2.359,2.417-3.624,3.546-.321,.287-.619,.596-.948,.876,.781,1.401,1.42,2.853,1.975,4.333,.424,1.131,.798,2.279,1.089,3.453,.427,1.724,.697,3.496,.835,5.304,.084,1.106,.123,2.225,.098,3.359-.039,1.766-.226,3.568-.531,5.396-.07,.417-.115,.828-.198,1.248-.133,.669-.301,1.347-.437,2.018-.372,1.824-.794,3.661-1.19,5.491-.229,1.058-.451,2.113-.687,3.172-.416,1.863-.797,3.716-1.237,5.583-.241,1.023-.524,2.052-.773,3.077-.458,1.89-.943,3.784-1.426,5.678-.254,.996-.489,1.989-.75,2.985-.503,1.923-1.013,3.844-1.541,5.77-.264,.963-.555,1.928-.825,2.892-.548,1.955-1.099,3.909-1.672,5.865-.274,.933-.519,1.865-.798,2.798-.594,1.987-1.234,3.971-1.853,5.957-.281,.902-.576,1.803-.863,2.705-.641,2.018-1.264,4.036-1.931,6.052-.256,.775-.482,1.552-.742,2.327-.033,.098-.076,.187-.11,.284-.744,2.167-1.639,4.201-2.597,6.144-.425,.862-.853,1.703-1.302,2.518-1.108,2.01-2.264,3.908-3.41,5.617h9.495s10.372,.002,10.372,.002l22.57-.003c-.45-1.896-.746-3.764-.975-5.616h-29.612c.317-.771,.659-1.611,1.025-2.518h28.335c-.158-2.089-.207-4.139-.146-6.144h-25.751c.327-.84,.665-1.717,1.008-2.611h24.877c.148-2.081,.386-4.098,.693-6.052h-23.292c.327-.886,.657-1.787,.99-2.705h22.756c.399-2.091,.86-4.066,1.335-5.957h-21.968c.321-.921,.642-1.858,.963-2.798h21.724c.512-1.951,1.037-3.909,1.554-5.865h-21.325c.312-.961,.624-1.921,.931-2.892h21.16c.51-1.925,1.016-3.846,1.529-5.77h-20.927c.295-.995,.588-1.989,.873-2.985h20.845c.509-1.905,1.01-3.779,1.519-5.678h-20.809c.27-1.029,.534-2.054,.788-3.077h20.849c.502-1.869,1.001-3.725,1.501-5.583h-21.043c.234-1.067,.452-2.123,.661-3.172h21.235c.457-1.695,.921-3.43,1.374-5.111,.034-.127,.068-.253,.102-.38h-21.714c.176-1.108,.327-2.193,.465-3.266h22.127c.484-1.798,.966-3.598,1.45-5.396h-23.05c.076-1.153,.121-2.272,.136-3.359h23.817c.475-1.768,.951-3.536,1.425-5.304h-25.452c-.13-1.228-.332-2.37-.585-3.453h26.965c.134-.5,.269-.998,.403-1.498,.344-1.289,.743-2.519,1.18-3.711h-26.283c.627-.984,1.357-2.181,2.152-3.546h25.651c.88-1.805,1.875-3.515,3.03-5.117h-25.882c.587-1.133,1.188-2.346,1.807-3.638h26.674c1.201-1.672,2.398-3.347,3.593-5.022h-27.984c.513-1.189,1.028-2.439,1.546-3.733h29.108c.452-.634,.908-1.265,1.359-1.9,.72-1.012,1.447-2.019,2.167-3.03h-30.758c.451-1.242,.899-2.503,1.344-3.827h32.15c1.152-1.613,2.3-3.227,3.458-4.835h-34.048c.383-1.258,.751-2.597,1.122-3.92h35.935c1.133-1.334,2.328-2.607,3.662-3.746-1.256,.302-2.464,.41-3.553,.41-.694,0-1.409-.046-2.126-.137-1.365-.173-2.646-.64-3.836-1.27h-28.821c.336-1.326,.678-2.628,.999-4.014h23.509c-.882-1.429-1.414-3.01-1.599-4.648h-20.92c.191-.921,.397-1.794,.58-2.739,.032-.167,.154-.64,.35-1.369h20.245c.007-.028,.006-.057,.014-.085l1.201-4.472h-20.197c.345-1.232,.743-2.64,1.184-4.199h20.141l1.199-4.461h-20.074c.386-1.357,.793-2.788,1.223-4.294h20.004l1.174-4.369h-19.931c.404-1.412,.825-2.884,1.256-4.388h19.854l1.148-4.274h-19.778c.418-1.459,.848-2.959,1.286-4.481h19.696l1.124-4.182h-19.62c.431-1.501,.87-3.029,1.314-4.575h19.534l1.098-4.087h-19.457c.443-1.541,.89-3.095,1.342-4.668h19.369l1.074-3.996h-19.292c.454-1.575,.912-3.166,1.371-4.761h19.201l1.048-3.9h-19.125c.465-1.613,.931-3.23,1.398-4.853h19.03Z" fill="#232323"/>
  <g>
    <path d="M889.244,242.19h-24.778c-.25,.09-.492,.153-.745,.247l-.221,.105c-1.229,.586-3.786,1.807-7.129,1.807-2.598,0-5.11-.768-7.345-2.159h-10.736c-1.018,1.493-2.042,3.027-3.064,4.556h58.563c-1.199-1.836-2.722-3.375-4.546-4.556Z" fill="#232323"/>
    <path d="M843.679,234.396c-.825,1.169-1.657,2.403-2.485,3.595h3.786c-.619-1.116-1.087-2.318-1.301-3.595Z" fill="#232323"/>
    <path d="M896.855,259.515h-28.815c-.62-1.442-1.354-2.796-2.26-4.014h30.892c-.141-1.666-.496-3.198-.969-4.648h-35.183c-2.346-1.374-5.13-2.377-8.505-2.859-2.231-.319-15.027,.02-18.897,1.924-.002,.001-.005,.002-.007,.003-.011,.02-.039,.063-.052,.087-.188,.284-.374,.56-.562,.846-.54,.822-1.075,1.603-1.617,2.435l.036-.045c-.478,.84-.987,1.586-1.518,2.259h.112c3.075-1.484,6.498-2.671,10.307-3.557,1.648-.385,3.304-.579,4.919-.579,4.525,0,8.581,1.507,11.837,4.137,1.395,1.127,2.61,2.487,3.674,4.014,1.001,1.437,1.882,2.996,2.538,4.743,.403,1.074,.747,2.194,1.005,3.371,.039,.181,.054,.367,.089,.549,.311,1.569,.486,3.171,.528,4.835,.031,1.237,.011,2.5-.107,3.827-.097,1.098-.244,2.232-.443,3.412-.084,.501-.211,1.015-.305,1.519-.231,1.239-.46,2.477-.748,3.733-.38,1.653-.826,3.33-1.308,5.022-.341,1.197-.735,2.418-1.128,3.638-.542,1.679-1.133,3.386-1.776,5.117-.437,1.176-.856,2.342-1.341,3.546-.022,.054-.039,.106-.061,.16-.682,1.685-1.389,3.364-2.083,5.049-.475,1.152-.946,2.303-1.425,3.453-.741,1.779-1.47,3.538-2.214,5.304-.475,1.127-.946,2.24-1.42,3.359-.704,1.663-1.412,3.35-2.108,4.991-.057,.134-.114,.271-.171,.405-.458,1.081-.92,2.18-1.38,3.266-.774,1.826-1.546,3.652-2.32,5.491-.444,1.057-.883,2.112-1.326,3.172-.774,1.854-1.537,3.719-2.302,5.583-.422,1.027-.851,2.047-1.269,3.077-.766,1.888-1.499,3.784-2.247,5.678-.393,.995-.785,1.989-1.172,2.985-.745,1.923-1.477,3.843-2.195,5.77-.359,.963-.698,1.928-1.049,2.892-.712,1.955-1.452,3.909-2.127,5.865-.01,.028-.021,.057-.031,.086-.309,.896-.611,1.803-.909,2.712-.641,1.957-1.24,3.946-1.78,5.957-.241,.897-.462,1.799-.672,2.705-.465,2-.842,4.018-1.11,6.052-.114,.868-.219,1.738-.288,2.611-.162,2.039-.197,4.089-.066,6.144,.006,.084,.001,.168,.007,.253,.056,.799,.148,1.548,.267,2.265,.419,2.538,1.26,4.57,2.57,6.239,.711,.906,1.548,1.717,2.561,2.423,1.086,.757,2.344,1.414,3.809,1.986,4.059,1.584,8.484,2.421,12.796,2.421,.523,0,1.044-.012,1.565-.036,7.451-.345,13.803-1.786,19.197-4.371h-34.1c-.15-.647-.31-1.476-.465-2.423h38.789c1.409-.935,2.767-1.934,4.023-3.068-.504-.028-1.009-.071-1.515-.127-3.431-.379-6.453-1.463-9.052-3.045h-32.836c-.03-.802-.044-1.634-.039-2.518h29.54c-1.783-1.721-3.209-3.785-4.227-6.144h-24.978c.086-.839,.212-1.725,.337-2.611h23.723c-.365-1.297-.645-2.646-.781-4.074-.062-.655-.051-1.319-.08-1.978h-21.742c.201-.887,.414-1.784,.657-2.705h21.02c.046-1.975,.272-3.963,.605-5.957h-19.807c.315-.917,.666-1.855,1.025-2.798h19.312c.299-1.276,.631-2.552,1.046-3.829,.217-.667,.46-1.364,.682-2.036h-18.591c.071-.154,.125-.3,.196-.455,.373-.803,.704-1.624,1.053-2.437h18.309c.638-1.903,1.285-3.819,1.963-5.77h-17.949c.375-.994,.751-1.988,1.119-2.985h17.885c.663-1.877,1.324-3.751,2.025-5.678h-17.776c.179-.465,.349-.935,.532-1.398,.198-.502,.429-1.063,.686-1.679h17.699c.684-1.854,1.347-3.677,2.068-5.583h-17.361c.436-1.002,.894-2.056,1.377-3.172h17.209c.694-1.812,1.391-3.627,2.12-5.491h-16.981c.447-1.06,.9-2.147,1.361-3.266h16.958c.783-1.859,1.627-3.657,2.532-5.396h-17.307c.434-1.101,.868-2.225,1.301-3.359h17.868c1.091-1.842,2.252-3.613,3.49-5.304h-19.4c.41-1.143,.815-2.292,1.211-3.453h20.911c1.555-1.838,3.201-3.579,4.95-5.209h-24.16c.37-1.18,.727-2.361,1.073-3.546h27.276c.724-.561,1.434-1.139,2.186-1.669-.357-1.084-.653-2.233-.861-3.448h-27.203c.311-1.217,.601-2.429,.875-3.638h26.011c0-.067-.017-.125-.017-.193l-.013-1.723c-.01-1.003-.016-2.045-.01-3.107h-24.947c.225-1.257,.42-2.501,.589-3.733h24.472c.095-1.591,.306-3.246,.595-4.93h-24.532c.092-1.301,.139-2.576,.147-3.827h25.147c.363-1.578,.645-3.192,.86-4.835h-26.242c-.134-1.354-.331-2.663-.604-3.92h27.225c.091-1.544,.121-3.125,.092-4.743Z" fill="#232323"/>
  </g>
  <path d="M370.465,80.973c-3.758,1.652-7.35,3.422-10.816,5.294-1.719,.928-3.397,1.889-5.047,2.874-3.061,1.826-5.999,3.76-8.837,5.788-1.353,.967-2.686,1.954-3.991,2.969-2.341,1.821-4.61,3.716-6.803,5.695-1.104,.997-2.184,2.023-3.252,3.061-.711,.691-1.439,1.363-2.135,2.072-1.116,1.138-2.192,2.335-3.27,3.529-.928,1.028-1.839,2.085-2.739,3.156-1.492,1.775-2.947,3.612-4.367,5.508-.805,1.075-1.621,2.132-2.404,3.248-1.229,1.752-2.428,3.56-3.602,5.413-.687,1.085-1.347,2.223-2.016,3.343-1.035,1.732-2.05,3.503-3.042,5.321-.619,1.135-1.24,2.266-1.843,3.435-.876,1.698-1.724,3.456-2.566,5.227-.555,1.167-1.111,2.331-1.651,3.53-.757,1.679-1.5,3.39-2.23,5.134-.147,.351-.303,.679-.448,1.032-.353,.856-.662,1.729-1.005,2.589-.667,1.676-1.328,3.353-1.957,5.042-.459,1.235-.899,2.473-1.339,3.713-.583,1.647-1.157,3.295-1.707,4.948-.423,1.269-.835,2.537-1.239,3.809-.514,1.617-1.013,3.235-1.499,4.853-.391,1.302-.779,2.6-1.152,3.9-.457,1.59-.894,3.176-1.327,4.761-.364,1.335-.731,2.666-1.079,3.996-.409,1.562-.797,3.115-1.185,4.668-.341,1.366-.688,2.731-1.015,4.087-.369,1.536-.719,3.054-1.071,4.575-.324,1.399-.654,2.799-.964,4.182-.338,1.509-.659,2.993-.983,4.481-.311,1.432-.627,2.864-.926,4.274-.315,1.481-.617,2.933-.919,4.388-.198,.95-.407,1.927-.6,2.865-.103,.501-.202,1.003-.305,1.504-.294,1.431-.58,2.863-.872,4.294-.303,1.487-.605,2.974-.905,4.461-.283,1.4-.57,2.799-.852,4.199-.196,.973-.397,1.946-.593,2.92-.108,.539-.222,1.096-.331,1.637-.273,1.357-.555,2.739-.831,4.107-.313,1.549-.624,3.09-.94,4.648-.273,1.343-.542,2.666-.818,4.014-.324,1.582-.659,3.16-.988,4.743-.271,1.308-.542,2.614-.816,3.92-.269,1.279-.527,2.563-.799,3.837-.073,.342-.174,.66-.252,.998-.296,1.296-.603,2.584-.965,3.827-.493,1.694-1.048,3.337-1.663,4.93-.494,1.281-1.041,2.518-1.613,3.733-.82,1.741-1.716,3.418-2.696,5.022-.765,1.252-1.57,2.469-2.431,3.638-1.34,1.818-2.83,3.504-4.402,5.117-1.211,1.242-2.487,2.427-3.835,3.546-.411,.342-.794,.71-1.218,1.04,.886,1.342,1.643,2.742,2.336,4.169,.547,1.127,1.038,2.277,1.464,3.453,.623,1.72,1.111,3.49,1.47,5.304,.218,1.104,.386,2.224,.506,3.359,.186,1.766,.273,3.562,.217,5.396-.031,1.012-.087,2.031-.192,3.061-.007,.069-.019,.135-.026,.204-.197,1.873-.464,3.7-.76,5.491-.178,1.074-.358,2.147-.557,3.172-.388,2.002-.799,3.845-1.206,5.583-.181,.773-.364,1.572-.537,2.277-.065,.265-.141,.534-.207,.8-.462,1.885-.988,3.788-1.467,5.678-.252,.994-.515,1.99-.772,2.985-.496,1.924-.978,3.842-1.491,5.77-.257,.966-.486,1.924-.747,2.892-.528,1.952-1.094,3.91-1.639,5.865-.26,.931-.538,1.866-.801,2.798-.561,1.984-1.128,3.969-1.706,5.957-.263,.903-.509,1.802-.775,2.705-.595,2.018-1.181,4.032-1.794,6.052-.264,.87-.553,1.741-.82,2.611-.629,2.047-1.284,4.096-1.93,6.144-.265,.839-.523,1.678-.791,2.518-.664,2.081-1.278,4.158-1.96,6.239-.265,.808-.558,1.615-.825,2.423-.699,2.112-1.446,4.22-2.164,6.331-.264,.777-.53,1.554-.797,2.331-.735,2.142-1.442,4.286-2.196,6.426-.263,.745-.5,1.492-.765,2.237-.017,.048-.032,.097-.05,.145-.762,2.143-1.594,4.25-2.395,6.373-.269,.714-.532,1.432-.806,2.144-.852,2.217-1.722,4.42-2.616,6.613-.28,.687-.572,1.366-.855,2.05-.929,2.239-1.833,4.495-2.804,6.705-.29,.66-.607,1.299-.901,1.957-1.02,2.285-2.066,4.55-3.13,6.8-.291,.616-.563,1.248-.857,1.862-1.118,2.329-2.291,4.605-3.454,6.892-.3,.589-.593,1.184-.895,1.77-.547,1.06-1.062,2.149-1.618,3.199-.687,1.297-1.42,2.531-2.136,3.788-.317,.556-.623,1.128-.945,1.676-1.428,2.43-2.898,4.802-4.436,7.079-.365,.54-.752,1.051-1.123,1.583-1.739,2.491-3.556,4.874-5.43,7.174-.405,.497-.804,1.002-1.215,1.489-2.141,2.541-4.361,4.968-6.671,7.266-.479,.477-.975,.93-1.462,1.396-2.722,2.61-5.538,5.082-8.484,7.361-.58,.449-1.183,.864-1.772,1.301-1.026,.76-2.035,1.546-3.088,2.266,.057-.021,.114-.042,.171-.062,1.905-.696,3.784-1.435,5.644-2.204h-.443c.83-.401,1.601-.867,2.402-1.301h1.04c4.96-2.184,9.759-4.637,14.406-7.361h-4.603c.542-.455,1.044-.93,1.567-1.396h5.418c3.655-2.241,7.204-4.676,10.671-7.266h-8.897c.434-.497,.874-.992,1.29-1.489h9.567c2.922-2.262,5.777-4.654,8.569-7.174h-12.669c.372-.536,.725-1.058,1.076-1.583h13.343c2.423-2.256,4.793-4.622,7.122-7.079h-16.083c.328-.573,.66-1.146,.954-1.676h16.699c2.068-2.244,4.097-4.578,6.092-6.987h-18.948c.397-.578,.751-1.186,1.139-1.77h19.275c1.794-2.222,3.551-4.532,5.287-6.892h-20.22c.359-.61,.694-1.245,1.046-1.862h20.54c.218-.303,.442-.592,.659-.898,1.364-1.92,2.685-3.91,4.005-5.902h-21.488c.33-.642,.645-1.307,.97-1.957h21.84c1.412-2.18,2.786-4.432,4.152-6.705h-22.75c.308-.672,.606-1.37,.911-2.05h23.071c1.265-2.155,2.507-4.368,3.737-6.613h-23.914c.293-.7,.58-1.435,.871-2.144h24.214c1.137-2.124,2.254-4.308,3.363-6.518h-24.936c.283-.726,.566-1.502,.849-2.237h25.22c1.026-2.088,2.029-4.258,3.033-6.426h-25.814c.287-.773,.578-1.547,.867-2.331h26.048c.931-2.053,1.84-4.203,2.755-6.331h-26.505c.294-.816,.583-1.595,.879-2.423h26.674c.856-2.034,1.702-4.135,2.546-6.239h-26.997c.297-.837,.594-1.67,.894-2.518h27.106c.795-2.021,1.59-4.056,2.375-6.144h-27.351c.299-.866,.58-1.742,.873-2.611h27.438c.742-2.009,1.49-3.98,2.225-6.052h-27.638c.29-.903,.584-1.8,.869-2.705h27.688c.684-1.975,1.337-3.966,1.992-5.957h-27.876c.281-.933,.572-1.865,.848-2.798h27.965c.628-1.953,1.229-3.905,1.831-5.865h-28.085c.276-.967,.54-1.927,.811-2.892h28.15c.58-1.925,1.189-3.847,1.748-5.77h-28.28c.273-1.001,.543-1.989,.812-2.985h28.307c.542-1.899,1.068-3.789,1.592-5.678h-28.389c.271-1.024,.551-2.06,.818-3.077h28.433c.513-1.878,1.004-3.721,1.501-5.583h-28.466c.279-1.076,.549-2.137,.795-3.172h28.515c.438-1.656,.896-3.343,1.324-4.979,.046-.175,.106-.338,.153-.512h-28.91c.162-1.102,.28-2.19,.34-3.266h29.546c.602-1.854,1.263-3.66,2.008-5.396h-31.793c-.18-1.12-.466-2.238-.836-3.359h34.206c.935-1.846,1.97-3.608,3.082-5.304h-39.836c-.663-1.048-1.399-2.104-2.282-3.178,.082-.092,.155-.183,.236-.275h44.339c1.424-1.837,2.961-3.576,4.616-5.209h-44.678c.91-1.2,1.742-2.38,2.535-3.546h45.988c-.984-1.694-1.797-3.406-2.479-5.117h-40.307c.712-1.243,1.375-2.462,1.965-3.638h37.102c-.491-1.693-.87-3.373-1.138-5.022h-33.689c.537-1.318,1-2.565,1.395-3.733h31.855c-.135-1.703-.18-3.351-.152-4.93h-30.25c.174-.701,.329-1.359,.453-1.932,.136-.629,.246-1.264,.374-1.895h29.617c.151-1.762,.367-3.382,.604-4.835h-29.268c.018-.098,.04-.196,.058-.294l.293-1.554c.132-.694,.266-1.378,.398-2.072h29.256c.072-.34,.143-.676,.206-.969,.271-1.254,.5-2.515,.744-3.774h-29.297c.255-1.341,.514-2.675,.77-4.014h29.311l.149-.79c.245-1.293,.495-2.567,.741-3.858h-29.308c.263-1.367,.524-2.742,.788-4.107h29.308c.29-1.522,.584-3.038,.875-4.556h-29.308c.274-1.403,.56-2.798,.835-4.199h29.28c.286-1.485,.569-2.979,.856-4.461h-29.238c.285-1.434,.577-2.862,.864-4.294h29.201c.286-1.463,.591-2.909,.879-4.369h-29.201c.296-1.461,.583-2.929,.883-4.388h29.201c.284-1.426,.573-2.85,.86-4.274h-29.201c.312-1.499,.656-2.984,.972-4.481h29.13c.284-1.392,.555-2.793,.842-4.182h-29.063c.327-1.526,.662-3.05,.994-4.575h29.014c.286-1.367,.599-2.723,.888-4.087h-29.013c.343-1.554,.665-3.116,1.014-4.668h29.014c.287-1.333,.577-2.664,.868-3.996h-28.989c.364-1.591,.774-3.172,1.144-4.761h28.879c.289-1.298,.555-2.604,.848-3.9h-28.79c.384-1.618,.774-3.237,1.166-4.853h28.746c.293-1.272,.618-2.538,.915-3.809h-28.746c.407-1.648,.774-3.303,1.189-4.948h28.746c.296-1.238,.591-2.476,.892-3.713h-28.629c.472-1.708,.935-3.433,1.458-5.042h28.383c.3-1.205,.565-2.417,.87-3.622h-27.943c.64-1.752,1.301-3.479,2.006-5.134h27.285c.315-1.178,.628-2.386,.946-3.53h-26.658c.841-1.786,1.733-3.524,2.653-5.227h25.521c.346-1.163,.697-2.306,1.049-3.435h-24.657c1.051-1.795,2.139-3.571,3.28-5.321h23.084c.384-1.142,.782-2.234,1.174-3.343h-21.998c1.241-1.799,2.533-3.606,3.868-5.413h20.13c.419-1.085,.83-2.191,1.259-3.248h-18.967c1.146-1.507,2.297-3.013,3.505-4.561,.224-.287,.533-.626,.811-.946h17.003c.478-1.071,.978-2.11,1.471-3.156h-15.45c1.736-1.688,3.812-3.582,6.106-5.601h12.117c.443-.852,.872-1.72,1.327-2.559,.094-.172,.195-.33,.289-.502h-10.218c2.174-1.869,4.443-3.787,6.708-5.695h6.794c.623-1.02,1.28-1.981,1.921-2.969h-5.187c2.402-2.02,4.712-3.97,6.832-5.788h2.35c.704-.96,1.392-1.947,2.117-2.874h-1.157c2.447-2.16,4.414-3.996,5.568-5.294Z" fill="#232323"/>
  <path d="M284.462,42.53c19.457,.667,37.978,2.883,37.978,2.883-.074-.011-.147-.023-.221-.035-.036-.006-.071-.01-.107-.016h.157c.057,.018,.114,.033,.171,.051-14.959-8.716-49.914-8.716-55.841-8.716-8.963,0-16.961,.742-24.449,2.267-5.226,1.065-10.052,2.394-14.531,3.991-2.072,.738-4.049,1.551-5.972,2.408-4.068,1.812-7.814,3.894-11.265,6.256-.552,.378-1.12,.739-1.657,1.132-.613,.448-1.181,.913-1.773,1.368-2.572,1.978-4.948,4.032-7.13,6.162-.874,.853-1.72,1.717-2.531,2.595-1.812,1.961-3.481,3.981-4.984,6.069-.637,.886-1.259,1.778-1.841,2.687-1.238,1.934-2.324,3.932-3.311,5.974-.443,.916-.863,1.843-1.256,2.782-.802,1.916-1.513,3.872-2.105,5.882-.278,.945-.517,1.908-.75,2.874-.456,1.893-.851,3.814-1.13,5.788-.138,.975-.228,1.973-.322,2.969-.177,1.866-.303,3.757-.329,5.695-.014,1.006,.019,2.035,.046,3.061,.049,1.837,.15,3.7,.328,5.601,.026,.274,.033,.539,.062,.815,.083,.802,.227,1.565,.351,2.341,.307,1.912,.719,3.758,1.28,5.508,.357,1.115,.76,2.2,1.22,3.248,.842,1.92,1.869,3.72,3.053,5.413,.815,1.165,1.693,2.287,2.669,3.343,1.583,1.713,3.372,3.284,5.376,4.702,.31,.219,.642,.409,.958,.619,2.009,1.333,4.151,2.479,6.408,3.435,5.399,2.286,11.43,3.499,17.837,3.498,0,0-2.906-1.455-6.637-3.498h25.07c2.45-.962,4.781-2.111,6.961-3.435h-38.05c-2.997-1.796-5.878-3.682-7.832-5.321h35.126c-1.577-.985-3.068-2.097-4.472-3.343h-33.724c-1.193-1.638-2.142-3.468-2.916-5.413h31.677c-.752-1.045-1.445-2.125-2.068-3.248h-30.708c-.504-1.79-.892-3.63-1.164-5.508h29.448c-.35-1.033-.649-2.085-.899-3.156h-28.923c-.163-1.886-.231-3.761-.24-5.601h28.312c-.063-.92-.116-1.842-.108-2.776,0-.096,.012-.188,.014-.284h-28.14c.07-1.928,.221-3.825,.449-5.695h28.003c.096-1.002,.246-1.984,.386-2.969h-28.003c.333-1.965,.763-3.893,1.275-5.788h27.822c.233-.968,.495-1.924,.774-2.874h-27.704c.65-1.999,1.38-3.966,2.236-5.882h27.539c.383-.932,.755-1.869,1.186-2.782h-27.362c1.043-2.041,2.192-4.036,3.478-5.974h27.171c.557-.9,1.09-1.809,1.697-2.687h-26.967c.663-.894,1.303-1.798,2.02-2.667,.996-1.208,2.061-2.325,3.155-3.401h26.6c.815-.906,1.646-1.772,2.493-2.595h-26.23c2.859-2.392,5.933-4.426,9.106-6.162h24.752c1.351-.901,2.713-1.742,4.087-2.5h-23.822c6.778-3.033,13.632-4.92,19.361-6.256h20.648c3.345-.849,6.523-1.442,9.384-1.891,1.473-.231,2.989-.355,4.489-.517h-20.726c7.61-.706,16.69-.729,25.589-.424Z" fill="#232323"/>
  <path d="M353.299,534.87c.228,0,3.718-.456,8.193-.456,5.008,0,7.51,.456,8.345,.456,.986,0,1.668-.684,1.668-1.67,0-1.517-.986-1.745-1.668-1.821-3.187-.379-4.78-.303-4.78-2.427,0-1.517,2.883-9.482,6.6-16.386,.454-.835,.91-.91,1.745-.91h17.826c.682,0,1.063,.075,1.366,.759,2.957,6.751,5.69,15.779,5.69,17.143,0,1.289-1.138,1.365-1.519,1.442-3.641,.454-4.474,.228-4.474,2.578,0,.759,.454,1.291,1.517,1.291,.91,0,3.564-.456,9.026-.456,4.629,0,8.421,.456,8.724,.456,.986,0,1.517-.684,1.517-1.67,0-.151-.075-.682-.151-.986-.456-1.821-3.794-.153-5.69-2.959-.454-.682-.153-.228-8.421-20.33l-10.924-25.185c-.303-.759-1.214-2.882-3.185-2.882-.684,0-1.291,.226-1.821,.607-.91,.758-.379,0-11.759,21.619-4.097,8.04-7.965,16.158-11.606,24.275-1.138,2.578-1.896,3.338-4.324,3.641-2.277,.303-3.415,.228-3.415,2.275,0,.607,.303,1.594,1.517,1.594Zm28.144-42.558c.303-.53,.758-1.289,1.442-1.289,.379,0,.607,.153,.835,.531,1.137,1.821,6.676,14.868,6.676,15.626,0,.456-.305,.531-.684,.531h-15.551c-.303,0-.456-.151-.456-.303,0-.454,3.034-6.297,7.738-15.096Z" fill="#232323"/>
  <path d="M475.584,532.593c0-2.124-.303-8.496-.303-21.316,0-6.828,.153-13.732,.303-20.558,0-7.358,6.904-2.277,6.904-6.22,0-1.291-.759-1.745-1.593-1.745-.684,0-2.808,.226-7.131,.226-4.399,0-6.6-.226-7.282-.226-1.67,0-2.2,1.061-2.2,1.821,0,1.289,1.137,1.517,1.668,1.593,3.338,.379,4.78,.454,4.93,3.717,.456,7.435,.684,14.868,.684,22.607,0,2.731-.077,5.386-.153,8.116,0,.381-.075,.759-.531,.759-.53,0-1.137-.759-14.867-15.626l-6.904-7.738-11.909-13.807c-.835-.986-1.442-1.44-3.034-1.44h-9.331c-.986,0-1.67,.379-1.67,1.972,0,1.442,.607,1.67,1.366,1.67,4.173,.303,6.22,2.731,6.751,3.261,2.427,2.201,2.503,2.655,2.503,3.339v.302c-1.821,34.972-1.745,34.744-2.124,35.655-1.214,2.503-4.778,1.896-6.448,2.427-.986,.303-1.138,1.745-1.138,1.972,0,.912,.682,1.519,1.594,1.519,.379,0,4.324-.456,9.329-.456,4.93,0,8.952,.456,9.256,.456,.835,0,1.289-.607,1.289-1.442,0-1.593-.682-1.821-.986-1.973-.531-.151-3.641-.531-4.629-.531-3.185-.226-3.413-.986-3.413-4.93v-2.2c0-9.256,.379-18.054,.986-26.93,.077-.075,.153-.303,.305-.303,.302,0,1.516,1.442,16.84,18.51l15.703,17.903c2.124,2.427,2.957,3.187,3.717,3.187,1.517,0,1.517-2.503,1.517-3.566Z" fill="#232323"/>
  <path d="M518.898,480.858c-13.958,0-25.489,11.303-25.489,26.702,0,15.93,12.365,28.674,26.551,28.674,5.081,0,10.847-1.745,15.551-5.841,.228-.228,.607-.607,1.061-.607,.682,0,1.366,1.593,2.277,1.593,.833,0,1.061-.682,1.061-1.517v-12.82c0-.303,0-.531,.077-.759,.454-1.896,4.02-1.138,4.02-3.489,0-.684-.531-1.593-1.973-1.593-.758,0-3.261,.302-8.116,.302h-.153c-4.702,0-6.979-.302-7.814-.302-1.137,0-1.668,.833-1.668,1.744,0,1.366,1.214,1.67,2.124,1.745,5.537,.531,7.13,.228,7.13,2.731v8.572c0,.381,0,.835-.226,1.289-.684,1.291-5.993,4.932-12.518,4.932-7.889,0-19.799-5.614-19.799-25.641,0-16.461,9.331-22.074,16.992-22.074,6.6,0,12.744,3.717,16.461,8.798,3.794,5.236,1.67,7.663,4.097,7.663,1.668,0,2.2-.456,2.2-1.214,0-.303-.835-6.297-.835-14.034v-2.049c0-.835-.53-1.063-1.061-1.063-.381,0-.682,.077-.91,.228-.835,.456-1.898,2.959-3.338,2.959h-.303c-.91-.228-6.372-4.93-15.4-4.93Z" fill="#232323"/>
  <path d="M572.757,482.147c-.835,0-3.262,.226-8.117,.226h-.456c-4.627-.075-6.902-.226-7.661-.226-1.214,0-1.517,1.138-1.517,1.821,0,1.517,1.442,1.745,2.049,1.821,1.973,.226,3.187,.151,3.187,2.2v19.116c0,1.896-.077,3.869-.077,5.765,0,3.566,.077,6.523,.986,9.71,.912,2.959,4.553,12.972,22.682,12.972,5.765,0,10.62-1.138,14.337-3.717,6.297-4.401,6.753-11.608,6.753-16.842v-2.427c0-1.214-.077-2.352-.077-3.566v-17.219c0-.228,.077-.531,.077-.759,0-7.965,5.083-3.566,5.083-6.904,0-.91,0-1.972-1.366-1.972-.682,0-2.655,.226-6.676,.226s-5.993-.226-6.676-.226c-.759,0-1.442,.379-1.442,1.668,0,1.366,.835,1.593,1.67,1.67,3.489,.379,5.081,.303,5.081,4.02v20.634c0,1.593,.077,3.11,.077,4.704v1.061c0,2.2-.077,5.614-1.442,8.421-3.11,6.599-10.999,6.904-13.883,6.904-4.173,0-9.861-.684-13.655-4.173-4.324-3.869-4.627-9.179-4.627-14.565v-23.743c0-1.063,.228-2.352,2.427-2.655,3.11-.456,4.704,.075,4.704-1.973,0-1.138-.305-1.972-1.442-1.972Z" fill="#232323"/>
  <path d="M655.899,519.393c0-6.902-4.097-11.832-9.559-14.184-4.855-2.049-10.317-1.973-14.412-4.93-2.352-1.67-3.869-4.097-3.869-6.904,0-3.945,3.11-7.132,7.358-7.132,3.338,0,6.297,1.973,8.345,4.248,3.641,4.173,2.806,6.904,5.234,6.979h.075c.759,0,1.289-.379,1.289-1.138,0-.607-.302-2.427-.302-6.144,0-3.792,.302-5.688,.302-6.295,0-.835-.53-1.442-1.214-1.442-1.821,0-2.047,3.034-3.185,3.034-.986,0-3.641-3.034-9.785-3.034-7.965,0-13.579,6.069-13.579,12.82,0,4.93,2.806,9.862,9.028,12.29,5.083,2.047,9.938,1.821,14.337,5.006,2.731,1.972,4.399,5.006,4.399,8.345,0,5.916-5.006,10.543-10.999,10.543-4.474,0-7.889-2.427-9.785-5.006-2.277-3.034-1.442-1.138-1.972-6.449-.456-3.717-.531-4.399-2.126-4.399-1.289,0-1.593,.758-1.668,1.593-.682,8.649-1.745,11.455-1.745,12.365,0,.456,.303,1.138,1.366,1.138,.682,0,1.214-.228,1.972-.228,1.063,0,1.594,.379,2.352,1.061,2.883,2.505,7.132,4.173,11.531,4.173,9.331,0,16.614-7.282,16.614-16.31Z" fill="#232323"/>
  <path d="M701.488,482.374c-2.201,0-3.339-.075-3.641-.075-.912,0-1.366,.531-1.366,1.366,0,1.593,.607,1.896,1.366,1.896,2.578,.228,3.943,.303,3.943,2.427v41.495c0,1.289-.758,1.365-1.593,1.517-3.262,.379-4.248,.303-4.248,1.744,0,1.745,.684,1.821,1.442,1.821h.151c3.415,0,5.993-.151,8.649-.151,3.489,0,6.904,.456,10.392,.456,5.462,0,8.268-1.366,9.103-1.745,4.476-1.973,9.635-7.056,9.635-14.339,0-6.751-4.702-12.06-10.545-13.199-.151-.075-.226-.153-.226-.228s.075-.151,.151-.226c4.02-2.505,7.207-6.904,7.207-11.683,0-4.096-2.427-7.13-4.629-8.724-3.943-2.731-9.482-3.034-12.592-3.034-4.552,0-8.572,.682-13.199,.682Zm27.081,36.793c0,7.965-6.904,12.137-14.414,12.137-1.214,0-2.427-.153-3.564-.303-2.201-.379-2.277-1.517-2.277-2.806v-19.572c0-.607,.075-1.138,1.063-1.138h3.868c2.124,0,4.324,0,6.372,.456,6.6,1.442,8.952,6.751,8.952,11.227Zm-3.413-24.124c0,1.517-.381,2.959-1.063,4.324-2.427,4.629-7.586,4.855-10.62,4.855h-4.401c-.682,0-.758-.379-.758-.986v-16.386c0-.303,0-.682,.379-.986,.759-.607,3.794-.835,5.311-.835,8.875,0,11.152,6.372,11.152,10.013Z" fill="#232323"/>
  <path d="M783.946,481.995h-34.895c-.682,0-1.44,.153-1.44,1.67,0,2.2,2.047,1.668,5.006,2.124,1.67,.303,2.049,.379,2.049,1.517v39.522c0,1.668-.228,2.427-1.67,2.959-5.006,1.896-5.765,1.896-5.765,3.262,0,.379,.381,2.275,1.821,2.275,1.366,0,3.717-.91,9.407-.91h26.095c1.593,0,2.049-.379,2.277-1.517,2.275-10.164,2.35-10.317,2.35-10.771v-.077c0-1.289-.833-1.744-1.365-1.744-.228,0-.456,.075-.758,.226-1.214,.759-3.869,7.056-5.236,8.117-1.517,1.138-8.496,1.593-10.924,1.593-2.352,0-4.702-.151-7.054-.531-2.2-.302-2.427-1.516-2.427-2.882v-17.371c0-2.883,1.973-3.034,3.717-3.034h10.469c1.061,0,1.972,.151,1.972,1.668v4.097c0,.682,.153,1.668,2.049,1.668,1.973,0,2.124-1.365,2.124-2.2v-13.958c0-.835-.151-2.2-2.124-2.2-1.821,0-2.049,.91-2.049,1.668v2.352c0,2.427-1.593,2.503-2.882,2.503h-11.608c-1.44,0-1.516-.91-1.516-1.668v-11.455c0-1.442,.151-2.883,2.35-2.883h14.261c2.352,0,2.124,.305,5.918,7.056,.379,.531,.833,1.365,2.124,1.365s1.593-.682,1.593-1.138c0-.379-1.517-6.676-2.2-10.089-.228-.758-.607-1.214-1.67-1.214Z" fill="#232323"/>
  <path d="M836.894,481.995h-34.895c-.682,0-1.44,.153-1.44,1.67,0,2.2,2.047,1.668,5.006,2.124,1.67,.303,2.049,.379,2.049,1.517v39.522c0,1.668-.228,2.427-1.67,2.959-5.006,1.896-5.765,1.896-5.765,3.262,0,.379,.381,2.275,1.821,2.275,1.366,0,3.717-.91,9.407-.91h26.095c1.593,0,2.049-.379,2.277-1.517,2.275-10.164,2.35-10.317,2.35-10.771v-.077c0-1.289-.833-1.744-1.365-1.744-.228,0-.456,.075-.758,.226-1.214,.759-3.869,7.056-5.236,8.117-1.517,1.138-8.496,1.593-10.924,1.593-2.352,0-4.702-.151-7.054-.531-2.2-.302-2.427-1.516-2.427-2.882v-17.371c0-2.883,1.973-3.034,3.717-3.034h10.469c1.061,0,1.972,.151,1.972,1.668v4.097c0,.682,.153,1.668,2.049,1.668,1.973,0,2.124-1.365,2.124-2.2v-13.958c0-.835-.151-2.2-2.124-2.2-1.821,0-2.049,.91-2.049,1.668v2.352c0,2.427-1.593,2.503-2.882,2.503h-11.608c-1.44,0-1.516-.91-1.516-1.668v-11.455c0-1.442,.151-2.883,2.35-2.883h14.261c2.352,0,2.124,.305,5.918,7.056,.379,.531,.833,1.365,2.124,1.365s1.593-.682,1.593-1.138c0-.379-1.517-6.676-2.2-10.089-.228-.758-.607-1.214-1.67-1.214Z" fill="#232323"/>
  <path d="M888.022,482.298h-14.793c-4.096,0-9.405,.228-12.288,.228-3.792,0-5.69-.303-6.372-.303-.835,0-1.366,.531-1.366,2.277,0,1.593,1.366,1.593,1.745,1.593,3.794,.151,4.93-.077,4.93,2.35v40.206c0,1.289-.302,2.124-2.275,2.352-3.262,.303-4.324-.077-4.324,2.124,0,1.061,.607,1.745,1.744,1.745,.305,0,4.704-.456,10.241-.456,5.462,0,9.862,.456,10.241,.456,.986,0,1.289-.759,1.289-1.594v-.682c0-2.049-1.745-1.593-6.676-1.745-3.11-.151-3.11-1.517-3.11-2.806v-18.813c0-1.061,.075-2.124,1.67-2.124h12.364c.91,0,1.289,.228,1.366,1.063,.53,4.399,.303,5.764,2.124,5.764,.833,0,2.047-.379,2.047-1.972,0-.682-.302-2.806-.302-7.132,0-4.248,.302-6.295,.302-7.054,0-.986-.758-1.593-1.744-1.593-1.291,0-1.67,1.063-1.821,2.049-.684,3.792-.456,4.476-2.049,4.476h-12.669c-.91,0-1.138-.381-1.138-1.138v-12.669c0-1.442,.153-2.731,2.201-2.731h13.958c1.517,0,1.896,.379,2.654,1.593,2.808,5.008,3.262,6.297,4.78,6.297,.835,0,1.517-.682,1.517-1.745,0-.454-1.289-6.069-1.744-8.117-.456-1.821-1.594-1.896-2.505-1.896Z" fill="#232323"/>
  <rect x="321.058" y="501.731" width="14.357" height="14.357" transform="translate(-263.715 381.155) rotate(-45)" fill="#232323"/>
  <rect x="912.963" y="501.731" width="14.357" height="14.357" transform="translate(-90.35 799.695) rotate(-45)" fill="#232323"/>
</svg>