<?xml version="1.0" encoding="UTF-8"?>
<svg id="a" xmlns="http://www.w3.org/2000/svg" width="1000" height="284.253" viewBox="0 0 1000 284.253">
  <path d="M196.935,34.775c1.031,2.302,1.553,5.412,1.553,9.321v214.014h-21.063L47.983,62.043v196.067H28.994V27.869c2.074-.917,5.298-1.379,9.674-1.379,3.453,0,6.21,.635,8.284,1.9,2.063,1.265,4.256,3.621,6.558,7.074l125.988,193.993V26.838c1.151-.228,2.074-.347,2.758-.347h1.726c1.39,0,2.942,.174,4.669,.516,1.726,.347,3.279,1.156,4.658,2.416,1.379,1.27,2.584,3.056,3.626,5.353Zm288.392-8.284c-4.831,0-8.621,1.097-11.389,3.279-2.758,2.188-5.179,5.125-7.242,8.8l-55.231,99.415-56.957-100.446c-2.074-3.914-4.31-6.786-6.732-8.632-2.421-1.84-5.928-2.763-10.532-2.763-2.758,0-5.005,.174-6.732,.521-1.726,.342-3.159,.749-4.31,1.205l74.21,131.173v99.067h20.368v-99.415L495,27.527c-1.618-.461-3.105-.744-4.495-.863-1.379-.114-3.105-.174-5.179-.174Zm151.362,2.931c-1.726-1.259-3.507-2.068-5.353-2.416-1.846-.342-3.453-.516-4.831-.516h-1.379c-.467,0-1.27,.119-2.421,.347v231.271h20.368V44.096c0-3.909-.63-7.019-1.9-9.321-1.259-2.296-2.758-4.082-4.484-5.353Zm250.087,6.732c-1.379-3.675-3.051-6.21-5.005-7.589-1.954-1.384-4.31-2.074-7.068-2.074-2.074,0-3.974,.233-5.7,.689-1.726,.467-3.17,.923-4.31,1.384l-86.989,229.545h20.705l23.821-64.552,6.21-17.258,45.221-123.572,44.873,123.572,6.905,17.258,23.821,64.552h21.747l-84.231-221.956Z" fill="#232323"/>
</svg>