<?xml version="1.0" encoding="UTF-8"?>
<svg id="a" data-name="Capa 1" xmlns="http://www.w3.org/2000/svg" width="872" height="372" viewBox="0 0 872 372">
  <g>
    <polygon points="678.056 171.192 671.045 172.105 671.045 175.325 674.713 174.933 674.713 213.63 671.045 214.022 671.045 221.666 722.313 216.01 722.313 208.31 725.954 207.918 725.954 169.221 722.313 169.641 722.313 166.393 719.65 166.893 719.765 141.899 744.266 139.177 744.266 167.205 747.906 166.813 747.906 205.51 744.266 205.902 744.266 238.382 649.092 248.911 649.092 216.43 652.732 216.038 652.732 177.341 649.092 177.733 649.092 149.733 678.227 146.508 678.056 171.192" fill="#232323"/>
    <polygon points="709.479 116.04 687.531 118.471 687.531 182.648 709.479 180.216 709.479 116.04" fill="#232323"/>
    <polygon points="823.135 81.561 823.135 120.256 830.426 119.448 830.426 158.138 834.067 157.74 834.067 190.66 804.873 160.984 801.231 161.382 776.41 136.1 757.219 138.235 757.219 166.258 760.861 165.86 760.861 204.556 757.219 204.954 757.219 237.413 779.173 234.986 779.173 202.526 782.814 202.108 782.814 173.562 808.074 199.324 804.433 199.722 833.167 229 852.359 226.866 852.359 194.406 856 194.008 856 155.312 852.359 155.71 852.359 117.014 845.083 117.819 845.083 79.128 852.366 78.322 852.366 39.626 848.724 40.03 848.724 8.394 826.776 10.826 826.776 42.462 830.418 42.058 830.418 80.753 823.135 81.561" fill="#232323"/>
  </g>
  <g>
    <polygon points="37.007 336.378 37.007 322.479 15.059 324.911 15.059 363.606 588.071 300.113 588.071 275.061 37.007 336.378" fill="#232323"/>
    <polygon points="606.921 298.427 628.872 295.995 628.872 256.897 606.921 259.329 606.921 298.427" fill="#232323"/>
    <path d="M541.004,260.41v-25.057l21.943-2.173v24.799l-21.943,2.431Z" fill="#232323"/>
    <polygon points="22.341 285.409 22.341 324.104 44.289 321.672 44.289 282.977 22.341 285.409" fill="#232323"/>
    <polygon points="126.073 306.383 148.021 303.951 148.021 274.998 199.275 269.319 199.275 298.272 221.222 295.84 221.222 263.372 126.073 273.915 126.073 306.383" fill="#232323"/>
    <polygon points="406.739 249.448 405.819 250.589 355.485 256.167 324.955 259.55 251.753 267.661 251.753 259.989 229.805 262.421 229.805 294.889 324.955 284.346 333.537 283.395 414.953 274.373 428.687 257.336 428.687 240.384 406.739 242.816 406.739 249.448" fill="#232323"/>
    <polygon points="541.004 235.353 541.004 260.41 562.947 257.979 562.947 233.18 541.004 235.353" fill="#232323"/>
    <polygon points="614.204 220.146 614.204 258.522 636.154 256.09 636.154 217.395 613.921 219.859 614.204 220.146" fill="#232323"/>
    <polygon points="437.268 271.905 532.419 261.361 532.419 236.562 459.219 244.673 459.219 237.001 437.268 239.433 437.268 271.905" fill="#232323"/>
    <polygon points="328.596 247.243 328.596 212.779 306.645 215.211 306.645 249.675 328.596 247.243" fill="#232323"/>
    <polygon points="47.931 243.878 25.982 246.31 25.982 285.006 47.931 282.573 47.931 243.878" fill="#232323"/>
    <polygon points="91.864 271.832 69.916 273.15 69.916 294.121 91.864 292.804 91.864 271.832" fill="#232323"/>
    <polygon points="224.864 262.968 224.864 224.273 202.916 226.705 202.916 244.12 151.663 249.799 151.663 232.384 129.715 234.816 129.715 273.511 224.864 262.968" fill="#232323"/>
    <polygon points="255.395 259.585 255.395 220.89 233.447 223.322 233.447 262.017 255.395 259.585" fill="#232323"/>
    <polygon points="432.328 201.285 410.38 203.717 410.38 237.685 410.38 242.412 432.328 239.98 432.328 235.253 432.328 201.285" fill="#232323"/>
    <polygon points="514.316 226.165 514.316 201.374 462.86 207.076 462.86 197.902 440.91 200.334 440.91 239.029 462.86 236.597 462.86 231.866 514.316 226.165" fill="#232323"/>
    <polygon points="633.352 200.505 639.795 192.52 639.795 178.296 617.845 180.728 617.845 184.695 613.309 190.33 530.515 199.504 530.515 224.295 613.309 215.121 617.563 219.455 639.795 216.992 639.795 207.062 633.352 200.505" fill="#232323"/>
    <polygon points="324.954 174.487 303.004 176.919 303.004 215.615 324.954 213.182 324.954 174.487" fill="#232323"/>
    <polygon points="44.289 241.056 117.468 233.201 117.49 208.149 22.341 218.692 22.341 246.714 44.289 244.282 44.289 241.056" fill="#232323"/>
    <polygon points="148.021 229.562 199.275 223.883 199.275 227.109 221.222 224.676 221.222 196.655 126.073 207.198 126.073 235.22 148.021 232.788 148.021 229.562" fill="#232323"/>
    <polygon points="428.687 189.181 414.953 175.188 333.537 184.21 355.485 206.574 405.819 200.996 406.739 201.864 406.739 204.12 428.687 201.688 428.687 189.181" fill="#232323"/>
    <polygon points="251.753 193.272 229.805 195.704 229.805 223.726 251.753 221.293 251.753 193.272" fill="#232323"/>
    <polygon points="437.268 172.717 437.268 200.738 459.219 198.305 459.219 195.076 523.192 187.987 523.192 188.245 614.204 177.903 614.204 181.132 636.154 178.7 636.154 150.68 437.268 172.717" fill="#232323"/>
    <polygon points="88.26 164.783 87.34 165.924 15.059 173.934 15.059 198.73 96.475 189.708 110.208 172.671 110.208 159.587 88.26 162.019 88.26 164.783" fill="#232323"/>
    <polygon points="191.993 154.332 140.736 160.012 140.736 156.205 118.793 158.636 118.793 187.234 214.282 176.653 214.282 148.055 191.993 150.525 191.993 154.332" fill="#232323"/>
    <polygon points="317.672 136.599 295.721 139.031 295.721 177.726 317.672 175.294 317.672 136.599" fill="#232323"/>
    <polygon points="421.125 153.735 421.125 125.136 399.177 127.568 399.177 156.167 421.125 153.735" fill="#232323"/>
    <polygon points="347.924 161.846 347.924 133.247 325.976 135.679 325.976 164.278 347.924 161.846" fill="#232323"/>
    <polygon points="511.403 143.732 525.136 126.695 525.136 113.611 503.188 116.043 503.188 118.807 502.269 119.948 451.935 125.525 451.935 121.722 429.987 124.154 429.987 152.753 511.403 143.732" fill="#232323"/>
    <polygon points="628.868 130.716 628.868 102.117 606.92 104.549 606.92 133.148 628.868 130.716" fill="#232323"/>
    <polygon points="555.667 138.827 555.667 110.228 533.719 112.66 533.719 141.259 555.667 138.827" fill="#232323"/>
    <polygon points="614.203 103.389 562.95 109.068 562.95 109.421 614.203 103.742 614.203 103.389" fill="#232323"/>
    <polygon points="221.565 146.896 221.565 147.248 303.004 138.224 303.004 137.872 221.565 146.896" fill="#232323"/>
    <polygon points="95.542 161.212 117.49 158.78 117.49 120.085 95.542 122.517 95.542 161.212" fill="#232323"/>
    <polygon points="221.565 147.248 221.565 146.896 303.004 137.872 303.004 138.224 324.954 135.792 324.954 97.097 303.004 99.529 303.004 113.073 221.565 122.097 221.565 108.553 199.276 111.023 199.276 149.718 221.565 147.248" fill="#232323"/>
    <polygon points="148.019 155.398 148.019 116.702 126.076 119.134 126.076 157.829 148.019 155.398" fill="#232323"/>
    <polygon points="406.46 101.612 406.46 126.408 406.46 126.761 428.408 124.329 428.408 85.634 406.46 88.066 406.46 101.612" fill="#232323"/>
    <polygon points="355.206 132.44 355.206 132.087 355.206 107.291 355.206 93.745 333.259 96.177 333.259 134.872 355.206 132.44" fill="#232323"/>
    <polygon points="459.217 120.915 459.217 82.22 437.27 84.652 437.27 123.347 459.217 120.915" fill="#232323"/>
    <polygon points="510.471 106.64 510.471 115.236 532.419 112.804 532.419 104.208 532.419 74.109 510.471 76.541 510.471 106.64" fill="#232323"/>
    <polygon points="562.95 109.421 562.95 109.068 614.203 103.389 614.203 103.742 636.151 101.31 636.151 62.614 614.203 65.047 614.203 78.593 562.95 84.272 562.95 70.726 541.001 73.158 541.001 111.853 562.95 109.421" fill="#232323"/>
    <polygon points="91.901 122.92 113.849 120.489 113.849 81.793 91.901 84.225 91.901 122.92" fill="#232323"/>
    <polygon points="144.378 85.212 122.435 87.643 122.435 119.537 144.378 117.106 144.378 85.212" fill="#232323"/>
    <polygon points="217.923 101.861 299.363 92.837 299.363 99.933 321.313 97.5 321.313 65.606 195.634 79.532 195.634 111.426 217.923 108.956 217.923 101.861" fill="#232323"/>
    <polygon points="351.565 87.054 402.818 81.375 402.818 88.469 424.766 86.037 424.766 54.147 329.617 64.69 329.617 96.58 351.565 94.148 351.565 87.054" fill="#232323"/>
    <polygon points="455.576 75.529 505.91 69.952 506.83 70.82 506.83 76.944 528.777 74.512 528.777 58.136 515.044 44.144 433.628 53.165 433.628 85.055 455.576 82.623 455.576 75.529" fill="#232323"/>
    <polygon points="559.308 64.035 610.562 58.356 610.562 65.45 632.509 63.018 632.509 31.128 537.36 41.671 537.36 73.561 559.308 71.129 559.308 64.035" fill="#232323"/>
    <polygon points="117.49 81.39 117.49 42.695 95.542 45.127 95.542 83.822 117.49 81.39" fill="#232323"/>
  </g>
</svg>