<?xml version="1.0" encoding="UTF-8"?>
<svg id="a" data-name="Capa 1" xmlns="http://www.w3.org/2000/svg" width="1000" height="372" xmlns:xlink="http://www.w3.org/1999/xlink" viewBox="0 0 1000 372">
  <defs>
    <clipPath id="b">
      <path d="M69.608,85.442c-29.41,29.41-45.608,68.512-45.608,110.106s16.198,80.691,45.608,110.104c29.408,29.41,68.512,45.606,110.104,45.606,2.056,0,4.105-.054,6.15-.13l-24.115-24.082c-64.714-8.795-114.754-64.409-114.754-131.496,0-73.181,59.538-132.721,132.719-132.721s132.719,59.54,132.719,132.721c0,58.613-38.198,108.467-91.004,125.996l-111.748-111.45-.275-.272-.291-.254c-8.702-7.591-13.692-18.529-13.692-30.009,0-21.984,17.884-39.87,39.863-39.87,14.042,0,25.617,13.01,33.951,24.29l9.794,12.796,9.792-12.796c8.653-10.93,19.912-24.29,33.949-24.29,21.984,0,39.87,17.886,39.87,39.87,0,11.48-4.993,22.417-13.695,30.009l-.293,.256-53.213,53.216,16.161,16.137,52.769-52.557c13.518-11.946,21.262-29.075,21.262-47.061,0-34.664-28.199-62.861-62.861-62.861-17.458,0-32.743,10.046-43.741,22.196-11-12.151-26.285-22.196-43.745-22.196-34.657,0-62.854,28.197-62.854,62.861,0,17.986,7.745,35.118,21.263,47.063l120.918,120.722c28.262-6.439,54.203-20.694,75.205-41.694,29.408-29.413,45.606-68.512,45.606-110.104s-16.198-80.696-45.606-110.106c-29.408-29.408-68.512-45.608-110.104-45.608s-80.696,16.2-110.104,45.608" fill="#232323"/>
    </clipPath>
    <clipPath id="c">
      <path d="M462.665,164.6l14.279,36.431h-28.742l14.463-36.431Zm-16.843-42.108l-54.555,129.068h37.346l9.154-22.883h49.429l9.338,22.883h38.077l-54.555-129.068h-34.235Z" fill="#232323"/>
    </clipPath>
    <clipPath id="d">
      <polygon points="645.736 123.409 615.164 173.02 584.591 123.409 547.061 123.409 547.061 251.56 581.846 251.56 581.846 178.33 614.432 228.127 615.164 228.127 647.934 177.964 647.934 251.56 683.268 251.56 683.268 123.409 645.736 123.409" fill="#232323"/>
    </clipPath>
    <clipPath id="e">
      <path d="M738.007,187.483v-.366c0-18.491,12.996-34.235,32.405-34.235,19.588,0,32.95,16.112,32.95,34.601v.366c0,18.494-12.998,34.235-32.584,34.235-19.407,0-32.77-16.109-32.77-34.601m-36.433,0v.366c0,36.799,29.292,66.274,68.838,66.274s69.199-29.841,69.199-66.64v-.366c0-36.797-29.292-66.272-68.834-66.272s-69.204,29.841-69.204,66.638" fill="#232323"/>
    </clipPath>
    <clipPath id="f">
      <path d="M893.616,154.163h23.251c11.899,0,19.223,5.128,19.223,15.196v.366c0,9.338-6.956,15.196-19.041,15.196h-23.433v-30.759Zm-35.516-30.754V251.56h35.516v-38.811h15.562l25.813,38.811h41.009l-30.572-44.67c15.925-6.772,26.362-19.772,26.362-39.36v-.368c0-12.63-3.847-22.518-11.352-29.839-8.604-8.79-22.152-13.913-41.74-13.913h-60.597Z" fill="#232323"/>
    </clipPath>
  </defs>
  <g>
    <path d="M69.608,85.442c-29.41,29.41-45.608,68.512-45.608,110.106s16.198,80.691,45.608,110.104c29.408,29.41,68.512,45.606,110.104,45.606,2.056,0,4.105-.054,6.15-.13l-24.115-24.082c-64.714-8.795-114.754-64.409-114.754-131.496,0-73.181,59.538-132.721,132.719-132.721s132.719,59.54,132.719,132.721c0,58.613-38.198,108.467-91.004,125.996l-111.748-111.45-.275-.272-.291-.254c-8.702-7.591-13.692-18.529-13.692-30.009,0-21.984,17.884-39.87,39.863-39.87,14.042,0,25.617,13.01,33.951,24.29l9.794,12.796,9.792-12.796c8.653-10.93,19.912-24.29,33.949-24.29,21.984,0,39.87,17.886,39.87,39.87,0,11.48-4.993,22.417-13.695,30.009l-.293,.256-53.213,53.216,16.161,16.137,52.769-52.557c13.518-11.946,21.262-29.075,21.262-47.061,0-34.664-28.199-62.861-62.861-62.861-17.458,0-32.743,10.046-43.741,22.196-11-12.151-26.285-22.196-43.745-22.196-34.657,0-62.854,28.197-62.854,62.861,0,17.986,7.745,35.118,21.263,47.063l120.918,120.722c28.262-6.439,54.203-20.694,75.205-41.694,29.408-29.413,45.606-68.512,45.606-110.104s-16.198-80.696-45.606-110.106c-29.408-29.408-68.512-45.608-110.104-45.608s-80.696,16.2-110.104,45.608" fill="#232323"/>
    <g clip-path="url(#b)">
      <rect x="24" y="39.834" width="311.421" height="311.423" fill="#232323"/>
    </g>
  </g>
  <polygon points="395.228 39.415 441.719 39.415 441.719 43.94 400.13 43.94 400.13 71.005 437.476 71.005 437.476 75.532 400.13 75.532 400.13 105.427 395.228 105.427 395.228 39.415" fill="#232323"/>
  <path d="M456.052,77.984V39.415h4.902v38.096c0,15.56,8.395,24.52,22.352,24.52,13.389,0,21.97-8.111,21.97-24.048V39.415h4.904v38.003c0,18.955-11.033,29.045-27.063,29.045-15.844,0-27.065-9.997-27.065-28.479" fill="#232323"/>
  <polygon points="528.757 39.415 533.377 39.415 578.925 96.846 578.925 39.415 583.64 39.415 583.64 105.427 579.963 105.427 533.473 46.769 533.473 105.427 528.757 105.427 528.757 39.415" fill="#232323"/>
  <path d="M603.254,39.415h21.973c20.746,0,35.08,14.239,35.08,32.817v.189c0,18.578-14.335,33.006-35.08,33.006h-21.973V39.415Zm21.973,61.485c18.387,0,29.988-12.542,29.988-28.29v-.189c0-15.655-11.601-28.479-29.988-28.479h-17.069v56.958h17.069Z" fill="#232323"/>
  <path d="M697.838,38.942h4.715l30.742,66.484h-5.374l-8.392-18.484h-38.946l-8.395,18.484h-5.09l30.74-66.484Zm19.616,43.568l-17.353-38.191-17.446,38.191h34.799Z" fill="#232323"/>
  <path d="M740.557,72.608v-.189c0-18.671,13.958-34.137,33.006-34.137,11.787,0,18.859,4.338,25.65,10.563l-3.488,3.584c-5.754-5.565-12.353-9.713-22.257-9.713-15.842,0-27.818,12.919-27.818,29.515v.189c0,16.691,12.165,29.706,27.913,29.706,9.524,0,16.032-3.679,22.727-10.278l3.3,3.204c-6.979,6.886-14.521,11.506-26.215,11.506-18.859,0-32.817-14.994-32.817-33.949" fill="#232323"/>
  <rect x="813.733" y="39.414" width="4.904" height="66.011" fill="#232323"/>
  <path d="M835.987,72.608v-.189c0-18.009,13.296-34.137,33.29-34.137s33.099,15.937,33.099,33.949q.093,.095,0,.189c0,18.012-13.296,34.137-33.29,34.137s-33.099-15.937-33.099-33.949m61.296,0v-.189c0-16.314-11.883-29.704-28.197-29.704s-28.006,13.201-28.006,29.515v.189c0,16.314,11.883,29.706,28.197,29.706s28.006-13.203,28.006-29.517m-21.311-51.865l5.752,2.829-10.09,9.713h-3.961l8.299-12.542Z" fill="#232323"/>
  <polygon points="919.067 39.415 923.687 39.415 969.234 96.846 969.234 39.415 973.95 39.415 973.95 105.427 970.273 105.427 923.78 46.769 923.78 105.427 919.067 105.427 919.067 39.415" fill="#232323"/>
  <g>
    <path d="M462.665,164.6l14.279,36.431h-28.742l14.463-36.431Zm-16.843-42.108l-54.555,129.068h37.346l9.154-22.883h49.429l9.338,22.883h38.077l-54.555-129.068h-34.235Z" fill="#232323"/>
    <g clip-path="url(#c)">
      <rect x="384.294" y="114.646" width="157.293" height="144.76" transform="translate(-18.503 54.722) rotate(-6.633)" fill="#232323"/>
    </g>
  </g>
  <g>
    <polygon points="645.736 123.409 615.164 173.02 584.591 123.409 547.061 123.409 547.061 251.56 581.846 251.56 581.846 178.33 614.432 228.127 615.164 228.127 647.934 177.964 647.934 251.56 683.268 251.56 683.268 123.409 645.736 123.409" fill="#232323"/>
    <g clip-path="url(#d)">
      <rect x="540.116" y="115.972" width="150.097" height="143.025" transform="translate(-17.538 72.307) rotate(-6.633)" fill="#232323"/>
    </g>
  </g>
  <g>
    <path d="M738.007,187.483v-.366c0-18.491,12.996-34.235,32.405-34.235,19.588,0,32.95,16.112,32.95,34.601v.366c0,18.494-12.998,34.235-32.584,34.235-19.407,0-32.77-16.109-32.77-34.601m-36.433,0v.366c0,36.799,29.292,66.274,68.838,66.274s69.199-29.841,69.199-66.64v-.366c0-36.797-29.292-66.272-68.834-66.272s-69.204,29.841-69.204,66.638" fill="#232323"/>
    <g clip-path="url(#e)">
      <rect x="694.339" y="113.32" width="152.507" height="148.329" transform="translate(-16.497 90.259) rotate(-6.633)" fill="#232323"/>
    </g>
  </g>
  <g>
    <path d="M893.616,154.163h23.251c11.899,0,19.223,5.128,19.223,15.196v.366c0,9.338-6.956,15.196-19.041,15.196h-23.433v-30.759Zm-35.516-30.754V251.56h35.516v-38.811h15.562l25.813,38.811h41.009l-30.572-44.67c15.925-6.772,26.362-19.772,26.362-39.36v-.368c0-12.63-3.847-22.518-11.352-29.839-8.604-8.79-22.152-13.913-41.74-13.913h-60.597Z" fill="#232323"/>
    <g clip-path="url(#f)">
      <rect x="851.094" y="117.03" width="131.912" height="140.91" transform="translate(-15.517 107.175) rotate(-6.633)" fill="#232323"/>
    </g>
  </g>
  <polygon points="394.861 268.997 459.722 268.997 459.722 288.006 416.98 288.006 416.98 300.219 455.691 300.219 455.691 317.844 416.98 317.844 416.98 330.633 460.299 330.633 460.299 349.641 394.861 349.641 394.861 268.997" fill="#232323"/>
  <polygon points="493.478 308.628 466.981 268.997 492.672 268.997 506.958 291.692 521.361 268.997 546.475 268.997 519.975 308.397 547.625 349.641 521.936 349.641 506.497 325.333 490.944 349.641 465.828 349.641 493.478 308.628" fill="#232323"/>
  <polygon points="575.736 288.582 551.542 288.582 551.542 268.996 622.28 268.996 622.28 288.582 598.086 288.582 598.086 349.643 575.736 349.643 575.736 288.582" fill="#232323"/>
  <path d="M632.072,268.997h38.133c12.328,0,20.853,3.225,26.269,8.756,4.722,4.608,7.142,10.83,7.142,18.778v.231c0,12.328-6.567,20.508-16.591,24.769l19.241,28.111h-25.806l-16.244-24.422h-9.794v24.422h-22.35v-80.644Zm37.097,38.708c7.605,0,11.983-3.686,11.983-9.561v-.231c0-6.336-4.608-9.564-12.097-9.564h-14.633v19.355h14.747Z" fill="#232323"/>
  <polygon points="714.906 268.997 779.767 268.997 779.767 288.006 737.028 288.006 737.028 300.219 775.736 300.219 775.736 317.844 737.028 317.844 737.028 330.633 780.344 330.633 780.344 349.641 714.906 349.641 714.906 268.997" fill="#232323"/>
  <polygon points="791.749 268.997 815.368 268.997 834.607 300.219 853.846 268.997 877.465 268.997 877.465 349.641 855.229 349.641 855.229 303.328 834.607 334.897 834.146 334.897 813.638 303.558 813.638 349.641 791.749 349.641 791.749 268.997" fill="#232323"/>
  <path d="M888.986,309.55v-.231c0-23.156,18.664-41.936,43.547-41.936s43.319,18.547,43.319,41.705v.231c0,23.158-18.664,41.936-43.55,41.936s-43.317-18.547-43.317-41.705m64.055,0v-.231c0-11.636-8.411-21.775-20.739-21.775-12.211,0-20.392,9.908-20.392,21.544v.231c0,11.636,8.411,21.775,20.622,21.775,12.328,0,20.508-9.908,20.508-21.544" fill="#232323"/>
</svg>