<?xml version="1.0" encoding="UTF-8"?>
<svg id="a" data-name="Capa 1" xmlns="http://www.w3.org/2000/svg" width="1000" height="1000" viewBox="0 0 1000 1000">
  <g id="b" data-name="5JNvHX">
    <g>
      <path d="M981.613,976.777H18.552c-.157-.179-.269-.277-.342-.398-.068-.115-.133-.255-.133-.384-.029-316.086-.053-632.172-.076-948.258,0-1.278,0-2.556,0-3.794,3.654-.705,952.508-1.015,963.341-.354,.657,3.361,.952,943.293,.272,953.189ZM71.75,77.745c-.669,10.027-.379,841.263,.333,845.015,4.494-.451,8.975,.588,13.544,.588,249.834-.016,499.667,.02,749.501-.058,29.85-.009,59.71,.752,89.553-.555,.956-.042,2.029,.329,2.812-.61V77.745H71.75Z" fill="#232323"/>
      <path d="M637.211,157.086h208.154V477.259c-3.201,.685-199.508,.978-207.889,.302-.643-3.363-.927-310.992-.265-320.475Zm53.445,52.683c-.342,.481-.804,.826-.804,1.172-.031,70.953-.03,141.906-.03,212.89,1.393,1.33,3.106,1.253,4.836,1.253,31.033-.013,62.067-.01,93.101-.01,.575,0,1.15-.016,1.724,.011,1.066,.051,1.988-.185,2.579-1.142,.674-10.141,.376-210.665-.343-214.173h-101.063Z" fill="#232323"/>
      <path d="M306.999,157.103h53.067c0,106.818,0,213.499-.002,320.18-3.202,.631-201.068,.873-208.138,.235V157.499c3.071-.66,46.388-.867,53-.22V423.415c.751,1.298,1.502,1.656,2.415,1.657,6.465,.01,12.929,0,19.394,.016,.928,.002,1.671-.293,2.522-1.418v-65.592h53.398v65.848c.698,.468,1.159,1.047,1.625,1.05,7.446,.057,14.892,.04,21.964,.04,.972-.707,1.386-1.249,1.379-2.047-.01-1.149,.006-2.298,.006-3.448,0-85.622,.002-171.243-.017-256.865,0-1.805,.391-3.632-.613-5.554Z" fill="#232323"/>
      <path d="M394.271,520.926h208.403c.778,3.113,1.057,42.994,.378,52.354-.566,.849-1.434,.844-2.305,.839-.862-.005-1.724,0-2.586,0-48.274,0-96.548,.002-144.823-.016-1.558,0-3.167,.325-4.671-.411-1.03,.52-1.315,1.4-1.256,2.5,.054,1.003,.012,2.011,.012,3.017,0,23.562-.006,47.125,.014,70.687,.001,1.403-.285,2.846,.197,4.092,.241,.207,.336,.318,.456,.384,.123,.068,.268,.11,.409,.132,.281,.043,.565,.07,.849,.094,.143,.012,.287,.007,.431,.006,.431-.002,.862-.007,1.293-.007,50.428,.018,100.857,.035,151.285,.058,.135,0,.27,.063,.405,.096,.623,3.025,.793,181.724,.17,186.86-.344,.18-.72,.549-1.095,.55-68.813,.025-137.627,.024-206.418,.024-.848-3.068-1.154-43.315-.393-53.184h154.701v-80.988h-155.187c-.653-3.554-.889-178.648-.269-187.086Z" fill="#232323"/>
      <path d="M603.116,477.688h-207.83c-.726-3.671-1.048-208.072-.366-220.97,3.461-.728,195.942-1.054,207.926-.352,.64,3.431,.92,210.978,.27,221.322Zm-53.312-53.652c.047-.385,.174-.941,.174-1.498-.034-37.635-.079-75.271-.13-112.906,0-.122-.104-.255-.186-.363-.086-.113-.205-.201-.225-.22h-101.11c-.375,.562-.819,.916-.819,1.271-.031,37.903-.029,75.807-.029,113.356,1.395,1.992,3.117,1.371,4.613,1.375,14.223,.038,28.445,.021,42.668,.021,16.809,0,33.617,.013,50.426-.022,1.515-.003,3.196,.536,4.62-1.014Z" fill="#232323"/>
      <path d="M205.495,788.905h154.253c.631,3.372,.779,47.829,.174,53.319H211.405c-9.911,0-19.823,0-29.734,0-9.852,0-19.704,0-29.754,0v-320.769c2.959-.823,40.116-1.153,52.614-.434,.099,.104,.215,.197,.293,.315,.073,.112,.132,.246,.149,.377,.037,.284,.046,.572,.061,.858,.007,.143,.003,.287,.003,.431,0,.575,0,1.149,0,1.724-.004,87.336-.009,174.672-.013,262.008,0,.144,0,.287,.003,.431,.003,.143,0,.288,.02,.429,.019,.142,.054,.283,.097,.42,.041,.132,.1,.259,.351,.89Z" fill="#232323"/>
      <path d="M603.222,209.473h-208.255v-52.287h208.255v52.287Z" fill="#232323"/>
      <path d="M307.868,521.001h52.197v188.899h-52.197v-188.899Z" fill="#232323"/>
    </g>
  </g>
</svg>