<?xml version="1.0" encoding="UTF-8"?>
<svg id="a" data-name="Capa 1" xmlns="http://www.w3.org/2000/svg" width="1000" height="570" viewBox="0 0 1000 570">
  <g>
    <path d="M980.142,326.879c-.67-1.811-1.479-3.518-2.312-5.209,0,.069,.01,.135,.01,.204,0,3.25-.34,6.419-.976,9.48,.854,2.908,1.49,5.903,1.762,9.035,.589,6.784-.77,13.535-3.388,20.088-3.622,9.059-9.358,16.837-16.295,23.824-14.106,14.193-30.851,23.836-48.805,31.485-12.217,5.201-24.758,8.943-37.465,11.855-5.857,1.341-11.764,2.5-17.698,3.223-4.496,.547-8.994,1.623-13.477,1.954-3.213,.237-6.464,.568-9.624,1.051-3.695,.565-7.367-.049-11.031,1.141-.227,.073-.481,.074-.715,.062-5.329-.28-10.728,.578-16.08,.929-7.658,.502-15.242,.111-22.869,.759-6.368,.542-12.634,.382-18.937,.46-5.221,.065-10.265-1.052-16.289-.551,22.296-21.475,42.179-44.323,60.012-68.4h-7.175c-8.609,11.822-17.653,23.323-27.207,34.44-5.32,6.185-10.842,12.208-16.564,18.055-5.108,5.216-10.149,10.489-15.394,15.124-1.043,.586-1.614-.013-2.309-.009-5.341,.032-10.505-.839-15.742-1.362-6.864-.685-13.516-1.964-20.072-3.67-3.578-.932-6.898-2.317-10.105-4.023-4.711-2.506-7.713-6.102-7.687-12.05,.185-1.145,1.24-2.33,.868-3.761-.318-.513-.808-.625-1.667-.067-.271,2.452-.558,5.056-.809,7.324,.982,6.994,6.192,9.807,11.464,12.28,5.847,2.742,12.324,4.076,18.839,5.132,6.3,1.021,12.586,2.149,19.096,2.25,1.553,.024,2.838,.906,4.434,.692-.068,1.214-.977,1.569-1.565,2.111-6.861,6.33-13.846,12.524-21.153,18.326-9.558,7.585-19.397,14.769-29.49,21.597-22.122,14.949-45.378,27.584-69.471,38.483-12.571,5.682-25.37,10.678-38.318,15.177-13.283,4.613-26.731,8.363-40.293,11.372-6.17,1.369-12.383,2.512-18.624,3.263-5.041,.607-10.061,1.085-15.096,1.513-3.742,.318-7.474,.63-11.131,.429-11.86-.653-23.48-2.168-33.54-7.901-9.178-5.233-14.863-13.103-16.691-23.95-1.282-7.619-.406-15.215,1.482-23.001,3.343-13.797,9.696-26.548,17.167-38.918,8.593-14.242,18.645-27.526,29.686-40.083,8.268-9.414,17.022-18.368,26.061-27.07,7.133-6.872,14.647-13.246,22.196-19.566,.878-.736,1.801-1.414,2.688-2.139h-6.566c-.32,.269-.661,.51-.98,.781-9.745,8.261-19.28,16.79-28.332,25.88-6.081,6.103-12.02,12.337-17.667,18.822-8.808,10.108-17.077,20.629-24.506,31.76-10.751,16.09-19.859,32.713-24.111,51.24-1.411,6.141-2.243,12.211-1.829,18.166,.99,14.196,7.475,24.851,19.538,31.646,8.638,4.863,18.35,7.142,28.524,7.763,8.39,.512,16.89,.533,25.504-.353,6.246-.642,12.484-1.443,18.691-2.517,12.312-2.129,24.515-5.27,36.621-8.98,17.079-5.236,33.817-11.692,50.271-19.05,12.043-5.388,23.849-11.362,35.476-17.76,20.087-11.062,39.35-23.46,57.727-37.38,10.542-7.993,20.816-16.298,30.578-25.246,1.39-1.275,2.62-2.726,3.607-3.762,1.425,0,2.137-.001,2.848,0,12.992,.032,25.974,.168,38.98,.047,5.579-.052,11.147-.021,16.793-.499,5.586-.473,11.219-.855,16.801-.917,3.933-.043,7.861-.715,11.795-.906,5.552-.27,11.143-1.337,16.718-1.93,6.531-.694,13.038-1.715,19.549-2.86,13.758-2.419,27.317-5.909,40.599-10.939,15.801-5.987,30.79-13.669,44.4-24.3,7.931-6.2,15.14-13.072,20.884-21.357,7.254-10.473,11.716-21.62,11.205-34.072-.21-5.148-1.093-10.01-2.818-14.668Z" fill="#232323"/>
    <path d="M747.92,272.287c5.986-1.081,11.956-2.377,17.945-3.368,4.352-.721,8.722-1.123,13.084-1.629,6.008-.698,12.016-1.379,18.023-2.025,1.183-.127,2.365,.003,3.549-.093,12.586-1.017,25.091-1.006,37.532-.562,4.878,.174,9.831,.21,14.616,1.11,1.68,.316,3.48,.208,5.384,.302,.185,1.252-.147,2.009-.528,2.819-1.049,2.231-2.195,4.419-3.27,6.638h8.09c1.313-2.644,2.632-5.284,3.914-7.949,1.564-.458,2.93,.14,4.405,.342,10.435,1.428,20.587,3.791,30.566,6.67,1.031,.297,2.045,.627,3.069,.937h12.915c-3.645-1.328-7.325-2.582-11.069-3.702-10.381-3.109-20.969-5.563-31.769-7.387-1.949-.329-4.164-.114-6.187-1.238,1.332-2.921,2.646-5.686,3.861-8.486,5.814-13.416,11.264-26.942,16.361-40.593,5.042-13.517,9.87-27.087,14.634-40.675,4.274-12.204,8.499-24.42,12.598-36.667,1.184-3.54,2.854-6.761,5.068-9.783,5.436-7.425,10.385-15.144,14.887-23.128,2.061-3.658,3.959-7.393,5.232-11.36,.834-2.599,1.47-5.207-.384-7.556-.868-.295-1.823-.618-2.393-.812-3.176,.344-5.273,2.023-7.283,3.961-1.624,1.566-3.013,3.305-4.322,5.127-3.352,4.662-5.979,9.703-8.37,14.849-4.876,10.488-8.766,21.292-12.517,32.138-.642,1.855-1.344,3.682-2.664,5.24-2.738,3.227-5.479,6.451-8.195,9.698-7.79,9.308-16.247,17.955-25.384,25.912-4.343,3.781-9.054,6.973-14.272,9.228-2.252,.973-4.538,1.7-6.944,1.665-3.349-.049-4.531-.822-5.406-4.093-.566-2.118-.737-4.354-.539-6.636,.425-4.922,1.833-9.729,3.279-14.509,2.617-8.651,6.209-17.01,10.284-25.178,3.415-6.85,7.147-13.561,10.632-20.38,1.552-3.037,3.735-5.968,3.212-9.601-.504-1.048-1.232-1.839-2.599-1.739-1.259,.092-2.276,.652-3.051,1.766-.354,.51-.831,.941-1.175,1.457-2.9,4.341-5.897,8.627-8.648,13.056-4.528,7.285-8.207,14.96-11.385,22.841-.875,2.17-1.943,4.175-3.484,6.07-4.49,5.521-9.175,10.861-13.917,16.169-5.438,6.084-11.25,11.746-17.41,17.045-2.456,2.112-5.157,3.941-8.163,5.046-4.828,1.773-8.497,.056-9.676-4.674-.812-3.261-1.182-6.719-.417-10.184,.78-3.532,1.616-7.069,2.779-10.561,4.07-12.223,9.633-23.907,15.311-35.554,2.648-5.436,5.465-10.808,7.575-16.449,.988-2.643,2.079-5.311,2.048-8.085-.059-5.198-2.896-6.306-6.531-5.777-.575,.084-1.141,.359-1.716,.514-2.346,.63-4.477,1.852-6.621,3.051-4.95,2.766-9.702,5.917-14.144,9.507-5.62,4.541-11.251,9.113-16.33,14.318-1.748,1.791-3.564,3.51-5.297,5.315-2.769,2.885-5.5,5.81-8.252,8.714-.69,.728-1.334,1.523-2.107,2.139-.756,.602-.858,2.015-2.227,1.941,7.666-15.954,15.503-31.769,22.533-47.514-.381-1.794-.658-3.18-2.054-3.702-2.643-.568-4.083,1.303-5.351,3.16-5.207,7.624-9.868,15.558-13.925,23.785-3.461,7.015-7.325,13.756-12.188,19.995-8.293,10.633-16.361,21.436-25.398,31.505-7.127,7.934-14.322,15.79-22.341,22.821-5.423,4.752-11.234,8.709-18.42,9.348-.381-.15-.78-.392-1.225-.469-2.852-.496-4.177-2.369-4.664-5.133-.224-1.274-.317-2.53-.256-3.855,.309-6.697,2.597-13.023,5.418-19.266,8.249-18.275,19.097-35.142,30.83-51.521,4.292-5.998,9.093-11.608,13.678-17.227,.616-2.22,1.032-4.245-1.213-5.313-1.173-.182-2.326-.233-3.576,.268-3.573,2.871-6.616,6.361-9.552,9.952-2.884,3.525-5.733,7.08-8.662,10.699-.792-1.398-.685-2.696-.64-4.019,.152-4.414-1.463-7.862-4.586-10.592-4.191-3.664-9.292-3.641-14.652-2.201-7.826,2.102-14.775,6.35-21.112,11.775-7.764,6.643-14.146,14.536-20.063,22.828-3.489,4.888-6.732,9.929-9.767,14.877-10.417,4.538-25.055-1.215-27.621-10.583,3.566-4.459,7.18-8.795,10.584-13.282,5.827-7.684,11.59-15.414,17.239-23.218,4.469-6.177,8.797-12.454,13.071-18.758,8.817-13.018,14.76-27.252,20.355-41.593,1.189-3.05,1.966-6.305,2.037-9.585,.196-9.064-6.011-13.304-13.89-10.748-5.2,1.687-9.596,4.862-13.799,8.392-5.19,4.358-9.495,9.6-13.724,14.894-6.681,8.357-12.145,17.42-16.912,26.879-3.916,7.766-6.954,15.813-9.134,24.063-1.659,6.278-2.611,12.64-3.022,18.981-.316,4.871-.259,9.708,.204,14.499,.328,3.389,1.241,6.571,1.857,9.831-.571,.76-1.041,1.518-1.637,2.157-4.709,5.054-9.061,10.423-13.811,15.455-9.249,9.791-18.461,19.598-28.892,28.155-4.002,3.282-8.183,6.233-12.63,8.714-2.8,1.562-5.766,2.788-8.859,3.424-3.958,.815-7.097-.321-8.561-3.365-.881-1.834-1.199-3.943-1.221-6.068-.045-4.496,.452-8.964,1.345-13.54,1.213-6.212,2.84-12.343,4.756-18.4,3.058-9.669,6.569-19.245,9.982-28.835,2.629-7.394,5.449-14.739,7.732-22.216,.318-1.042,.535-2.185,.448-3.208-.119-1.405-.6-2.722-1.972-3.395-.994-.197-2.02-.287-2.488-.053-1.755,.972-2.365,2.115-2.856,3.234-4.911,11.194-10.023,22.328-14.061,33.802-.669,1.9-1.595,3.592-2.875,5.18-7.198,8.926-14.938,17.375-23.174,25.339-8.351,8.07-17.03,15.781-26.331,22.702-3.729,2.774-7.516,5.499-11.857,6.978-5.655,1.926-9.954,.114-11.004-5.607-.231-1.258-.304-2.518-.224-3.851,.41-6.769,2.355-13.297,5.112-19.727,6.878-16.057,16.108-30.923,26.159-45.376,2.498-3.595,5.382-6.978,6.963-11.269-.183-.878-.391-1.882-.574-2.761-1.11-1.075-2.244-1.708-3.808-1.367-1.488,.684-2.65,1.78-3.729,3.044-3.435,4.022-6.779,8.108-9.909,12.371-2.319,3.157-4.405,6.51-7.313,9.279-.361-.586-.187-1.038,.087-1.472,1.349-2.129,2.304-4.409,3.02-6.748,1.391-4.542,2.05-9.055,.249-13.239-1.484-3.451-4.06-5.397-8.053-5.639-5.481-.332-10.752,.869-15.963,3.416-10.237,5.002-18.643,12.42-25.887,21.389-10.551,13.048-18.639,27.371-25.183,42.508-2.479,5.729-4.555,11.483-4.974,17.563-.394,5.709,3.502,8.955,9.214,7.635,2.642-.611,5.08-1.721,7.431-3.157,3.526-2.154,6.917-4.564,10.093-7.239,7.731-6.515,15.193-13.342,22.192-20.677,6.871-7.206,13.734-14.415,20.633-21.662,.121,.325,.317,.564,.253,.729-.309,.798-.664,1.586-1.047,2.359-5.84,11.776-10.661,23.744-11.584,36.553-.261,3.632-.126,7.124,.963,10.396,2.07,6.212,6.748,9.021,12.652,8.665,3.838-.231,7.499-1.839,10.875-4.079,5.013-3.328,9.785-7.026,14.332-11.02,4.173-3.667,8.287-7.404,12.376-11.167,5.471-5.038,10.681-10.342,15.614-15.92,3.528-3.991,7.094-7.947,10.922-12.233-.099,.816-.067,1.298-.223,1.732-1.96,5.452-3.422,11.019-4.534,16.572-1.455,7.266-2.501,14.609-2.021,21.839,.21,3.153,.706,6.275,2.107,9.034,2.164,4.258,5.253,7.036,10.624,7.005,4.118-.023,7.992-.933,11.839-2.76,9.202-4.372,16.942-10.995,24.325-18.038,3.816-3.642,7.721-7.211,11.262-11.163,4.528-5.056,9.278-9.911,13.824-14.948,4.012-4.447,7.877-9.025,11.887-13.641,.478,.584,.84,1.007,1.182,1.447,3.531,4.553,8.218,7.444,13.9,8.823,3.409,.828,6.806,1.845,10.607,.541,.717-.246,1.67-.395,2.376,.489-1.401,2.661-2.812,5.409-4.287,8.127-3.096,5.704-5.628,11.574-7.073,17.778-.597,2.563-.452,5.061,.4,7.306,1.081,2.848,3.163,4.476,6.532,4.453,3.079-.021,5.878-1.096,8.585-2.637,3.453-1.966,6.724-4.282,9.787-6.869,5.747-4.853,11.369-9.835,16.824-15.056,10.066-9.64,19.562-19.81,29.424-29.716-.119,.323-.19,.671-.362,.966-4.655,7.961-8.526,16.251-12.022,24.682-3.032,7.309-5.392,14.767-6.243,22.47-.332,3-.151,5.947,.479,8.767,.819,3.665,2.673,6.651,6.358,7.752,2.634,.787,5.499,.638,8.365-.07,5.702-1.409,10.437-4.826,14.912-8.682,3.606-3.109,6.982-6.475,10.311-9.907,5.673-5.851,11.135-11.895,16.423-18.069,6.333-7.4,12.515-14.94,18.311-22.768,.355-.48,.677-.991,1.675-1.21-8.119,18.251-15.632,36.493-22.886,54.72,.39,1.336,.564,2.707,2.336,2.651,1.823-.58,2.544-2.213,3.338-3.752,4.489-8.704,8.914-17.434,13.452-26.113,2.465-4.718,4.798-9.499,7.978-13.875,9.68-13.327,20.863-25.225,33.01-36.262,7.242-6.585,14.916-12.4,23.412-17.005,2.281-1.237,4.604-2.103,6.971-2.651,1.042,.761,.618,1.615,.234,2.589-2.129,5.4-5.123,10.424-7.829,15.567-5.016,9.525-10.007,19.06-13.716,29.093-3.449,9.321-6.606,18.678-6.35,28.508,.092,3.506,.732,6.71,1.913,9.842,2.152,5.706,9.209,8.358,14.959,6.325,3.762-1.33,7.073-3.398,10.12-5.999,6.093-5.204,11.537-11.082,16.829-17.096,3.674-4.177,7.264-8.429,10.941-12.708,.413,1.034,.153,2.028-.238,2.894-.476,1.055-.653,2.105-.77,3.18-.47,4.317-.995,8.637-1.356,12.952-.294,3.508,.283,6.847,1.694,9.885,1.812,3.898,4.868,6.011,9.402,6.154,5.036,.16,9.571-1.796,13.993-4.337,4.083-2.347,7.783-5.306,11.313-8.47,3.436-3.082,6.719-6.326,9.937-9.656,5.722-5.926,11.222-12.03,16.426-18.407,.499-.612,.976-1.278,1.883-1.574-1.239,9.671-33.316,96.17-39.454,106.447-.746,0-1.637,.194-2.362-.033-3.657-1.14-7.628-.77-11.423-1.139-6.366-.618-12.928-.191-19.325-.821-4.441-.438-9.002,.794-13.457,.555-6.459-.347-13.011,.855-19.488,.83-.235,0-.482-.012-.71,.052-3.642,1.025-7.283,.459-10.951,1.237-2.801,.594-5.675,.431-8.488,.96-6.685,1.256-13.388,2.096-20.079,3.328-7.751,1.427-15.482,3.024-23.185,4.831-4.472,1.048-8.931,2.178-13.382,3.359h15.263c5.088-1.169,10.185-2.268,15.304-3.193Zm175.342-155.232c.01-.057,.006-.12,.027-.173,.034-.015,.076-.025,.114-.037-.076-.943,.428-1.755,.775-2.624,2.6-6.508,5.709-12.779,9.612-18.69,.334-.505,.701-.989,1.021-1.44,.835,.114,.626,.704,.496,1.049-2.875,7.592-6.712,14.734-11.403,21.468-.091,.13-.308,.175-.501,.237,.004,.046-.026,.084-.019,.131-.055,.019-.072,.058-.121,.08-.06,.347,.004,.739-.449,.957-.209-.508,.036-.776,.449-.957Zm-471.389,26.744c-.763,1.186-1.99,2.286-1.677,3.893-7.071,7.007-14.181,14-21.368,20.92-4.1,3.946-8.168,7.926-12.488,11.609-5.949,5.069-12.08,9.898-18.776,13.855-3.624,2.141-5.108,2.652-7.941,2.646-.784-1.461-.703-2.725-.283-4.267,2.561-9.424,7.151-18.111,11.915-26.767,5.387-9.793,11.393-19.197,18.675-27.797,6.081-7.186,12.89-13.477,21.195-17.84,3.317-1.743,6.738-2.952,10.25-3.69,3.978-.836,7.186,1.841,7.862,6.092,.609,3.822-.389,7.499-1.829,11.23-1.39,3.602-3.439,6.855-5.535,10.116Zm145.975-1.888c-.09-2.409-.397-4.811-.186-7.325,.189-2.256-.083-4.514,.266-6.754,1.018-6.537,2.257-13.046,4.105-19.525,5.337-18.733,14.458-35.766,26.426-51.549,3.627-4.787,7.526-9.369,12.02-13.366,1.86-1.655,3.806-3.254,5.864-4.608,2.159-1.421,4.495-2.534,7.107-2.98,2.872,.571,3.647,2.796,3.577,5.645-.085,3.493-.871,6.943-2.156,10.285-3.566,9.273-7.276,18.495-11.787,27.457-4.196,8.332-9.139,16.239-14.535,23.886-6.553,9.282-13.265,18.463-20.37,27.363-2.968,3.716-5.959,7.415-8.945,11.118-.235,.292-.5,.558-1.387,.353Zm82.765,1.27c-6.048,6.189-12.02,12.467-18.245,18.474-6.326,6.101-12.742,12.113-19.563,17.669-4.472,3.64-8.906,7.31-13.752,10.384-2.524,1.6-5.167,2.892-7.982,3.402-.869-.434-1.052-1.139-.996-2.062,.154-2.554,.961-4.974,2.081-7.348,3.397-7.203,7.619-13.977,11.962-20.699,4.002-6.197,8.108-12.32,12.479-18.278,4.529-6.177,9.296-12.2,14.906-17.391,5.709-5.285,11.961-9.843,19.335-12.115,2.747-.846,5.352-.873,7.742,.526,1.94,1.135,3.205,2.762,3.658,5.035,.316,1.585,.69,3.184,.722,4.819,.032,1.646-.326,3.346-.548,5.334-3.974,4.132-7.86,8.217-11.8,12.25Z" fill="#232323"/>
    <path d="M923.403,116.845c-.038,.012-.079,.022-.114,.037-.021,.053-.017,.116-.027,.173,.05-.022,.066-.06,.121-.08-.007-.046,.023-.085,.019-.131Z" fill="#232323"/>
    <path d="M87.287,288.561c-.57-.049-1.145-.063-1.714-.119-5.771-.577-11.512-1.198-17.114-2.334-10.24-2.076-19.991-5.151-28.636-10.553-5.551-3.47-10.119-7.859-13.278-13.629-2.915-5.328-3.824-11.437-2.892-17.836,.67-4.6,2.398-9.2,4.647-13.603,4.189-8.202,10.014-15.247,16.604-21.712,7.145-7.014,15.073-12.985,23.474-18.162,13.866-8.55,28.386-15.243,43.384-20.497,11.201-3.926,22.552-6.66,33.918-9.21,5.15-1.156,10.323-2.073,15.489-2.982,5.63-.99,11.263-1.909,16.895-2.735,4.231-.621,8.465-1.084,12.694-1.534,1.257-.134,2.584-.342,3.645,.122,.266,1.099-.407,1.784-.819,2.533-5.745,10.442-11.281,20.974-16.04,31.811-3.206,7.295-6.263,14.624-7.136,22.401-.374,3.333-.025,6.359,1.311,9.156,.139,.29,.443,.483,.693,.745,.905,.18,1.805,.343,2.965-.783,.379-.872,.444-1.936,.085-3.121-.999-3.301-.298-6.846,.689-10.255,1.395-4.819,3.386-9.53,5.571-14.148,5.984-12.654,12.785-24.956,19.789-37.162,.541-.943,.93-2.1,2.726-2.886,1.274,0,3.173,.343,5.01-.066,5.114-1.138,10.061,.06,15.158-1.24,11.915,.215,23.97-.606,35.77,.542,6.195,.602,12.273,1.456,18.103,3.124,5.047,1.444,9.547,3.841,12.446,8.35,.311,.484,.654,.902,1.376,.77,.776-.567,.762-1.292,.351-1.852-1.381-1.876-2.736-3.763-4.638-5.18-4.968-3.702-10.997-5.127-17.106-6.368-2.219-.451-4.526-.627-6.798-.901-5.013-.605-9.993-1.321-15.139-1.27-11.024,.109-21.973-.412-33.112,.656-2.82,.271-5.587-.217-8.462,.658-.644,.196-1.438,.224-1.93-.369,.057-.237,.056-.499,.176-.695,8.09-13.226,16.26-26.41,25.546-38.912,6.626-8.931,13.552-17.649,20.291-26.494,1.909-2.507,3.91-4.978,5.32-7.796,1.985-3.968,1.389-5.59-2.4-6.852-1.651,.297-2.946,1.263-4.155,2.422-3.017,2.892-6.034,5.785-9.024,8.71-6.255,6.115-12.266,12.454-18.092,18.981-4.552,5.097-8.946,10.309-12.543,16.137-1.536,2.488-2.51,5.121-3.565,7.743-.352,.874-.62,1.961,.564,2.421,1.432-2.769,2.735-5.594,4.535-8.178,5.097-7.32,11.458-13.508,17.76-19.742,.197-.195,.552-.614,.783,.026-12.336,17.083-22.962,35.188-33.481,53.33-3.505,.092-6.796,.738-10.093,.967-4.43,.308-8.918,1.476-13.361,1.881-5.413,.493-10.82,1.48-16.209,2.409-9.616,1.657-19.244,3.568-28.825,5.847-14.222,3.383-28.206,8.22-41.863,14.465-11.673,5.336-22.921,11.61-33.516,19.391-7.84,5.754-15.026,12.168-21.238,19.697-8.577,10.389-14.365,21.642-14.849,34.566-.289,7.754,1.812,14.423,5.907,20.27,6.017,8.582,14.559,14.011,24.294,17.923,10.856,4.36,22.496,6.573,34.48,7.631,1.661-2.34,3.523-4.522,5.579-6.513Z" fill="#232323"/>
    <path d="M254.46,256.463c13.535-6.699,26.663-14.221,39.379-22.609,11.041-7.288,21.501-15.425,31.638-24.01,3.669-3.109,7.073-6.529,10.559-9.854,7.895-7.533,15.138-15.631,21.925-24.133,7.742-9.706,14.465-20.035,19.891-31.049,5.639-11.456,9.869-23.235,11.296-35.585,.553-4.789,1.179-9.577,.962-14.301-.503-10.952-3.198-21.071-8.109-30.267-3.552-6.658-8.03-12.544-13.375-17.763-8.682-8.485-18.576-15.162-29.845-19.978-9.419-4.027-19.285-6.817-29.554-8.754-7.482-1.411-15.112-2.071-22.774-2.567-5.985-.388-12.086-.34-18.175,.004-6.983,.394-13.98,.885-21.016,1.86-4.319,.599-8.67,1.019-12.972,1.83-8.157,1.539-16.305,3.286-24.434,5.467-15.639,4.194-30.922,9.892-45.85,17.06-10.489,5.033-20.66,10.887-30.36,17.714-11.7,8.228-22.769,17.28-32.298,28.2-6.121,7.009-11.565,14.452-14.38,23.277-1.785,5.595-1.948,10.927,.153,15.888,.787,1.857,1.921,3.455,3.61,4.392,.815-.34,1.332-.663,1.417-1.379-.051-.227-.035-.501-.158-.656-3.922-4.948-3.888-10.777-1.546-17.243,2.993-8.266,8.283-15.18,14.218-21.667,6.635-7.256,14.028-13.645,21.735-19.661,11.005-8.597,22.738-15.695,34.961-21.857,10.752-5.424,21.761-9.906,32.965-13.583,9.319-3.06,18.708-5.692,28.18-7.6,5.484-1.105,10.958-2.237,16.461-2.962,3.976-.523,7.947-1.055,11.924-1.497,5.035-.56,10.084-1.156,15.056-1.165,8.374-.013,16.79-.352,25.064,.465,4.789,.472,9.597,.935,14.256,1.784,10.029,1.829,19.8,4.42,28.995,8.434,15.459,6.745,28.71,16.173,38.182,30.349,7.518,11.234,10.997,24.095,10.52,38.441-.268,8.105-1.887,16.277-4.596,24.255-3.174,9.339-7.456,18.314-12.629,26.939-9.196,15.318-20.581,28.981-33.387,41.496-6.8,6.64-13.901,12.967-21.374,18.855-8.843,6.964-18.002,13.395-27.426,19.424-7.942,5.078-16.097,9.707-24.391,14.065-13.837,7.265-27.978,13.663-42.378,19.246-9.522,3.69-19.168,6.856-28.873,9.711h21.716c15.21-5.494,30.168-11.761,44.837-19.016Z" fill="#232323"/>
  </g>
  <g>
    <path d="M141.978,324.925c1.157,1.369,1.735,3.15,1.735,5.343,0,2.984-.92,5.214-2.763,6.69-1.843,1.479-4.132,2.216-6.874,2.216h-12.285c-.397,0-.725-.129-.984-.387-.258-.258-.387-.587-.387-.984v-29.231c0-.394,.129-.721,.387-.981,.258-.258,.587-.387,.984-.387h12.101c2.559,0,4.561,.7,6.007,2.101,1.446,1.401,2.169,3.319,2.169,5.754,0,1.615-.397,3.061-1.188,4.341-.791,1.277-1.918,2.207-3.38,2.784,1.829,.458,3.319,1.371,4.477,2.742Zm-4.315-13.587c-.991-.96-2.369-1.439-4.134-1.439h-10.186v11.418h10.186c1.643-.031,2.991-.563,4.042-1.599,1.049-1.035,1.575-2.512,1.575-4.43,0-1.676-.495-2.993-1.484-3.951Zm1.232,23.59c1.263-1.035,1.894-2.589,1.894-4.66,0-2.132-.646-3.7-1.941-4.704-1.293-1.005-2.96-1.507-5-1.507h-10.505v12.423h10.597c2.04,0,3.69-.516,4.956-1.552Z" fill="#232323"/>
    <path d="M177.876,327.094c-.275,.258-.594,.387-.96,.387h-17.264c0,1.829,.373,3.465,1.12,4.911,.744,1.446,1.81,2.587,3.197,3.425,1.385,.838,3.021,1.256,4.909,1.256,1.463,0,2.77-.303,3.927-.913,1.157-.608,2.087-1.385,2.787-2.329,.336-.275,.655-.411,.96-.411,.303,0,.577,.122,.822,.364,.244,.244,.366,.519,.366,.822,0,.336-.155,.655-.458,.96-.974,1.188-2.2,2.162-3.676,2.923-1.479,.761-3.038,1.143-4.681,1.143-2.345,0-4.416-.502-6.212-1.507-1.798-1.007-3.197-2.413-4.202-4.226-1.005-1.812-1.507-3.906-1.507-6.28,0-2.498,.493-4.683,1.484-6.554,.988-1.873,2.305-3.305,3.951-4.294,1.643-.991,3.395-1.484,5.251-1.484,1.826,0,3.54,.425,5.139,1.277,1.599,.854,2.899,2.101,3.906,3.747,1.005,1.643,1.521,3.592,1.552,5.845,0,.366-.136,.678-.411,.937Zm-15.095-7.331c-1.507,1.218-2.474,2.97-2.902,5.254h15.576v-.366c-.153-1.371-.61-2.566-1.371-3.585-.761-1.021-1.714-1.796-2.855-2.331-1.141-.531-2.322-.798-3.54-.798-1.765,0-3.402,.61-4.909,1.826Z" fill="#232323"/>
    <path d="M195.712,338.787c-.261,.258-.587,.387-.984,.387-.394,0-.723-.129-.981-.387-.258-.258-.387-.587-.387-.984v-31.058c0-.394,.129-.723,.387-.981s.587-.387,.981-.387c.397,0,.723,.129,.984,.387,.258,.258,.387,.587,.387,.981v31.058c0,.397-.129,.725-.387,.984Z" fill="#232323"/>
    <path d="M215.352,338.787c-.261,.258-.587,.387-.984,.387-.394,0-.723-.129-.981-.387s-.387-.587-.387-.984v-31.058c0-.394,.129-.723,.387-.981s.587-.387,.981-.387c.397,0,.723,.129,.984,.387,.258,.258,.387,.587,.387,.981v31.058c0,.397-.129,.725-.387,.984Z" fill="#232323"/>
    <path d="M251.229,327.094c-.275,.258-.594,.387-.96,.387h-17.264c0,1.829,.373,3.465,1.12,4.911,.744,1.446,1.81,2.587,3.197,3.425,1.385,.838,3.021,1.256,4.909,1.256,1.463,0,2.77-.303,3.927-.913,1.157-.608,2.087-1.385,2.787-2.329,.336-.275,.655-.411,.96-.411,.303,0,.577,.122,.822,.364,.244,.244,.366,.519,.366,.822,0,.336-.155,.655-.458,.96-.974,1.188-2.2,2.162-3.676,2.923-1.479,.761-3.038,1.143-4.681,1.143-2.345,0-4.416-.502-6.212-1.507-1.798-1.007-3.197-2.413-4.202-4.226-1.005-1.812-1.507-3.906-1.507-6.28,0-2.498,.493-4.683,1.484-6.554,.988-1.873,2.305-3.305,3.951-4.294,1.643-.991,3.395-1.484,5.251-1.484,1.826,0,3.54,.425,5.139,1.277,1.599,.854,2.899,2.101,3.906,3.747,1.005,1.643,1.521,3.592,1.552,5.845,0,.366-.136,.678-.411,.937Zm-15.095-7.331c-1.507,1.218-2.474,2.97-2.902,5.254h15.576v-.366c-.153-1.371-.61-2.566-1.371-3.585-.761-1.021-1.714-1.796-2.855-2.331-1.141-.531-2.322-.798-3.54-.798-1.765,0-3.402,.61-4.909,1.826Z" fill="#232323"/>
    <path d="M282.012,336.982c.242,.244,.364,.549,.364,.913,0,.366-.122,.671-.364,.913-.244,.244-.566,.366-.96,.366h-14.843c-.397,0-.716-.143-.96-.434-.244-.289-.364-.585-.364-.89,0-.397,.136-.747,.411-1.052l13.519-18.726h-11.465c-.366,0-.678-.12-.937-.364-.258-.244-.387-.549-.387-.913,0-.366,.129-.671,.387-.916,.258-.242,.57-.364,.937-.364h14.022c.366,0,.669,.136,.913,.411s.366,.594,.366,.958c0,.336-.122,.671-.366,1.007l-13.564,18.724h12.332c.394,0,.716,.122,.96,.366Z" fill="#232323"/>
    <path d="M317.387,316.246c.258,.275,.387,.61,.387,1.005v20.553c0,.397-.129,.725-.387,.984-.261,.258-.587,.387-.984,.387-.394,0-.723-.129-.981-.387s-.387-.587-.387-.984v-3.059c-.763,1.369-1.904,2.528-3.427,3.47-1.521,.946-3.181,1.418-4.977,1.418-2.04,0-3.876-.533-5.505-1.599s-2.909-2.528-3.836-4.385c-.93-1.857-1.392-3.944-1.392-6.258s.47-4.39,1.416-6.233c.944-1.843,2.23-3.282,3.859-4.317,1.627-1.035,3.432-1.552,5.411-1.552,1.826,0,3.502,.441,5.024,1.324,1.524,.883,2.664,2.04,3.427,3.47v-2.831c0-.394,.129-.73,.387-1.005s.587-.411,.981-.411c.397,0,.723,.136,.984,.411Zm-6.212,19.571c1.263-.838,2.251-1.993,2.967-3.472,.716-1.477,1.073-3.127,1.073-4.956,0-1.765-.357-3.378-1.073-4.841-.716-1.463-1.704-2.61-2.967-3.449-1.265-.838-2.688-1.256-4.272-1.256s-3.007,.411-4.27,1.232c-1.263,.824-2.254,1.958-2.967,3.404-.716,1.446-1.075,3.082-1.075,4.909s.35,3.479,1.052,4.956c.7,1.479,1.681,2.634,2.946,3.472,1.263,.838,2.702,1.256,4.315,1.256,1.585,0,3.007-.418,4.272-1.256Z" fill="#232323"/>
    <path d="M381.943,337.759c0,.305-.113,.594-.343,.869-.228,.272-.523,.411-.89,.411-.305,0-.58-.077-.822-.23l-1.005-.775c-1.401-1.035-2.589-1.965-3.564-2.787-1.31,1.369-2.871,2.444-4.681,3.218-1.812,.777-3.859,1.167-6.143,1.167-2.101,0-3.995-.495-5.686-1.486-1.69-.988-3.007-2.284-3.951-3.883-.944-1.596-1.416-3.279-1.416-5.045,0-2.009,.577-3.859,1.735-5.55,1.157-1.69,2.862-2.977,5.115-3.859-1.279-2.009-1.918-3.866-1.918-5.573,0-1.43,.35-2.709,1.049-3.836,.702-1.127,1.697-2.017,2.993-2.671,1.293-.655,2.808-.984,4.545-.984,2.071,0,3.843,.397,5.319,1.188,1.477,.793,2.519,1.782,3.129,2.97,.153,.305,.228,.594,.228,.866,0,.305-.122,.573-.364,.801-.244,.228-.549,.343-.913,.343-.488,0-.824-.167-1.007-.502-.669-1.005-1.514-1.782-2.533-2.329-1.021-.549-2.308-.824-3.859-.824-1.829,0-3.237,.451-4.226,1.347-.991,.899-1.484,2.11-1.484,3.632,0,1.279,.479,2.695,1.439,4.247,.958,1.554,2.244,3.228,3.859,5.026,2.251,2.526,5.038,5.207,8.357,8.038,1.066-1.796,1.796-3.775,2.193-5.937,.061-.275,.19-.502,.387-.685,.197-.183,.481-.275,.845-.275,.397,0,.723,.16,.984,.479,.258,.319,.357,.693,.296,1.12-.366,2.498-1.249,4.812-2.648,6.942,1.277,1.066,2.74,2.209,4.383,3.425,.397,.305,.594,.685,.594,1.143Zm-8.632-4.157c-3.228-2.587-6.303-5.557-9.226-8.906-1.096-1.277-1.873-2.221-2.329-2.831-1.89,.58-3.275,1.493-4.157,2.742-.883,1.249-1.324,2.664-1.324,4.247,0,1.401,.326,2.725,.981,3.974,.655,1.249,1.629,2.254,2.923,3.014,1.296,.761,2.84,1.141,4.636,1.141,3.502,0,6.334-1.127,8.496-3.38Z" fill="#232323"/>
    <path d="M439.674,324.925c1.157,1.369,1.735,3.15,1.735,5.343,0,2.984-.92,5.214-2.763,6.69-1.843,1.479-4.132,2.216-6.874,2.216h-12.285c-.397,0-.725-.129-.984-.387s-.387-.587-.387-.984v-29.231c0-.394,.129-.721,.387-.981,.258-.258,.587-.387,.984-.387h12.101c2.559,0,4.561,.7,6.007,2.101,1.446,1.401,2.169,3.319,2.169,5.754,0,1.615-.397,3.061-1.188,4.341-.791,1.277-1.918,2.207-3.38,2.784,1.829,.458,3.319,1.371,4.477,2.742Zm-4.315-13.587c-.991-.96-2.369-1.439-4.134-1.439h-10.186v11.418h10.186c1.643-.031,2.991-.563,4.042-1.599,1.049-1.035,1.575-2.512,1.575-4.43,0-1.676-.495-2.993-1.484-3.951Zm1.232,23.59c1.263-1.035,1.894-2.589,1.894-4.66,0-2.132-.646-3.7-1.941-4.704-1.293-1.005-2.96-1.507-5-1.507h-10.505v12.423h10.597c2.04,0,3.69-.516,4.956-1.552Z" fill="#232323"/>
    <path d="M456.163,311.929c-.336-.289-.502-.707-.502-1.256v-.455c0-.549,.174-.967,.523-1.256,.35-.289,.831-.434,1.439-.434,1.218,0,1.826,.563,1.826,1.69v.455c0,.549-.16,.967-.479,1.256-.319,.291-.784,.434-1.392,.434s-1.082-.143-1.416-.434Zm2.397,26.858c-.258,.258-.587,.387-.981,.387-.397,0-.723-.129-.984-.387-.258-.258-.387-.587-.387-.984v-21.008c0-.397,.129-.723,.387-.984,.261-.258,.587-.387,.984-.387,.394,0,.723,.129,.981,.387,.258,.261,.387,.587,.387,.984v21.008c0,.397-.129,.725-.387,.984Z" fill="#232323"/>
    <path d="M494.526,327.094c-.275,.258-.594,.387-.96,.387h-17.264c0,1.829,.373,3.465,1.12,4.911,.744,1.446,1.81,2.587,3.197,3.425,1.385,.838,3.021,1.256,4.909,1.256,1.463,0,2.77-.303,3.927-.913,1.157-.608,2.087-1.385,2.787-2.329,.336-.275,.655-.411,.96-.411,.303,0,.577,.122,.822,.364,.244,.244,.366,.519,.366,.822,0,.336-.155,.655-.458,.96-.974,1.188-2.2,2.162-3.676,2.923-1.479,.761-3.038,1.143-4.681,1.143-2.345,0-4.416-.502-6.212-1.507-1.798-1.007-3.197-2.413-4.202-4.226-1.005-1.812-1.507-3.906-1.507-6.28,0-2.498,.493-4.683,1.484-6.554,.988-1.873,2.305-3.305,3.951-4.294,1.643-.991,3.395-1.484,5.251-1.484,1.826,0,3.54,.425,5.139,1.277,1.599,.854,2.899,2.101,3.906,3.747,1.005,1.643,1.521,3.592,1.552,5.845,0,.366-.136,.678-.411,.937Zm-15.095-7.331c-1.507,1.218-2.474,2.97-2.902,5.254h15.576v-.366c-.153-1.371-.61-2.566-1.371-3.585-.761-1.021-1.714-1.796-2.855-2.331-1.141-.531-2.322-.798-3.54-.798-1.765,0-3.402,.61-4.909,1.826Z" fill="#232323"/>
    <path d="M526.978,317.777c1.324,1.66,1.986,3.859,1.986,6.599v13.428c0,.397-.136,.725-.413,.984-.272,.258-.592,.387-.958,.387-.394,0-.723-.129-.981-.387-.258-.258-.39-.587-.39-.984v-13.289c0-1.979-.493-3.587-1.484-4.819-.991-1.232-2.521-1.85-4.592-1.85-1.31,0-2.549,.305-3.723,.913-1.169,.61-2.122,1.425-2.855,2.444-.728,1.021-1.094,2.125-1.094,3.312v13.289c0,.397-.131,.725-.39,.984-.258,.258-.587,.387-.981,.387s-.723-.129-.981-.387-.39-.587-.39-.984v-20.461c0-.394,.131-.723,.39-.981s.587-.39,.981-.39,.723,.131,.981,.39c.258,.258,.39,.587,.39,.981v2.512c.822-1.308,2-2.397,3.54-3.265,1.535-.869,3.113-1.301,4.728-1.301,2.831,0,4.906,.829,6.235,2.488Z" fill="#232323"/>
    <path d="M564.59,327.094c-.277,.258-.596,.387-.962,.387h-17.264c0,1.829,.376,3.465,1.122,4.911,.742,1.446,1.808,2.587,3.197,3.425,1.385,.838,3.019,1.256,4.906,1.256,1.465,0,2.77-.303,3.93-.913,1.155-.608,2.085-1.385,2.784-2.329,.338-.275,.657-.411,.962-.411,.3,0,.577,.122,.822,.364,.244,.244,.366,.519,.366,.822,0,.336-.155,.655-.46,.96-.972,1.188-2.197,2.162-3.676,2.923-1.479,.761-3.038,1.143-4.681,1.143-2.343,0-4.413-.502-6.212-1.507-1.798-1.007-3.197-2.413-4.202-4.226-1.005-1.812-1.507-3.906-1.507-6.28,0-2.498,.493-4.683,1.484-6.554,.991-1.873,2.305-3.305,3.953-4.294,1.643-.991,3.395-1.484,5.249-1.484,1.826,0,3.54,.425,5.141,1.277,1.596,.854,2.897,2.101,3.906,3.747,1.005,1.643,1.521,3.592,1.549,5.845,0,.366-.136,.678-.408,.937Zm-15.095-7.331c-1.507,1.218-2.474,2.97-2.902,5.254h15.573v-.366c-.15-1.371-.61-2.566-1.371-3.585-.761-1.021-1.714-1.796-2.855-2.331-1.141-.531-2.319-.798-3.54-.798-1.765,0-3.399,.61-4.906,1.826Z" fill="#232323"/>
    <path d="M578.107,334.47c0-.394,.197-.7,.592-.913,.183-.183,.427-.275,.732-.275,.366,0,.7,.153,1.005,.458,1.798,2.373,4.188,3.561,7.169,3.561,1.465,0,2.733-.343,3.817-1.026,1.08-.685,1.62-1.683,1.62-2.993,0-1.279-.502-2.237-1.507-2.878-1.005-.639-2.409-1.185-4.202-1.643-2.531-.639-4.507-1.47-5.939-2.488-1.432-1.021-2.146-2.519-2.146-4.5,0-1.247,.352-2.366,1.052-3.357,.7-.988,1.648-1.758,2.855-2.305,1.202-.549,2.563-.822,4.085-.822,1.31,0,2.629,.251,3.953,.754,1.324,.502,2.46,1.301,3.404,2.397,.272,.214,.408,.519,.408,.913,0,.366-.15,.685-.455,.96-.216,.181-.488,.272-.822,.272-.305,0-.577-.12-.822-.364-.732-.822-1.601-1.446-2.606-1.873-1.005-.425-2.085-.639-3.24-.639-1.432,0-2.657,.336-3.681,1.005-1.019,.669-1.526,1.674-1.526,3.014,.056,1.218,.615,2.146,1.667,2.787,1.047,.639,2.592,1.218,4.634,1.735,1.582,.397,2.892,.838,3.93,1.324,1.033,.488,1.878,1.174,2.531,2.056,.657,.883,.986,2.054,.986,3.517,0,1.979-.793,3.554-2.376,4.728-1.582,1.171-3.549,1.758-5.892,1.758-3.714,0-6.667-1.387-8.86-4.157-.244-.394-.366-.73-.366-1.005Z" fill="#232323"/>
    <path d="M614.92,318.483v15.301c0,1.157,.211,1.941,.639,2.352,.423,.411,.986,.617,1.69,.617,.183,0,.408-.038,.685-.115,.272-.075,.484-.113,.639-.113,.272,0,.507,.113,.709,.34,.197,.23,.296,.495,.296,.801,0,.427-.244,.784-.732,1.073-.488,.291-1.066,.434-1.732,.434-.826,0-1.554-.075-2.193-.228-.643-.153-1.258-.61-1.85-1.371-.596-.761-.892-1.979-.892-3.653v-15.44h-3.333c-.366,0-.681-.12-.939-.364s-.385-.549-.385-.913c0-.366,.127-.669,.385-.913,.258-.244,.573-.366,.939-.366h3.333v-5.071c0-.394,.127-.723,.39-.981,.258-.258,.582-.387,.981-.387,.394,0,.723,.129,.981,.387,.258,.258,.39,.587,.39,.981v5.071h4.564c.338,0,.634,.136,.892,.411,.258,.275,.39,.58,.39,.913,0,.366-.122,.662-.366,.892-.244,.228-.549,.34-.916,.34h-4.564Z" fill="#232323"/>
    <path d="M654.908,316.246c.258,.275,.385,.61,.385,1.005v20.553c0,.397-.127,.725-.385,.984-.263,.258-.587,.387-.986,.387-.394,0-.723-.129-.981-.387s-.385-.587-.385-.984v-3.059c-.765,1.369-1.906,2.528-3.427,3.47-1.521,.946-3.183,1.418-4.977,1.418-2.042,0-3.878-.533-5.507-1.599-1.629-1.066-2.906-2.528-3.836-4.385-.93-1.857-1.39-3.944-1.39-6.258s.47-4.39,1.413-6.233,2.23-3.282,3.859-4.317c1.629-1.035,3.432-1.552,5.413-1.552,1.826,0,3.502,.441,5.024,1.324,1.521,.883,2.662,2.04,3.427,3.47v-2.831c0-.394,.127-.73,.385-1.005s.587-.411,.981-.411c.399,0,.723,.136,.986,.411Zm-6.212,19.571c1.263-.838,2.249-1.993,2.967-3.472,.714-1.477,1.07-3.127,1.07-4.956,0-1.765-.357-3.378-1.07-4.841-.718-1.463-1.704-2.61-2.967-3.449-1.268-.838-2.69-1.256-4.272-1.256s-3.01,.411-4.272,1.232c-1.263,.824-2.254,1.958-2.967,3.404-.714,1.446-1.075,3.082-1.075,4.909s.352,3.479,1.052,4.956c.7,1.479,1.681,2.634,2.948,3.472,1.263,.838,2.7,1.256,4.315,1.256,1.582,0,3.005-.418,4.272-1.256Z" fill="#232323"/>
    <path d="M684.158,315.652c.488,.244,.732,.61,.732,1.096,0,.427-.122,.77-.366,1.028s-.535,.387-.869,.387c-.155,0-.451-.075-.892-.228s-.859-.228-1.254-.228c-1.127,0-2.249,.434-3.357,1.301-1.113,.869-2.028,1.988-2.742,3.357-.714,1.371-1.075,2.756-1.075,4.157v11.28c0,.397-.127,.725-.385,.984s-.587,.387-.981,.387c-.399,0-.728-.129-.986-.387s-.385-.587-.385-.984v-20.461c0-.394,.127-.723,.385-.981,.258-.258,.587-.39,.986-.39,.394,0,.723,.131,.981,.39s.385,.587,.385,.981v4.019c.704-1.735,1.761-3.174,3.179-4.315,1.413-1.143,3.08-1.728,5-1.758,.606,0,1.155,.12,1.643,.364Z" fill="#232323"/>
    <path d="M744.926,307.567c.23,.244,.343,.549,.343,.916v29.229c0,.458-.136,.817-.408,1.075-.277,.258-.61,.387-1.005,.387-.216,0-.418-.045-.62-.136-.197-.092-.357-.2-.479-.322l-19.592-26.398v25.623c0,.336-.131,.624-.39,.866-.258,.244-.554,.366-.887,.366-.366,0-.671-.122-.916-.366-.244-.242-.366-.531-.366-.866v-29.37c0-.425,.131-.761,.39-1.005,.258-.242,.568-.364,.934-.364,.488,0,.854,.167,1.099,.502l19.686,26.536v-25.759c0-.366,.117-.671,.362-.916,.244-.242,.549-.364,.916-.364,.394,0,.709,.122,.934,.364Z" fill="#232323"/>
    <path d="M782.242,316.246c.258,.275,.39,.61,.39,1.005v20.553c0,.397-.131,.725-.39,.984s-.587,.387-.981,.387-.723-.129-.981-.387-.39-.587-.39-.984v-3.059c-.761,1.369-1.901,2.528-3.427,3.47-1.521,.946-3.179,1.418-4.977,1.418-2.038,0-3.873-.533-5.503-1.599-1.629-1.066-2.911-2.528-3.836-4.385-.93-1.857-1.394-3.944-1.394-6.258s.47-4.39,1.418-6.233c.944-1.843,2.23-3.282,3.859-4.317,1.624-1.035,3.432-1.552,5.409-1.552,1.826,0,3.502,.441,5.024,1.324,1.526,.883,2.667,2.04,3.427,3.47v-2.831c0-.394,.131-.73,.39-1.005s.587-.411,.981-.411,.723,.136,.981,.411Zm-6.212,19.571c1.263-.838,2.254-1.993,2.967-3.472,.718-1.477,1.075-3.127,1.075-4.956,0-1.765-.357-3.378-1.075-4.841-.714-1.463-1.704-2.61-2.967-3.449s-2.686-1.256-4.272-1.256-3.005,.411-4.268,1.232c-1.263,.824-2.254,1.958-2.967,3.404-.718,1.446-1.075,3.082-1.075,4.909s.347,3.479,1.052,4.956c.7,1.479,1.681,2.634,2.944,3.472,1.263,.838,2.704,1.256,4.315,1.256,1.587,0,3.01-.418,4.272-1.256Z" fill="#232323"/>
    <path d="M803.501,318.483v15.301c0,1.157,.211,1.941,.639,2.352,.427,.411,.991,.617,1.69,.617,.183,0,.413-.038,.685-.115,.272-.075,.488-.113,.639-.113,.277,0,.512,.113,.709,.34,.197,.23,.296,.495,.296,.801,0,.427-.244,.784-.728,1.073-.488,.291-1.066,.434-1.737,.434-.822,0-1.554-.075-2.193-.228-.639-.153-1.254-.61-1.85-1.371-.592-.761-.892-1.979-.892-3.653v-15.44h-3.333c-.366,0-.676-.12-.934-.364-.258-.244-.39-.549-.39-.913,0-.366,.131-.669,.39-.913s.568-.366,.934-.366h3.333v-5.071c0-.394,.131-.723,.39-.981,.258-.258,.587-.387,.981-.387s.723,.129,.981,.387c.258,.258,.39,.587,.39,.981v5.071h4.568c.333,0,.629,.136,.892,.411,.258,.275,.385,.58,.385,.913,0,.366-.122,.662-.366,.892-.244,.228-.545,.34-.911,.34h-4.568Z" fill="#232323"/>
    <path d="M841.982,316.361c.258,.258,.39,.587,.39,.981v12.881c0,2.984-.84,5.275-2.512,6.874-1.676,1.599-3.991,2.397-6.944,2.397-2.925,0-5.216-.798-6.874-2.397-1.662-1.599-2.488-3.89-2.488-6.874v-12.881c0-.394,.127-.723,.385-.981s.587-.39,.986-.39c.394,0,.723,.131,.981,.39,.258,.258,.385,.587,.385,.981v12.881c0,2.193,.582,3.859,1.737,5,1.155,1.141,2.789,1.714,4.888,1.714,2.132,0,3.784-.573,4.953-1.714,1.174-1.141,1.761-2.808,1.761-5v-12.881c0-.394,.131-.723,.39-.981,.258-.258,.582-.39,.981-.39,.394,0,.723,.131,.981,.39Z" fill="#232323"/>
    <path d="M871.232,315.652c.488,.244,.732,.61,.732,1.096,0,.427-.122,.77-.366,1.028s-.531,.387-.869,.387c-.15,0-.446-.075-.887-.228s-.864-.228-1.258-.228c-1.127,0-2.244,.434-3.357,1.301-1.113,.869-2.024,1.988-2.737,3.357-.718,1.371-1.075,2.756-1.075,4.157v11.28c0,.397-.131,.725-.39,.984s-.587,.387-.981,.387-.723-.129-.981-.387c-.258-.258-.39-.587-.39-.984v-20.461c0-.394,.131-.723,.39-.981s.587-.39,.981-.39,.723,.131,.981,.39,.39,.587,.39,.981v4.019c.7-1.735,1.756-3.174,3.174-4.315,1.418-1.143,3.085-1.728,5-1.758,.61,0,1.16,.12,1.643,.364Z" fill="#232323"/>
    <path d="M904.783,316.246c.258,.275,.385,.61,.385,1.005v20.553c0,.397-.127,.725-.385,.984-.263,.258-.587,.387-.986,.387-.394,0-.723-.129-.981-.387s-.385-.587-.385-.984v-3.059c-.765,1.369-1.906,2.528-3.427,3.47-1.521,.946-3.183,1.418-4.977,1.418-2.042,0-3.878-.533-5.507-1.599-1.629-1.066-2.906-2.528-3.836-4.385-.93-1.857-1.39-3.944-1.39-6.258s.47-4.39,1.413-6.233c.944-1.843,2.23-3.282,3.859-4.317,1.629-1.035,3.432-1.552,5.413-1.552,1.826,0,3.502,.441,5.024,1.324,1.521,.883,2.662,2.04,3.427,3.47v-2.831c0-.394,.127-.73,.385-1.005,.258-.275,.587-.411,.981-.411,.399,0,.723,.136,.986,.411Zm-6.212,19.571c1.263-.838,2.249-1.993,2.967-3.472,.714-1.477,1.07-3.127,1.07-4.956,0-1.765-.357-3.378-1.07-4.841-.718-1.463-1.704-2.61-2.967-3.449-1.268-.838-2.69-1.256-4.272-1.256s-3.01,.411-4.272,1.232c-1.263,.824-2.254,1.958-2.967,3.404-.714,1.446-1.075,3.082-1.075,4.909s.352,3.479,1.052,4.956c.7,1.479,1.681,2.634,2.948,3.472,1.263,.838,2.7,1.256,4.315,1.256,1.582,0,3.005-.418,4.272-1.256Z" fill="#232323"/>
    <path d="M924.103,338.787c-.263,.258-.587,.387-.986,.387-.394,0-.723-.129-.981-.387-.258-.258-.385-.587-.385-.984v-31.058c0-.394,.127-.723,.385-.981,.258-.258,.587-.387,.981-.387,.399,0,.723,.129,.986,.387,.258,.258,.385,.587,.385,.981v31.058c0,.397-.127,.725-.385,.984Z" fill="#232323"/>
  </g>
</svg>