<?xml version="1.0" encoding="UTF-8"?>
<svg id="a" data-name="Capa 1" xmlns="http://www.w3.org/2000/svg" width="1000" height="1000" viewBox="0 0 1000 1000">
  <g>
    <g>
      <path d="M171.997,404.259c0,7.426-6.02,13.447-13.446,13.447s-13.447-6.021-13.447-13.447,6.021-13.446,13.447-13.446,13.446,6.021,13.446,13.446Z" fill="#181818"/>
      <path d="M278.891,145.435c.303,57.428-36.379,98.017-88.093,98.017h-23.754v83.278c0,13.53,6.013,18.942,13.229,21.347h-40.889c7.517-2.405,13.229-7.817,13.229-21.948V137.317c0-14.13-5.713-19.543-13.229-21.947h40.889c-7.517,2.405-13.229,7.817-13.229,21.947v102.526h20.446c60.736,0,76.67-46.602,76.67-94.409,0-64.642-56.827-102.526-106.135-102.526-78.174,0-125.98,55.923-125.98,135.298,0,66.749,39.389,114.855,101.625,114.855v4.209c-63.44,0-113.651-49.308-113.651-127.181,0-79.075,60.133-131.09,140.111-131.09,62.837,0,118.461,42.393,118.761,106.435Z" fill="#181818"/>
      <path d="M504.752,220.601c0,58.631-47.503,106.134-106.134,106.134s-106.135-47.503-106.135-106.134,47.506-106.134,106.135-106.134,106.134,47.506,106.134,106.134Zm-88.396,102.529c48.107-8.12,78.775-62.54,69.454-117.259-9.319-54.723-55.924-95.312-104.03-87.195-48.107,8.12-79.375,61.637-70.054,116.359,9.321,54.72,56.224,96.213,104.331,88.095h.3Z" fill="#181818"/>
      <path d="M979.981,152.426c-4.754-8.916-15.454-27.046-40.714-27.046h-31.8v183.663c0,13.374,6.24,18.723,13.373,21.101h-41.309c7.43-2.377,13.374-7.43,13.374-21.694V125.68h-30.61c-25.26,0-35.96,18.127-40.714,27.043l7.43-30.61h143.244l7.727,30.313Z" fill="#181818"/>
      <path d="M605.773,219.148c0-26.082,7.662-47.536,22.994-64.353,15.328-16.817,33.638-25.226,54.915-25.226,11.894,0,21.678,2.75,29.344,8.243,7.666,5.486,11.501,13.383,11.501,23.677,0,15.788-6.581,28.66-19.736,38.609-13.159,9.957-28.314,14.931-45.476,14.931-12.586,0-24.255-2.404-35.006-7.206-.463,6.867-.688,11.787-.688,14.758,0,17.163,3.203,30.947,9.611,41.359,6.401,10.412,15.902,15.615,28.487,15.615,21.277,0,37.521-11.324,48.735-33.979,.688-1.368,1.717-2.059,3.088-2.059,1.143,0,1.89,.346,2.232,1.03,.345,.691,.515,1.265,.515,1.72s-.228,1.147-.684,2.059c-14.648,22.648-33.293,33.973-55.945,33.973-15.788,0-28.719-5.714-38.785-17.156-10.07-11.442-15.1-26.773-15.1-45.995Zm19.221-14.413c8.46,4.581,18.189,6.861,29.171,6.861,16.932,0,30.204-4.974,39.815-14.924,9.607-9.956,14.413-21.681,14.413-35.182,0-8.692-2.349-15.725-7.034-21.107-4.695-5.376-11.155-8.063-19.394-8.063-15.788,0-28.604,7.207-38.439,21.619-9.839,14.419-16.016,31.354-18.531,50.797Z" fill="#181818"/>
      <path d="M630.869,344.186c29.187,0,41.549-21.291,47.045-31.594l-8.586,35.37h-141.477c8.582-2.747,15.453-8.929,15.453-25.068V132.656c0-16.139-6.871-22.32-15.453-25.068h47.731c-8.586,2.748-15.453,8.929-15.453,25.068v211.53h70.741Z" fill="#181818"/>
      <path d="M786.695,91.313v233.641c0,14.767,7.212,20.603,15.11,23.008h-47.387c8.24-2.405,15.796-7.898,15.796-23.693V91.313" fill="#181818"/>
      <path d="M673.228,66.115c20.747,15.97,47.262,23.749,72.846,22.056,12.823-.87,25.681-3.325,38.471-6.647,12.837-3.185,25.734-6.818,38.841-10.222,13.168-3.194,26.559-6.191,40.261-8.086,13.707-1.746,27.699-2.666,41.594-1.721,13.874,.821,27.765,3.081,40.782,7.653,6.506,2.238,12.762,5.101,18.573,8.513,5.779,3.433,11.225,7.449,15.384,12.383-5.186-3.995-11.156-6.875-17.198-9.344-6.1-2.383-12.324-4.424-18.775-5.707-12.753-2.986-25.974-3.803-39.069-3.77-26.307,.178-52.166,5.418-77.911,12.088-12.955,3.135-25.921,6.703-39.269,9.654-13.376,2.731-27.197,5.231-41.434,4.994-28.482,.102-56.557-12.071-73.096-31.844Z" fill="#181818"/>
    </g>
    <g>
      <path d="M237.014,406.469c.978,1.16,1.466,2.652,1.466,4.477,0,2.347-.867,4.152-2.6,5.416-1.734,1.264-4.294,1.896-7.683,1.896h-12.59v-27.37h11.808c3.05,0,5.416,.612,7.097,1.838,1.681,1.224,2.522,2.958,2.522,5.199,0,1.511-.372,2.795-1.115,3.851-.743,1.056-1.766,1.845-3.069,2.366,1.799,.391,3.187,1.167,4.164,2.327Zm-18.514-13.197v9.932h8.719c2.216,0,3.923-.424,5.122-1.271,1.199-.847,1.799-2.079,1.799-3.695s-.6-2.847-1.799-3.695c-1.199-.847-2.906-1.271-5.122-1.271h-8.719Zm15.209,21.348c1.251-.833,1.876-2.137,1.876-3.909,0-3.415-2.476-5.123-7.428-5.123h-9.657v10.284h9.657c2.45,0,4.301-.417,5.552-1.252Z" fill="#181818"/>
      <path d="M259.477,390.888h2.893v27.37h-2.893v-27.37Z" fill="#181818"/>
      <path d="M305.027,415.755v2.503h-19.354v-27.37h18.768v2.502h-15.874v9.736h14.154v2.462h-14.154v10.166h16.461Z" fill="#181818"/>
      <path d="M349.092,390.888v27.37h-2.385l-17.595-22.208v22.208h-2.893v-27.37h2.385l17.633,22.208v-22.208h2.855Z" fill="#181818"/>
      <path d="M391.749,415.755v2.503h-19.354v-27.37h18.768v2.502h-15.874v9.736h14.154v2.462h-14.154v10.166h16.461Z" fill="#181818"/>
      <path d="M414.641,417.515c-1.864-.652-3.304-1.511-4.321-2.581l1.134-2.229c.99,.992,2.307,1.794,3.949,2.405,1.642,.614,3.336,.919,5.082,.919,2.451,0,4.288-.449,5.514-1.348,1.224-.899,1.837-2.066,1.837-3.5,0-1.094-.333-1.969-.996-2.62-.665-.651-1.48-1.154-2.444-1.505-.965-.352-2.307-.736-4.027-1.153-2.059-.522-3.702-1.023-4.926-1.505-1.226-.482-2.274-1.218-3.148-2.21-.873-.99-1.31-2.333-1.31-4.027,0-1.381,.365-2.638,1.095-3.772,.729-1.135,1.85-2.039,3.363-2.718,1.511-.678,3.388-1.016,5.63-1.016,1.564,0,3.094,.215,4.594,.645,1.498,.429,2.795,1.023,3.89,1.779l-.978,2.307c-1.147-.756-2.372-1.324-3.675-1.702-1.304-.378-2.58-.568-3.832-.568-2.399,0-4.203,.463-5.416,1.389-1.212,.926-1.818,2.118-1.818,3.578,0,1.094,.333,1.975,.997,2.638,.664,.665,1.498,1.173,2.502,1.525,1.003,.353,2.352,.737,4.047,1.155,2.007,.495,3.63,.984,4.868,1.466,1.238,.483,2.288,1.213,3.147,2.19,.861,.977,1.29,2.301,1.29,3.969,0,1.382-.371,2.64-1.114,3.773-.743,1.134-1.883,2.033-3.421,2.698-1.538,.665-3.428,.997-5.669,.997-2.033,0-3.981-.325-5.845-.977Z" fill="#181818"/>
      <path d="M456.301,393.39h-9.618v-2.502h22.13v2.502h-9.618v24.867h-2.894v-24.867Z" fill="#181818"/>
      <path d="M503.613,410.946h-15.25l-3.283,7.312h-3.011l12.512-27.37h2.854l12.512,27.37h-3.05l-3.283-7.312Zm-1.056-2.346l-6.569-14.702-6.569,14.702h13.138Z" fill="#181818"/>
      <path d="M547.56,418.257l-6.256-8.798c-.704,.079-1.434,.118-2.19,.118h-7.351v8.68h-2.893v-27.37h10.244c3.492,0,6.229,.835,8.211,2.502,1.98,1.669,2.972,3.963,2.972,6.882,0,2.137-.541,3.942-1.623,5.415-1.081,1.472-2.626,2.535-4.634,3.187l6.686,9.384h-3.167Zm-2.306-12.942c1.434-1.199,2.15-2.881,2.15-5.044,0-2.216-.716-3.916-2.15-5.103-1.434-1.186-3.507-1.78-6.218-1.78h-7.272v13.725h7.272c2.711,0,4.783-.601,6.218-1.799Z" fill="#181818"/>
      <path d="M605.544,408.796v9.462h-2.853v-9.462l-10.948-17.908h3.089l9.384,15.366,9.384-15.366h2.892l-10.948,17.908Z" fill="#181818"/>
      <path d="M681.416,406.469c.977,1.16,1.466,2.652,1.466,4.477,0,2.347-.867,4.152-2.6,5.416-1.734,1.264-4.295,1.896-7.684,1.896h-12.59v-27.37h11.809c3.049,0,5.414,.612,7.096,1.838,1.681,1.224,2.522,2.958,2.522,5.199,0,1.511-.371,2.795-1.115,3.851-.743,1.056-1.766,1.845-3.069,2.366,1.799,.391,3.188,1.167,4.165,2.327Zm-18.514-13.197v9.932h8.719c2.216,0,3.923-.424,5.122-1.271s1.798-2.079,1.798-3.695-.599-2.847-1.798-3.695c-1.199-.847-2.906-1.271-5.122-1.271h-8.719Zm15.21,21.348c1.251-.833,1.876-2.137,1.876-3.909,0-3.415-2.477-5.123-7.429-5.123h-9.657v10.284h9.657c2.449,0,4.301-.417,5.553-1.252Z" fill="#181818"/>
      <path d="M723.233,415.755v2.503h-19.355v-27.37h18.767v2.502h-15.873v9.736h14.154v2.462h-14.154v10.166h16.461Z" fill="#181818"/>
      <path d="M744.425,390.888h2.893v24.867h15.328v2.503h-18.221v-27.37Z" fill="#181818"/>
      <path d="M781.841,390.888h2.894v24.867h15.328v2.503h-18.222v-27.37Z" fill="#181818"/>
      <path d="M838.615,415.755v2.503h-19.355v-27.37h18.768v2.502h-15.874v9.736h14.154v2.462h-14.154v10.166h16.461Z" fill="#181818"/>
      <path d="M879.552,415.755v2.503h-22.444v-1.993l18.143-22.874h-17.869v-2.502h21.7v1.993l-18.103,22.873h18.573Z" fill="#181818"/>
      <path d="M916.814,410.946h-15.249l-3.284,7.312h-3.011l12.512-27.37h2.855l12.512,27.37h-3.05l-3.284-7.312Zm-1.056-2.346l-6.569-14.702-6.569,14.702h13.138Z" fill="#181818"/>
    </g>
  </g>
  <g>
    <g>
      <path d="M516.358,951.241c0,5.389-4.369,9.759-9.758,9.759s-9.759-4.369-9.759-9.759,4.369-9.758,9.759-9.758,9.758,4.369,9.758,9.758Z" fill="#181818"/>
      <path d="M593.932,763.41c.22,41.676-26.4,71.132-63.93,71.132h-17.239v60.436c0,9.819,4.364,13.747,9.601,15.492h-29.674c5.455-1.745,9.601-5.673,9.601-15.928v-137.022c0-10.254-4.146-14.182-9.601-15.927h29.674c-5.455,1.745-9.601,5.673-9.601,15.927v74.404h14.838c44.077,0,55.64-33.82,55.64-68.513,0-46.911-41.24-74.404-77.023-74.404-56.731,0-91.425,40.584-91.425,98.187,0,48.44,28.585,83.352,73.75,83.352v3.055c-46.039,0-82.478-35.783-82.478-92.297,0-57.386,43.639-95.133,101.68-95.133,45.602,0,85.968,30.765,86.186,77.241Z" fill="#181818"/>
    </g>
    <g>
      <path d="M417.802,926.711l-8.783,12.67-5.738-3.977c-1.459-1.013-2.382-2.085-2.767-3.218-.384-1.133-.226-2.207,.477-3.22,.476-.687,1.035-1.158,1.675-1.411s1.301-.331,1.984-.233c.682,.098,1.319,.352,1.911,.762l-.715,.336c-.7-.486-1.24-1.047-1.62-1.685-.379-.639-.557-1.316-.534-2.032s.285-1.436,.788-2.161c.753-1.085,1.743-1.645,2.972-1.678,1.228-.033,2.645,.507,4.25,1.62l6.099,4.229Zm-2.966,.221l-4.109-2.848c-.978-.677-1.841-1.036-2.593-1.074s-1.373,.299-1.866,1.011c-.494,.711-.593,1.415-.299,2.111,.295,.696,.931,1.383,1.908,2.061l4.272,2.961-1.066,1.539-3.819-2.647c-.893-.62-1.702-.94-2.43-.961-.726-.021-1.319,.3-1.779,.964s-.553,1.333-.278,2.005c.275,.673,.859,1.319,1.751,1.938l3.656,2.535,6.651-9.593Z"/>
      <path d="M382.98,896.161l-11.843,9.871-1.481-1.777,11.843-9.87,1.481,1.776Z"/>
      <path d="M359.965,864.355l-3.724-8.129,1.822-.835,4.687,10.232-14.017,6.421-4.559-9.952,1.822-.835,3.596,7.849,10.372-4.752Zm-6.105,3.015l-3.283-7.169,1.782-.816,3.284,7.169-1.783,.816Z"/>
      <path d="M348.865,823.485l-15.292,1.956-.241-1.879,11.148-11.617,.123,.961-12.431,1.59-.29-2.272,15.292-1.956,.241,1.879-11.151,11.595-.122-.961,12.43-1.59,.294,2.294Z"/>
      <path d="M346.551,773.466l1.517-8.812,1.975,.34-1.909,11.091-15.193-2.615,1.857-10.788,1.975,.34-1.464,8.509,11.243,1.935Zm-6.74-.959l1.338-7.77,1.932,.333-1.338,7.77-1.932-.333Z"/>
      <path d="M362.73,729.467c-.521,1.052-1.18,1.985-1.974,2.795-.795,.811-1.585,1.365-2.372,1.664l-1.247-1.551c.721-.298,1.433-.785,2.136-1.461s1.27-1.448,1.7-2.317c.391-.789,.62-1.475,.687-2.056,.066-.582-.002-1.065-.203-1.453-.203-.386-.494-.674-.875-.863-.474-.235-.927-.271-1.36-.108-.433,.163-.857,.448-1.272,.857-.415,.409-.839,.875-1.27,1.399s-.881,1.043-1.348,1.557c-.467,.515-.963,.945-1.487,1.291-.524,.347-1.093,.561-1.707,.642-.614,.082-1.289-.06-2.026-.425-.724-.358-1.294-.878-1.71-1.559-.416-.681-.61-1.506-.582-2.475,.029-.968,.347-2.065,.952-3.288,.404-.816,.907-1.566,1.508-2.252,.601-.685,1.246-1.226,1.934-1.623l1.296,1.501c-.675,.404-1.266,.893-1.772,1.47-.507,.577-.913,1.175-1.219,1.793-.371,.75-.583,1.42-.637,2.007-.054,.588,.026,1.074,.237,1.457,.212,.384,.515,.673,.909,.869,.474,.234,.927,.271,1.36,.108,.433-.162,.854-.45,1.262-.862s.829-.88,1.26-1.404,.881-1.042,1.348-1.557c.467-.514,.96-.946,1.477-1.296,.518-.349,1.081-.562,1.692-.637,.61-.074,1.278,.068,2.001,.426,.711,.352,1.273,.872,1.686,1.559s.604,1.519,.572,2.494c-.032,.976-.352,2.075-.957,3.299Z"/>
      <path d="M385.954,694.889l-9.913-9.037-3.531,3.874-1.481-1.35,8.621-9.457,1.481,1.351-3.531,3.873,9.913,9.037-1.558,1.709Z"/>
      <path d="M413.306,670.609l-2.077-16.796,1.955-1.195,13.993,9.519-2.067,1.262-12.651-8.841,.808-.493,2.069,15.304-2.03,1.24Zm.601-4.805l-.431-1.931,7.35-4.489,1.52,1.265-8.439,5.154Z"/>
      <path d="M456.764,650.075l-3.778-14.947,5.894-1.489c1.295-.328,2.462-.399,3.501-.215,1.038,.184,1.909,.605,2.612,1.26s1.191,1.524,1.465,2.606c.273,1.082,.255,2.075-.054,2.978-.309,.903-.878,1.683-1.703,2.339-.826,.655-1.888,1.147-3.183,1.474l-4.655,1.176,.74-1.3,1.403,5.552-2.242,.567Zm.898-5.883l-1.279-.835,4.59-1.161c1.338-.338,2.279-.886,2.822-1.644,.543-.759,.683-1.657,.421-2.696-.266-1.054-.817-1.778-1.651-2.173-.835-.395-1.921-.423-3.258-.085l-4.591,1.161,.723-1.364,2.224,8.798Zm9.073,3.364l-5.193-4.458,2.413-.61,5.214,4.452-2.435,.615Z"/>
      <path d="M541.112,649.578l1.629-5.696,.099,1.495-3.355-12.298,2.35,.672,2.824,10.314-1.313-.376,7.869-7.256,2.202,.63-9.37,8.659,.895-1.21-1.628,5.696-2.203-.63Z"/>
      <path d="M606.598,686.994l11.146-10.651,4.823,5.048c1.228,1.285,1.916,2.521,2.066,3.708s-.222,2.207-1.113,3.059c-.606,.578-1.247,.927-1.925,1.046-.677,.12-1.341,.064-1.989-.17-.649-.232-1.223-.61-1.719-1.129l.767-.185c.589,.615,1.005,1.274,1.248,1.975,.244,.701,.282,1.4,.116,2.098s-.568,1.35-1.204,1.959c-.955,.913-2.038,1.262-3.249,1.047-1.21-.214-2.49-1.027-3.839-2.439l-5.127-5.366Zm2.951,.378l3.454,3.615c.822,.859,1.597,1.384,2.325,1.572s1.405-.017,2.031-.616c.627-.598,.865-1.267,.716-2.009-.149-.74-.634-1.541-1.456-2.401l-3.591-3.758,1.353-1.294,3.21,3.36c.75,.785,1.48,1.262,2.187,1.429,.707,.166,1.353-.029,1.937-.587,.584-.558,.808-1.195,.674-1.908-.134-.715-.577-1.464-1.328-2.25l-3.073-3.216-8.439,8.064Z"/>
      <path d="M637.47,725.005l4.022,7.987-1.79,.901-5.063-10.052,13.77-6.934,4.923,9.776-1.79,.902-3.883-7.711-10.189,5.131Zm5.989-3.238l3.546,7.042-1.751,.882-3.546-7.042,1.751-.882Z"/>
      <path d="M649.997,765.49l15.169-2.752,.413,2.275-13.197,2.395,1.482,8.17-1.972,.358-1.895-10.445Z"/>
      <path d="M652.905,808.131l15.343,1.506-.226,2.301-13.349-1.31-.811,8.263-1.995-.195,1.037-10.565Z"/>
      <path d="M645.008,852.821l-3.354,8.29-1.858-.752,4.221-10.433,14.291,5.781-4.105,10.148-1.858-.752,3.238-8.003-10.576-4.278Zm6.383,2.368l-2.957,7.309-1.817-.735,2.957-7.309,1.817,.735Z"/>
      <path d="M623.693,887.902l1.222,.976,3.509,15.999-.84-.361,6.49-8.12,1.565,1.251-7.797,9.755-1.221-.977-3.523-15.982,.867,.327-6.778,8.482-1.566-1.252,8.071-10.099Z"/>
      <path d="M593.607,918.822l3.008,16.655-1.885,1.3-14.501-8.725,1.994-1.376,13.124,8.123-.779,.538-2.918-15.165,1.958-1.351Zm-.333,4.831l.538,1.904-7.089,4.89-1.589-1.178,8.14-5.616Z"/>
    </g>
  </g>
</svg>