<?xml version="1.0" encoding="UTF-8"?>
<svg id="a" xmlns="http://www.w3.org/2000/svg" width="1000" height="1000" viewBox="0 0 1000 1000">
  <path d="M500.003,826.303c-179.929,0-326.31-146.381-326.31-326.303S320.074,173.697,500.003,173.697s326.303,146.381,326.303,326.303-146.381,326.303-326.303,326.303Zm0-649.16c-178.031,0-322.864,144.833-322.864,322.857s144.833,322.857,322.864,322.857,322.857-144.833,322.857-322.857S678.027,177.143,500.003,177.143Z" fill="#232323"/>
  <path d="M500.003,955.756c-251.305,0-455.762-204.45-455.762-455.756S248.698,44.244,500.003,44.244s455.756,204.45,455.756,455.756-204.45,455.756-455.756,455.756Zm0-908.065C250.596,47.691,47.687,250.593,47.687,500s202.909,452.309,452.316,452.309,452.309-202.902,452.309-452.309S749.411,47.691,500.003,47.691Z" fill="#232323"/>
  <g>
    <path d="M137.339,388.028c10.756,2.921,16.296,8.993,14.122,17.003-1.232,4.591-4.503,7.323-7.828,8.548l16.861,4.55-.202,2.262-45.825-12.385,.491-1.844,5.015,1.158c-2.591-3.298-4.059-7.445-2.834-12.035,2.08-7.7,9.255-10.218,20.2-7.256Zm-.592,2.235c-10.002-2.706-15.933-.687-17.669,5.681-1.265,4.712,.444,8.239,3.339,11.901l18.659,5.035c4.005-1.373,7.209-3.917,8.387-8.239,1.784-6.623-2.672-11.658-12.715-14.378Z" fill="#232323"/>
    <path d="M154.745,375.63l-40.629-14.93,.464-2.208,40.878,15.024c2.356,.862,3.891,.296,4.624-1.683,.316-.862,.397-1.669,.357-2.531l1.959,.013c.088,.942-.034,2.235-.438,3.352-1.07,2.908-3.44,4.348-7.216,2.962Z" fill="#232323"/>
    <path d="M176.662,335.014l1.212,1.158c-1.804,2.127-3.917,2.76-7.404,1.346,2.625,3.917,2.989,8.091,.929,12.52-2.76,5.91-8.05,7.741-13.61,5.156-6.455-3.029-7.633-9.531-4.173-16.949l3.177-6.812-3.467-1.615c-5.264-2.45-8.784-1.764-11.49,4.039-1.252,2.679-1.811,5.775-2.033,9.37l-1.932-.242c.135-3.716,.7-6.946,2.167-10.124,3.143-6.745,7.781-8.077,14.048-5.156l15.542,7.229c4.005,1.885,5.479,1.548,7.034,.081Zm-8.643,1.656l-9.491-4.429-2.989,6.395c-3.069,6.57-2.235,11.833,3.191,14.378,4.739,2.194,8.75,.579,10.864-3.971,2.1-4.469,1.252-8.589-1.575-12.372Z" fill="#232323"/>
    <path d="M176.695,288.381l20.819,12.803-1.185,1.898-20.523-12.628c-5.176-3.177-8.858-2.571-11.362,1.535-2.766,4.469-1.878,9.195,.397,14.297l21.425,13.179-1.171,1.912-29.173-17.932,1.003-1.629,5.587,3.123c-2.019-4.793-2.45-9.612,.35-14.162,3.238-5.277,8.178-5.87,13.832-2.396Z" fill="#232323"/>
    <path d="M216.052,273.236c-.202,2.235-.942,4.564-2.558,6.731-2.841,3.81-6.933,4.55-11.477,1.158l-19.688-14.66-3.352,4.483-1.541-1.144,3.359-4.496-6.879-5.129,1.178-1.925,7.054,5.25,5.587-7.512,1.346,1.414-5.405,7.256,19.581,14.593c3.493,2.598,6.415,2.396,8.71-.673,1.306-1.75,1.891-3.608,2.114-5.587l1.972,.242Z" fill="#232323"/>
    <path d="M238.749,247.914l.828,1.454c-2.342,1.521-4.53,1.508-7.465-.862,1.373,4.496,.512,8.602-2.733,12.224-4.368,4.846-9.949,5.062-14.499,.969-5.297-4.752-4.53-11.322,.929-17.393l5.008-5.587-2.841-2.544c-4.308-3.864-7.875-4.241-12.136,.512-1.979,2.208-3.426,4.981-4.685,8.373l-1.77-.794c1.212-3.514,2.692-6.448,5.028-9.033,4.961-5.546,9.76-5.466,14.916-.862l12.728,11.443c3.278,2.935,4.779,3.042,6.691,2.1Zm-8.717-.915l-7.795-7-4.705,5.25c-4.833,5.385-5.573,10.649-1.104,14.647,3.85,3.473,8.172,3.096,11.524-.619,3.285-3.689,3.668-7.848,2.08-12.278Z" fill="#232323"/>
    <path d="M243.232,202.115l.101,1.965c-3.769,.39-6.28,1.252-8.973,3.689-3.695,3.379-4.604,7.687-1.858,10.716,2.585,2.827,5.493,2.396,11.477-.727,7.196-3.675,10.985-4.012,14.856,.242,3.904,4.294,2.908,10.366-2.06,14.903-4.052,3.675-7.875,4.577-11.719,4.766l-.007-1.952c3.897-.337,6.926-1.212,10.339-4.335,3.911-3.554,5.062-8.158,1.784-11.779-3.164-3.473-5.876-3.325-12.762,.202-6.657,3.46-10.413,3.742-13.651,.188-3.426-3.769-2.363-9.558,2.134-13.651,3.036-2.746,6.206-3.944,10.339-4.227Z" fill="#232323"/>
    <path d="M276.659,213.397c.565,.727,.862,1.75,1.124,2.719l2.39,8.158-1.339,1.05-3.386-8.548c-.814,.229-1.642-.067-2.154-.74-.74-.915-.572-2.208,.397-2.989,1.03-.821,2.221-.592,2.968,.35Z" fill="#232323"/>
    <path d="M318.365,158.794l12.17,21.27-1.952,1.117-11.995-20.988c-3.009-5.277-6.536-6.529-10.723-4.146-4.591,2.625-6.071,7.216-6.543,12.789l12.506,21.916-1.939,1.104-17.036-29.819,1.656-.942,3.419,5.425c.538-5.169,2.477-9.625,7.108-12.278,5.405-3.083,10.029-1.239,13.328,4.55Z" fill="#232323"/>
    <path d="M368.417,162.698l-1.811,.781-2.679-6.098c-.478,4.591-2.645,9.1-7.801,11.295-5.695,2.437-10.42,.444-13.085-5.802l-9.625-22.482,2.066-.875,9.538,22.293c2.363,5.519,5.95,6.866,10.601,4.86,4.678-1.992,6.509-6.287,7.135-11.51l-9.888-23.088,2.08-.875,13.469,31.502Z" fill="#232323"/>
    <path d="M399.757,150.811c-1.467,1.71-3.406,3.164-5.984,3.998-4.53,1.427-8.266-.337-9.996-5.735l-7.445-23.343-5.324,1.696-.579-1.817,5.324-1.696-2.591-8.158,2.066-.875,2.659,8.347,8.905-2.841,.283,1.925-8.602,2.746,7.404,23.209c1.326,4.146,3.81,5.695,7.465,4.537,2.066-.66,3.615-1.858,4.947-3.325l1.467,1.333Z" fill="#232323"/>
    <path d="M418.456,111.919l.027,2.1c-.889-.054-1.945,.054-3.042,.323-4.941,1.171-6.697,5.385-6.973,13.045l5.069,21.284-2.167,.512-7.949-33.332,1.851-.444,2.019,7.929c.431-6.193,2.753-9.8,7.754-10.999,1.467-.35,2.598-.417,3.413-.417Z" fill="#232323"/>
    <path d="M434.927,96.733c.162,.969-.343,1.939-1.595,2.127-1.09,.188-1.952-.538-2.12-1.508-.148-.915,.424-1.885,1.548-2.073,1.232-.188,2.026,.538,2.167,1.454Zm6.913,46.148l-2.201,.363-5.62-33.857,2.221-.363,5.6,33.857Z" fill="#232323"/>
    <path d="M482.711,122.312l-23.673,1.912c1.265,10.083,6.442,14.162,12.944,13.651,3.951-.323,6.327-1.844,9.181-4.389l1.306,1.494c-2.827,2.8-5.923,4.577-10.332,4.927-8.609,.687-14.573-5.318-15.461-16.357-.909-11.174,3.796-18.497,11.82-19.157,8.616-.687,13.348,5.479,14.142,15.28,.074,.983,.088,2.046,.074,2.639Zm-2.383-3.244c-.633-7.956-4.301-13.22-11.537-12.641-5.849,.471-10.413,5.412-9.895,15.885l21.553-1.723-.121-1.521Z" fill="#232323"/>
    <path d="M523.959,114.167l-.7,24.434-2.241-.054,.693-24.124c.188-6.058-2.181-8.966-6.98-9.1-5.277-.148-8.919,2.989-12.23,7.498l-.713,25.174-2.235-.067,.976-34.261,1.912,.054,.081,6.408c3.157-4.133,7.121-6.92,12.466-6.771,6.193,.188,9.168,4.16,8.973,10.81Z" fill="#232323"/>
    <path d="M556.814,141.024c-2.04,.942-4.436,1.454-7.115,1.104-4.692-.579-7.35-3.769-6.657-9.397l3.056-24.286-5.553-.7,.229-1.898,5.56,.687,1.05-8.495,2.262,.094-1.09,8.683,9.275,1.158-.552,1.858-8.959-1.117-3.022,24.178c-.552,4.308,1.064,6.771,4.86,7.243,2.154,.269,4.059-.162,5.896-.915l.761,1.804Z" fill="#232323"/>
    <path d="M592.859,133.431l-23.155-5.021c-1.71,10.002,2.04,15.401,8.421,16.787,3.857,.835,6.59,.081,10.029-1.535l.828,1.804c-3.514,1.858-6.973,2.666-11.295,1.723-8.427-1.831-12.412-9.289-10.056-20.113,2.363-10.931,8.979-16.585,16.828-14.876,8.441,1.831,11.174,9.087,9.1,18.686-.209,.956-.498,1.979-.7,2.544Zm-1.319-3.796c1.683-7.781-.289-13.866-7.384-15.414-5.721-1.239-11.503,2.154-14.055,12.318l21.102,4.577,.337-1.481Z" fill="#232323"/>
    <path d="M631.933,129.581l-1.663,1.05c-2.181-3.069-4.173-4.833-7.62-5.964-4.766-1.562-8.946-.229-10.211,3.662-1.205,3.621,.613,5.964,6.267,9.625,6.745,4.429,8.905,7.566,7.115,13.004-1.797,5.519-7.572,7.647-13.96,5.56-5.196-1.71-7.869-4.591-9.915-7.835l1.69-.956c2.215,3.217,4.476,5.412,8.865,6.852,5.001,1.629,9.592,.363,11.106-4.268,1.467-4.443-.013-6.745-6.455-10.999-6.294-4.079-8.394-7.202-6.899-11.766,1.582-4.833,7.135-6.758,12.904-4.86,3.884,1.265,6.496,3.446,8.777,6.893Z" fill="#232323"/>
    <path d="M667.049,179.203c-5.829,5.519-9.518,7.323-17.131,5.681l.592-1.696c6.994,1.4,9.619-.363,14.721-5.075l-.693-.363,4.88-36.079,2.228,1.144-5.001,34.019,24.73-23.801,2.167,1.131-26.494,25.04Z" fill="#232323"/>
    <path d="M741.704,189.865l-1.891,.485c-1.124-3.608-2.47-5.896-5.398-8.05-4.025-2.975-8.421-3.016-10.851,.283-2.262,3.083-1.265,5.856,2.968,11.106,5.015,6.314,6.098,9.975,2.686,14.593-3.433,4.671-9.572,4.9-14.997,.915-4.402-3.244-6.031-6.812-6.973-10.541l1.918-.39c1.09,3.756,2.544,6.543,6.273,9.289,4.254,3.123,8.999,3.339,11.88-.592,2.787-3.769,2.093-6.408-2.692-12.466-4.718-5.843-5.721-9.45-2.881-13.328,3.016-4.093,8.892-4.187,13.785-.592,3.292,2.423,5.095,5.304,6.172,9.289Z" fill="#232323"/>
    <path d="M763.573,228.811l-17.602-15.899c-6.448,7.848-5.89,14.391-1.043,18.766,2.935,2.652,5.661,3.339,9.471,3.662l-.188,1.965c-3.965-.108-7.384-1.158-10.655-4.119-6.408-5.775-6.145-14.23,1.292-22.455,7.505-8.306,16.047-9.908,22.004-4.523,6.415,5.789,5.163,13.462-1.414,20.745-.653,.74-1.42,1.467-1.865,1.858Zm.734-3.944c5.338-5.923,6.664-12.197,1.286-17.057-4.362-3.917-11.079-3.864-18.342,3.689l16.047,14.485,1.01-1.117Z" fill="#232323"/>
    <path d="M809.546,267.784l-18.766,15.724-1.44-1.723,18.517-15.508c4.557-3.823,5.297-7.552,2.618-10.729-2.874-3.446-7.593-4.052-12.957-3.244l-19.338,16.182-1.434-1.723,18.517-15.508c4.55-3.823,5.351-7.485,2.632-10.729-2.834-3.379-7.613-4.052-12.93-3.204l-19.312,16.195-1.447-1.723,26.298-22.038,1.225,1.467-4.678,4.268c4.914-.592,9.639,.525,12.446,3.864,2.962,3.541,2.699,7.539-.337,11.214,5.136-.767,10.05,.363,12.924,3.81,3.527,4.2,2.47,9.208-2.538,13.408Z" fill="#232323"/>
    <path d="M802.23,300.901l-1.239-1.871,28.52-18.941,1.239,1.858-28.52,18.955Zm39.188-25.147c-.828,.538-1.912,.458-2.591-.579-.613-.929-.316-2.006,.518-2.558,.774-.498,1.878-.377,2.511,.552,.673,1.05,.337,2.073-.438,2.585Z" fill="#232323"/>
    <path d="M816.802,314.794l37.553-21.593,1.407,1.777-37.782,21.741c-2.174,1.239-2.726,2.787-1.683,4.604,.458,.808,1.016,1.387,1.71,1.912l-1.272,1.494c-.767-.538-1.676-1.467-2.282-2.491-1.535-2.692-1.144-5.439,2.349-7.445Z" fill="#232323"/>
    <path d="M827.875,335.23l38.852-19.224,1.299,1.871-39.108,19.318c-2.241,1.131-2.908,2.612-1.965,4.51,.404,.835,.942,1.454,1.589,2.019l-1.373,1.414c-.74-.606-1.582-1.575-2.114-2.639-1.373-2.787-.788-5.493,2.82-7.27Z" fill="#232323"/>
    <path d="M842.192,378.807l-1.669,.094c-.323-2.787,.68-4.739,4.113-6.314-4.644-.794-7.943-3.392-9.74-7.929-2.396-6.058-.094-11.174,5.614-13.422,6.63-2.625,12.177,.996,15.185,8.602l2.766,7,3.561-1.414c5.398-2.14,7.31-5.156,4.961-11.12-1.097-2.76-2.955-5.291-5.412-7.929l1.508-1.239c2.612,2.666,4.57,5.291,5.856,8.535,2.753,6.946,.538,11.214-5.903,13.758l-15.953,6.314c-4.113,1.629-4.88,2.921-4.887,5.062Zm4.739-7.418l9.747-3.85-2.598-6.57c-2.666-6.745-7.054-9.774-12.628-7.552-4.86,1.912-6.448,5.964-4.604,10.622,1.817,4.591,5.392,6.798,10.083,7.35Z" fill="#232323"/>
    <path d="M881.024,403.187l-1.79-.781c1.333-3.527,1.676-6.166,.7-9.652-1.373-4.819-4.799-7.552-8.73-6.435-3.689,1.037-4.604,3.823-4.49,10.568,.081,8.064-1.313,11.604-6.839,13.166-5.58,1.562-10.561-2.019-12.385-8.495-1.481-5.264-.579-9.087,.963-12.587l1.75,.862c-1.44,3.635-2.006,6.731-.74,11.174,1.427,5.075,5.035,8.172,9.733,6.839,4.503-1.265,5.58-3.769,5.519-11.483-.135-7.498,1.292-10.972,5.923-12.291,4.873-1.373,9.578,2.154,11.214,7.997,1.111,3.931,.761,7.323-.828,11.12Z" fill="#232323"/>
  </g>
  <g>
    <path d="M862.681,611.978c-10.756-2.908-16.296-8.979-14.122-17.003,1.232-4.591,4.503-7.31,7.828-8.535l-16.861-4.564,.202-2.262,45.825,12.385-.491,1.844-5.015-1.144c2.591,3.298,4.059,7.445,2.834,12.035-2.093,7.7-9.255,10.204-20.2,7.243Zm.592-2.235c10.002,2.706,15.933,.7,17.669-5.681,1.265-4.698-.444-8.239-3.352-11.887l-18.645-5.048c-4.005,1.387-7.222,3.931-8.387,8.252-1.784,6.623,2.659,11.658,12.715,14.364Z" fill="#232323"/>
    <path d="M845.275,624.391l40.615,14.916-.451,2.221-40.878-15.024c-2.356-.862-3.891-.31-4.624,1.669-.316,.875-.397,1.683-.357,2.544l-1.959-.027c-.088-.942,.034-2.235,.438-3.339,1.07-2.908,3.44-4.362,7.216-2.962Z" fill="#232323"/>
    <path d="M823.365,664.993l-1.212-1.158c1.797-2.127,3.911-2.76,7.404-1.346-2.625-3.917-2.989-8.091-.929-12.52,2.746-5.91,8.044-7.741,13.59-5.143,6.462,3.002,7.653,9.518,4.187,16.935l-3.17,6.812,3.467,1.615c5.257,2.45,8.777,1.764,11.483-4.039,1.252-2.679,1.811-5.775,2.04-9.37l1.932,.242c-.135,3.716-.7,6.946-2.167,10.124-3.15,6.745-7.781,8.077-14.055,5.156l-15.535-7.229c-4.012-1.885-5.479-1.548-7.034-.081Zm8.636-1.656l9.491,4.429,2.995-6.395c3.063-6.57,2.235-11.833-3.211-14.364-4.718-2.208-8.737-.592-10.864,3.958-2.093,4.469-1.239,8.589,1.589,12.372Z" fill="#232323"/>
    <path d="M823.311,711.626l-20.799-12.789,1.178-1.912,20.523,12.628c5.163,3.177,8.858,2.571,11.369-1.521,2.76-4.483,1.871-9.208-.397-14.31l-21.425-13.179,1.164-1.898,29.179,17.932-1.003,1.615-5.594-3.11c2.019,4.793,2.45,9.612-.35,14.149-3.238,5.277-8.178,5.87-13.846,2.396Z" fill="#232323"/>
    <path d="M783.968,726.784c.202-2.248,.949-4.577,2.558-6.745,2.827-3.81,6.933-4.55,11.483-1.158l19.682,14.674,3.339-4.496,1.555,1.144-3.359,4.496,6.879,5.129-1.185,1.925-7.041-5.25-5.607,7.512-1.333-1.4,5.412-7.256-19.587-14.593c-3.493-2.612-6.428-2.41-8.71,.66-1.306,1.75-1.885,3.608-2.107,5.587l-1.979-.229Z" fill="#232323"/>
    <path d="M761.257,752.093l-.828-1.454c2.342-1.521,4.53-1.508,7.465,.862-1.373-4.496-.512-8.602,2.733-12.224,4.368-4.846,9.949-5.062,14.499-.969,5.297,4.752,4.53,11.322-.929,17.393l-5.008,5.587,2.841,2.544c4.308,3.864,7.875,4.241,12.136-.512,1.979-2.208,3.426-4.981,4.685-8.373l1.77,.794c-1.212,3.514-2.692,6.448-5.028,9.033-4.961,5.546-9.76,5.466-14.916,.862l-12.728-11.443c-3.278-2.935-4.779-3.042-6.691-2.1Zm8.717,.915l7.795,7,4.705-5.25c4.833-5.385,5.573-10.649,1.104-14.647-3.85-3.473-8.172-3.096-11.524,.619-3.285,3.689-3.668,7.848-2.08,12.278Z" fill="#232323"/>
    <path d="M756.788,797.891l-.101-1.965c3.756-.377,6.28-1.239,8.973-3.689,3.695-3.379,4.604-7.673,1.858-10.716-2.585-2.827-5.493-2.396-11.49,.727-7.182,3.675-10.985,4.012-14.856-.242-3.891-4.281-2.908-10.366,2.073-14.903,4.052-3.675,7.875-4.577,11.719-4.752l.007,1.952c-3.897,.337-6.926,1.212-10.339,4.321-3.911,3.554-5.062,8.172-1.784,11.793,3.15,3.473,5.863,3.312,12.762-.202,6.657-3.46,10.413-3.756,13.651-.188,3.413,3.756,2.349,9.545-2.134,13.637-3.036,2.746-6.22,3.958-10.339,4.227Z" fill="#232323"/>
    <path d="M723.361,786.61c-.559-.727-.862-1.737-1.124-2.719l-2.396-8.158,1.353-1.05,3.366,8.548c.828-.229,1.642,.067,2.167,.74,.74,.915,.579,2.221-.397,3.002-1.03,.808-2.215,.579-2.968-.363Z" fill="#232323"/>
    <path d="M681.655,841.213l-12.17-21.27,1.952-1.117,11.995,21.001c3.009,5.264,6.543,6.516,10.729,4.133,4.591-2.625,6.071-7.216,6.543-12.789l-12.513-21.903,1.939-1.117,17.036,29.819-1.656,.942-3.419-5.425c-.538,5.169-2.47,9.639-7.121,12.291-5.392,3.083-10.029,1.225-13.314-4.564Z" fill="#232323"/>
    <path d="M631.59,837.309l1.811-.781,2.679,6.098c.478-4.591,2.645-9.1,7.801-11.295,5.695-2.437,10.42-.444,13.085,5.802l9.625,22.482-2.066,.875-9.538-22.293c-2.363-5.519-5.95-6.866-10.601-4.86-4.678,1.992-6.509,6.287-7.135,11.51l9.888,23.088-2.08,.875-13.469-31.502Z" fill="#232323"/>
    <path d="M600.25,849.196c1.467-1.71,3.406-3.164,5.984-3.998,4.53-1.427,8.266,.337,9.996,5.735l7.445,23.343,5.324-1.696,.579,1.817-5.324,1.696,2.591,8.158-2.066,.875-2.659-8.347-8.905,2.841-.283-1.925,8.602-2.746-7.404-23.209c-1.326-4.146-3.81-5.695-7.465-4.537-2.066,.66-3.615,1.858-4.947,3.325l-1.467-1.333Z" fill="#232323"/>
    <path d="M581.551,888.075l-.027-2.087c.895,.054,1.945-.067,3.042-.323,4.941-1.171,6.697-5.385,6.973-13.045l-5.069-21.284,2.174-.525,7.943,33.332-1.844,.458-2.019-7.929c-.431,6.193-2.76,9.8-7.754,10.985-1.467,.363-2.605,.431-3.419,.417Z" fill="#232323"/>
    <path d="M558.153,857.125l2.215-.363,5.62,33.844-2.221,.363-5.614-33.844Zm6.913,46.148c-.162-.983,.343-1.939,1.595-2.14,1.09-.188,1.952,.552,2.12,1.521,.148,.915-.424,1.885-1.535,2.06-1.232,.202-2.026-.538-2.181-1.44Z" fill="#232323"/>
    <path d="M517.296,877.695l23.673-1.912c-1.265-10.083-6.442-14.162-12.944-13.651-3.951,.323-6.327,1.844-9.181,4.389l-1.306-1.494c2.827-2.8,5.923-4.577,10.332-4.927,8.609-.687,14.573,5.318,15.461,16.357,.909,11.174-3.796,18.497-11.82,19.157-8.616,.687-13.348-5.479-14.142-15.28-.074-.983-.088-2.046-.074-2.639Zm2.383,3.244c.633,7.956,4.301,13.22,11.537,12.641,5.849-.471,10.413-5.412,9.895-15.885l-21.553,1.723,.121,1.521Z" fill="#232323"/>
    <path d="M476.047,885.853l.7-24.447,2.235,.054-.687,24.124c-.188,6.058,2.181,8.966,6.98,9.1,5.27,.148,8.919-2.989,12.23-7.498l.713-25.174,2.235,.067-.976,34.261-1.912-.054-.081-6.395c-3.157,4.119-7.121,6.906-12.473,6.758-6.186-.175-9.168-4.146-8.966-10.797Z" fill="#232323"/>
    <path d="M443.2,858.969c2.033-.942,4.436-1.44,7.108-1.104,4.698,.592,7.357,3.769,6.657,9.397l-3.049,24.299,5.553,.7-.236,1.885-5.553-.687-1.057,8.495-2.255-.081,1.09-8.697-9.282-1.158,.559-1.858,8.959,1.131,3.016-24.178c.552-4.308-1.064-6.771-4.86-7.243-2.147-.269-4.059,.148-5.89,.915l-.761-1.817Z" fill="#232323"/>
    <path d="M407.155,866.575l23.168,5.021c1.71-10.002-2.04-15.401-8.427-16.787-3.85-.835-6.59-.081-10.023,1.535l-.841-1.804c3.507-1.858,6.98-2.666,11.302-1.723,8.434,1.831,12.412,9.289,10.056,20.113-2.369,10.945-8.979,16.585-16.828,14.876-8.434-1.831-11.167-9.087-9.1-18.686,.209-.956,.498-1.979,.693-2.544Zm1.333,3.796c-1.69,7.781,.289,13.88,7.384,15.414,5.721,1.239,11.503-2.154,14.041-12.318l-21.109-4.577-.316,1.481Z" fill="#232323"/>
    <path d="M368.081,870.426l1.663-1.064c2.181,3.083,4.173,4.846,7.613,5.964,4.772,1.575,8.952,.229,10.218-3.648,1.205-3.635-.619-5.964-6.273-9.625-6.745-4.429-8.905-7.566-7.108-13.018,1.797-5.519,7.572-7.647,13.96-5.56,5.196,1.71,7.862,4.604,9.915,7.835l-1.69,.969c-2.221-3.217-4.483-5.425-8.872-6.852-4.994-1.642-9.592-.377-11.106,4.268-1.467,4.443,.013,6.731,6.455,10.985,6.3,4.093,8.4,7.202,6.906,11.779-1.589,4.833-7.135,6.745-12.904,4.86-3.891-1.279-6.496-3.446-8.777-6.893Z" fill="#232323"/>
    <path d="M332.965,820.791c5.822-5.519,9.511-7.323,17.131-5.681l-.592,1.71c-6.994-1.4-9.625,.363-14.728,5.062l.7,.363-4.887,36.092-2.221-1.158,4.994-34.019-24.723,23.801-2.174-1.117,26.5-25.053Z" fill="#232323"/>
    <path d="M258.31,810.128l1.898-.485c1.117,3.608,2.464,5.91,5.385,8.05,4.032,2.975,8.427,3.016,10.851-.283,2.268-3.069,1.279-5.856-2.962-11.106-5.008-6.314-6.098-9.975-2.686-14.58,3.426-4.685,9.572-4.914,14.99-.929,4.416,3.244,6.045,6.825,6.98,10.541l-1.918,.39c-1.09-3.756-2.544-6.543-6.273-9.289-4.254-3.11-8.999-3.352-11.887,.606-2.773,3.756-2.087,6.395,2.692,12.453,4.725,5.843,5.728,9.464,2.881,13.341-3.009,4.093-8.885,4.173-13.772,.592-3.298-2.437-5.102-5.304-6.179-9.302Z" fill="#232323"/>
    <path d="M236.441,771.182l17.595,15.899c6.455-7.835,5.896-14.378,1.05-18.753-2.941-2.652-5.661-3.352-9.471-3.675l.182-1.965c3.965,.121,7.384,1.171,10.655,4.133,6.415,5.775,6.152,14.23-1.286,22.441-7.505,8.306-16.054,9.922-22.011,4.523-6.415-5.775-5.163-13.449,1.42-20.745,.653-.727,1.414-1.454,1.865-1.858Zm-.74,3.958c-5.331,5.923-6.657,12.183-1.279,17.043,4.362,3.931,11.073,3.877,18.342-3.689l-16.047-14.485-1.016,1.131Z" fill="#232323"/>
    <path d="M190.656,732.411l18.773-15.724,1.434,1.723-18.517,15.508c-4.543,3.823-5.291,7.552-2.618,10.743,2.874,3.433,7.599,4.039,12.971,3.244l19.325-16.195,1.434,1.723-18.511,15.508c-4.557,3.823-5.351,7.485-2.639,10.729,2.841,3.392,7.613,4.052,12.937,3.204l19.305-16.195,1.454,1.723-26.305,22.038-1.225-1.467,4.685-4.268c-4.92,.592-9.646-.525-12.453-3.864-2.962-3.527-2.692-7.539,.337-11.214-5.129,.767-10.043-.363-12.924-3.796-3.514-4.2-2.464-9.222,2.538-13.422Z" fill="#232323"/>
    <path d="M158.589,724.253c.835-.538,1.918-.471,2.591,.565,.613,.942,.316,2.019-.512,2.558-.774,.512-1.885,.377-2.511-.552-.68-1.037-.343-2.06,.431-2.571Zm39.195-25.147l1.239,1.858-28.526,18.955-1.239-1.871,28.526-18.941Z" fill="#232323"/>
    <path d="M183.204,685.199l-37.553,21.593-1.4-1.777,37.782-21.728c2.174-1.252,2.726-2.787,1.676-4.618-.451-.808-1.016-1.387-1.703-1.912l1.265-1.494c.767,.552,1.683,1.481,2.282,2.504,1.541,2.679,1.151,5.425-2.349,7.431Z" fill="#232323"/>
    <path d="M172.138,664.777l-38.852,19.211-1.299-1.871,39.101-19.318c2.248-1.117,2.915-2.612,1.965-4.51-.404-.835-.942-1.454-1.589-2.019l1.38-1.4c.734,.592,1.582,1.575,2.107,2.639,1.373,2.773,.794,5.493-2.814,7.27Z" fill="#232323"/>
    <path d="M157.815,621.2l1.676-.094c.316,2.787-.68,4.739-4.119,6.3,4.644,.794,7.949,3.392,9.747,7.929,2.39,6.071,.088,11.174-5.62,13.435-6.623,2.625-12.177-1.01-15.179-8.602l-2.766-7-3.567,1.4c-5.398,2.154-7.303,5.169-4.954,11.12,1.09,2.76,2.955,5.304,5.412,7.943l-1.508,1.225c-2.612-2.652-4.57-5.277-5.863-8.535-2.746-6.933-.532-11.214,5.903-13.758l15.953-6.314c4.113-1.615,4.88-2.921,4.887-5.048Zm-4.732,7.404l-9.753,3.864,2.605,6.57c2.659,6.731,7.054,9.76,12.628,7.539,4.86-1.912,6.442-5.95,4.597-10.608-1.817-4.604-5.385-6.812-10.076-7.364Z" fill="#232323"/>
    <path d="M118.983,596.82l1.804,.781c-1.326,3.527-1.676,6.166-.7,9.652,1.38,4.819,4.806,7.552,8.737,6.435,3.689-1.037,4.604-3.823,4.49-10.568-.081-8.05,1.313-11.604,6.839-13.153,5.573-1.575,10.554,2.006,12.378,8.481,1.488,5.264,.586,9.087-.956,12.587l-1.757-.862c1.44-3.635,2.006-6.731,.747-11.174-1.434-5.075-5.042-8.158-9.733-6.839-4.503,1.265-5.58,3.769-5.54,11.483,.141,7.498-1.272,10.985-5.903,12.291-4.88,1.373-9.585-2.154-11.221-7.997-1.104-3.931-.767-7.323,.814-11.12Z" fill="#232323"/>
  </g>
  <g>
    <path d="M346.635,531.744l-2.1,2.578c-7.095-5.486-13.227-8.225-22.583-8.225-12.587,0-21.943,6.778-21.943,17.427,0,9.841,6.294,14.196,22.913,18.712,18.874,5.163,25.975,10.487,25.975,24.36s-11.295,23.236-27.268,23.236c-13.072,0-21.136-4.678-28.237-10.649l2.1-2.423c7.263,5.97,14.196,9.679,26.137,9.679,13.388,0,23.552-7.095,23.552-19.843,0-12.096-5.647-16.458-23.875-21.459-17.75-4.678-25.006-10.325-25.006-21.614,0-12.264,11.295-20.651,25.491-20.651,10.002,0,17.42,2.901,24.844,8.872Z" fill="#232323"/>
    <path d="M437.822,565.945c0,27.914-13.233,43.887-33.561,43.887-20.813,0-33.393-16.296-33.393-43.402,0-27.752,13.388-43.557,33.555-43.557,20.489,0,33.4,15.327,33.4,43.072Zm-63.245,.485c0,25.491,11.133,40.01,29.684,40.01,18.235,0,29.846-14.196,29.846-40.494,0-25.652-11.126-39.848-29.684-39.848-18.066,0-29.846,14.034-29.846,40.333Z" fill="#232323"/>
    <path d="M467.708,596.598v-106.641l3.554-.485v106.964c0,6.617,2.74,10.002,8.225,10.002,2.262,0,4.517-.485,6.455-1.286l.969,3.063c-2.1,.808-4.678,1.615-7.586,1.615-6.933,0-11.618-4.2-11.618-13.233Z" fill="#232323"/>
    <path d="M566.958,607.247l-.969,2.585c-6.617-2.1-9.518-6.294-9.679-16.296-5.97,10.649-14.842,16.296-27.268,16.296-15.811,0-25.168-10.002-25.168-24.851,0-17.097,13.065-26.453,32.915-26.453h19.036v-10.002c0-14.526-5.324-22.428-21.459-22.428-7.424,0-14.842,1.939-23.074,5.324l-1.124-3.069c8.548-3.547,16.134-5.479,24.198-5.479,17.75,0,25.006,8.872,25.006,25.329v42.265c0,11.133,2.1,14.849,7.586,16.781Zm-11.133-18.228v-27.268h-18.396c-18.389,0-29.684,7.902-29.684,23.229,0,13.233,8.071,21.459,21.297,21.459,13.072,0,21.297-6.61,26.783-17.42Z" fill="#232323"/>
    <path d="M630.883,604.992c-4.355,2.74-9.518,4.84-16.296,4.84-11.133,0-18.066-6.94-18.066-20.489v-61.63h-13.88v-3.231h13.88v-21.136l3.547-.323v21.459h23.229l-.646,3.231h-22.583v61.468c0,11.295,5.001,17.259,14.842,17.259,5.809,0,10.325-1.77,14.357-4.193l1.615,2.746Z" fill="#232323"/>
    <path d="M703.666,607.247l-.969,2.585c-6.617-2.1-9.518-6.294-9.679-16.296-5.97,10.649-14.842,16.296-27.268,16.296-15.811,0-25.168-10.002-25.168-24.851,0-17.097,13.065-26.453,32.915-26.453h19.036v-10.002c0-14.526-5.324-22.428-21.459-22.428-7.424,0-14.842,1.939-23.074,5.324l-1.124-3.069c8.548-3.547,16.134-5.479,24.198-5.479,17.75,0,25.006,8.872,25.006,25.329v42.265c0,11.133,2.1,14.849,7.586,16.781Zm-11.133-18.228v-27.268h-18.396c-18.389,0-29.684,7.902-29.684,23.229,0,13.233,8.071,21.459,21.297,21.459,13.072,0,21.297-6.61,26.783-17.42Z" fill="#232323"/>
  </g>
  <g>
    <path d="M619.002,453.818c-.377,0-.754-.155-1.03-.458-20.18-22.529-88.366-64.47-170.411-50.187-.794,.162-1.454-.377-1.595-1.124-.128-.747,.377-1.461,1.124-1.595,89.887-15.535,156.626,32.861,172.942,51.062,.505,.572,.458,1.44-.108,1.952-.263,.236-.592,.35-.922,.35Z" fill="#232323"/>
    <path d="M543.439,398.509c-.195,0-.39-.04-.572-.128-.37-.168-.653-.491-.761-.889-1.918-7.061-8.602-37.984-3.534-49.083,.902-1.979,2.612-3.413,4.941-4.14,3.345-1.037,7.505-.505,10.655,1.36,4.153,2.464,7.229,7.182,8.663,13.294,3.588,15.28-4.665,32.605-18.793,39.444-.188,.094-.39,.141-.599,.141Zm3.675-52.004c-.976,0-1.918,.128-2.78,.397-1.084,.337-2.538,1.077-3.258,2.652-4.086,8.966,.68,35.19,3.265,45.549,12.082-6.758,18.982-22.024,15.811-35.547-.734-3.116-2.666-8.75-7.391-11.557-1.649-.976-3.702-1.494-5.647-1.494Z" fill="#232323"/>
    <path d="M401.346,398.657c-7.135,0-13.698-.72-17.582-2.8-1.918-1.03-3.238-2.827-3.817-5.196-.828-3.386-.034-7.525,2.033-10.548,2.726-3.985,7.64-6.758,13.832-7.801,15.468-2.578,32.242,6.745,38.159,21.284,.155,.377,.128,.808-.061,1.171-.195,.357-.538,.613-.942,.7-4.577,.936-19.002,3.191-31.623,3.191Zm-.242-24.023c-1.615,0-3.231,.128-4.833,.397-3.157,.532-8.912,2.1-12.015,6.644-1.615,2.363-2.268,5.708-1.629,8.326,.269,1.111,.909,2.605,2.443,3.426,8.67,4.644,35.157,1.568,45.664-.337-5.277-11.039-17.427-18.457-29.63-18.457Z" fill="#232323"/>
    <path d="M510.692,389.899c-.141,0-.289-.027-.424-.067-.202-.067-1.965-.646-2.881-1.218h0c-8.064-5.048-13.873-13.974-15.152-23.283-.613-4.483,.296-12.755,4.247-17.11,1.811-1.999,4.039-2.915,6.691-2.894,1.992,.081,3.722,.963,5.136,2.632,7.572,8.905,3.911,39.437,3.749,40.73-.047,.411-.276,.774-.626,.996-.222,.141-.478,.215-.74,.215Zm-7.889-41.82c-1.663,0-3.063,.653-4.281,1.992-3.318,3.662-4.086,11.046-3.554,14.882,1.171,8.528,6.489,16.693,13.886,21.317v.007c.155,.094,.397,.215,.666,.33,1.003-9.592,1.979-30.647-3.312-36.866-.909-1.07-1.939-1.609-3.143-1.656-.088-.007-.175-.007-.263-.007Z" fill="#232323"/>
    <path d="M476.047,464.998c-2.215,0-4.483-.518-6.415-1.535-4.281-2.241-7.606-6.798-9.356-12.829-4.368-15.071,2.982-32.801,16.734-40.36,.357-.202,.801-.222,1.171-.081,.384,.155,.673,.464,.801,.855,3.083,9.349,10.245,38.28,6.071,48.827-.794,2.026-2.43,3.547-4.712,4.395-1.319,.491-2.793,.727-4.294,.727Zm.835-51.452c-11.719,7.377-17.824,22.98-13.954,36.321,.889,3.069,3.11,8.602,7.983,11.16,2.551,1.326,5.95,1.582,8.474,.66,1.548-.579,2.598-1.528,3.11-2.82,3.628-9.181-2.497-35.109-5.614-45.32Z" fill="#232323"/>
    <path d="M522.929,462.286c-.7,0-1.414-.094-2.12-.276-1.932-.498-3.433-1.723-4.463-3.655-5.519-10.299,4.503-39.37,4.934-40.602,.135-.39,.438-.7,.821-.841,.384-.162,.814-.101,1.178,.101,.175,.108,1.77,1.05,2.544,1.797h0c6.819,6.637,10.615,16.585,9.901,25.955-.343,4.517-2.975,12.405-7.761,15.825-1.562,1.124-3.278,1.696-5.035,1.696Zm.39-41.962c-3.009,9.168-8.394,29.536-4.543,36.732,.66,1.239,1.555,1.986,2.719,2.289,1.73,.464,3.312,.128,4.867-.996,4.012-2.874,6.32-9.928,6.617-13.792,.646-8.582-2.827-17.689-9.08-23.767h0c-.135-.135-.343-.296-.579-.464Z" fill="#232323"/>
    <path d="M414.855,444.879c-.969,0-1.912-.094-2.814-.296-2.632-.599-4.638-2.127-5.809-4.422-.909-1.77-.983-3.709-.229-5.762,4.052-10.965,32.451-22.751,33.655-23.242,.377-.182,.801-.148,1.178,.061,.363,.188,.619,.538,.7,.942,.04,.202,.397,2.026,.343,3.103-.444,9.511-5.365,18.948-12.85,24.622-3.036,2.309-8.952,4.994-14.176,4.994Zm24.232-30.492c-8.851,3.837-27.672,13.314-30.499,20.967-.485,1.319-.451,2.477,.094,3.554,.814,1.582,2.114,2.558,3.971,2.982,4.799,1.077,11.625-1.858,14.707-4.2,6.852-5.196,11.362-13.839,11.759-22.556v-.007c.013-.188,0-.451-.034-.74Z" fill="#232323"/>
    <path d="M467.358,387.995c-.135,0-.269-.02-.404-.061-.619-.188-15.239-4.84-26.938-21.964-3.352-4.907-3.473-12.103-.296-17.514,1.568-2.652,3.931-4.55,6.496-5.217,3.352-.875,7.31,.343,10.265,3.17,2.632,2.517,4.193,5.87,5.371,8.811h0c2.827,7.021,6.704,30.182,6.866,31.165,.081,.471-.094,.949-.451,1.265-.256,.222-.579,.343-.909,.343Zm-18.874-42.285c-.518,0-1.05,.061-1.582,.195-1.858,.485-3.608,1.925-4.806,3.951-2.652,4.517-2.578,10.507,.195,14.553,8.555,12.527,18.874,18.1,23.296,20.032-1.09-6.213-4.099-22.731-6.294-28.197h0c-1.07-2.666-2.47-5.688-4.725-7.842-1.454-1.4-3.702-2.692-6.085-2.692Z" fill="#232323"/>
  </g>
  <path d="M484.98,234.095h-118.561c-.761,0-1.38-.619-1.38-1.38s.619-1.38,1.38-1.38h118.561c.761,0,1.38,.619,1.38,1.38s-.619,1.38-1.38,1.38Z" fill="#232323"/>
  <path d="M662.936,261.181H315.093c-.761,0-1.38-.619-1.38-1.38s.619-1.38,1.38-1.38h347.843c.761,0,1.38,.619,1.38,1.38s-.619,1.38-1.38,1.38Z" fill="#232323"/>
  <path d="M712.834,286.84h-210.266c-.761,0-1.38-.619-1.38-1.38s.619-1.38,1.38-1.38h210.266c.761,0,1.38,.619,1.38,1.38s-.619,1.38-1.38,1.38Z" fill="#232323"/>
  <path d="M581.678,209.863h-163.943c-.761,0-1.38-.619-1.38-1.38s.619-1.38,1.38-1.38h163.943c.761,0,1.38,.619,1.38,1.38s-.619,1.38-1.38,1.38Z" fill="#232323"/>
  <path d="M642.979,234.095h-131.277c-.761,0-1.38-.619-1.38-1.38s.619-1.38,1.38-1.38h131.277c.761,0,1.38,.619,1.38,1.38s-.619,1.38-1.38,1.38Z" fill="#232323"/>
  <path d="M735.646,316.78h-158.302c-.761,0-1.38-.619-1.38-1.38s.619-1.38,1.38-1.38h158.302c.761,0,1.38,.619,1.38,1.38s-.619,1.38-1.38,1.38Z" fill="#232323"/>
  <path d="M767.006,348.079h-178.199c-.761,0-1.38-.619-1.38-1.38s.619-1.38,1.38-1.38h178.199c.761,0,1.38,.619,1.38,1.38s-.619,1.38-1.38,1.38Z" fill="#232323"/>
  <path d="M642.979,374.633h-54.172c-.761,0-1.38-.619-1.38-1.38s.619-1.38,1.38-1.38h54.172c.761,0,1.38,.619,1.38,1.38s-.619,1.38-1.38,1.38Z" fill="#232323"/>
  <path d="M767.006,374.633h-95.514c-.761,0-1.38-.619-1.38-1.38s.619-1.38,1.38-1.38h95.514c.761,0,1.38,.619,1.38,1.38s-.619,1.38-1.38,1.38Z" fill="#232323"/>
  <path d="M779.835,400.238h-179.619c-.761,0-1.38-.619-1.38-1.38s.619-1.38,1.38-1.38h179.619c.761,0,1.38,.619,1.38,1.38s-.619,1.38-1.38,1.38Z" fill="#232323"/>
  <path d="M796.946,427.028h-177.943c-.761,0-1.38-.619-1.38-1.38s.619-1.38,1.38-1.38h177.943c.761,0,1.38,.619,1.38,1.38s-.619,1.38-1.38,1.38Z" fill="#232323"/>
  <path d="M719.249,462.292h-76.27c-.761,0-1.38-.619-1.38-1.38s.619-1.38,1.38-1.38h76.27c.761,0,1.38,.619,1.38,1.38s-.619,1.38-1.38,1.38Z" fill="#232323"/>
  <path d="M796.946,462.292h-55.599c-.761,0-1.38-.619-1.38-1.38s.619-1.38,1.38-1.38h55.599c.761,0,1.38,.619,1.38,1.38s-.619,1.38-1.38,1.38Z" fill="#232323"/>
  <path d="M796.946,489.277H502.568c-.761,0-1.38-.619-1.38-1.38s.619-1.38,1.38-1.38h294.378c.761,0,1.38,.619,1.38,1.38s-.619,1.38-1.38,1.38Z" fill="#232323"/>
  <path d="M796.946,520.638h-84.112c-.761,0-1.38-.619-1.38-1.38s.619-1.38,1.38-1.38h84.112c.761,0,1.38,.619,1.38,1.38s-.619,1.38-1.38,1.38Z" fill="#232323"/>
  <path d="M796.946,553.425h-61.3c-.761,0-1.38-.619-1.38-1.38s.619-1.38,1.38-1.38h61.3c.761,0,1.38,.619,1.38,1.38s-.619,1.38-1.38,1.38Z" fill="#232323"/>
  <path d="M789.817,584.792h-70.569c-.761,0-1.38-.619-1.38-1.38s.619-1.38,1.38-1.38h70.569c.761,0,1.38,.619,1.38,1.38s-.619,1.38-1.38,1.38Z" fill="#232323"/>
  <path d="M779.835,611.945h-38.488c-.761,0-1.38-.619-1.38-1.38s.619-1.38,1.38-1.38h38.488c.761,0,1.38,.619,1.38,1.38s-.619,1.38-1.38,1.38Z" fill="#232323"/>
  <path d="M769.146,640.39H230.988c-.761,0-1.38-.619-1.38-1.38s.619-1.38,1.38-1.38H769.146c.761,0,1.38,.619,1.38,1.38s-.619,1.38-1.38,1.38Z" fill="#232323"/>
  <path d="M741.347,674.295h-152.54c-.761,0-1.38-.619-1.38-1.38s.619-1.38,1.38-1.38h152.54c.761,0,1.38,.619,1.38,1.38s-.619,1.38-1.38,1.38Z" fill="#232323"/>
  <path d="M712.834,704.417h-93.831c-.761,0-1.38-.619-1.38-1.38s.619-1.38,1.38-1.38h93.831c.761,0,1.38,.619,1.38,1.38s-.619,1.38-1.38,1.38Z" fill="#232323"/>
  <path d="M677.906,738.133h-89.099c-.761,0-1.38-.619-1.38-1.38s.619-1.38,1.38-1.38h89.099c.761,0,1.38,.619,1.38,1.38s-.619,1.38-1.38,1.38Z" fill="#232323"/>
  <path d="M556.02,738.133h-232.371c-.761,0-1.38-.619-1.38-1.38s.619-1.38,1.38-1.38h232.371c.761,0,1.38,.619,1.38,1.38s-.619,1.38-1.38,1.38Z" fill="#232323"/>
  <path d="M502.339,705.043c-72.79,0-171.178-.431-212.911-.626-.761-.007-1.373-.626-1.373-1.387,.007-.761,.619-1.373,1.38-1.373h.007c101.014,.478,293.482,1.124,298.995,.061,.687-.35,1.38-.027,1.723,.66,.343,.68-.054,1.555-.74,1.891-1.164,.586-38.394,.774-87.08,.774Z" fill="#232323"/>
  <path d="M349.308,674.295h-88.386c-.761,0-1.38-.619-1.38-1.38s.619-1.38,1.38-1.38h88.386c.761,0,1.38,.619,1.38,1.38s-.619,1.38-1.38,1.38Z" fill="#232323"/>
  <path d="M556.02,674.295h-175.015c-.761,0-1.38-.619-1.38-1.38s.619-1.38,1.38-1.38h175.015c.761,0,1.38,.619,1.38,1.38s-.619,1.38-1.38,1.38Z" fill="#232323"/>
  <path d="M493.434,772.3h-112.429c-.761,0-1.38-.619-1.38-1.38s.619-1.38,1.38-1.38h112.429c.761,0,1.38,.619,1.38,1.38s-.619,1.38-1.38,1.38Z" fill="#232323"/>
  <path d="M619.002,772.3h-93.764c-.761,0-1.38-.619-1.38-1.38s.619-1.38,1.38-1.38h93.764c.761,0,1.38,.619,1.38,1.38s-.619,1.38-1.38,1.38Z" fill="#232323"/>
  <path d="M544.53,806.467h-84.139c-.761,0-1.38-.619-1.38-1.38s.619-1.38,1.38-1.38h84.139c.761,0,1.38,.619,1.38,1.38s-.619,1.38-1.38,1.38Z" fill="#232323"/>
  <path d="M472.682,286.84h-183.247c-.761,0-1.38-.619-1.38-1.38s.619-1.38,1.38-1.38h183.247c.761,0,1.38,.619,1.38,1.38s-.619,1.38-1.38,1.38Z" fill="#232323"/>
  <path d="M550.204,316.78H260.922c-.761,0-1.38-.619-1.38-1.38s.619-1.38,1.38-1.38h289.282c.761,0,1.38,.619,1.38,1.38s-.619,1.38-1.38,1.38Z" fill="#232323"/>
  <path d="M406.865,348.079H247.507c-.761,0-1.38-.619-1.38-1.38s.619-1.38,1.38-1.38h159.359c.761,0,1.38,.619,1.38,1.38s-.619,1.38-1.38,1.38Z" fill="#232323"/>
  <path d="M356.234,372.506h-125.245c-.761,0-1.38-.619-1.38-1.38s.619-1.38,1.38-1.38h125.245c.761,0,1.38,.619,1.38,1.38s-.619,1.38-1.38,1.38Z" fill="#232323"/>
  <path d="M366.418,400.238H219.189c-.761,0-1.38-.619-1.38-1.38s.619-1.38,1.38-1.38h147.229c.761,0,1.38,.619,1.38,1.38s-.619,1.38-1.38,1.38Z" fill="#232323"/>
  <path d="M260.922,427.028h-47.394c-.761,0-1.38-.619-1.38-1.38s.619-1.38,1.38-1.38h47.394c.761,0,1.38,.619,1.38,1.38s-.619,1.38-1.38,1.38Z" fill="#232323"/>
  <path d="M392.481,427.028h-110.996c-.761,0-1.38-.619-1.38-1.38s.619-1.38,1.38-1.38h110.996c.761,0,1.38,.619,1.38,1.38s-.619,1.38-1.38,1.38Z" fill="#232323"/>
  <path d="M327.189,462.292h-123.859c-.761,0-1.38-.619-1.38-1.38s.619-1.38,1.38-1.38h123.859c.761,0,1.38,.619,1.38,1.38s-.619,1.38-1.38,1.38Z" fill="#232323"/>
  <path d="M447.326,462.292h-91.092c-.761,0-1.38-.619-1.38-1.38s.619-1.38,1.38-1.38h91.092c.761,0,1.38,.619,1.38,1.38s-.619,1.38-1.38,1.38Z" fill="#232323"/>
  <path d="M593.909,462.292h-43.705c-.761,0-1.38-.619-1.38-1.38s.619-1.38,1.38-1.38h43.705c.761,0,1.38,.619,1.38,1.38s-.619,1.38-1.38,1.38Z" fill="#232323"/>
  <path d="M253.167,489.277h-49.837c-.761,0-1.38-.619-1.38-1.38s.619-1.38,1.38-1.38h49.837c.761,0,1.38,.619,1.38,1.38s-.619,1.38-1.38,1.38Z" fill="#232323"/>
  <path d="M447.326,489.277h-165.841c-.761,0-1.38-.619-1.38-1.38s.619-1.38,1.38-1.38h165.841c.761,0,1.38,.619,1.38,1.38s-.619,1.38-1.38,1.38Z" fill="#232323"/>
  <path d="M281.485,520.638h-73.625c-.761,0-1.38-.619-1.38-1.38s.619-1.38,1.38-1.38h73.625c.761,0,1.38,.619,1.38,1.38s-.619,1.38-1.38,1.38Z" fill="#232323"/>
  <path d="M281.485,553.425h-75.563c-.761,0-1.38-.619-1.38-1.38s.619-1.38,1.38-1.38h75.563c.761,0,1.38,.619,1.38,1.38s-.619,1.38-1.38,1.38Z" fill="#232323"/>
  <path d="M306.424,584.792h-103.093c-.761,0-1.38-.619-1.38-1.38s.619-1.38,1.38-1.38h103.093c.761,0,1.38,.619,1.38,1.38s-.619,1.38-1.38,1.38Z" fill="#232323"/>
  <path d="M278.288,611.945h-55.713c-.761,0-1.38-.619-1.38-1.38s.619-1.38,1.38-1.38h55.713c.761,0,1.38,.619,1.38,1.38s-.619,1.38-1.38,1.38Z" fill="#232323"/>
</svg>