<?xml version="1.0" encoding="UTF-8"?>
<svg id="a" data-name="Capa 1" xmlns="http://www.w3.org/2000/svg" width="1000" height="396" viewBox="0 0 1000 396">
  <g>
    <path d="M358.324,252.917l-.011-.005c-2.614-.927-5.507,.438-6.442,3.035-4.102,11.356-9.434,22.289-15.852,32.491-6.809,10.87-14.867,20.982-23.954,30.055-32.163,32.196-74.958,49.926-120.503,49.926-8.482,0-16.989-.621-25.283-1.849-16.535-2.442-32.538-7.285-47.561-14.397-4.914-2.327-9.787-4.936-14.629-7.832-11.95-7.175-23.063-15.871-33.035-25.855-3.317-3.311-6.683-7.022-10.293-11.348-1.433-1.715-2.838-3.451-4.206-5.22-3.634-4.72-6.727-9.13-9.456-13.484-16.981-27.044-25.958-58.316-25.958-90.435C21.141,104.032,97.592,27.582,191.562,27.582c60.282,0,114.878,30.859,146.043,82.546,.695,1.157,1.799,1.972,3.109,2.294,1.31,.32,2.658,.115,3.812-.577,1.154-.695,1.969-1.797,2.291-3.104s.12-2.661-.574-3.817C313.236,50.179,255.409,17.497,191.562,17.497,92.032,17.497,11.059,98.47,11.059,198c0,34.02,9.511,67.145,27.498,95.794,7.219,11.52,15.753,22.229,25.368,31.827,34.069,34.102,79.398,52.882,127.637,52.882,11.955,0,23.899-1.168,35.502-3.467,6.883-1.365,14.017-3.26,21.206-5.63,7.219-2.379,14.096-5.108,20.448-8.116,18.685-8.843,35.669-20.845,50.481-35.669l.615-.615v-.005c2.174-2.193,4.32-4.471,6.388-6.782,6.73-7.528,12.866-15.677,18.239-24.228l.221-.221,.068-.243c6.719-10.73,12.313-22.22,16.626-34.156,.941-2.614-.421-5.51-3.033-6.453Z" fill="#232323"/>
    <path d="M103.361,286.201c-1.963-1.963-5.16-1.963-7.129,0-1.966,1.966-1.966,5.163,0,7.129,25.469,25.464,59.325,39.486,95.33,39.486s69.861-14.022,95.327-39.486c9.836-9.836,18.053-21.056,24.413-33.331l.197-.495c.101-.282,.159-.547,.219-.812,.049-.197,.126-.489,.134-.829,.016-.377-.038-.689-.074-.897l-2.086,.254h0l2.067-.383c-.027-.208-.071-.52-.202-.891-.118-.325-.268-.569-.435-.839-.101-.178-.243-.427-.421-.648l-115.573-115.625c-1.9-1.898-5.223-1.903-7.129,0l-110.216,110.202c-7.173-15.997-10.952-33.577-10.952-51.036,0-68.778,55.953-124.731,124.731-124.731,33.968,0,65.721,13.415,89.407,37.774,1.936,1.991,5.133,2.04,7.129,.101,.968-.941,1.509-2.199,1.529-3.547,.019-1.348-.489-2.622-1.427-3.585-25.6-26.328-59.918-40.826-96.637-40.826-74.337,0-134.815,60.476-134.815,134.813,0,21.548,5.209,42.978,15.067,61.983,.191,.366,.432,.714,.719,1.031l.547,.511c.328,.271,.692,.498,1.061,.667l.462,.194c1.173,.424,1.939,.517,3.601-.088,.129-.041,.252-.088,.405-.167l1.039-.703,58.395-58.387h48.477v119.554c-31.425-1.244-60.881-14.121-83.158-36.396Zm131.638-93.243h-86.875l43.437-43.429,43.437,43.429Zm-38.395,129.639v-119.554h48.477l55.524,55.515c-5.644,10.153-12.652,19.448-20.845,27.643-22.275,22.272-51.734,35.152-83.156,36.396Z" fill="#232323"/>
  </g>
  <g>
    <g>
      <path d="M428.807,308.582v-30.483c0-.475,.165-.877,.494-1.206,.326-.326,.728-.49,1.203-.49h16.19c.429,0,.793,.153,1.095,.456s.456,.666,.456,1.095c0,.425-.153,.793-.456,1.107-.303,.31-.666,.467-1.095,.467h-14.466v12.13h11.096c.429,0,.793,.157,1.095,.467,.303,.31,.456,.682,.456,1.107s-.153,.793-.456,1.095c-.303,.303-.666,.456-1.095,.456h-11.096v12.398h15.01c.425,0,.793,.157,1.107,.467,.31,.314,.467,.682,.467,1.107,0,.429-.157,.793-.467,1.095-.314,.303-.682,.456-1.107,.456h-16.734c-.475,0-.877-.169-1.203-.506-.329-.333-.494-.739-.494-1.218Z" fill="#232323"/>
      <path d="M456.556,306.319c0-.41,.138-.755,.417-1.03,.28-.28,.624-.421,1.034-.421s.778,.165,1.107,.494c1.658,1.655,3.788,2.486,6.396,2.486,1.574,0,2.857-.291,3.853-.873,.992-.582,1.486-1.49,1.486-2.719,0-.62-.188-1.168-.567-1.647-.375-.475-.877-.858-1.501-1.153s-1.333-.582-2.13-.858c-.797-.276-1.601-.555-2.421-.839-.82-.283-1.628-.624-2.421-1.026-.797-.402-1.505-.846-2.13-1.329-.624-.486-1.122-1.115-1.501-1.896-.379-.778-.567-1.662-.567-2.643,0-2.003,.72-3.516,2.152-4.542,1.436-1.023,3.286-1.536,5.55-1.536,3.493,0,6.044,1.072,7.652,3.221,.245,.329,.368,.651,.368,.961,0,.41-.142,.755-.429,1.034-.287,.28-.636,.417-1.046,.417s-.762-.149-1.061-.444c-.735-.705-1.528-1.233-2.371-1.586-.846-.352-1.884-.529-3.114-.529-1.295,0-2.367,.237-3.21,.712-.846,.475-1.268,1.252-1.268,2.336,0,.632,.184,1.199,.559,1.701,.372,.498,.866,.908,1.482,1.222,.617,.318,1.329,.617,2.133,.9,.8,.283,1.609,.567,2.421,.854,.812,.283,1.616,.624,2.417,1.019,.8,.398,1.517,.823,2.145,1.283,.628,.46,1.13,1.065,1.509,1.815,.379,.747,.571,1.597,.571,2.551,0,1.475-.387,2.727-1.157,3.75-.77,1.026-1.789,1.769-3.053,2.229-1.26,.46-2.712,.689-4.355,.689-1.904,0-3.623-.372-5.167-1.107-1.54-.739-2.689-1.586-3.443-2.535-.23-.329-.345-.647-.345-.961Z" fill="#232323"/>
      <path d="M483.542,318.82v-30.188c0-.444,.161-.82,.479-1.134,.322-.31,.701-.467,1.145-.467s.82,.157,1.134,.467c.31,.314,.467,.689,.467,1.134v1.624c.525-.954,1.406-1.777,2.643-2.474,1.237-.697,2.647-1.046,4.221-1.046,3.363,0,5.956,1.003,7.786,3.014,1.827,2.011,2.742,5.033,2.742,9.066s-.919,7.089-2.754,9.116c-1.838,2.026-4.428,3.037-7.775,3.037-1.559,0-2.945-.349-4.159-1.046-1.214-.697-2.114-1.528-2.704-2.497v11.394c0,.425-.161,.8-.483,1.13-.318,.329-.693,.494-1.118,.494s-.804-.165-1.13-.494c-.329-.329-.494-.705-.494-1.13Zm5.044-26.918c-1.279,1.509-1.919,3.815-1.919,6.913s.636,5.412,1.907,6.94c1.272,1.524,2.957,2.287,5.056,2.287,2.363,0,4.163-.762,5.4-2.287,1.237-1.528,1.858-3.842,1.858-6.94s-.636-5.385-1.907-6.902c-1.272-1.517-3.087-2.275-5.45-2.275-2.018,0-3.665,.755-4.945,2.264Z" fill="#232323"/>
      <path d="M511.709,298.815c0-3.853,.912-6.833,2.731-8.932,1.823-2.099,4.374-3.148,7.652-3.148,1.295,0,2.463,.161,3.508,.479,1.038,.322,1.9,.758,2.581,1.318,.682,.559,1.264,1.164,1.747,1.819,.483,.659,.85,1.371,1.095,2.141,.245,.774,.421,1.482,.529,2.13s.161,1.291,.161,1.93c0,.494-.011,.873-.038,1.145-.023,.268-.096,.594-.207,.973-.115,.375-.322,.655-.617,.835-.295,.18-.682,.272-1.157,.272h-14.711c0,2.509,.674,4.504,2.03,5.99,1.352,1.482,3.21,2.225,5.573,2.225,1.31,0,2.424-.192,3.344-.578,.919-.383,1.823-.912,2.708-1.586,.326-.214,.632-.322,.912-.322,.41,0,.751,.146,1.03,.433,.28,.287,.421,.636,.421,1.046s-.184,.797-.544,1.157c-.36,.36-.82,.724-1.379,1.095-.555,.368-1.436,.747-2.643,1.141s-2.49,.59-3.849,.59c-3.462,0-6.14-.996-8.035-2.987-1.892-1.992-2.842-5.048-2.842-9.165Zm3.275-1.869h13.555c0-.984-.1-1.877-.295-2.681-.195-.804-.521-1.57-.973-2.302-.452-.728-1.115-1.298-1.992-1.708-.877-.41-1.938-.617-3.187-.617-2.149,0-3.834,.647-5.056,1.942-1.222,1.298-1.907,3.087-2.053,5.366Z" fill="#232323"/>
      <path d="M541.92,307.931c-1.804-2.026-2.708-5.063-2.708-9.116s.9-7.078,2.696-9.077c1.796-2.003,4.359-3.003,7.687-3.003,1.953,0,3.581,.372,4.883,1.118,1.306,.747,2.26,1.532,2.869,2.352,.23,.326,.345,.647,.345,.958,0,.429-.142,.778-.421,1.046-.28,.272-.62,.406-1.03,.406-.46,0-.862-.195-1.206-.59-.28-.31-.525-.567-.739-.762-.214-.195-.54-.444-.984-.739-.444-.295-.98-.517-1.612-.663-.632-.149-1.333-.222-2.103-.222-4.742,0-7.109,3.06-7.109,9.177,0,6.151,2.367,9.227,7.109,9.227,.904,0,1.769-.134,2.597-.406,.827-.272,1.436-.529,1.819-.774,.387-.249,.858-.575,1.417-.984,.341-.249,.663-.372,.958-.372,.41,0,.755,.146,1.034,.433,.28,.287,.417,.636,.417,1.046,0,.46-.214,.877-.64,1.252-2.214,1.823-4.749,2.731-7.603,2.731-3.313,0-5.871-1.011-7.675-3.037Z" fill="#232323"/>
      <path d="M566.616,280.362c0-1.329,.64-1.992,1.919-1.992,1.264,0,1.896,.663,1.896,1.992,0,.609-.165,1.08-.494,1.417-.326,.333-.793,.502-1.402,.502-.605,0-1.076-.169-1.413-.502-.337-.337-.506-.808-.506-1.417Zm.295,28.737v-20.468c0-.46,.157-.843,.467-1.145,.314-.303,.697-.456,1.157-.456s.843,.153,1.145,.456c.303,.303,.456,.686,.456,1.145v20.468c0,.46-.153,.843-.456,1.145-.303,.303-.686,.456-1.145,.456s-.843-.153-1.157-.456c-.31-.303-.467-.686-.467-1.145Z" fill="#232323"/>
      <path d="M579.16,303.76c0-2.214,.789-3.953,2.363-5.217,1.574-1.26,3.723-1.892,6.446-1.892h7.112v-1.356c0-1.704-.536-3.056-1.601-4.056-1.065-1.003-2.516-1.501-4.355-1.501-1.314,0-2.417,.203-3.309,.613-.892,.41-1.735,1.069-2.52,1.969-.41,.475-.854,.712-1.329,.712-.41,0-.755-.142-1.034-.429s-.417-.636-.417-1.046c0-.295,.08-.582,.245-.862,.755-1.195,1.838-2.156,3.248-2.876,1.409-.724,3.118-1.084,5.117-1.084,2.903,0,5.148,.77,6.741,2.313,1.593,1.54,2.386,3.623,2.386,6.247v13.853c0,.425-.157,.793-.475,1.095-.314,.303-.689,.456-1.122,.456s-.804-.153-1.115-.456c-.306-.303-.46-.67-.46-1.095v-1.819c-.609,1.149-1.574,2.041-2.892,2.681-1.321,.64-2.761,.958-4.32,.958-2.704,0-4.834-.628-6.385-1.892-1.547-1.264-2.325-3.033-2.325-5.316Zm3.275,0c0,1.344,.475,2.398,1.425,3.152,.954,.755,2.386,1.13,4.309,1.13,1.884,0,3.508-.567,4.868-1.697,1.363-1.134,2.045-2.716,2.045-4.749v-2.114h-7.112c-1.704,0-3.056,.36-4.048,1.08-.992,.724-1.486,1.789-1.486,3.198Z" fill="#232323"/>
      <path d="M608.264,304.817v-28.783c0-.429,.161-.8,.49-1.122,.329-.318,.705-.479,1.134-.479,.44,0,.82,.157,1.13,.467,.31,.314,.467,.689,.467,1.134v28.783c0,1.923,.674,2.88,2.018,2.88,.41,0,.766,.146,1.069,.429,.306,.287,.456,.647,.456,1.072s-.149,.781-.456,1.069c-.303,.287-.659,.433-1.069,.433-1.689,0-2.987-.498-3.888-1.49-.904-.992-1.352-2.455-1.352-4.393Z" fill="#232323"/>
      <path d="M622.972,280.362c0-1.329,.64-1.992,1.919-1.992,1.264,0,1.896,.663,1.896,1.992,0,.609-.165,1.08-.494,1.417-.326,.333-.793,.502-1.402,.502-.605,0-1.076-.169-1.413-.502-.337-.337-.506-.808-.506-1.417Zm.295,28.737v-20.468c0-.46,.157-.843,.467-1.145,.314-.303,.697-.456,1.157-.456s.843,.153,1.145,.456c.303,.303,.456,.686,.456,1.145v20.468c0,.46-.153,.843-.456,1.145-.303,.303-.686,.456-1.145,.456s-.843-.153-1.157-.456c-.31-.303-.467-.686-.467-1.145Z" fill="#232323"/>
      <path d="M635.465,306.319c0-.41,.138-.755,.417-1.03,.28-.28,.624-.421,1.034-.421s.778,.165,1.107,.494c1.658,1.655,3.788,2.486,6.396,2.486,1.574,0,2.857-.291,3.853-.873,.992-.582,1.486-1.49,1.486-2.719,0-.62-.188-1.168-.567-1.647-.375-.475-.877-.858-1.501-1.153-.624-.295-1.333-.582-2.13-.858-.797-.276-1.601-.555-2.421-.839-.82-.283-1.628-.624-2.421-1.026-.797-.402-1.505-.846-2.13-1.329-.624-.486-1.122-1.115-1.501-1.896-.379-.778-.567-1.662-.567-2.643,0-2.003,.72-3.516,2.152-4.542,1.436-1.023,3.286-1.536,5.55-1.536,3.493,0,6.044,1.072,7.652,3.221,.245,.329,.368,.651,.368,.961,0,.41-.142,.755-.429,1.034s-.636,.417-1.046,.417-.762-.149-1.061-.444c-.735-.705-1.528-1.233-2.371-1.586-.846-.352-1.884-.529-3.114-.529-1.295,0-2.367,.237-3.21,.712-.846,.475-1.268,1.252-1.268,2.336,0,.632,.184,1.199,.559,1.701,.372,.498,.866,.908,1.482,1.222,.617,.318,1.329,.617,2.133,.9,.8,.283,1.609,.567,2.421,.854,.812,.283,1.616,.624,2.417,1.019,.8,.398,1.517,.823,2.145,1.283,.628,.46,1.13,1.065,1.509,1.815,.379,.747,.571,1.597,.571,2.551,0,1.475-.387,2.727-1.157,3.75-.77,1.026-1.789,1.769-3.053,2.229-1.26,.46-2.712,.689-4.355,.689-1.904,0-3.623-.372-5.167-1.107-1.54-.739-2.689-1.586-3.443-2.535-.23-.329-.345-.647-.345-.961Z" fill="#232323"/>
      <path d="M660.667,290.022c-.287-.287-.429-.643-.429-1.072,0-.425,.142-.785,.429-1.084,.287-.295,.643-.44,1.072-.44h1.969v-5.289c0-.429,.161-.8,.49-1.122,.329-.318,.705-.479,1.134-.479,.44,0,.82,.157,1.13,.467,.31,.314,.467,.689,.467,1.134v5.289h3.298c.425,0,.781,.146,1.069,.44,.287,.299,.433,.659,.433,1.084,0,.429-.146,.785-.433,1.072s-.643,.429-1.069,.429h-3.298v13.899c0,1.069,.268,1.892,.8,2.474,.532,.582,1.241,.873,2.13,.873,.44,0,.816,.146,1.118,.429,.303,.287,.456,.647,.456,1.072s-.153,.781-.456,1.069-.678,.433-1.118,.433c-1.953,0-3.466-.582-4.542-1.747-1.072-1.164-1.609-2.7-1.609-4.604v-13.899h-1.969c-.429,0-.785-.142-1.072-.429Z" fill="#232323"/>
      <path d="M678.982,303.76c0-2.214,.785-3.953,2.363-5.217,1.574-1.26,3.723-1.892,6.446-1.892h7.109v-1.356c0-1.704-.532-3.056-1.597-4.056-1.069-1.003-2.52-1.501-4.355-1.501-1.314,0-2.417,.203-3.309,.613-.896,.41-1.735,1.069-2.524,1.969-.41,.475-.854,.712-1.329,.712-.41,0-.755-.142-1.034-.429-.276-.287-.417-.636-.417-1.046,0-.295,.084-.582,.245-.862,.755-1.195,1.838-2.156,3.248-2.876,1.413-.724,3.118-1.084,5.121-1.084,2.899,0,5.148,.77,6.737,2.313,1.593,1.54,2.39,3.623,2.39,6.247v13.853c0,.425-.161,.793-.475,1.095-.318,.303-.693,.456-1.126,.456s-.804-.153-1.111-.456c-.31-.303-.463-.67-.463-1.095v-1.819c-.605,1.149-1.57,2.041-2.892,2.681-1.318,.64-2.758,.958-4.316,.958-2.708,0-4.834-.628-6.385-1.892s-2.325-3.033-2.325-5.316Zm3.271,0c0,1.344,.475,2.398,1.429,3.152,.95,.755,2.386,1.13,4.305,1.13,1.884,0,3.508-.567,4.872-1.697,1.36-1.134,2.041-2.716,2.041-4.749v-2.114h-7.109c-1.708,0-3.056,.36-4.048,1.08-.992,.724-1.49,1.789-1.49,3.198Z" fill="#232323"/>
      <path d="M706.486,306.319c0-.41,.138-.755,.417-1.03,.28-.28,.62-.421,1.034-.421,.41,0,.778,.165,1.107,.494,1.655,1.655,3.788,2.486,6.396,2.486,1.574,0,2.857-.291,3.849-.873,.992-.582,1.49-1.49,1.49-2.719,0-.62-.188-1.168-.567-1.647-.379-.475-.877-.858-1.501-1.153-.624-.295-1.333-.582-2.13-.858s-1.605-.555-2.424-.839c-.816-.283-1.624-.624-2.421-1.026-.797-.402-1.505-.846-2.13-1.329-.62-.486-1.122-1.115-1.498-1.896-.379-.778-.567-1.662-.567-2.643,0-2.003,.716-3.516,2.152-4.542,1.436-1.023,3.282-1.536,5.546-1.536,3.497,0,6.044,1.072,7.652,3.221,.245,.329,.372,.651,.372,.961,0,.41-.146,.755-.433,1.034-.287,.28-.636,.417-1.046,.417s-.762-.149-1.057-.444c-.739-.705-1.528-1.233-2.375-1.586-.846-.352-1.881-.529-3.114-.529-1.295,0-2.363,.237-3.21,.712-.843,.475-1.268,1.252-1.268,2.336,0,.632,.188,1.199,.559,1.701,.375,.498,.869,.908,1.486,1.222,.617,.318,1.325,.617,2.13,.9,.804,.283,1.612,.567,2.424,.854,.808,.283,1.616,.624,2.417,1.019,.8,.398,1.513,.823,2.141,1.283,.628,.46,1.13,1.065,1.513,1.815,.379,.747,.567,1.597,.567,2.551,0,1.475-.383,2.727-1.157,3.75-.77,1.026-1.785,1.769-3.049,2.229-1.264,.46-2.716,.689-4.355,.689-1.904,0-3.627-.372-5.167-1.107-1.544-.739-2.693-1.586-3.443-2.535-.234-.329-.345-.647-.345-.961Z" fill="#232323"/>
      <path d="M747.985,298.815c0-3.853,.908-6.833,2.731-8.932,1.819-2.099,4.37-3.148,7.652-3.148,1.295,0,2.463,.161,3.504,.479,1.042,.322,1.904,.758,2.581,1.318,.682,.559,1.264,1.164,1.75,1.819,.483,.659,.846,1.371,1.092,2.141,.249,.774,.425,1.482,.532,2.13,.103,.647,.157,1.291,.157,1.93,0,.494-.011,.873-.034,1.145-.027,.268-.096,.594-.211,.973-.115,.375-.318,.655-.617,.835-.295,.18-.678,.272-1.153,.272h-14.715c0,2.509,.678,4.504,2.03,5.99,1.352,1.482,3.21,2.225,5.573,2.225,1.314,0,2.428-.192,3.347-.578,.919-.383,1.819-.912,2.704-1.586,.329-.214,.632-.322,.912-.322,.41,0,.755,.146,1.034,.433,.28,.287,.417,.636,.417,1.046s-.18,.797-.54,1.157c-.364,.36-.82,.724-1.379,1.095-.559,.368-1.44,.747-2.647,1.141-1.203,.394-2.486,.59-3.849,.59-3.462,0-6.14-.996-8.032-2.987-1.896-1.992-2.842-5.048-2.842-9.165Zm3.271-1.869h13.558c0-.984-.1-1.877-.295-2.681-.199-.804-.521-1.57-.973-2.302-.452-.728-1.115-1.298-1.995-1.708-.877-.41-1.938-.617-3.183-.617-2.149,0-3.838,.647-5.056,1.942-1.226,1.298-1.907,3.087-2.057,5.366Z" fill="#232323"/>
      <path d="M776.986,309.099v-20.468c0-.46,.157-.843,.467-1.145,.31-.303,.697-.456,1.157-.456s.839,.153,1.145,.456c.303,.303,.456,.686,.456,1.145v1.624c.506-1.019,1.36-1.858,2.558-2.524,1.195-.663,2.581-.996,4.156-.996,1.494,0,2.804,.176,3.926,.529,1.122,.352,2.018,.808,2.681,1.367,.666,.555,1.203,1.237,1.612,2.041,.41,.804,.686,1.597,.823,2.386,.138,.785,.211,1.647,.211,2.581v13.459c0,.46-.153,.843-.456,1.145-.303,.303-.686,.456-1.145,.456s-.843-.153-1.157-.456c-.31-.303-.467-.686-.467-1.145v-12.792c0-1.065-.084-1.98-.257-2.742-.172-.766-.479-1.463-.912-2.091-.433-.632-1.053-1.103-1.858-1.417-.804-.31-1.804-.467-3.003-.467-4.477,0-6.714,2.355-6.714,7.063v12.448c0,.46-.153,.843-.456,1.145-.306,.303-.686,.456-1.145,.456s-.846-.153-1.157-.456-.467-.686-.467-1.145Z" fill="#232323"/>
      <path d="M822.276,309.099v-20.468c0-.46,.153-.843,.467-1.145,.31-.303,.697-.456,1.157-.456,.456,0,.839,.153,1.141,.456,.303,.303,.456,.686,.456,1.145v1.624c.509-1.019,1.363-1.858,2.558-2.524,1.199-.663,2.585-.996,4.159-.996,1.49,0,2.8,.176,3.922,.529,1.126,.352,2.018,.808,2.685,1.367,.663,.555,1.199,1.237,1.609,2.041s.686,1.597,.827,2.386c.138,.785,.207,1.647,.207,2.581v13.459c0,.46-.149,.843-.456,1.145-.303,.303-.686,.456-1.141,.456-.46,0-.846-.153-1.157-.456-.314-.303-.467-.686-.467-1.145v-12.792c0-1.065-.088-1.98-.26-2.742-.172-.766-.475-1.463-.908-2.091-.437-.632-1.057-1.103-1.858-1.417-.804-.31-1.808-.467-3.003-.467-4.477,0-6.718,2.355-6.718,7.063v12.448c0,.46-.153,.843-.456,1.145-.303,.303-.686,.456-1.141,.456-.46,0-.846-.153-1.157-.456-.314-.303-.467-.686-.467-1.145Z" fill="#232323"/>
      <path d="M852.84,307.919c-1.861-2.034-2.792-5.067-2.792-9.104s.927-7.055,2.781-9.066c1.854-2.011,4.451-3.014,7.798-3.014s5.967,1.003,7.813,3.014c1.842,2.011,2.765,5.033,2.765,9.066s-.923,7.07-2.765,9.104c-1.846,2.034-4.451,3.049-7.813,3.049-3.328,0-5.925-1.015-7.786-3.049Zm.479-9.104c0,6.151,2.436,9.227,7.308,9.227s7.308-3.076,7.308-9.227c0-6.117-2.436-9.177-7.308-9.177s-7.308,3.06-7.308,9.177Zm4.872-16.213l4.504-5.462c.211-.28,.479-.433,.797-.456,.322-.027,.693,.126,1.122,.456,.705,.67,.755,1.31,.146,1.919l-4.895,4.945c-.475,.475-.977,.509-1.501,.1-.559-.444-.617-.946-.172-1.501Z" fill="#232323"/>
      <path d="M880.255,309.099v-20.468c0-.46,.157-.843,.467-1.145,.31-.303,.697-.456,1.157-.456s.839,.153,1.145,.456c.303,.303,.456,.686,.456,1.145v1.624c.456-1.003,1.275-1.838,2.447-2.513,1.172-.67,2.535-1.007,4.094-1.007,1.984,0,3.658,.322,5.021,.961,1.36,.64,2.363,1.49,3.003,2.558,1.49-2.348,3.941-3.52,7.354-3.52,1.494,0,2.815,.176,3.96,.529,1.149,.352,2.068,.808,2.758,1.367,.689,.555,1.249,1.237,1.685,2.041,.433,.804,.728,1.601,.885,2.398,.157,.797,.234,1.655,.234,2.57v13.459c0,.46-.149,.843-.456,1.145-.303,.303-.682,.456-1.141,.456s-.846-.153-1.157-.456c-.314-.303-.467-.686-.467-1.145v-12.792c0-2.164-.471-3.826-1.417-4.983-.942-1.157-2.57-1.735-4.883-1.735-2.114,0-3.692,.529-4.734,1.586-1.042,1.061-1.563,2.547-1.563,4.466v13.459c0,.46-.153,.843-.456,1.145-.303,.303-.686,.456-1.145,.456s-.843-.153-1.157-.456c-.31-.303-.467-.686-.467-1.145v-12.792c0-2.183-.452-3.845-1.352-4.994-.904-1.149-2.52-1.724-4.849-1.724-2.229,0-3.819,.613-4.772,1.835-.95,1.222-1.425,2.964-1.425,5.228v12.448c0,.46-.153,.843-.456,1.145-.306,.303-.686,.456-1.145,.456s-.846-.153-1.157-.456c-.31-.303-.467-.686-.467-1.145Z" fill="#232323"/>
      <path d="M924.638,280.362c0-1.329,.64-1.992,1.919-1.992,1.26,0,1.892,.663,1.892,1.992,0,.609-.161,1.08-.49,1.417-.329,.333-.797,.502-1.402,.502-.609,0-1.08-.169-1.417-.502-.333-.337-.502-.808-.502-1.417Zm.295,28.737v-20.468c0-.46,.153-.843,.467-1.145,.31-.303,.697-.456,1.157-.456s.839,.153,1.141,.456c.306,.303,.456,.686,.456,1.145v20.468c0,.46-.149,.843-.456,1.145-.303,.303-.682,.456-1.141,.456s-.846-.153-1.157-.456c-.314-.303-.467-.686-.467-1.145Z" fill="#232323"/>
      <path d="M938.733,309.099v-20.468c0-.46,.153-.843,.467-1.145,.31-.303,.697-.456,1.157-.456,.456,0,.839,.153,1.141,.456,.303,.303,.456,.686,.456,1.145v1.624c.509-1.019,1.363-1.858,2.558-2.524,1.199-.663,2.585-.996,4.159-.996,1.49,0,2.8,.176,3.922,.529,1.126,.352,2.018,.808,2.685,1.367,.663,.555,1.199,1.237,1.609,2.041s.686,1.597,.827,2.386c.138,.785,.207,1.647,.207,2.581v13.459c0,.46-.149,.843-.456,1.145-.303,.303-.686,.456-1.141,.456-.46,0-.846-.153-1.157-.456-.314-.303-.467-.686-.467-1.145v-12.792c0-1.065-.088-1.98-.26-2.742-.172-.766-.475-1.463-.908-2.091-.437-.632-1.057-1.103-1.858-1.417-.804-.31-1.808-.467-3.003-.467-4.477,0-6.718,2.355-6.718,7.063v12.448c0,.46-.153,.843-.456,1.145s-.686,.456-1.141,.456c-.46,0-.846-.153-1.157-.456-.314-.303-.467-.686-.467-1.145Z" fill="#232323"/>
      <path d="M966.455,303.76c0-2.214,.785-3.953,2.363-5.217,1.574-1.26,3.723-1.892,6.446-1.892h7.109v-1.356c0-1.704-.532-3.056-1.597-4.056-1.069-1.003-2.52-1.501-4.355-1.501-1.314,0-2.417,.203-3.309,.613-.896,.41-1.735,1.069-2.524,1.969-.41,.475-.854,.712-1.329,.712-.41,0-.755-.142-1.034-.429-.276-.287-.417-.636-.417-1.046,0-.295,.084-.582,.245-.862,.755-1.195,1.838-2.156,3.248-2.876,1.413-.724,3.118-1.084,5.121-1.084,2.899,0,5.148,.77,6.737,2.313,1.593,1.54,2.39,3.623,2.39,6.247v13.853c0,.425-.161,.793-.475,1.095-.318,.303-.693,.456-1.126,.456s-.804-.153-1.111-.456c-.31-.303-.463-.67-.463-1.095v-1.819c-.605,1.149-1.57,2.041-2.892,2.681-1.318,.64-2.758,.958-4.316,.958-2.708,0-4.834-.628-6.385-1.892-1.551-1.264-2.325-3.033-2.325-5.316Zm3.271,0c0,1.344,.475,2.398,1.429,3.152,.95,.755,2.386,1.13,4.305,1.13,1.884,0,3.508-.567,4.872-1.697,1.36-1.134,2.041-2.716,2.041-4.749v-2.114h-7.109c-1.708,0-3.056,.36-4.048,1.08-.992,.724-1.49,1.789-1.49,3.198Z" fill="#232323"/>
    </g>
    <g>
      <path d="M567.231,229.913c0,3.103-1.047,5.661-3.138,7.671-2.094,2.019-4.533,3.022-7.323,3.022-2.172,0-4.15-.658-5.928-1.975-1.784-1.314-3.219-3.138-4.301-5.461l-14.414-34.174h-71.833l-14.179,34.406c-.777,2.323-2.056,4.107-3.837,5.345-1.784,1.238-3.759,1.859-5.928,1.859-3.254,0-5.734-.85-7.439-2.555-1.705-1.705-2.555-4.028-2.555-6.975,0-.618,.151-1.859,.464-3.718l59.281-143.667c1.082-2.477,2.593-4.376,4.533-5.696,1.934-1.314,4.144-1.818,6.624-1.511,2.326,0,4.417,.621,6.276,1.859,1.859,1.244,3.176,3.022,3.953,5.348l59.046,141.805c.464,1.395,.699,2.871,.699,4.417Zm-98.104-52.071h54.165l-27.199-65.093-26.967,65.093Z" fill="#232323"/>
      <path d="M692.653,80.089c2.091,1.937,3.138,4.533,3.138,7.787s-1.047,5.812-3.138,7.671c-2.094,1.859-4.768,2.79-8.022,2.79h-41.378V228.753c0,3.1-1.128,5.734-3.373,7.903-2.248,2.172-5.078,3.254-8.483,3.254s-6.241-1.082-8.486-3.254c-2.248-2.169-3.37-4.803-3.37-7.903V98.338h-41.149c-3.254,0-5.928-.966-8.019-2.906-2.091-1.937-3.138-4.533-3.138-7.787,0-3.1,1.047-5.618,3.138-7.555,2.091-1.937,4.765-2.906,8.019-2.906h106.239c3.254,0,5.928,.969,8.022,2.906Z" fill="#232323"/>
      <path d="M839.455,96.012c0,2.79-.931,5.348-2.79,7.671-1.859,2.483-4.417,3.721-7.671,3.721-2.172,0-4.263-.542-6.276-1.627-9.611-5.423-19.994-8.138-31.152-8.138-11.624,0-21.891,2.558-30.804,7.671-8.912,5.116-15.847,12.285-20.804,21.505-4.962,9.223-7.439,19.8-7.439,31.732,0,12.866,2.555,23.944,7.671,33.243,5.113,9.298,12.164,16.389,21.154,21.27,8.985,4.881,19.063,7.323,30.221,7.323,11.468,0,21.85-2.79,31.152-8.37,1.859-.928,3.872-1.395,6.044-1.395,3.405,0,6.12,1.32,8.135,3.953,1.859,2.326,2.79,4.806,2.79,7.439,0,1.859-.505,3.602-1.511,5.232-1.009,1.627-2.364,2.903-4.069,3.834-6.044,3.411-12.825,6.125-20.339,8.138-7.52,2.01-14.919,3.022-22.201,3.022-15.035,0-28.866-3.332-41.497-9.997-12.633-6.662-22.706-16.349-30.221-29.058-7.517-12.706-11.273-27.584-11.273-44.635,0-15.653,3.602-29.794,10.809-42.425,7.207-12.631,17.123-22.549,29.757-29.757,12.628-7.207,26.769-10.809,42.425-10.809,15.029,0,29.136,3.718,42.309,11.157,3.721,2.016,5.58,5.113,5.58,9.298Z" fill="#232323"/>
      <path d="M987.768,96.012c0,2.79-.931,5.348-2.79,7.671-1.859,2.483-4.417,3.721-7.671,3.721-2.172,0-4.263-.542-6.276-1.627-9.611-5.423-19.994-8.138-31.152-8.138-11.624,0-21.891,2.558-30.804,7.671-8.912,5.116-15.847,12.285-20.804,21.505-4.962,9.223-7.439,19.8-7.439,31.732,0,12.866,2.555,23.944,7.671,33.243,5.113,9.298,12.164,16.389,21.154,21.27,8.985,4.881,19.063,7.323,30.221,7.323,11.468,0,21.85-2.79,31.152-8.37,1.859-.928,3.872-1.395,6.044-1.395,3.405,0,6.12,1.32,8.135,3.953,1.859,2.326,2.79,4.806,2.79,7.439,0,1.859-.505,3.602-1.511,5.232-1.009,1.627-2.364,2.903-4.069,3.834-6.044,3.411-12.825,6.125-20.339,8.138-7.52,2.01-14.919,3.022-22.201,3.022-15.035,0-28.866-3.332-41.497-9.997-12.633-6.662-22.706-16.349-30.221-29.058-7.517-12.706-11.273-27.584-11.273-44.635,0-15.653,3.602-29.794,10.809-42.425,7.207-12.631,17.123-22.549,29.757-29.757,12.628-7.207,26.769-10.809,42.425-10.809,15.029,0,29.136,3.718,42.309,11.157,3.721,2.016,5.58,5.113,5.58,9.298Z" fill="#232323"/>
    </g>
  </g>
</svg>