<?xml version="1.0" encoding="UTF-8"?>
<svg id="a" data-name="Capa 1" xmlns="http://www.w3.org/2000/svg" width="1000" height="412" viewBox="0 0 1000 412">
  <g>
    <path d="M564.969,322.828c2.902,0,5.462-.793,7.685-2.383,2.223-1.586,3.335-3.968,3.335-7.144h1.461l.064,.188c.083,3.368-1.15,6.049-3.699,8.051-2.551,2.002-5.499,3-8.846,3-4.382,0-7.816-1.577-10.304-4.731-2.488-3.154-3.732-7.302-3.732-12.448v-1.332c0-5.125,1.24-9.264,3.717-12.418,2.477-3.154,5.896-4.731,10.256-4.731,3.557,0,6.568,1.042,9.036,3.127,2.466,2.085,3.655,5.02,3.572,8.813l-.064,.188h-1.461c0-3.364-1.08-5.944-3.239-7.731-2.159-1.791-4.774-2.685-7.845-2.685-4.021,0-7.069,1.441-9.146,4.319-2.074,2.878-3.112,6.583-3.112,11.117v1.332c0,4.573,1.038,8.296,3.112,11.16,2.076,2.869,5.144,4.306,9.209,4.306Z" fill="#232323"/>
    <path d="M628.682,317.524c-1.185,2.076-2.952,3.763-5.302,5.063-2.35,1.305-5.197,1.954-8.543,1.954-3.195,0-5.705-.872-7.525-2.619-1.822-1.748-2.731-4.1-2.731-7.065,0-2.878,1.36-5.291,4.08-7.24,2.72-1.949,6.123-2.922,10.21-2.922h9.811v-5.015c0-2.86-.915-5.09-2.746-6.684-1.831-1.599-4.409-2.4-7.733-2.4-3.112,0-5.615,.753-7.51,2.256-1.894,1.502-2.843,3.438-2.843,5.812l-1.428-.066-.064-.158c-.127-2.667,.909-4.928,3.112-6.78,2.201-1.853,5.112-2.777,8.732-2.777,3.684,0,6.638,.929,8.861,2.795,2.223,1.862,3.333,4.551,3.333,8.064v17.214c0,1.205,.07,2.378,.208,3.522,.136,1.143,.364,2.278,.681,3.399h-1.905c-.274-1.502-.46-2.628-.554-3.381-.096-.753-.145-1.559-.145-2.431v-.539Zm-13.845,5.335c3.41,0,6.294-.753,8.655-2.256,2.359-1.502,4.091-3.649,5.19-6.443v-7.718h-9.717c-3.557,0-6.557,.819-9.001,2.462-2.446,1.638-3.668,3.666-3.668,6.08,0,2.308,.777,4.196,2.335,5.668,1.555,1.472,3.625,2.208,6.207,2.208Z" fill="#232323"/>
    <path d="M665.816,280.245v9.273h8.447v1.743h-8.447v23.753c0,2.816,.475,4.822,1.428,6.018,.953,1.196,2.212,1.796,3.78,1.796,.572,0,1.08-.022,1.524-.066,.445-.039,1.058-.114,1.842-.219l.318,1.555c-.53,.166-1.08,.285-1.651,.346-.572,.066-1.218,.096-1.938,.096-2.306,0-4.058-.749-5.254-2.251-1.198-1.507-1.796-3.929-1.796-7.275v-23.753h-6.351v-1.743h6.351v-9.273h1.748Z" fill="#232323"/>
    <path d="M715.204,324.541c-4.043,0-7.457-1.564-10.241-4.7-2.784-3.132-4.176-7.078-4.176-11.844v-2.032c0-4.976,1.382-9.067,4.146-12.273,2.762-3.206,6.239-4.809,10.431-4.809,3.811,0,6.848,1.253,9.113,3.763,2.267,2.505,3.399,5.931,3.399,10.271v2.637h-25.374v2.444c0,4.192,1.187,7.713,3.557,10.56,2.372,2.847,5.42,4.271,9.146,4.271,2.054,0,4.027-.381,5.924-1.143,1.894-.762,3.434-1.778,4.619-3.049l.922,1.332c-1.207,1.336-2.764,2.431-4.669,3.289-1.905,.854-4.17,1.283-6.796,1.283Zm.16-33.946c-3.557,0-6.474,1.235-8.749,3.701-2.275,2.466-3.561,5.585-3.859,9.352l.096,.188h23.309v-1.047c0-3.535-.964-6.452-2.891-8.747-1.925-2.3-4.562-3.447-7.906-3.447Z" fill="#232323"/>
    <path d="M772.119,290.753l-2.221-.188c-3.07,0-5.563,.99-7.477,2.97-1.918,1.98-3.162,4.586-3.732,7.827v22.514h-1.717v-34.357h1.397l.32,5.97v1.174c.95-2.457,2.37-4.367,4.253-5.734,1.883-1.362,4.205-2.046,6.956-2.046,.486,0,.937,.035,1.349,.11s.767,.153,1.064,.237l-.193,1.524Z" fill="#232323"/>
    <path d="M801.667,278.721h-1.717v-4.384h1.717v4.384Zm0,45.154h-1.717v-34.357h1.717v34.357Z" fill="#232323"/>
    <path d="M835.21,289.518l.223,6.921c1.06-2.392,2.584-4.249,4.573-5.571,1.989-1.323,4.437-1.984,7.337-1.984,3.745,0,6.557,1.178,8.432,3.539,1.875,2.361,2.808,6.101,2.808,11.226v20.227h-1.713v-20.293c0-4.761-.854-8.116-2.558-10.065-1.704-1.945-4.017-2.922-6.938-2.922-3.6,0-6.351,1.047-8.256,3.145-1.905,2.094-3.123,4.796-3.653,8.099v22.036h-1.713v-17.59h-.096c0-.403,.004-.81,.018-1.226,.009-.412,.035-.828,.079-1.253v-14.288h1.459Z" fill="#232323"/>
    <path d="M888.568,306.666c0-5.444,1.143-9.768,3.43-12.974,2.286-3.206,5.462-4.809,9.527-4.809,2.667,0,4.98,.6,6.942,1.809,1.958,1.205,3.517,2.856,4.682,4.954l.254-6.128h1.459v10.67c0,.018,.013,.031,.035,.031v14.003c-.022,.044-.035,.074-.035,.096v9.746c0,4.363-1.148,7.735-3.443,10.118-2.3,2.378-5.48,3.57-9.544,3.57-1.673,0-3.412-.175-5.221-.521-1.813-.35-3.395-.832-4.748-1.445l.508-1.717c1.542,.679,3.035,1.183,4.476,1.511,1.441,.324,3.079,.491,4.923,.491,3.701,0,6.513-1.034,8.432-3.097,1.914-2.063,2.873-5.033,2.873-8.909v-5.427c-1.165,1.822-2.738,3.259-4.717,4.319-1.98,1.056-4.292,1.586-6.938,1.586-4.043,0-7.205-1.546-9.479-4.634-2.278-3.092-3.416-7.284-3.416-12.575v-.666Zm1.748,.666c0,4.744,.942,8.511,2.825,11.305,1.888,2.795,4.647,4.192,8.292,4.192,2.939,0,5.396-.661,7.367-1.984,1.967-1.323,3.408-3.097,4.319-5.322v-16.447c-.85-2.392-2.186-4.402-4.017-6.036-1.835-1.629-4.367-2.444-7.608-2.444-3.64,0-6.412,1.489-8.318,4.463-1.905,2.974-2.86,6.842-2.86,11.607v.666Z" fill="#232323"/>
  </g>
  <g>
    <path d="M18.172,89.84h27.032l58.455,144.637,58.225-144.637h24.494c1.154,0,1.154,1.848,0,1.848h-8.318c-1.618,0-2.313,.694-2.313,2.311v231.939c0,56.841,38.124,75.325,74.168,75.325,49.907,0,85.951-44.362,85.951-92.192,0-29.574-14.325-51.061-41.357-58.917-12.015-3.465-6.702-18.484,6.005-13.171,21.721,9.012,37.432,39.281,37.432,72.088,0,46.902-33.965,94.268-88.031,94.268-42.975,0-87.337-21.717-87.337-79.017V92.842l-63.77,158.27h-1.848L32.727,91.688h-.232V246.032c0,1.616,.694,2.308,2.313,2.308h10.396c1.386,0,1.386,1.848,0,1.848H18.632c-1.384,0-1.384-1.848,0-1.848h9.706c1.616,0,2.308-.692,2.308-2.308V91.688h-12.475c-1.388,0-1.388-1.848,0-1.848Z" fill="#232323"/>
    <path d="M198.263,108.587h-6.397c-.212,0-.639-.215-.639-.642,0-.425,.427-.639,.639-.639h24.951c.212,0,.639,.215,.639,.639,0,.427-.427,.642-.639,.642h-3.2v86.154c0,3.412,1.921,7.678,6.612,7.678,3.839,0,6.185-2.773,6.185-6.61,0-.854,1.279-.854,1.279,0,0,6.824-4.904,9.382-11.942,9.382-8.53,0-13.221-6.185-13.221-15.781V114.13c0-2.985-1.494-5.118-4.266-5.543Zm9.597-49.263c4.266,0,7.251,2.985,7.251,7.251s-2.985,7.249-7.251,7.249-7.251-2.985-7.251-7.249,2.987-7.251,7.251-7.251Z" fill="#232323"/>
    <path d="M308.943,174.908c-2.773-9.168,10.449-10.661,10.449-.425,0,15.567-18.552,30.919-39.024,30.919-31.136-.21-44.572-21.322-44.572-49.688,0-27.297,19.621-51.181,49.69-51.181,19.406,0,33.481,9.597,33.481,25.593,0,12.794-12.584,21.325-24.951,24.734-21.112,5.545-47.342,11.09-45.211,27.726,5.545,13.434,12.796,21.537,31.563,21.537,20.258,0,32.415-16.846,28.576-29.215Zm-25.378-68.881c-25.376,0-35.188,20.473-36.252,45.851-.215,8.318,0,17.06,.639,25.164,3.197-14.503,25.803-17.7,43.93-23.245,11.303-3.412,15.994-12.582,15.994-24.951,0-12.582-6.185-22.818-24.312-22.818Z" fill="#232323"/>
    <path d="M337.309,51.433h-8.957c-.212,0-.639-.212-.639-.639s.427-.639,.639-.639h27.297c.212,0,.639,.212,.639,.639s-.427,.639-.639,.639h-3.2V193.677c0,4.262,2.133,8.743,7.678,8.743,3.837,0,7.249-2.133,7.249-6.61,0-.854,1.281-.854,1.281,0,0,6.18-4.479,9.382-11.942,9.382-9.17,0-15.354-5.76-15.354-15.781V56.978c0-2.773-1.281-5.545-4.052-5.545Z" fill="#232323"/>
    <path d="M469.305,51.238c1.459-1.459,2.624-1.75,3.789-.583,.587,.583,.587,1.165,0,2.041-2.624,2.624-3.789,6.415-3.789,11.082,0,13.705,12.54,23.62,27.993,23.62,17.792,0,30.621-14.579,30.621-30.91,0-10.79-5.247-20.705-15.457-29.745-10.206-9.041-23.328-13.705-39.657-13.705-17.205,0-31.497,4.665-43.161,14.288-11.664,9.623-17.496,21.289-17.496,34.995,0,9.332,3.5,17.788,10.499,25.372,7.291,7.288,17.496,11.079,30.908,11.373h1.752c2.041,0,2.917,.874,2.917,2.332,0,1.75-1.165,2.624-3.206,2.624-17.209,0-32.662,6.126-45.785,18.372-13.123,11.955-19.831,25.954-19.831,41.994s6.708,30.328,20.122,42.868c13.414,12.54,32.078,18.953,56.282,19.246,22.746,0,41.409-6.999,55.991-21.287,14.581-14.292,21.87-28.58,21.87-42.868,0-3.793-.583-8.458-3.206-15.749-2.335-7.873-9.041-15.164-18.37-18.664-4.958-2.041-9.917-2.915-15.168-3.208h-1.748c-10.788,0-22.163,6.417-27.122,16.622-2.33,3.791-6.412,.585-3.789-4.082,6.706-10.79,19.246-17.788,30.91-17.788,9.041,0,20.705,3.791,34.993,11.079,13.71,6.999,24.204,10.499,32.08,10.499,15.457,0,26.246-11.664,26.246-24.204,0-5.541-2.335-9.914-6.999-12.831-4.958-2.332-1.459-7.291,2.917-4.665,6.123,3.791,9.33,9.623,9.33,17.496,0,7.291-2.913,14.29-9.036,20.413-5.834,6.123-13.416,9.041-22.457,9.041-8.458,0-18.664-3.208-31.204-9.914,5.541,7.582,8.458,16.329,8.458,25.954,0,13.999-7.875,30.328-21.581,44.327-13.123,14.288-36.451,24.787-62.114,24.787-25.956-.293-46.076-6.999-60.073-20.705-13.999-13.705-20.998-29.163-20.998-46.368,0-13.708,4.958-26.539,15.166-38.494,10.206-12.249,23.037-20.413,37.908-24.496-18.953-6.123-30.617-23.039-30.617-39.368,0-14.873,6.415-27.413,18.953-37.618,12.54-10.499,28.287-15.749,46.661-15.749,16.912,0,30.91,4.958,42.285,14.873,11.371,9.914,17.205,20.705,17.205,32.662,0,9.332-3.5,17.788-10.206,25.078-6.71,7.291-14.875,10.79-24.791,10.79-18.664,0-32.369-11.958-32.369-28.578,0-5.25,1.459-9.332,4.376-12.249Z" fill="#232323"/>
    <path d="M683.01,207.75c-35.829,0-64.62-24.739-64.62-78.905,0-50.967,31.778-75.493,66.753-75.493,26.018,0,46.701,14.075,46.276,30.709-.425,13.648-15.567,11.945-13.224-.425,2.773-14.503-8.957-28.363-32.627-28.576h-.425c-29.644-.215-53.744,20.897-53.744,73.785,0,57.154,22.606,77.197,51.611,77.412h.215c24.734,0,39.022-16.631,36.464-31.563-1.918-11.515,13.434-13.219,13.224-.425-.215,16.636-23.035,33.481-49.688,33.481h-.215Z" fill="#232323"/>
    <path d="M771.51,205.402c-16.846,0-25.589-8.103-25.589-22.391,0-22.391,25.589-23.885,49.688-31.988,15.781-5.331,17.275-13.434,17.275-24.31s-5.335-20.687-22.181-20.687c-19.833,0-28.576,15.354-23.67,27.936,3.412,10.024-11.515,14.503-12.369,.427-1.069-15.994,13.219-29.642,36.039-29.642,23.46,0,33.057,10.876,33.057,24.312v65.682c0,3.412,1.918,7.678,6.61,7.678,3.837,0,6.185-2.773,6.185-6.61,0-.854,1.279-.854,1.279,0,0,6.824-4.906,9.382-11.945,9.382-8.528,0-13.219-6.185-13.219-15.781v-33.271c-3.841,27.941-18.979,49.263-41.16,49.263Zm41.16-56.937v-9.811c-1.708,6.185-5.545,9.172-15.996,13.436-15.142,5.758-38.597,7.676-38.597,30.282v1.918c0,11.09,5.331,18.554,15.352,18.554,24.099,0,36.894-28.361,39.241-54.379Z" fill="#232323"/>
    <path d="M845.087,203.059h8.743c.639,0,1.494-.425,1.494-1.494V110.078c0-1.067-.425-1.491-1.494-1.491h-10.661c-.215,0-.639,0-.639-.642s.425-.639,.639-.639h10.661c.639,0,1.494-.425,1.494-1.491v-6.824c0-32.415,21.327-52.887,51.396-49.475,13.219,1.491,7.674,13.009-.639,10.449-42.014-13.009-39.666,8.745-39.666,39.027v6.824c0,1.067,.425,1.491,1.494,1.491h14.927c1.064,0,1.064,1.281,0,1.281h-14.927c-.854,0-1.494,.425-1.494,1.491v91.487c0,1.069,.425,1.494,1.494,1.494h8.743c.21,0,.85,0,.85,.639s-.639,.639-.85,.639h-31.563c-.215,0-.639,0-.639-.639s.425-.639,.639-.639Z" fill="#232323"/>
    <path d="M971.549,174.908c-2.768-9.168,10.451-10.661,10.451-.425,0,15.567-18.554,30.919-39.027,30.919-31.134-.21-44.567-21.322-44.567-49.688,0-27.297,19.618-51.181,49.688-51.181,19.404,0,33.481,9.597,33.481,25.593,0,12.794-12.584,21.325-24.953,24.734-21.112,5.545-47.34,11.09-45.207,27.726,5.541,13.434,12.794,21.537,31.559,21.537,20.262,0,32.417-16.846,28.576-29.215Zm-25.374-68.881c-25.378,0-35.19,20.473-36.254,45.851-.215,8.318,0,17.06,.639,25.164,3.197-14.503,25.803-17.7,43.932-23.245,11.301-3.412,15.992-12.582,15.992-24.951,0-12.582-6.185-22.818-24.31-22.818Zm2.773-39.239c2.558-4.264,5.545-5.545,7.674-5.331,2.133,.212,3.202,2.346,2.773,3.625-.425,1.918-1.704,3.412-3.837,5.118l-14.288,10.449h-.639l8.318-13.861Z" fill="#232323"/>
  </g>
  <rect x="368.657" y="256.286" width="548.105" height="2.838" fill="#232323"/>
</svg>