<?xml version="1.0" encoding="UTF-8"?>
<svg id="a" data-name="Capa 1" xmlns="http://www.w3.org/2000/svg" width="1000" height="372" viewBox="0 0 1000 372">
  <g>
    <path d="M323.939,329.796c-5.967-5.969-15.671-5.964-21.638,0-5.964,5.965-5.964,15.673,0,21.639,2.984,2.984,6.901,4.474,10.818,4.474s7.837-1.49,10.82-4.474c5.964-5.965,5.964-15.673,0-21.639Z" fill="#232323"/>
    <polygon points="173.274 54.415 295.263 159.034 317.498 139.866 173.269 16.091 29.776 139.595 52.012 158.763 173.274 54.415" fill="#232323"/>
    <polygon points="323.956 186.301 293.057 212.935 293.202 264.444 247.669 303.683 173.635 240.192 99.603 303.683 54.07 264.444 54.214 212.935 23.316 186.301 23.059 276.05 99.708 342.111 173.635 278.4 247.561 342.111 324.213 276.05 323.956 186.301" fill="#232323"/>
    <path d="M66.882,65.252c3.917,0,7.837-1.492,10.82-4.474,5.967-5.965,5.967-15.672,0-21.638-2.892-2.89-6.734-4.482-10.82-4.482s-7.931,1.592-10.82,4.482c-5.967,5.965-5.967,15.672,0,21.638,2.983,2.983,6.9,4.474,10.82,4.474Z" fill="#232323"/>
  </g>
  <g>
    <path d="M389.101,164.753c0-1.1,.174-1.999,.521-2.695l43.457-109.859c1.1-2.724,3.012-4.085,5.737-4.085,2.781,0,4.721,1.361,5.823,4.085l43.457,109.859c.347,.868,.522,1.769,.522,2.695,0,1.681-.581,3.099-1.739,4.259-1.16,1.158-2.666,1.739-4.519,1.739-2.898,0-4.839-1.363-5.823-4.087l-12.863-32.766h-49.629l-12.949,32.593c-1.042,2.839-3.014,4.259-5.911,4.259-1.681,0-3.115-.596-4.301-1.783-1.188-1.187-1.782-2.593-1.782-4.215Zm28.681-41.893h42.154l-21.12-54.407-21.034,54.407Z" fill="#232323"/>
    <path d="M506.567,160.971c-6.375-7.155-9.561-17.889-9.561-32.2s3.172-25.002,9.517-32.072c6.344-7.069,15.397-10.604,27.161-10.604,6.894,0,12.646,1.319,17.252,3.954,4.606,2.637,7.981,5.403,10.126,8.301,.811,1.16,1.217,2.288,1.217,3.389,0,1.508-.495,2.737-1.478,3.693-.987,.956-2.204,1.434-3.651,1.434-1.623,0-3.042-.694-4.259-2.086-.985-1.1-1.855-1.999-2.607-2.695-.753-.694-1.913-1.564-3.477-2.607-1.564-1.042-3.463-1.825-5.693-2.346-2.231-.522-4.709-.782-7.431-.782-16.746,0-25.118,10.806-25.118,32.419,0,21.727,8.372,32.591,25.118,32.591,3.186,0,6.243-.477,9.17-1.434,2.925-.957,5.069-1.869,6.431-2.737,1.361-.87,3.028-2.028,4.998-3.477,1.217-.87,2.346-1.303,3.389-1.303,1.447,0,2.665,.508,3.651,1.52,.984,1.014,1.478,2.246,1.478,3.693,0,1.623-.755,3.101-2.26,4.433-7.822,6.432-16.775,9.647-26.857,9.647-11.705,0-20.744-3.577-27.117-10.734Z" fill="#232323"/>
    <path d="M577.273,139.286v-46.499c0-1.622,.535-2.967,1.608-4.041,1.072-1.072,2.419-1.608,4.042-1.608,1.564,0,2.911,.552,4.041,1.65,1.131,1.102,1.694,2.434,1.694,3.998v46.499c0,3.13,.305,5.897,.912,8.301,.61,2.405,1.666,4.65,3.174,6.735,1.505,2.085,3.736,3.693,6.692,4.824,2.955,1.129,6.606,1.694,10.952,1.694s7.996-.565,10.95-1.694c2.955-1.131,5.171-2.739,6.649-4.824,1.478-2.085,2.52-4.315,3.13-6.692,.608-2.377,.912-5.157,.912-8.345v-46.499c0-1.564,.579-2.896,1.739-3.998,1.157-1.099,2.549-1.65,4.171-1.65,1.507,0,2.795,.536,3.868,1.608,1.072,1.073,1.608,2.419,1.608,4.041v46.499c0,3.651-.26,6.954-.782,9.909-.521,2.956-1.506,5.881-2.955,8.779-1.449,2.898-3.36,5.317-5.737,7.257-2.375,1.942-5.562,3.507-9.561,4.694-3.996,1.186-8.661,1.781-13.992,1.781s-9.982-.594-13.95-1.781c-3.969-1.187-7.157-2.752-9.56-4.694-2.405-1.94-4.347-4.359-5.823-7.257-1.477-2.898-2.478-5.823-2.999-8.779-.521-2.955-.782-6.258-.782-9.909Z" fill="#232323"/>
    <path d="M657.539,146.24c0-7.822,2.781-13.963,8.344-18.425,5.564-4.462,13.152-6.693,22.772-6.693h25.118v-4.78c0-6.026-1.884-10.806-5.65-14.341-3.766-3.533-8.894-5.302-15.383-5.302-4.636,0-8.531,.724-11.69,2.173-3.158,1.449-6.128,3.766-8.909,6.952-1.449,1.681-3.013,2.52-4.692,2.52-1.449,0-2.666-.506-3.651-1.52-.985-1.014-1.478-2.245-1.478-3.694,0-1.044,.29-2.057,.87-3.043,2.665-4.229,6.488-7.617,11.472-10.168,4.983-2.55,11.009-3.824,18.078-3.824,10.253,0,18.19,2.724,23.812,8.169,5.623,5.447,8.435,12.807,8.435,22.077v48.933c0,1.507-.56,2.796-1.678,3.868-1.119,1.071-2.444,1.608-3.974,1.608s-2.839-.537-3.929-1.608c-1.088-1.072-1.632-2.361-1.632-3.868v-6.432c-2.145,4.057-5.548,7.214-10.212,9.474-4.665,2.26-9.75,3.389-15.253,3.389-9.56,0-17.079-2.231-22.555-6.692-5.475-4.462-8.213-10.72-8.213-18.774Zm11.56,0c0,4.752,1.681,8.46,5.041,11.124,3.36,2.666,8.431,3.998,15.211,3.998,6.662,0,12.399-1.999,17.208-5.997,4.809-3.998,7.214-9.589,7.214-16.773v-7.475h-25.118c-6.028,0-10.792,1.275-14.297,3.824-3.507,2.551-5.259,6.316-5.259,11.299Z" fill="#232323"/>
    <path d="M744.324,165.1V92.787c0-1.622,.55-2.967,1.652-4.041,1.099-1.072,2.461-1.608,4.085-1.608s2.969,.536,4.041,1.608c1.072,1.073,1.608,2.419,1.608,4.041v7.824c1.854-4.23,4.955-7.649,9.3-10.256,4.347-2.609,9.503-3.912,15.471-3.912,1.507,0,2.795,.537,3.868,1.608,1.072,1.073,1.608,2.361,1.608,3.868s-.536,2.812-1.608,3.91c-1.073,1.102-2.361,1.652-3.868,1.652-7.939,0-14.051,2.521-18.339,7.562-4.289,5.041-6.432,11.763-6.432,20.164v39.894c0,1.623-.536,2.971-1.608,4.042-1.072,1.071-2.419,1.608-4.041,1.608s-2.986-.537-4.085-1.608c-1.102-1.072-1.652-2.419-1.652-4.042Z" fill="#232323"/>
    <path d="M790.434,128.771c0-13.616,3.216-24.133,9.647-31.551,6.432-7.416,15.441-11.125,27.031-11.125,4.575,0,8.704,.566,12.385,1.694,3.678,1.131,6.72,2.681,9.126,4.65,2.404,1.97,4.46,4.115,6.17,6.432,1.71,2.317,3,4.838,3.868,7.562,.87,2.723,1.491,5.228,1.868,7.517,.376,2.29,.566,4.563,.566,6.823,0,1.738-.044,3.084-.131,4.041-.086,.956-.333,2.101-.738,3.433-.406,1.334-1.131,2.319-2.174,2.956-1.043,.638-2.405,.956-4.085,.956h-51.975c0,8.865,2.39,15.92,7.17,21.164,4.78,5.244,11.343,7.865,19.686,7.865,4.634,0,8.574-.679,11.82-2.041,3.243-1.361,6.431-3.23,9.561-5.606,1.158-.752,2.229-1.129,3.216-1.129,1.447,0,2.664,.508,3.65,1.52,.985,1.014,1.477,2.246,1.477,3.693s-.638,2.812-1.912,4.086c-1.275,1.275-2.898,2.563-4.867,3.866-1.97,1.305-5.085,2.652-9.344,4.042-4.259,1.391-8.792,2.085-13.601,2.085-12.226,0-21.686-3.519-28.378-10.559-6.692-7.04-10.038-17.831-10.038-32.375Zm11.56-6.607h47.889c0-3.477-.347-6.634-1.043-9.472-.695-2.839-1.84-5.549-3.433-8.127-1.594-2.578-3.941-4.592-7.04-6.041-3.101-1.447-6.852-2.172-11.255-2.172-7.592,0-13.545,2.288-17.861,6.866-4.317,4.577-6.735,10.894-7.257,18.946Z" fill="#232323"/>
    <path d="M876.873,149.977V48.287c0-1.505,.579-2.823,1.738-3.954,1.158-1.129,2.49-1.694,3.998-1.694,1.564,0,2.896,.552,3.998,1.65,1.1,1.102,1.65,2.434,1.65,3.998v101.69c0,6.779,2.375,10.168,7.128,10.168,1.447,0,2.706,.508,3.78,1.522,1.072,1.014,1.608,2.275,1.608,3.78s-.536,2.768-1.608,3.782c-1.073,1.012-2.333,1.522-3.78,1.522-5.969,0-10.548-1.752-13.733-5.259-3.187-3.506-4.78-8.677-4.78-15.514Z" fill="#232323"/>
    <path d="M908.553,146.24c0-7.822,2.781-13.963,8.344-18.425,5.564-4.462,13.152-6.693,22.772-6.693h25.118v-4.78c0-6.026-1.884-10.806-5.65-14.341-3.766-3.533-8.894-5.302-15.383-5.302-4.636,0-8.531,.724-11.69,2.173-3.159,1.449-6.128,3.766-8.909,6.952-1.449,1.681-3.013,2.52-4.692,2.52-1.449,0-2.666-.506-3.651-1.52-.985-1.014-1.478-2.245-1.478-3.694,0-1.044,.29-2.057,.87-3.043,2.665-4.229,6.488-7.617,11.472-10.168,4.983-2.55,11.009-3.824,18.078-3.824,10.253,0,18.19,2.724,23.812,8.169,5.623,5.447,8.435,12.807,8.435,22.077v48.933c0,1.507-.56,2.796-1.678,3.868-1.119,1.071-2.444,1.608-3.974,1.608s-2.839-.537-3.929-1.608c-1.088-1.072-1.632-2.361-1.632-3.868v-6.432c-2.145,4.057-5.549,7.214-10.212,9.474-4.665,2.26-9.75,3.389-15.253,3.389-9.56,0-17.079-2.231-22.555-6.692-5.474-4.462-8.213-10.72-8.213-18.774Zm11.56,0c0,4.752,1.681,8.46,5.041,11.124,3.36,2.666,8.431,3.998,15.211,3.998,6.662,0,12.399-1.999,17.208-5.997,4.809-3.998,7.214-9.589,7.214-16.773v-7.475h-25.118c-6.028,0-10.793,1.275-14.297,3.824-3.507,2.551-5.259,6.316-5.259,11.299Z" fill="#232323"/>
    <path d="M387.971,212.112c0-1.679,.568-3.111,1.704-4.299,1.136-1.188,2.504-1.784,4.103-1.784,1.488,0,2.715,.481,3.68,1.442,.965,.958,1.584,2.038,1.862,3.237l27.281,96.243,24.254-58.553c.329-1.348,1.01-2.417,2.046-3.206,1.038-.785,2.213-1.181,3.523-1.181s2.47,.437,3.48,1.303c1.01,.87,1.679,2.048,2.008,3.538l24.843,58.135,26.781-96.716c.288-1.086,.951-2.065,1.989-2.935,1.038-.87,2.336-1.307,3.894-1.307,1.671,0,3.082,.575,4.237,1.72,1.154,1.148,1.732,2.529,1.732,4.151,0,.501-.117,1.202-.347,2.096l-31.439,109.952c-.334,1.418-1.026,2.559-2.079,3.423-1.051,.863-2.243,1.296-3.571,1.296-1.385,0-2.575-.396-3.572-1.181-.997-.785-1.662-1.882-1.994-3.287l-25.704-61.812-25.623,61.524c-.334,1.496-1.012,2.661-2.037,3.5-1.024,.836-2.227,1.256-3.612,1.256-1.327,0-2.505-.406-3.53-1.215-1.024-.809-1.703-1.879-2.034-3.212l-31.527-109.953c-.233-.924-.348-1.652-.348-2.173Z" fill="#232323"/>
    <path d="M528.122,286.305c0-13.616,3.216-24.131,9.647-31.549,6.432-7.417,15.441-11.128,27.031-11.128,4.575,0,8.704,.565,12.386,1.696,3.678,1.131,6.72,2.681,9.125,4.652,2.404,1.97,4.46,4.113,6.17,6.429,1.71,2.319,3,4.842,3.868,7.563,.87,2.725,1.491,5.23,1.869,7.519,.375,2.288,.565,4.56,.565,6.822,0,1.737-.044,3.084-.13,4.042-.086,.955-.334,2.099-.738,3.433-.406,1.334-1.131,2.316-2.174,2.955-1.042,.637-2.405,.955-4.085,.955h-51.975c0,8.866,2.39,15.922,7.17,21.162,4.78,5.247,11.343,7.868,19.686,7.868,4.635,0,8.574-.68,11.821-2.045,3.243-1.361,6.43-3.226,9.56-5.603,1.158-.755,2.23-1.131,3.216-1.131,1.447,0,2.665,.508,3.649,1.52,.985,1.016,1.478,2.248,1.478,3.694s-.638,2.813-1.913,4.086c-1.275,1.273-2.898,2.563-4.867,3.866-1.97,1.303-5.085,2.651-9.344,4.042-4.259,1.392-8.792,2.085-13.601,2.085-12.226,0-21.685-3.521-28.378-10.559-6.691-7.041-10.038-17.831-10.038-32.375Zm11.56-6.605h47.889c0-3.477-.347-6.635-1.042-9.476-.696-2.837-1.84-5.545-3.433-8.125-1.595-2.577-3.941-4.591-7.04-6.04-3.101-1.449-6.852-2.174-11.255-2.174-7.592,0-13.545,2.289-17.861,6.866-4.317,4.577-6.736,10.894-7.257,18.948Z" fill="#232323"/>
    <path d="M614.559,294.126v-88.303c0-1.621,.55-2.969,1.652-4.042,1.099-1.073,2.461-1.608,4.085-1.608s2.969,.535,4.041,1.608c1.072,1.073,1.608,2.421,1.608,4.042v49.366c2.26-3.185,5.534-5.911,9.821-8.169,4.288-2.261,9.097-3.392,14.429-3.392,23.813,0,35.721,14.226,35.721,42.677,0,14.311-3.143,25.046-9.43,32.202-6.289,7.157-15.284,10.732-26.987,10.732-10.488,0-18.933-3.013-25.335-9.039-6.404-6.026-9.605-14.716-9.605-26.074Zm11.385,0c0,8.172,2.129,14.341,6.388,18.515,4.259,4.171,9.98,6.257,17.166,6.257,16.687,0,25.032-10.864,25.032-32.592,0-10.837-2.129-18.948-6.388-24.338-4.259-5.386-10.475-8.081-18.644-8.081-3.128,0-6.084,.535-8.864,1.608-2.781,1.073-5.028,2.377-6.737,3.91-1.71,1.537-3.201,3.084-4.476,4.651-1.275,1.564-2.174,2.867-2.695,3.91l-.782,1.652v24.507Z" fill="#232323"/>
  </g>
</svg>