<?xml version="1.0" encoding="UTF-8"?>
<svg id="a" xmlns="http://www.w3.org/2000/svg" width="1000" height="396.064" viewBox="0 0 1000 396.064">
  <path d="M270.603,100.348c0-9.709,7.582-16.079,17.291-16.079s17.291,6.37,17.291,16.079c0,9.406-7.582,16.073-17.291,16.073s-17.291-6.668-17.291-16.073" fill="#232323"/>
  <rect x="275.152" y="146.763" width="24.878" height="147.436" fill="#232323"/>
  <path d="M125.91,197.125c0-18.812-6.365-37.012-30.334-37.012-17.296,0-32.461,7.885-43.993,15.776l-10.007-17.291c13.649-8.8,34.279-19.115,57.945-19.115,36.103,0,51.267,23.964,51.267,60.673v90.405h-20.63l-2.121-17.594h-.606c-14.26,11.527-30.642,21.236-48.842,21.236-24.878,0-43.382-15.473-43.382-41.866,0-32.157,27.909-48.236,90.703-55.212m-40.346,77.054c14.26,0,26.091-6.976,40.346-19.716v-40.962c-49.448,6.067-66.133,18.205-66.133,37.012,0,16.69,11.224,23.666,25.788,23.666" fill="#232323"/>
  <path d="M197.804,74.56h24.878v188.09c0,7.891,3.334,10.921,6.976,10.921,1.515,0,2.728,0,5.461-.606l3.339,18.812c-3.339,1.515-7.587,2.425-14.26,2.425-18.812,0-26.394-11.83-26.394-33.37V74.56Z" fill="#232323"/>
  <path d="M433.202,197.125c0-18.812-6.37-37.012-30.334-37.012-17.296,0-32.466,7.885-43.993,15.776l-10.007-17.291c13.649-8.8,34.279-19.115,57.945-19.115,36.097,0,51.267,23.964,51.267,60.673v90.405h-20.63l-2.121-17.594h-.606c-14.26,11.527-30.642,21.236-48.842,21.236-24.878,0-43.387-15.473-43.387-41.866,0-32.157,27.909-48.236,90.709-55.212m-40.346,77.054c14.26,0,26.085-6.976,40.346-19.716v-40.962c-49.448,6.067-66.133,18.205-66.133,37.012,0,16.69,11.224,23.666,25.788,23.666" fill="#232323"/>
  <path d="M509.335,163.448h-21.837v-18.812l23.055-1.515,.011-41.26h23.948v41.26h39.745v20.327h-39.745v81.909c0,18.206,5.769,28.521,22.762,28.521,5.152,0,11.825-2.127,16.679-3.945l4.855,18.806c-8.188,2.733-18.195,5.461-27.298,5.461-31.557,0-42.175-20.019-42.175-49.14v-81.611Z" fill="#232323"/>
  <path d="M740.854,214.719c0-32.461-10.921-54.303-38.83-54.303-12.442,0-25.485,6.976-39.436,20.024v77.357c13.043,11.224,26.388,15.473,36.097,15.473,24.272,0,42.169-22.145,42.169-58.551" fill="#232323"/>
  <path d="M780.389,13.627c-44.796,0-85.854,15.978-117.799,42.542v77.246l-.611,26.697c13.351-11.83,29.728-20.63,46.109-20.63,38.229,0,58.551,29.43,58.551,74.933,0,50.358-30.025,79.787-63.703,79.787-13.654,0-29.127-6.673-42.169-18.2h-.909l-2.122,14.558h-20.024V81.217c-26.069,31.806-41.728,72.482-41.728,116.815,0,101.842,82.568,184.405,184.405,184.405s184.405-82.563,184.405-184.405S882.232,13.627,780.389,13.627m74.422,280.574c-36.103,0-68.26-28.212-68.26-77.054,0-49.448,32.157-77.666,68.26-77.666s68.26,28.218,68.26,77.666c0,48.842-32.157,77.054-68.26,77.054" fill="#232323"/>
  <path d="M854.812,160.113c-25.176,0-42.472,23.055-42.472,57.036,0,33.673,17.296,56.424,42.472,56.424,25.479,0,42.472-22.752,42.472-56.424,0-33.981-16.993-57.036-42.472-57.036" fill="#232323"/>
  <polygon points="45.404 328.905 35.206 328.905 35.206 326.959 57.787 326.959 57.787 328.905 47.637 328.905 47.637 358.967 45.404 358.967 45.404 328.905" fill="#232323"/>
  <path d="M64.683,335.655h2.137v14.664c0,4.956,1.553,7.284,5.296,7.284,2.765,0,4.807-1.457,7.523-4.759v-17.19h2.137v23.31h-1.797l-.239-3.887h-.101c-2.281,2.674-4.711,4.471-7.912,4.471-4.812,0-7.045-2.914-7.045-8.938v-14.957Z" fill="#232323"/>
  <path d="M121.891,344.351c.101-3.547-.92-7.385-5.482-7.385-3.158,0-5.881,1.553-7.433,2.722l-.973-1.606c1.654-1.164,4.86-3.009,8.646-3.009,5.535,0,7.385,3.983,7.385,8.986v14.909h-1.797l-.245-3.015h-.101c-2.377,1.898-5.195,3.594-8.252,3.594-3.69,0-6.8-1.989-6.8-6.407,0-5.147,4.711-7.625,15.052-8.789m-7.912,13.351c2.669,0,5.051-1.313,7.912-3.786v-7.917c-9.565,1.117-12.819,3.35-12.819,7.045,0,3.344,2.233,4.658,4.908,4.658" fill="#232323"/>
  <path d="M136.271,324.047h2.137v32.104c0,1.016,.436,1.505,1.015,1.505,.197,0,.393,0,.877-.096l.388,1.744c-.436,.149-.872,.245-1.553,.245-1.893,0-2.866-1.164-2.866-3.69v-31.812Z" fill="#232323"/>
  <path d="M150.84,328.127c0-1.212,.877-1.941,1.946-1.941s1.941,.728,1.941,1.941c0,1.117-.877,1.893-1.941,1.893s-1.946-.776-1.946-1.893m.824,7.529h2.137v23.31h-2.137v-23.31Z" fill="#232323"/>
  <path d="M180.418,344.351c.096-3.547-.925-7.385-5.487-7.385-3.158,0-5.875,1.553-7.433,2.722l-.968-1.606c1.648-1.164,4.854-3.009,8.64-3.009,5.535,0,7.385,3.983,7.385,8.986v14.909h-1.797l-.245-3.015h-.096c-2.377,1.898-5.195,3.594-8.257,3.594-3.69,0-6.8-1.989-6.8-6.407,0-5.147,4.711-7.625,15.058-8.789m-7.917,13.351c2.669,0,5.051-1.313,7.917-3.786v-7.917c-9.571,1.117-12.819,3.35-12.819,7.045,0,3.344,2.233,4.658,4.902,4.658" fill="#232323"/>
  <path d="M203.194,335.074c2.818,0,4.711,1.069,7.04,2.866l-.096-4.275v-9.619h2.137v34.922h-1.845l-.197-3.015h-.144c-1.893,1.898-4.466,3.594-7.577,3.594-5.875,0-9.661-4.323-9.661-12.192,0-7.529,4.807-12.282,10.342-12.282m-.388,22.581c2.573,0,4.86-1.361,7.332-3.839v-13.84c-2.472-2.185-4.514-3.009-6.795-3.009-4.663,0-8.21,4.514-8.21,10.389,0,6.173,2.717,10.299,7.672,10.299" fill="#232323"/>
  <path d="M233.6,335.074c5.636,0,10.49,4.466,10.49,12.282,0,7.726-4.854,12.192-10.49,12.192-5.588,0-10.443-4.466-10.443-12.192,0-7.816,4.854-12.282,10.443-12.282m0,22.581c4.711,0,8.257-4.179,8.257-10.299,0-6.168-3.547-10.389-8.257-10.389s-8.21,4.222-8.21,10.389c0,6.12,3.499,10.299,8.21,10.299" fill="#232323"/>
  <path d="M276.727,335.073c5.535,0,8.933,3.935,8.933,10.777,0,.585,0,1.17-.096,1.749h-16.802c.096,5.881,3.547,10.102,8.789,10.102,2.526,0,4.52-.824,6.264-2.09l.877,1.654c-1.845,1.117-3.94,2.281-7.337,2.281-5.971,0-10.778-4.562-10.778-12.187s4.956-12.288,10.15-12.288m6.896,10.879c0-5.976-2.674-9.034-6.848-9.034-3.982,0-7.529,3.445-8.013,9.034h14.861Z" fill="#232323"/>
  <path d="M295.859,335.655h1.845l.197,3.594h.149c2.377-2.377,4.801-4.174,8.008-4.174,4.812,0,7.045,2.908,7.045,8.933v14.957h-2.137v-14.67c0-4.95-1.553-7.284-5.344-7.284-2.77,0-4.759,1.462-7.625,4.376v17.578h-2.137v-23.31Z" fill="#232323"/>
  <path d="M339.131,324.046h2.137v10.102l-.096,4.567c2.377-1.994,5.195-3.642,8.061-3.642,6.216,0,9.326,4.658,9.326,11.9,0,7.912-4.807,12.575-10.294,12.575-2.239,0-4.812-1.069-6.997-2.77h-.096l-.245,2.191h-1.797v-34.922Zm9.034,33.609c4.711,0,8.108-4.371,8.108-10.682,0-5.732-2.036-10.007-7.38-10.007-2.329,0-4.854,1.356-7.625,3.839v13.84c2.573,2.185,5.099,3.009,6.896,3.009" fill="#232323"/>
  <path d="M382.454,344.351c.096-3.547-.925-7.385-5.487-7.385-3.158,0-5.875,1.553-7.433,2.722l-.968-1.606c1.648-1.164,4.854-3.009,8.64-3.009,5.535,0,7.385,3.983,7.385,8.986v14.909h-1.797l-.245-3.015h-.096c-2.377,1.898-5.2,3.594-8.257,3.594-3.69,0-6.8-1.989-6.8-6.407,0-5.147,4.711-7.625,15.058-8.789m-7.917,13.351c2.669,0,5.051-1.313,7.917-3.786v-7.917c-9.571,1.117-12.819,3.35-12.819,7.045,0,3.344,2.233,4.658,4.902,4.658" fill="#232323"/>
  <path d="M405.523,335.074c3.206,0,5.296,1.409,6.848,2.866l-1.265,1.505c-1.499-1.409-3.254-2.478-5.535-2.478-4.759,0-8.449,4.222-8.449,10.395,0,6.115,3.35,10.294,8.449,10.294,2.478,0,4.615-1.212,6.216-2.669l1.117,1.457c-1.989,1.792-4.466,3.105-7.428,3.105-6.024,0-10.586-4.466-10.586-12.187,0-7.821,4.956-12.288,10.634-12.288" fill="#232323"/>
  <polygon points="422.523 324.047 424.66 324.047 424.66 349.787 424.756 349.787 436.262 335.654 438.745 335.654 431.168 344.879 440.005 358.964 437.629 358.964 429.903 346.485 424.66 352.605 424.66 358.964 422.523 358.964 422.523 324.047" fill="#232323"/>
  <path d="M470.994,335.074c5.631,0,10.49,4.466,10.49,12.282,0,7.726-4.86,12.192-10.49,12.192-5.588,0-10.443-4.466-10.443-12.192,0-7.816,4.854-12.282,10.443-12.282m0,22.581c4.706,0,8.252-4.179,8.252-10.299,0-6.168-3.546-10.389-8.252-10.389s-8.21,4.222-8.21,10.389c0,6.12,3.499,10.299,8.21,10.299" fill="#232323"/>
  <path d="M514.216,325.992c-.973-.489-1.941-.681-2.818-.681-2.478,0-3.642,1.941-3.642,5.296v5.046h5.392v1.85h-5.392v21.465h-2.137v-21.465h-10.783v21.465h-2.132v-21.465h-3.164v-1.654l3.164-.197v-4.323c0-4.854,2.329-7.38,6.311-7.38,1.26,0,2.675,.292,3.929,.872l-.58,1.749c-1.164-.58-2.233-.776-3.35-.776-2.77,0-4.179,2.089-4.179,5.684v4.174h10.783v-5.195c0-4.615,2.084-6.992,5.78-6.992,1.069,0,2.329,.292,3.398,.776l-.58,1.749Z" fill="#232323"/>
  <path d="M520.964,328.127c0-1.212,.872-1.941,1.946-1.941s1.941,.728,1.941,1.941c0,1.117-.872,1.893-1.941,1.893s-1.946-.776-1.946-1.893m.829,7.529h2.137v23.31h-2.137v-23.31Z" fill="#232323"/>
  <path d="M545.49,335.074c3.206,0,5.296,1.409,6.848,2.866l-1.265,1.505c-1.499-1.409-3.254-2.478-5.535-2.478-4.764,0-8.449,4.222-8.449,10.395,0,6.115,3.35,10.294,8.449,10.294,2.478,0,4.615-1.212,6.216-2.669l1.117,1.457c-1.989,1.792-4.466,3.105-7.433,3.105-6.019,0-10.581-4.466-10.581-12.187,0-7.821,4.95-12.288,10.634-12.288" fill="#232323"/>
  <path d="M569.873,335.073c5.535,0,8.938,3.935,8.938,10.777,0,.585,0,1.17-.101,1.749h-16.802c.101,5.881,3.547,10.102,8.789,10.102,2.526,0,4.52-.824,6.269-2.09l.872,1.654c-1.845,1.117-3.935,2.281-7.332,2.281-5.976,0-10.783-4.562-10.783-12.187s4.956-12.288,10.15-12.288m6.896,10.879c0-5.976-2.669-9.034-6.843-9.034-3.988,0-7.529,3.445-8.018,9.034h14.861Z" fill="#232323"/>
</svg>