<?xml version="1.0" encoding="UTF-8"?>
<svg id="a" xmlns="http://www.w3.org/2000/svg" width="1000" height="399.726" viewBox="0 0 1000 399.726">
  <g>
    <path d="M215.881,348.92h2.338v28.53l-2.338-.028v-28.502Z" stroke="#000" stroke-miterlimit="10" stroke-width=".653"/>
    <path d="M264.902,348.92l.056,28.474-2.338,.056-23.064-25.092v25.036l-2.281,.028v-28.502l2.281,.028,23.036,24.924-.028-24.952h2.338Z" stroke="#000" stroke-miterlimit="10" stroke-width=".653"/>
    <path d="M293.166,362.1c.863,.227,1.516,.406,1.957,.536,.441,.133,1.062,.329,1.858,.592,.799,.263,1.414,.51,1.845,.745,.434,.235,.931,.546,1.493,.929,.564,.385,.99,.789,1.281,1.212,.291,.424,.546,.929,.76,1.521,.217,.592,.324,1.225,.324,1.901,0,2.177-1.003,4.042-3.014,5.591-2.008,1.549-4.43,2.322-7.265,2.322-2.366,0-4.468-.559-6.308-1.677-1.84-1.115-3.052-2.529-3.634-4.239l2.309-.646c.431,1.258,1.358,2.294,2.774,3.111,1.419,.817,3.037,1.225,4.859,1.225,2.159,0,4.014-.559,5.563-1.674,1.549-1.118,2.322-2.455,2.322-4.014,0-.582-.125-1.113-.38-1.592-.253-.477-.567-.88-.942-1.21-.378-.329-.931-.648-1.664-.957-.732-.311-1.439-.574-2.126-.789-.684-.217-1.582-.475-2.69-.776-.638-.168-1.113-.296-1.421-.38-.311-.084-.766-.214-1.365-.393-.602-.179-1.067-.339-1.396-.48-.327-.14-.75-.319-1.266-.536-.518-.214-.921-.431-1.212-.648-.291-.214-.633-.464-1.028-.745-.393-.281-.699-.582-.914-.901-.217-.319-.429-.666-.635-1.044-.207-.375-.355-.791-.449-1.253-.094-.459-.14-.942-.14-1.449,0-2.064,.952-3.83,2.858-5.295,1.904-1.465,4.2-2.197,6.885-2.197,2.141,0,4.065,.49,5.775,1.465,1.707,.977,2.881,2.225,3.519,3.746l-2.309,.62c-.508-1.051-1.398-1.916-2.674-2.59-1.278-.676-2.715-1.016-4.31-1.016-2.026,0-3.759,.518-5.196,1.549-1.437,1.034-2.154,2.274-2.154,3.718,0,.638,.13,1.215,.393,1.733,.263,.515,.592,.952,.985,1.309,.396,.357,.967,.699,1.72,1.028,.75,.329,1.483,.605,2.195,.829,.715,.227,1.654,.498,2.817,.817Z" stroke="#000" stroke-miterlimit="10" stroke-width=".653"/>
    <path d="M340.667,353.794c.658,1.332,.883,2.797,.676,4.392-.133,.96-.447,1.878-.944,2.761-.498,.883-.914,1.493-1.253,1.83-.337,.339-.666,.63-.985,.873-1.521,1.184-3.238,1.776-5.155,1.776l-10.588,.028v11.94h-2.338l.056-28.474c8.243,0,12.56,.01,12.953,.028,1.128,.059,2.075,.227,2.845,.508,1.09,.413,2.113,1.1,3.07,2.057,.75,.75,1.304,1.511,1.661,2.281Zm-1.689,4.223c.168-1.051,.038-2.131-.396-3.238-.47-1.034-1.276-1.886-2.422-2.562-.975-.602-2.019-.921-3.126-.96h-10.644v11.802h10.588c.413,.036,.837,.008,1.268-.087,1.332-.26,2.488-.975,3.463-2.138,.62-.789,1.044-1.728,1.268-2.817Z" stroke="#000" stroke-miterlimit="10" stroke-width=".653"/>
    <path d="M358.372,348.92h2.338v28.53l-2.338-.028v-28.502Z" stroke="#000" stroke-miterlimit="10" stroke-width=".653"/>
    <path d="M401.309,375.508c.038,.674,.046,1.266,.028,1.774l.028,.225h-2.338v-.62c0-.148-.01-.342-.028-.577s-.028-.37-.028-.408c0-.094-.018-.365-.056-.817-.02-.245-.048-.536-.084-.873,0-.018-.01-.074-.028-.168-.02-.094-.043-.23-.071-.408s-.051-.334-.069-.464l-.199-.988c-.074-.375-.158-.684-.253-.929-.077-.225-.207-.526-.396-.901-.151-.301-.291-.544-.421-.732-.396-.582-.901-1.146-1.521-1.689-.62-.526-1.192-.921-1.717-1.184-.602-.281-1.258-.487-1.973-.618-.056,0-.153-.015-.296-.043-.14-.028-.276-.051-.408-.071-1.483-.207-2.366-.309-2.646-.309-1.654-.112-2.873-.179-3.662-.196-.845-.02-1.886-.02-3.126,0v11.996h-2.338v-28.499h13.152c.319,0,.62,.018,.901,.056,.658,.074,1.335,.225,2.029,.449,.975,.319,1.886,.845,2.73,1.577,.732,.62,1.335,1.342,1.804,2.169,.618,1.069,.957,2.264,1.013,3.578,.038,.901-.038,1.735-.225,2.506-.434,1.388-1.156,2.6-2.169,3.631-.883,.883-1.924,1.549-3.126,2.001,.018,0,.061,.023,.128,.071,.064,.046,.115,.079,.153,.097,.732,.49,1.324,.957,1.776,1.409,.618,.62,1.164,1.296,1.633,2.029,.526,.845,.957,1.934,1.294,3.266,.038,.13,.077,.324,.112,.577,.038,.253,.066,.429,.087,.521,.112,.62,.214,1.475,.309,2.565Zm-7.408-12.448c.245-.038,.48-.087,.704-.143,.339-.092,.686-.23,1.044-.408,.355-.176,.623-.327,.801-.449s.286-.202,.324-.24c.883-.694,1.503-1.493,1.86-2.394,.393-.919,.495-1.934,.309-3.042-.207-1.125-.666-2.103-1.381-2.93-.977-1.125-2.197-1.802-3.662-2.026-.487-.056-.873-.084-1.153-.084h-10.703v11.884c6.515,0,10.072-.018,10.674-.056,.526-.02,.919-.056,1.182-.112Z" stroke="#000" stroke-miterlimit="10" stroke-width=".653"/>
    <path d="M421.829,364.241l-.028,10.815h19.882v2.338h-22.247v-28.474h22.247v2.309l-19.91,.056,.028,10.562,16.924,.056,.031,2.338h-16.927Z" stroke="#000" stroke-miterlimit="10" stroke-width=".653"/>
    <path d="M504.438,348.92l-11.8,16.505,.028,11.968h-2.394l.056-11.996-11.8-16.477h2.843l10.11,14.112,10.11-14.112h2.845Z" stroke="#000" stroke-miterlimit="10" stroke-width=".653"/>
    <path d="M544.305,358.721c.638,2.123,.789,4.3,.452,6.533-.357,2.366-1.23,4.517-2.621,6.451-1.182,1.615-2.59,2.881-4.223,3.802-2.442,1.406-5.088,2.016-7.941,1.83-2.611-.168-5.014-1.013-7.212-2.534-1.802-1.24-3.2-2.751-4.195-4.535-1.125-1.973-1.728-4.177-1.802-6.62-.077-2.685,.459-5.086,1.605-7.209,.186-.357,.411-.732,.676-1.125,.263-.396,.674-.934,1.238-1.62,.564-.684,1.291-1.355,2.182-2.013,.893-.656,1.865-1.212,2.917-1.661,1.84-.771,3.774-1.136,5.8-1.1,2.103,.038,4.093,.528,5.971,1.465,1.896,.995,3.491,2.33,4.787,3.999,1.108,1.409,1.896,2.856,2.366,4.338Zm-2.422,8.674c.526-1.444,.76-3.06,.704-4.843-.112-1.822-.498-3.399-1.156-4.731-.638-1.276-1.493-2.412-2.562-3.409-.845-.768-1.766-1.406-2.761-1.914-1.577-.789-3.154-1.212-4.731-1.268-1.914-.092-3.754,.273-5.52,1.1-.901,.431-1.723,.952-2.463,1.562-.743,.61-1.34,1.235-1.789,1.873-.452,.638-.789,1.151-1.013,1.536-.227,.385-.406,.737-.536,1.056-.715,1.745-1.023,3.547-.929,5.405,.112,2.33,.824,4.45,2.138,6.367,1.108,1.557,2.516,2.779,4.226,3.659,1.896,.977,3.922,1.401,6.084,1.268,2.138-.151,4.093-.827,5.857-2.029,.431-.281,.868-.615,1.309-.998,.441-.385,.982-1.011,1.62-1.873,.638-.865,1.146-1.784,1.521-2.761Z" stroke="#000" stroke-miterlimit="10" stroke-width=".653"/>
    <path d="M585.694,348.92l.028,16.702c0,1.37-.235,2.695-.704,3.971-.505,1.447-1.36,2.807-2.562,4.083-1.409,1.483-2.975,2.516-4.703,3.098-1.051,.357-2.243,.564-3.575,.62-1.503,.056-2.93-.158-4.282-.648-1.22-.431-2.412-1.125-3.578-2.085-1.013-.824-1.763-1.613-2.251-2.366-.789-1.108-1.335-2.233-1.636-3.379-.225-.789-.365-1.511-.421-2.169-.056-.505-.084-.845-.084-1.013-.02-.413-.028-.947-.028-1.605v-15.209l2.422,.028-.056,16.562c0,.526,.066,1.146,.196,1.858,.225,1.184,.666,2.281,1.324,3.294,.901,1.37,2.036,2.442,3.407,3.21,1.352,.771,2.845,1.166,4.479,1.184,1.22,.018,2.422-.196,3.606-.648,1.108-.413,2.1-1.023,2.983-1.83,1.146-1.034,1.973-2.207,2.48-3.522,.337-.863,.551-1.858,.646-2.986,.056-.789,.084-1.406,.084-1.858l-.084-15.293h2.309Z" stroke="#000" stroke-miterlimit="10" stroke-width=".653"/>
    <path d="M625.786,375.508c.038,.674,.046,1.266,.028,1.774l.028,.225h-2.338v-.62c0-.148-.01-.342-.028-.577s-.028-.37-.028-.408c0-.094-.018-.365-.056-.817-.018-.245-.046-.536-.084-.873,0-.018-.01-.074-.028-.168s-.043-.23-.071-.408-.051-.334-.069-.464l-.196-.988c-.077-.375-.161-.684-.255-.929-.074-.225-.207-.526-.393-.901-.151-.301-.291-.544-.424-.732-.393-.582-.901-1.146-1.521-1.689-.62-.526-1.192-.921-1.717-1.184-.602-.281-1.258-.487-1.973-.618-.056,0-.153-.015-.293-.043-.143-.028-.278-.051-.408-.071-1.485-.207-2.366-.309-2.649-.309-1.651-.112-2.871-.179-3.662-.196-.845-.02-1.886-.02-3.126,0v11.996h-2.338v-28.499h13.152c.319,0,.62,.018,.903,.056,.656,.074,1.332,.225,2.026,.449,.977,.319,1.888,.845,2.733,1.577,.732,.62,1.332,1.342,1.802,2.169,.62,1.069,.957,2.264,1.013,3.578,.038,.901-.038,1.735-.225,2.506-.431,1.388-1.156,2.6-2.169,3.631-.883,.883-1.924,1.549-3.126,2.001,.018,0,.061,.023,.128,.071,.066,.046,.117,.079,.156,.097,.73,.49,1.322,.957,1.774,1.409,.62,.62,1.164,1.296,1.633,2.029,.526,.845,.957,1.934,1.296,3.266,.036,.13,.074,.324,.112,.577,.036,.253,.064,.429,.084,.521,.112,.62,.214,1.475,.309,2.565Zm-7.406-12.448c.242-.038,.477-.087,.704-.143,.337-.092,.684-.23,1.041-.408,.357-.176,.623-.327,.801-.449s.288-.202,.324-.24c.883-.694,1.503-1.493,1.86-2.394,.393-.919,.498-1.934,.309-3.042-.207-1.125-.666-2.103-1.381-2.93-.975-1.125-2.195-1.802-3.659-2.026-.49-.056-.873-.084-1.156-.084h-10.703v11.884c6.515,0,10.075-.018,10.674-.056,.526-.02,.921-.056,1.184-.112Z" stroke="#000" stroke-miterlimit="10" stroke-width=".653"/>
    <path d="M669.219,375.056h16.674v2.338l-18.983,.028v-28.502h2.368l-.059,26.136Z" stroke="#000" stroke-miterlimit="10" stroke-width=".653"/>
    <path d="M701.906,348.92h2.338v28.53l-2.338-.028v-28.502Z" stroke="#000" stroke-miterlimit="10" stroke-width=".653"/>
    <path d="M742.503,361.876l.028,2.366h-16.924v13.04l-2.368,.028v-28.389h22.25l.028,2.338h-19.94l.031,10.618h16.896Z" stroke="#000" stroke-miterlimit="10" stroke-width=".653"/>
    <path d="M764.266,364.241l-.028,10.815h19.882v2.338h-22.25v-28.474h22.25v2.309l-19.912,.056,.031,10.562,16.924,.056,.028,2.338h-16.924Z" stroke="#000" stroke-miterlimit="10" stroke-width=".653"/>
  </g>
  <g>
    <path d="M35.16,302.022h33.677v3.585H31.185v-54.569h36.481v3.588H35.16v47.396Zm-.467-25.881h29.543v3.506h-29.543v-3.506Z"/>
    <path d="M106.722,305.607v-54.569h3.351l38.901,49.657h-1.794v-49.657h3.976v54.569h-3.274l-38.977-49.657h1.794v49.657h-3.976Z"/>
    <path d="M236.982,305.607v-54.569h3.351l25.337,43.734h-1.794l25.258-43.734h3.274l.077,54.569h-3.897l-.079-48.564h1.092l-23.931,41.315h-1.95l-24.01-41.315h1.169v48.564h-3.897Z"/>
    <path d="M358.045,305.997c-4.055,0-7.809-.689-11.266-2.067-3.455-1.375-6.469-3.325-9.041-5.846-2.572-2.519-4.56-5.456-5.964-8.809-1.404-3.351-2.105-7.002-2.105-10.953s.702-7.599,2.105-10.953c1.404-3.351,3.391-6.288,5.964-8.809,2.572-2.519,5.586-4.468,9.041-5.846,3.458-1.375,7.212-2.064,11.266-2.064s7.806,.689,11.264,2.064c3.455,1.378,6.456,3.312,9.003,5.808,2.547,2.493,4.535,5.418,5.964,8.771,1.429,3.351,2.144,7.028,2.144,11.029s-.715,7.679-2.144,11.032c-1.429,3.351-3.417,6.275-5.964,8.768-2.547,2.496-5.548,4.433-9.003,5.808-3.458,1.378-7.212,2.067-11.264,2.067Zm0-3.664c3.481,0,6.704-.597,9.666-1.794,2.96-1.194,5.535-2.884,7.717-5.065,2.182-2.184,3.884-4.729,5.106-7.64,1.22-2.909,1.832-6.081,1.832-9.511,0-3.481-.612-6.665-1.832-9.549-1.222-2.884-2.924-5.418-5.106-7.599-2.182-2.184-4.757-3.871-7.717-5.068-2.963-1.194-6.186-1.794-9.666-1.794s-6.704,.6-9.666,1.794c-2.963,1.197-5.548,2.884-7.758,5.068-2.21,2.182-3.925,4.716-5.145,7.599-1.222,2.884-1.832,6.068-1.832,9.549,0,3.43,.61,6.602,1.832,9.511,1.22,2.912,2.935,5.456,5.145,7.64,2.21,2.182,4.795,3.871,7.758,5.065,2.963,1.197,6.183,1.794,9.666,1.794Z"/>
    <path d="M437.247,305.607l-24.322-54.569h4.366l23.23,52.152h-2.417l23.309-52.152h4.131l-24.322,54.569h-3.976Z"/>
    <path d="M497.739,305.607v-54.569h3.976v54.569h-3.976Z"/>
    <path d="M544.122,305.607v-54.569h3.351l25.337,43.734h-1.794l25.258-43.734h3.274l.077,54.569h-3.897l-.079-48.564h1.092l-23.931,41.315h-1.95l-24.01-41.315h1.169v48.564h-3.897Z"/>
    <path d="M642.034,305.607v-54.569h3.976v54.569h-3.976Z"/>
    <path d="M692.393,302.022h33.677v3.585h-37.653v-54.569h36.481v3.588h-32.506v47.396Zm-.467-25.881h29.543v3.506h-29.543v-3.506Z"/>
    <path d="M763.952,305.607v-54.569h3.351l38.901,49.657h-1.794v-49.657h3.976v54.569h-3.274l-38.977-49.657h1.794v49.657h-3.976Z"/>
    <path d="M861.239,305.607v-50.981h-19.644v-3.588h43.264v3.588h-19.644v50.981h-3.976Z"/>
    <path d="M940.441,305.997c-4.055,0-7.809-.689-11.266-2.067-3.455-1.375-6.469-3.325-9.041-5.846-2.572-2.519-4.56-5.456-5.964-8.809-1.404-3.351-2.105-7.002-2.105-10.953s.702-7.599,2.105-10.953c1.404-3.351,3.391-6.288,5.964-8.809,2.572-2.519,5.586-4.468,9.041-5.846,3.458-1.375,7.212-2.064,11.266-2.064s7.806,.689,11.264,2.064c3.455,1.378,6.456,3.312,9.003,5.808,2.547,2.493,4.535,5.418,5.964,8.771,1.429,3.351,2.144,7.028,2.144,11.029s-.715,7.679-2.144,11.032c-1.429,3.351-3.417,6.275-5.964,8.768-2.547,2.496-5.548,4.433-9.003,5.808-3.458,1.378-7.212,2.067-11.264,2.067Zm0-3.664c3.481,0,6.704-.597,9.666-1.794,2.96-1.194,5.535-2.884,7.717-5.065,2.182-2.184,3.884-4.729,5.106-7.64,1.22-2.909,1.832-6.081,1.832-9.511,0-3.481-.612-6.665-1.832-9.549-1.222-2.884-2.924-5.418-5.106-7.599-2.182-2.184-4.757-3.871-7.717-5.068-2.963-1.194-6.186-1.794-9.666-1.794s-6.704,.6-9.666,1.794c-2.963,1.197-5.548,2.884-7.758,5.068-2.21,2.182-3.925,4.716-5.145,7.599-1.222,2.884-1.832,6.068-1.832,9.549,0,3.43,.61,6.602,1.832,9.511,1.22,2.912,2.935,5.456,5.145,7.64,2.21,2.182,4.795,3.871,7.758,5.065,2.963,1.197,6.183,1.794,9.666,1.794Z"/>
  </g>
  <g>
    <path d="M671.72,175.869c.456-1.045,1.418-1.076,2.144-1.403,10.152-4.569,17.489-12.06,22.668-21.788,.767-1.44,1.247-3.003,1.771-4.555,1.268-3.759-.8-6.623-3.326-8.167-2.434-1.488-5.156-2.119-7.955-2.518-8.762-1.249-17.218,.49-25.627,2.617-5.064,1.281-9.967,3.076-14.832,4.964-.638,.248-1.35,.405-1.773,.878-.354,.609,.026,1.017,.217,1.394,1.673,3.31,2.705,6.812,3.057,10.491,.27,2.829-.255,5.598-1.081,8.296-1.565,5.111-4.417,9.489-8.074,13.303-10.172,10.611-22.598,17.232-36.858,20.555-2.909,.678-5.833,.961-8.812,.88-1.667-.045-3.252-.436-4.751-1.091-3.34-1.459-4.704-4.401-3.987-8.009,.754-3.794,2.756-6.932,5.029-9.923,4.239-5.58,9.38-10.264,14.841-14.604,10.57-8.399,22.112-15.196,34.4-20.754,.7-.317,1.477-.511,2.051-1.086,.204-.797-.353-1.32-.689-1.908-1.085-1.899-2.242-3.758-3.279-5.683-2.979-5.529-2.784-11.077,.039-16.599,1.141-2.233,2.533-4.311,4.047-6.308,.37-.489,.723-.992,1.199-1.647-1.029-.263-1.628,.319-2.267,.616-5.522,2.569-11.178,4.756-17.166,5.97-2.659,.539-5.344,.951-8.14,1.442,.934,6.291-1.918,11.479-4.919,16.579-3.662,6.223-8.167,11.816-13.249,16.935-1.874,1.887-3.935,3.568-6.234,4.937-1.15,.685-2.35,1.225-3.676,1.451-2.045,.349-3.545-.716-3.805-2.767-.271-2.131,.084-4.193,.773-6.219,1.544-4.541,3.855-8.699,6.3-12.794,.472-.79,1.084-1.511,1.373-2.607-.984-.093-1.446,.609-1.962,1.059-3.181,2.772-6.321,5.593-9.493,8.376-1.703,1.494-3.402,2.996-5.177,4.402-1.566,1.241-2.653,2.675-3.355,4.618-1.764,4.881-4.593,9.213-7.628,13.391-9.749,13.419-20.967,25.457-34.021,35.72-5.539,4.355-11.553,7.993-18.003,10.862-2.134,.949-4.312,1.78-6.745,1.646-2.497-.138-3.73-1.642-3.069-4.036,.395-1.431,1.092-2.754,1.924-3.987,1.358-2.009,2.856-3.907,4.511-5.685,7.274-7.813,15.593-14.432,23.994-20.949,11.107-8.616,22.448-16.928,33.399-25.746,1.095-.882,2.195-1.761,3.247-2.693,1.792-1.586,2.354-4.183,1.481-6.407-.441-1.124-1.189-1.77-2.409-1.924-1.493-.189-2.984-.156-4.407,.275-7.331,2.222-13.968,5.745-19.798,10.744-1.128,.967-2.241,1.952-3.391,2.891-.663,.541-1.366,1.094-2.351,.56-.674-1.087,.085-1.744,.796-2.34,5.104-4.278,9.545-9.247,14.406-13.779,6.004-5.599,12.145-11.063,17.576-17.25,4.234-4.824,8.292-9.779,11.654-15.268,1.391-2.271,2.568-4.639,3.446-7.161,.627-1.802,.884-3.633,.771-5.525-.134-2.243-1.157-3.237-3.359-3.352-1.671-.087-3.235,.291-4.798,.851-5.425,1.944-10.253,4.975-14.886,8.298-19.089,13.692-33.567,31.191-43.18,52.664-1.023,2.286-1.013,2.291-.939,3.679-.335,.313-.718,.196-1.141,.137-.406-.829-.262-1.638-.025-2.481,.678-2.409,1.608-4.72,2.657-6.984,6.902-14.905,16.711-27.618,28.97-38.501,6.15-5.46,12.573-10.545,19.71-14.665,3.581-2.067,7.251-3.897,11.36-4.808,5.115-1.133,8.685,1.889,7.982,7.729-.495,4.112-2.076,7.826-4.173,11.341-4.311,7.226-9.698,13.618-15.438,19.724-4.342,4.618-8.975,8.942-13.632,13.239-.566,.522-1.236,.968-1.559,1.721,.414,.627,.818,.141,1.182-.018,2.143-.933,4.291-1.841,6.508-2.597,1.958-.668,3.95-.867,5.992-.753,2.64,.147,4.11,1.551,4.447,4.209,.087,.684-.017,1.408,.374,2.035,.647,.158,1.03-.274,1.439-.623,6.481-5.529,12.945-11.077,19.124-16.949,2.332-2.215,4.454-4.606,6.54-7.042,1.118-1.305,2.308-2.549,3.491-3.798,.551-.581,1.17-1.074,2.105-.565,.676,1.095-.081,1.842-.7,2.649-5.042,6.583-9.849,13.331-14.085,20.467-2.192,3.693-4.361,7.411-5.397,11.64-.293,1.196-.69,2.478,.821,3.415,2.94-.329,5.313-1.992,7.482-3.879,6.969-6.061,12.581-13.221,16.822-21.432,1.251-2.423,2.238-4.938,2.686-7.678,.595-3.637,.293-4.513-2.769-6.188,.079-1.374,.421-1.888,1.229-1.497,3.727,1.805,7.41,.463,10.987-.239,8.004-1.57,15.429-4.81,22.572-8.711,.988-.54,1.731-1.327,2.507-2.091,3.681-3.623,7.467-7.128,11.592-10.249,1.498-1.133,3.057-2.181,4.797-2.912,1.433-.602,1.91-.494,3.076,.558-.023,1.057-.853,1.611-1.509,2.242-2.996,2.879-6.453,5.161-9.807,7.585-6.758,4.885-12.022,11.131-16.113,18.355-2.576,4.549-2.632,9.215-.113,13.86,1.333,2.458,2.567,4.974,4.255,7.331,2.778-.998,5.467-1.992,8.175-2.93,6.926-2.4,13.961-4.336,21.282-5.113,5.998-.636,11.979-.904,17.893,.58,2.276,.571,4.414,1.487,6.231,3.075,2.595,2.267,3.187,5.056,2.347,8.266-1.002,3.834-3.002,7.167-5.257,10.368-5.191,7.37-11.754,13.081-20.107,16.628-.758,.322-1.471,.819-2.454,.733Zm-29.621-28.927c-.644,.252-1.087,.405-1.514,.596-14.492,6.466-27.903,14.67-39.852,25.144-4.17,3.655-8.136,7.56-11.326,12.156-1.474,2.124-2.745,4.353-3.417,6.874-.735,2.756,.151,5.145,2.476,6.444,1.012,.565,2.115,.939,3.312,1.053,3.291,.313,6.577,.182,9.762-.599,12.909-3.166,24.32-9.149,33.89-18.461,3.554-3.459,6.529-7.346,8.566-11.914,3.3-7.4,2.343-14.397-1.898-21.292Zm-73.504,8.656c-2.591,2.113-4.73,3.932-6.945,5.652-11.961,9.288-23.978,18.504-35.9,27.843-6.339,4.965-12.445,10.217-17.853,16.215-1.93,2.14-3.65,4.418-4.809,7.131-.961,2.249,.677,3.58,2.678,3.037,1.808-.49,3.563-1.124,5.253-1.937,9.368-4.505,17.792-10.375,25.314-17.539,7.084-6.746,13.738-13.9,19.977-21.432,4.089-4.937,7.945-10.051,11.035-15.694,.471-.86,1.062-1.688,1.251-3.277Z"/>
    <path d="M546.788,96.725c-.397-.784-.992-1.357-1.726-1.861-2.266-1.556-4.729-2.695-7.29-3.648-6.644-2.472-13.505-4.175-20.433-5.592-5.629-1.151-11.282-2.191-16.943-3.174-3.523-.612-7.069-1.132-10.626-1.496-3.408-.349-6.816-.737-10.215-1.126-4.493-.514-9.001-.872-13.5-1.18-4.589-.314-9.186-.8-13.807-.624-1.03,.039-2.12-.025-3.199-.813,2.099-2.35,4.081-4.552,6.045-6.771,7.887-8.908,16.181-17.399,25.13-25.261,6.227-5.471,12.25-11.176,17.722-17.427,.719-.821,1.355-1.717,1.988-2.608,.341-.48,.372-1.031-.012-1.525-.39-.502-.982-.579-1.491-.38-.643,.252-1.255,.632-1.81,1.05-2.377,1.79-4.567,3.799-6.737,5.831-10.337,9.686-20.181,19.859-29.846,30.208-1.547,1.657-3.081,3.349-4.795,4.823-4.323,3.722-8.782,7.285-13.102,11.01-1.219,1.051-2.448,1.436-4.023,1.45-8.597,.077-17.193-.19-25.794,.363-5.371,.345-10.751,.568-16.124,.957-4.903,.355-9.781,.882-14.664,1.421-8.216,.907-16.363,2.214-24.481,3.761-12.958,2.469-25.663,5.832-38.044,10.395-5.198,1.916-10.332,3.99-15.158,6.738-1.418,.807-2.845,1.676-3.545,3.287-.091,.209-.14,.437-.203,.642,.282,.542,.284,1.308,1.318,1.192,.479-.574-.026-1.528,.843-2.355,.689-.561,1.726-1.233,2.84-1.819,2.695-1.418,5.492-2.604,8.323-3.708,21.864-8.531,44.66-13.115,67.87-15.878,6.504-.774,13.034-1.369,19.567-1.837,6.542-.468,13.101-.757,19.657-.969,4.923-.159,9.854-.081,14.782-.081,.57,0,1.229-.228,1.813,.457-.579,.536-1.115,1.085-1.704,1.571-5.426,4.474-10.856,8.944-16.296,13.401-9.127,7.478-18.278,14.928-27.391,22.424-11.829,9.73-23.597,19.535-35.46,29.224-4.657,3.803-9.457,7.438-14.622,10.552-1.738,1.048-3.512,2.031-5.473,2.604-1.378,.403-2.757,.68-3.86-.578-.581-3.818,2.045-9.717,5.553-12.313-1.278-.87-1.931-.097-2.568,.568-1.977,2.065-3.225,4.572-4.296,7.185-.486,1.186-.606,2.418-.544,3.674,.106,2.165,1.224,3.248,3.361,3.406,1.862,.138,3.546-.412,5.183-1.193,3.255-1.554,6.249-3.537,9.163-5.643,11.794-8.523,22.702-18.147,33.929-27.372,8.513-6.995,16.993-14.029,25.496-21.035,7.538-6.212,15.09-12.407,22.631-18.615,2.956-2.434,5.884-4.901,8.856-7.315,.753-.612,1.53-1.435,2.774-.708-.208,.793-.84,1.279-1.332,1.843-5.552,6.366-11.024,12.8-16.358,19.35-20.605,25.303-39.777,51.665-58.013,78.713-3.439,5.101-6.841,10.227-10.259,15.342,1.002,.012,2.004,.011,3.006,.028,14.122-20.681,28.564-41.137,43.709-61.102,12.386-16.328,25.106-32.386,38.481-47.919,1.884-2.188,3.814-4.338,5.742-6.526,.631,0,1.174,.018,1.715-.003,4.853-.187,9.674,.559,14.524,.482,.859-.014,1.729-.038,2.578,.068,5.11,.638,10.264,.693,15.388,1.219,3.638,.374,7.299,.677,10.921,1.145,5.7,.736,11.389,1.594,17.054,2.619,7.806,1.412,15.565,2.989,23.171,5.248,4.181,1.242,8.326,2.586,12.042,4.986,1.109,.716,1.935,1.529,2.081,2.875-.807,1.392-2.072,2.136-3.461,2.72-2.872,1.207-5.865,2.026-8.867,2.835-1.895,.511-3.895,.719-5.723,1.602,.293,.485,.623,.488,.906,.416,4.509-1.145,9.058-2.157,13.428-3.785,1.238-.461,2.418-1.1,3.467-1.917,1.215-.946,1.44-2.145,.74-3.528Z"/>
    <path d="M508.827,121.663c1.604-1,2.746-2.052,3.82-3.196,2.519-2.682,5.168-5.228,8.097-7.464,.619-.473,1.265-.933,1.959-1.278,.668-.332,1.362-.336,1.784,.549-.567,1.403-1.916,2.007-2.984,2.872-4.04,3.269-7.355,7.228-10.665,11.184-5.281,6.311-9.997,13.009-13.645,20.416-1.209,2.455-2.279,4.96-2.819,7.662-.046,.229-.152,.451-.167,.681-.082,1.244-.339,2.602,.856,3.456,1.151,.823,2.245,.034,3.279-.461,3.057-1.465,5.659-3.611,8.273-5.716,7.031-5.663,13.237-12.158,18.955-19.124,7.481-9.114,14.923-18.261,22.388-27.389,.315-.385,.477-1.069,1.4-.694-.646,1.664-1.922,2.901-2.97,4.246-7.006,8.993-13.984,18.009-21.211,26.827-6.264,7.643-12.986,14.817-21.028,20.644-2.085,1.511-4.172,3.037-6.692,3.793-3.049,.915-5.246-.62-5.475-3.818-.171-2.39,.426-4.65,1.172-6.875,1.37-4.092,3.379-7.884,5.548-11.598,.418-.715,.983-1.37,1.128-2.199-.761-.43-1.042,.734-1.781,.29,1.176-1.169,2.691-2.031,3.27-3.629-.119-.125-.238-.25-.357-.375-1.043,.866-2.097,1.719-3.126,2.601-7.952,6.814-15.843,13.702-24.216,20.006-1.376,1.036-2.811,1.981-4.383,2.694-2.246,1.018-3.463,.817-5.422-.949-2.532,2.64-5.265,5.086-7.961,7.573-3.737,3.446-7.607,6.73-11.672,9.783-1.061,.797-2.137,1.587-3.385,2.076-2.432,.953-3.852,.022-3.854-2.543,0-1.734,.399-3.394,.974-5.03,2.53-7.191,6.163-13.823,10.201-20.251,5.087-8.098,10.987-15.583,17.248-22.795,2.152-2.479,4.375-4.905,6.224-7.628,2.3-3.386,1.942-5.06-1.502-7.327-1.841-1.213-3.851-2.066-5.95-2.703-2.462-.747-4.939-1.449-7.411-2.163-.522-.151-.635-.331-1.52-.331-1.43,3.953-3.554,8.241-5.65,12.055-6.211,11.301-13.383,21.981-21.024,32.348-6.67,9.049-13.416,18.045-20.483,26.791-2.556,3.162-5.297,6.171-8.46,8.757-.212,.173-.396,.504-.922,.229,.085-.763,.643-1.308,1.149-1.828,7.151-7.365,13.131-15.689,19.411-23.764,7.571-9.735,14.93-19.627,21.593-30.017,3.998-6.235,7.837-12.562,10.967-19.292,.819-1.761,1.568-3.543,2.054-5.443-.47-.747-1.301-.832-1.975-1.17-1.127-.565-2.194-1.212-2.995-2.208-.686-.852-1.095-2.012-.687-3.08,.362-.95,1.232-1.529,2.181-1.794,1.157-.323,2.466-.31,3.595,.204,3.46,1.576,1.682,5.112,1.69,5.115,.885,.442,1.85,.857,2.778,1.145,2.905,.901,5.843,1.693,8.675,2.817,2.115,.839,4.133,1.854,5.876,3.348,3.148,2.697,3.621,5.297,1.519,8.906-1.782,3.059-4.18,5.654-6.505,8.29-9.03,10.236-17.036,21.194-23.498,33.24-1.918,3.576-3.816,7.174-4.974,11.093-.317,1.074-.906,2.152-.351,3.384,1.424,.166,2.424-.647,3.432-1.315,3.785-2.507,7.227-5.461,10.702-8.367,3.242-2.71,6.236-5.691,9.266-8.631,.91-.883,1.584-1.84,1.982-3.095,.832-2.623,2.298-4.948,3.836-7.215,6.718-9.905,14.746-18.622,23.981-26.217,2.974-2.446,6.254-4.429,10.09-5.257,3.586-.774,6.959,1.564,7.031,4.961,.027,1.286-.392,2.581-.661,4.195Zm-41.943,32.347c1.227,.027,2.101-.529,2.947-1.043,1.465-.89,2.918-1.817,4.286-2.848,10.542-7.947,20.551-16.549,30.703-24.976,2.431-2.018,3.218-4.477,3.123-7.403-.062-1.929-1.325-3.125-3.271-3.291-1.291-.11-2.461,.303-3.61,.808-2.379,1.046-4.462,2.556-6.481,4.165-3.248,2.589-6.132,5.564-9.01,8.542-4.62,4.781-9.016,9.762-12.872,15.184-1.748,2.458-3.138,5.159-4.899,7.622-.616,.861-1.138,1.865-.917,3.241Zm-16.396-56.436c-.043,.246,.029,.518,.263,.781,1.801,2.024,3.382,1.8,3.61,1.605,.065-.056,.101-.139,.128-.221,.15-.459,.183-1.035,.131-1.513-.069-.637-.381-1.203-.941-1.534-.546-.323-1.226-.372-1.829-.192-.518,.155-1.258,.47-1.362,1.073Z"/>
  </g>
  <g>
    <line x1="818.864" y1="364.005" x2="971.571" y2="364.005" fill="none" stroke="#000" stroke-linecap="round" stroke-linejoin="round" stroke-width="1.361"/>
    <line x1="28.429" y1="364.005" x2="181.136" y2="364.005" fill="none" stroke="#000" stroke-linecap="round" stroke-linejoin="round" stroke-width="1.361"/>
  </g>
</svg>