<?xml version="1.0" encoding="UTF-8"?>
<svg id="a" data-name="Capa 1" xmlns="http://www.w3.org/2000/svg" width="1000" height="532" viewBox="0 0 1000 532">
  <g>
    <path d="M333.246,464.858c-2.211,.585-5.378,.955-10.171,1.033,3.687,1.841,6.337,5.085,6.337,10.98,0,7.435-5.008,12.374-13.333,12.374-1.919,0-3.614-.293-5.085-.809-2.211,1.248-3.61,2.943-3.61,5.085,0,2.573,1.768,4.492,6.849,4.492h6.337c7.37,0,11.642,3.76,11.642,9.207,0,6.557-4.939,10.61-15.622,10.61-10.975,0-15.618-3.02-15.618-10.532h2.431c.146,6.041,3.463,8.252,13.187,8.252,9.358,0,13.041-3.167,13.041-8.183,0-4.414-3.386-7.073-9.28-7.073h-6.337c-6.041,0-9.211-2.797-9.211-6.333,0-2.65,1.695-4.793,4.277-6.333-4.35-2.211-6.484-5.748-6.484-10.98,0-7.521,5.154-12.675,13.557-12.675,10.756,.146,13.041-.585,16.28-1.764l.813,2.65Zm-28.073,11.789c0,6.927,4.642,10.463,10.907,10.463,6.849,0,10.756-3.76,10.756-10.24,0-6.264-3.39-10.687-10.683-10.687-7.443,0-10.98,4.345-10.98,10.463Z" fill="#232323"/>
    <path d="M377.522,502.065l-.589,1.764c-3.02-.809-4.642-2.65-4.862-6.849-2.728,4.492-6.781,6.849-12.232,6.849-7.297,0-11.642-4.492-11.642-11.341,0-7.959,6.041-12.236,15.179-12.236h8.398v-4.268c0-6.488-2.358-9.723-9.504-9.723-3.317,0-6.703,.878-10.463,2.358l-.663-2.065c3.829-1.626,7.366-2.581,11.272-2.581,8.325,0,11.862,4.053,11.862,11.789v19.154c0,4.939,1.033,6.264,3.244,7.151Zm-5.748-7.959v-11.711s-7.882,0-7.882,0c-8.106,0-13.041,3.313-13.041,10.016,0,5.825,3.537,9.138,9.134,9.138,5.524,0,9.285-2.797,11.789-7.443Z" fill="#232323"/>
    <path d="M400.212,497.418v-48.402l2.504-.37v48.703c0,2.797,1.179,4.199,3.537,4.199,1.033,0,1.915-.224,2.801-.594l.736,2.065c-.959,.447-2.358,.809-3.683,.809-3.463,0-5.894-1.91-5.894-6.411Z" fill="#232323"/>
    <path d="M431.009,497.418v-48.402l2.504-.37v48.703c0,2.797,1.179,4.199,3.537,4.199,1.033,0,1.915-.224,2.801-.594l.736,2.065c-.959,.447-2.358,.809-3.683,.809-3.463,0-5.894-1.91-5.894-6.411Z" fill="#232323"/>
    <path d="M487.589,485.191h-26.524c.516,11.35,5.894,16.358,13.187,16.358,4.423,0,7.224-1.471,10.61-4.053l1.329,1.773c-3.39,2.865-7,4.561-11.939,4.561-9.65,0-15.764-7.219-15.764-19.593,0-12.529,5.894-20.264,14.882-20.264,9.65,0,14.366,7.297,14.366,18.277,0,1.101-.073,2.28-.146,2.943Zm-2.358-3.829c0-8.915-3.61-15.101-11.715-15.101-6.557,0-12.081,5.077-12.451,16.796h24.166v-1.695Z" fill="#232323"/>
    <path d="M527.223,501.626c-2.134,1.325-4.715,2.203-7.736,2.203-5.305,0-8.691-3.167-8.691-9.5v-27.406h-6.264v-2.143h6.264v-9.577l2.504-.224v9.801h10.463l-.37,2.143h-10.093v27.26c0,4.862,2.134,7.366,6.411,7.366,2.431,0,4.492-.74,6.411-1.841l1.101,1.919Z" fill="#232323"/>
    <path d="M570.617,485.191h-26.524c.516,11.35,5.894,16.358,13.187,16.358,4.423,0,7.224-1.471,10.61-4.053l1.329,1.773c-3.39,2.865-7,4.561-11.939,4.561-9.65,0-15.764-7.219-15.764-19.593,0-12.529,5.894-20.264,14.882-20.264,9.65,0,14.366,7.297,14.366,18.277,0,1.101-.073,2.28-.146,2.943Zm-2.358-3.829c0-8.915-3.61-15.101-11.715-15.101-6.557,0-12.081,5.077-12.451,16.796h24.166v-1.695Z" fill="#232323"/>
    <path d="M611.58,464.41l-.516,2.289c-.959-.293-2.138-.439-3.39-.439-5.675,0-8.695,4.122-10.975,12.374v24.463h-2.508v-38.317h2.138l.146,9.138c2.065-6.634,5.524-9.947,11.272-9.947,1.695,0,2.947,.224,3.833,.439Z" fill="#232323"/>
    <path d="M639.059,449.016l-13.557,6.187-.882-1.695,13.26-7.073,1.179,2.581Zm-5.232,54.081h-2.504v-38.317h2.504v38.317Z" fill="#232323"/>
    <path d="M686.506,502.065l-.589,1.764c-3.02-.809-4.642-2.65-4.866-6.849-2.723,4.492-6.776,6.849-12.227,6.849-7.297,0-11.642-4.492-11.642-11.341,0-7.959,6.041-12.236,15.179-12.236h8.398v-4.268c0-6.488-2.358-9.723-9.504-9.723-3.317,0-6.707,.878-10.463,2.358l-.663-2.065c3.833-1.626,7.37-2.581,11.272-2.581,8.325,0,11.862,4.053,11.862,11.789v19.154c0,4.939,1.033,6.264,3.244,7.151Zm-5.748-7.959v-11.711h-7.882c-8.106,0-13.045,3.313-13.045,10.016,0,5.825,3.537,9.138,9.138,9.138,5.524,0,9.285-2.797,11.789-7.443Z" fill="#232323"/>
  </g>
  <g>
    <path d="M61.676,149.292c1.854,.62,3.089,3.089,3.709,5.559,4.939,17.296,9.263,35.206,9.263,53.737,0,19.15,2.47,38.295,3.709,58.061,8.643-3.704,16.056-8.028,24.085-9.883,21.004-6.174,35.826,8.033,32.122,29.648-2.474,14.206-10.502,25.324-21.619,32.737-9.883,7.413-21,14.206-35.206,12.352,1.235,5.559,3.089,10.502,3.089,15.441,.615,10.502-5.559,16.68-16.061,14.206-4.939-.615-10.498-3.704-14.822-7.409-16.68-14.826-20.385-35.826-21.004-56.211-.615-28.413,1.239-56.206,1.854-84,0-14.206,.62-27.793,.62-42,.615-9.267,2.47-19.765-7.413-27.798,14.826-4.324,26.559,0,37.676,5.559Zm52.502,132.797c3.709-5.559,4.943-11.733,0-15.441-4.324-3.704-33.972,24.709-36.441,38.295,17.296-1.854,28.413-9.883,36.441-22.854Z" fill="#232323"/>
    <path d="M293.914,235.765c-5.559,25.943-3.089,45.089,30.263,52.502,33.356,7.413,60.53,11.737,61.15,29.648,.615,17.911-28.413,58.061-54.356,74.737-26.559,16.676-50.648,18.53-51.882,12.352-1.235-5.559,.62-8.648,16.061-21.615,15.441-12.972,45.089-41.385,43.235-54.356-1.85-13.587-24.089-23.469-46.324-24.704-21-1.854-53.117-26.563-52.502-64.239-.615,1.235-1.235,2.47-1.85,3.704-6.798,12.972-45.093,75.356-65.474,84.619-20.385,8.648-26.559,6.178-26.559-24.704,0-30.267-4.943-79.68,0-84,4.324-4.324,8.028-9.267,8.028-9.267,12.972-3.089,27.793-8.648,25.943,0-1.854,9.267,0,29.032,0,42.619,0,12.972-8.648,51.267,0,44.469,22.85-17.911,50.028-59.295,66.089-87.089,14.822-45.708,58.061-113.032,111.797-136.502,13.587-6.178,38.295,4.939,40.146,14.206,1.235,9.883-6.174,14.822-12.972,20.38-7.409,6.178-85.854,101.295-90.793,127.239Zm-138.975-77.826c1.854-12.352,5.559-19.146,5.559-19.146,0,0,21.619-9.883,21.619,0,0,9.263-6.178,25.939-10.502,27.178-4.939,1.235-19.146,3.704-16.676-8.033Z" fill="#232323"/>
    <path d="M447.716,254.295c-9.263,19.146-9.263,76.591,51.267,45.089,14.822-11.737,50.648-53.737,55.587-54.352,1.235,2.47,1.854,3.704,1.854,4.32-9.883,14.826-19.765,29.032-30.267,43.239-25.324,36.441-57.441,37.061-82.145,28.413-25.324-8.648-39.53-33.972-35.206-56.206,4.32-22.239,12.352-43.854,31.498-59.295,10.502-8.648,22.239-11.737,35.206-9.267,14.826,3.089,24.089,19.765,19.15,34.591-4.324,13.587-19.765,21.615-33.356,15.441-1.85-.62-2.47-3.709-4.324-8.648-4.324,7.413-6.793,11.733-9.263,16.676Z" fill="#232323"/>
    <path d="M623.136,267.882c-.62,22.854-10.502,66.093-24.089,72.267-13.591,6.793-37.061-1.85-41.385-16.056-4.324-14.826-6.793-38.915-5.559-54.976,.615-16.056-4.324-24.704-4.324-24.704,0,0-1.235-31.502,13.587-40.15l.62-.615c3.089-4.324,7.413-7.413,13.587-10.502h.62c6.178-3.089,19.146-3.089,30.263,5.559,6.178,4.943,18.53,19.765,16.68,69.178Zm-43.239-63c6.178,4.939,10.502,6.178,6.793,9.883-3.704,3.704-5.559,6.793-5.559,8.648,0,.615,0,4.324,0,9.883,7.413,.615,17.296,0,27.798-2.47-.62-8.033-1.854-15.441-5.559-19.15-4.943-6.174-13.591-9.263-20.385-8.648-1.235,.62-2.47,1.235-3.089,1.854Zm29.032,35.206c-9.883,2.47-19.765,4.943-28.413,4.324,0,14.206-.62,30.882-.62,39.53,0,14.826,6.178,29.028,8.033,33.352,1.235,4.324,6.174,1.239,6.793-2.47,.615-3.704,12.352-30.263,12.972-46.324,0-7.413,1.235-18.53,1.235-28.413Z" fill="#232323"/>
    <path d="M745.432,90.616c-1.235,.615-3.704,.615-6.793,.615-1.235,13.591-2.47,29.652-3.704,43.854-1.854,30.267-7.413,54.972-9.883,61.15-1.854,6.178-1.854,22.235-1.854,28.413,0,6.178,3.704,13.587,0,14.826-3.704,.615-3.704,3.704-3.704,8.643s2.47,53.737,2.47,59.915,1.854,14.822,1.854,21-5.563,6.178-5.563,13.587c0,6.798,3.709,12.972,4.324,18.53,.62,5.559-1.85,7.413-3.704,12.356-1.235,4.939,3.089,8.643-1.235,11.733-4.324,3.709-7.413-.615-9.883,5.559-1.854,6.178-4.324,5.559-11.737,9.267-6.793,3.089-9.263,5.559-13.587,5.559s-6.793-2.47-7.413-13.591c-1.235-10.498,3.704-23.469,0-29.648-4.324-6.174,0-11.733-.62-18.526-.615-6.798-1.85-12.356-1.235-19.15,0-7.413-10.498-15.441-5.559-21.619,4.943-6.174-1.235-16.676-1.235-19.146,0-1.854,2.47-5.559,0-15.441-1.85-10.502,0-135.267,0-169.858v-11.733c-6.793-.62-12.972-1.854-17.911-2.474-24.709-3.085-50.648-5.559-32.737-21,0,0,6.793,3.709,24.089,3.709,4.943,0,14.822-.62,26.559-1.239,.62-25.939,3.709-49.413,16.061-51.263,11.733-1.854,30.263,1.85,45.089,9.263,14.206,6.793,12.972,23.474,12.972,34.591v4.324c13.587,0,25.324,.615,32.733,2.47,28.413,6.793,51.267,12.352,46.943,17.296-4.324,4.939-.615,3.704-19.765,0-19.765-3.709-48.178,6.793-54.972,8.028Zm116.741,72.882c-2.474,2.474-.62,1.854-11.122,0-11.117-1.85-26.559,3.709-30.263,4.324-.62,.62-1.854,.62-3.709,.62-.615,7.413-1.85,16.056-1.85,24.089-1.235,16.676-4.324,30.263-5.559,33.352-1.235,3.704-1.235,12.352-1.235,16.061,0,3.089,1.85,7.409,0,8.028-1.854,0-1.854,2.47-1.854,4.943s1.235,29.028,1.235,32.733,1.235,8.648,1.235,11.737c0,3.704-3.089,3.704-3.089,7.413s1.854,7.413,1.854,10.498c.62,3.089-.62,3.709-1.854,6.798-.615,2.47,1.854,4.32-.615,6.174-2.47,1.854-4.324,0-5.559,3.089-.62,3.704-2.474,3.089-6.178,4.943-3.704,1.85-5.559,3.085-7.413,3.085-2.47,0-4.324-1.235-4.324-7.409-.615-5.563,1.854-12.972,0-16.061-2.47-3.704,0-6.793,0-10.502-.615-3.704-1.235-6.793-1.235-10.498,.62-3.709-5.559-8.648-2.47-11.737,2.47-3.704-.62-9.263-1.235-10.498,0-1.239,1.235-3.089,0-8.648-1.235-5.559,.615-74.737,0-93.887,0-1.854,0-4.324,0-6.174-3.709-.62-6.793-1.239-9.883-1.239-13.591-1.85-27.793-3.085-17.911-11.733,0,0,3.704,1.85,13.587,1.85,2.47,0,8.028,0,14.822-.615,0-14.206,1.854-27.178,8.648-28.413,6.178-.62,16.68,1.235,24.709,4.939,8.028,4.324,7.413,12.972,7.413,19.15,0,.615-.62,1.854-.62,2.47,7.413,0,14.206,.62,18.53,1.854,15.441,3.704,27.793,6.793,25.943,9.263Z" fill="#232323"/>
    <path d="M965.326,243.178c-7.413,12.972-45.089,75.356-65.474,84-21,9.267-27.174,6.178-27.174-24.089s-4.324-79.676,0-84c4.324-4.943,8.028-9.267,8.028-9.267,13.587-3.704,27.793-8.643,25.943,0-1.854,9.267,.615,29.032,.615,42.004-.615,13.587-8.648,51.882,0,45.089,24.089-19.15,53.121-64.239,67.943-92.032,0,0,4.943,9.883-9.883,38.295Zm-83.384-85.854c2.47-12.356,6.178-19.15,6.178-19.15,0,0,21.615-9.883,21.615,0,0,9.267-6.174,25.943-11.117,27.178-4.324,1.235-19.146,3.704-16.676-8.028Z" fill="#232323"/>
  </g>
</svg>