<?xml version="1.0" encoding="UTF-8"?>
<svg id="a" xmlns="http://www.w3.org/2000/svg" width="1000" height="877.193" viewBox="0 0 1000 877.193">
  <g>
    <path d="M656.232,422.631c-4.894,2.786-9.5,6.429-13.851,10.971-1.989,2.077-3.877,4.292-5.718,6.57,1.487-1.323,2.954-2.672,4.463-3.967,5.143-4.415,9.908-9.242,15.106-13.574Z" fill="#232323"/>
    <path d="M659.75,493.044c2.607-2.205,4.788-4.808,7.443-7.012,5.109-4.242,10.575-8.029,15.567-12.415,1.691-1.486,3.071-3.253,4.86-4.654,3.92-3.066,7.723-6.286,11.502-9.527,3.498-3,6.655-6.462,10.403-9.093,1.527-1.071,3.001-2.201,4.451-3.359-.358-1.276-.714-2.554-1.129-3.766-.545,.393-1.09,.786-1.638,1.17-4.294,3.015-8.147,6.475-12.046,9.945-2.355,2.096-4.974,3.937-7.331,6.06-4.482,4.035-9.448,7.489-13.625,11.912-2.498,2.643-5.59,4.749-8.532,6.942-3.416,2.546-6.302,5.672-9.519,8.434-3.218,2.762-5.922,6.045-9.254,8.752-3.98,3.234-7.911,6.633-11.009,10.84-.9,1.222-2.243,2.108-3.319,3.211-1.239,1.269-2.441,1.238-3.867-.02,1.393-3.074,3.622-5.578,6.197-7.579,4.449-3.458,7.98-7.752,11.7-11.881,4.225-4.689,8.563-9.23,13.625-13.052,3.505-2.646,6.213-6.217,9.912-8.675,4.964-3.299,8.832-7.917,13.588-11.475,4.661-3.487,9.364-6.918,13.989-10.452,3.294-2.517,6.49-5.16,9.737-7.739-1.486-3.582-3.223-6.877-5.269-9.811-6.652-9.519-14.121-13.953-23.503-13.953-8.064,0-15.457,1.566-22.305,4.686-5.972,5.585-11.928,11.186-17.96,16.705-3.248,2.972-6.764,5.629-10.026,8.592-7.583,10.731-13.738,23.329-18.31,37.703-4.276,13.44-7.17,27.16-8.7,40.997,.734-.345,1.577-.36,2.753-.121,1.31,1.911,2.712,3.635,5.001,4.417,1.059,.362,1.194,1.366,.884,2.638-3.132,1.137-6.234,2.584-9.51,3.51-.065,1.092-.143,2.184-.192,3.277,.783-.204,1.566-.451,2.351-.763,2.348-.933,4.569-1.85,7.009-1.231,.496-.479,.873-.778,1.17-1.142,1.808-2.216,3.84-3.466,6.993-3.399,2.7,.058,5.273-1.473,7.109-3.599,1.84-2.131,2.498-4.636,.874-7.242-1.589-2.552-.959-4.959,.127-7.345q1.964-.523,3.852,.032c.242,.762,.493,1.551,.744,2.341-1.167,.313-2.919,.144-2.062,2.303,1.684,.06,2.138-.88,2.263-2.144,.581-.192,.965-.594,1.385-1.043,2.5-2.675,4.932-5.434,7.627-7.901,5.236-4.794,10.571-9.487,15.99-14.073Z" fill="#232323"/>
    <path d="M861.247,324.757c1.558-1.73,3.338-3.439,2.601-6.382,3.138-.195,5.408-3.521,8.832-1.868q.814-2.179,.182-4.701c-1.173-.464-2.103-1.248-2.703-2.515-5.101-10.764-12.961-19.81-18.807-30.129-2.491-4.399-5.124-8.755-8.106-12.902-3.582-4.981-6.692-10.313-9.836-15.593-1.709-2.869-4.049-5.329-5.56-8.26-2.694-5.226-6.274-9.867-9.279-14.883-3.776-6.299-7.944-12.361-11.899-18.554-2.155-3.375-4.709-6.558-6.683-9.941-2.859-4.903-6.02-9.611-8.951-14.46-3.663-6.06-7.875-11.788-11.576-17.827-6.132-10.005-12.912-19.582-19.213-29.474-.885-1.388-1.796-2.743-2.615-4.182-1.686-2.965-3.629-5.787-5.514-8.636-2.227-3.363-4.74-6.561-6.696-10.072-2.37-4.251-4.96-8.377-7.719-12.337-4.071-5.841-7.835-11.884-11.821-17.774-5.77-8.528-11.223-17.278-17.114-25.736-2.146-3.081-4.081-6.309-6.079-9.418,1.018-1.055,2.527-.456,3.405-1.57,.424-1.016,.302-1.985-.428-2.687-1.092-.766-2.005-.088-2.915-.11-6.166-.148-12.332-.492-18.463,.57-.557,.097-1.178-.053-1.749-.177-6.962-1.521-13.67-3.699-19.937-7.205-2.061-1.153-4.346-1.903-6.026-3.663-.698-.731-1.623-.964-2.513-1.281-4.182-1.491-7.941-3.783-11.303-6.6-1.498-1.255-2.915-1.88-4.82-1.816-2.863,2.661-6.471,4.346-9.453,6.808-2.88,2.378-6.096,4.092-9.366,5.61-3.728,1.731-6.965,4.17-10.028,6.675-5.139,4.204-10.535,8.044-15.778,12.093-2.805,2.166-5.917,3.882-8.639,6.191-3.776,3.204-7.732,6.199-11.665,9.215-2.803,2.15-5.797,4.061-8.525,6.298-5.58,4.576-10.472,9.927-16.11,14.454-2.844,2.283-5.476,4.827-8.236,7.217-3.406,2.949-7.062,5.644-10.215,8.838-4.348,4.407-9.474,7.848-14.052,11.965-3.426,3.081-7.273,5.677-10.337,9.201-1.468,1.688-3.258,3.098-4.918,4.616-3.752,3.433-7.609,6.76-11.248,10.309-4.239,4.133-8.857,7.84-13.064,12.013-2.096,2.08-4.429,3.92-6.714,5.811,1.063,.62,2.078,1.306,3.116,1.961,.207-.192,.409-.39,.618-.58,1.493-1.356,2.89-2.819,4.402-4.152,5.254-4.627,10.768-8.984,15.748-13.886,5.318-5.234,11.398-9.605,16.448-15.127,4.327-4.731,9.588-8.443,14.431-12.61,4.308-3.708,8.9-7.086,13.213-10.788,4.316-3.705,8.446-7.626,12.651-11.46,3.144-2.866,6.136-5.917,9.453-8.566,3.343-2.669,6.769-5.234,9.925-8.125,5.165-4.734,10.817-8.904,16.353-13.136,7.806-5.968,16.127-11.264,23.391-17.953,.258-.238,.577-.427,.895-.58,5.231-2.524,9.452-6.597,14.667-9.267,3.998-2.047,7.829-4.739,11.463-7.543,1.231-.949,2.541-1.739,4.187-2.144,3.021,2.841,6.403,5.231,10.301,6.821,.98,.4,2.331,.472,2.904,1.184,2.129,2.644,5.326,3.459,7.987,5.172,6.213,4,13.036,6.142,20.235,7.323,1.288,.211,2.571,.343,3.897,.328,4.729-.057,9.459,.016,14.143,.04,2.105,3.263,4.408,6.265,6.098,9.58,3.081,6.045,6.756,11.694,10.477,17.34,1.691,2.564,3.761,4.971,5.119,7.613,2.508,4.884,5.779,9.243,8.55,13.93,3.62,6.122,7.679,11.983,11.489,17.995,3.746,5.912,7.362,11.906,11.135,17.8,3.388,5.291,7.165,10.347,10.325,15.767,6.819,11.7,14.708,22.711,21.733,34.277,4.435,7.303,9.129,14.45,13.765,21.63,4.768,7.385,9.471,14.81,14.452,22.061,2.95,4.296,5.843,8.678,8.515,13.129,3.971,6.617,8.314,12.988,12.338,19.564,4.647,7.592,9.784,14.883,14.5,22.434,1.953,3.126,4.153,6.073,6.091,9.201,2.368,3.824,4.814,7.599,7.136,11.45,2.127,3.528,4.951,6.645,6.539,10.847-2.061,.481-3.591,1.803-5.798,1.673-7.362-.432-14.412-2.483-21.55-4.035-3.452-.751-6.748-2.206-10.123-3.319-1.689-.557-3.407-.913-5.183-1.188-2.889-.447-5.786-.966-8.507-2.283-3.595-1.742-7.335-3.188-11.127-4.81-1.283,1.678-2.362,3.435-4.328,3.831-1.464-.736-.913-2.627-2.221-3.174-1.037,.133-1.708,.631-1.932,1.499-.33,1.273-1.329,1.964-2.224,2.707-7.938,6.591-15.651,13.474-24.525,18.855-1.311,.794-2.496,1.823-3.643,2.851-3.333,2.985-6.58,6.033-10.422,8.429-3.208,2-6.079,4.545-9.146,6.756-7.86,5.663-15.549,11.53-23.119,17.573-5.085,4.06-10.443,7.753-15.303,12.132-4.646,4.187-9.63,8.018-14.626,11.792-.846,.638-1.645,1.323-2.445,2.009,2.035,.062,4.045,.152,6.034,.268,3.73-3.154,7.469-6.297,11.291-9.335,5.002-3.976,9.657-8.387,14.982-11.98,2.636-1.778,4.92-4.077,7.375-6.126,2.42-2.019,5.067-3.686,8.104-4.85-.921,.836-1.812,1.709-2.768,2.502-7.484,6.22-15.029,12.37-22.523,18.577-4.629,3.833-9.313,7.604-14.001,11.375,20.404,1.432,38.426,5.712,53.653,12.879,2.065,.973,4.05,2.004,6.009,3.052,3.791-3.371,7.521-6.817,11.424-10.052,8.432-6.989,16.391-14.504,24.673-21.655,4.404-3.802,9.211-7.138,13.83-10.691,.659-.507,1.309-1.032,1.928-1.588,6.912-6.212,14.509-11.506,22.236-16.63,5.072-3.363,9.319-7.759,14.156-11.426,3.502-2.655,6.842-5.524,10.934-7.518-3.829,4.097-7.156,8.74-11.973,11.942-1.546,1.028-2.664,2.683-4.031,3.996-3.396,3.264-6.97,6.34-10.827,9.032-3.04,2.122-5.489,4.88-8.327,7.219-4.019,3.313-8.377,6.165-12.292,9.632-4.851,4.297-10.084,8.166-15.181,12.183-2.508,1.976-5.136,3.804-7.608,5.821-2.007,1.638-3.695,3.637-5.909,5.063-5.68,3.657-10.444,8.482-15.668,12.709-1.49,1.207-3.009,2.375-4.526,3.545,1.026,.583,2.036,1.178,3.033,1.783,1.262-1.016,2.552-1.996,3.763-3.084,4.032-3.621,8.715-6.492,12.615-10.311,1.184-1.159,2.265-2.564,3.68-3.32,4.662-2.49,8.155-6.455,12.381-9.491,3.845-2.762,7.117-6.356,11.069-8.926,4.815-3.129,9.041-6.955,13.495-10.484,9.289-7.362,18.375-14.991,27.12-23.015,3.846-3.529,7.549-7.187,11.036-11.061Zm-29.742-10.25c-.743-.308-1.623-.371-2.443-.386-2.284-.045-4.452-.319-6.305-1.881-.508-.428-1.309-.686-1.985-.705-3.015-.083-4.815-2.188-6.834-4.056,9.845,3.592,19.971,6.096,30.084,8.79-4.198-.413-8.496-.093-12.517-1.762Z" fill="#232323"/>
    <path d="M539.378,446.732c.805-.889,1.609-1.779,2.432-2.653-.222-.364-.467-.715-.677-1.087-1.233-2.177-2.484-4.251-4.45-5.865-.712-.585-1.335-1.418-1.691-2.266-.812-1.939-2.254-3.356-3.676-4.777-1.518-1.517-2.917-3.118-4.288-4.768-5.162-6.207-10.55-12.289-17.072-17.044-7.704-5.617-14.428-12.573-23.51-16.375-5.986-2.506-11.095-6.823-16.892-9.842-3.581-1.865-6.993-4.055-10.583-5.9-8.976-4.611-18.273-8.58-26.955-13.786-3.745-2.246-7.75-4.056-11.614-6.105-6.42-3.403-11.974-8.139-18.166-11.907-1.25-.761-2.844-1.213-3.723-2.625-1.725-2.773-3.726-5.4-5.247-8.272h-14.649v6.442c.206,.323,.434,.632,.634,.958,5.283,8.587,9.816,17.612,15.218,26.137,1.358,2.143,3.04,3.593,5.384,4.388,1.915,.65,3.869,1.214,5.728,2,10.508,4.44,20.998,8.921,31.481,13.416,8.961,3.843,18.125,7.219,26.846,11.611,3.398,1.711,6.611,3.842,10.116,5.275,6.63,2.71,12.864,6.089,19.074,9.636,9.215,5.263,18.126,10.926,26.517,17.414,2.73,2.111,5.322,4.438,8.221,6.284,4.298,2.737,7.8,6.359,11.542,9.711Z" fill="#232323"/>
    <path d="M129.368,255.697c5.053-2.729,10.598-2.595,15.938-3.32,5.479-.744,10.922-2.336,16.72-1.154,2.281,4.21,4.697,8.428,6.891,12.76,10.852,21.439,21.661,42.9,32.453,64.369,12.932,25.723,25.842,51.459,38.744,77.198,10.178,20.306,20.329,40.625,30.498,60.935v-29.032c-.769-1.326-1.547-2.649-2.223-4.018-2.984-6.04-6.526-11.838-9.533-17.853-6.151-12.308-12.997-24.234-19.316-36.444-2.561-4.95-5.301-9.801-7.989-14.682-3.431-6.231-6.471-12.675-9.781-18.974-6.126-11.654-12.365-23.248-18.483-34.906-4.578-8.723-9.404-17.314-13.81-26.133-4.283-8.573-8.825-17.018-13.303-25.492-1.983-3.754-4.263-7.358-6.101-11.177-4.07-8.456-8.852-16.522-13.258-24.791-2.363-4.435-5.889-8.263-7.079-13.505,5.247-2.759,11.31-1.907,16.586-3.766,1.166,.754,1.646,1.62,1.85,2.753,.187,1.042,.382,2.206,.971,3.032,3.265,4.58,4.838,10.032,7.767,14.782,1.29,2.093,2.563,4.253,3.422,6.541,1.218,3.241,2.555,6.388,4.434,9.298,.448,.692,1.033,1.364,1.241,2.13,1.853,6.818,5.392,12.814,9.102,18.717,.382,.607,.573,1.16,.807,1.802,.97,2.662,1.946,5.367,3.343,7.815,1.298,2.276,2.502,4.578,3.593,6.952,1.683,3.658,3.525,7.248,5.06,10.965,2.129,5.151,5.176,9.828,7.363,14.961,2.219,5.211,5.015,10.175,7.548,15.254,1.318,2.644,2.785,5.233,3.86,7.974,.829,2.112,1.84,4.11,2.803,6.149,2.335,4.943,5.279,9.585,7.509,14.551,3.694,8.228,7.83,16.237,11.683,24.384,.913,1.932,2.005,3.896,3.761,5.411,.956-.811,.778-1.424,.401-2.307-3.905-9.164-8.434-18.034-12.956-26.89-3.659-7.165-6.661-14.621-10.348-21.773-4.667-9.054-8.861-18.351-13.304-27.522-2.947-6.082-5.949-12.138-8.97-18.183-2.269-4.54-4.348-9.165-6.47-13.774-2.262-4.912-5.245-9.489-7.163-14.58-.919-2.441-2.387-4.603-3.346-7.046-.86-2.193-2.551-3.931-3.456-6.293-2.107-5.503-4.782-10.822-7.625-15.998-2.327-4.236-4.248-8.671-6.399-12.974-3.801-7.603-7.377-15.345-10.958-23.069-1.821-3.929-4.103-7.657-5.403-12.062,4.329-.598,8.478-.119,12.554-.99,1.726,1.368,1.567,3.768,2.576,5.603,2.227,4.054,4.193,8.259,6.116,12.433,4.3,9.334,8.763,18.591,13.284,27.812,2.972,6.062,5.876,12.171,8.748,18.268,4.164,8.842,8.243,17.727,12.548,26.505,2.717,5.539,5.764,10.939,8.12,16.626,2.897,6.99,6.611,13.563,9.749,20.426,2.102,4.596,4.222,9.204,6.658,13.671,.416,.763,.8,1.544,1.2,2.317v-6.569c-2.652-5.588-5.334-11.163-8.241-16.637-3.029-5.705-5.271-11.893-8.109-17.76-3.044-6.292-5.844-12.704-8.962-18.958-3.176-6.368-5.951-12.923-9.293-19.217-2.498-4.704-4.331-9.759-6.821-14.467-3.354-6.342-6.448-12.805-9.476-19.298-.799-1.714-1.714-3.375-2.501-5.1-3.347-7.339-6.91-14.581-10.429-21.842-2.429-5.01-4.696-10.099-7.792-15.163,4.805-.669,9.14-1.49,13.512-1.819,4.338-.327,8.719-.089,13.373-1.019,1.961,4.065,3.798,8.017,5.759,11.906,3.141,6.229,6.706,12.27,9.458,18.663,2.816,6.54,6.39,12.672,9.422,19.091,5.613,11.885,11.317,23.742,17.67,35.26,2.643,4.793,4.878,9.78,7.343,14.657,3.892,7.706,7.796,15.407,11.689,23.113,1.704,3.375,3.48,6.719,5.068,10.149,.866,1.872,1.993,3.607,3.071,5.367h3.641c-.952-1.881-1.876-3.776-2.74-5.701-2.425-5.408-5.476-10.537-7.855-15.963-2.956-6.743-7.026-12.89-10.002-19.618-1.921-4.341-4.463-8.408-6.377-12.752-4.446-10.092-9.867-19.693-14.636-29.621-2.619-5.449-5.57-10.737-8.314-16.126-3.66-7.187-7.256-14.407-10.897-21.604-4.015-7.938-8.012-15.886-12.09-23.792-2.011-3.897-3.718-7.975-6.225-11.589-1.172-1.69-1.668-3.509-2.486-5.74,2.065,.495,3.76,.33,5.26,1.446,.656,1.313,1.339,2.685,2.113,4.015,3.365,5.786,7.339,11.205,10.252,17.266,3.014,6.271,7.29,11.81,10.535,17.964,2.156,4.088,4.894,7.865,7.112,11.924,2.228,4.073,5.087,7.774,6.816,12.155,.813,2.057,2.349,3.824,3.51,5.751,2.324,3.858,4.252,7.931,6.72,11.727,2.901,4.46,5.392,9.188,8.047,13.808,2.687,4.679,5.485,9.3,8.234,13.938,3.055,5.155,6.249,10.273,9.141,15.496,2.685,4.852,5.89,9.375,8.391,14.378,.406,.811,.867,1.593,1.297,2.392,.188-1.845,.382-3.683,.604-5.491-.278-.498-.587-.989-.857-1.487-3.548-6.565-7.182-13.085-11.056-19.445-3.264-5.36-6.2-10.91-9.425-16.29-3.342-5.573-6.515-11.294-9.751-16.951-5.947-10.396-12.337-20.54-18.234-30.963-4.426-7.82-9.035-15.527-13.557-23.287-6.63-11.377-13.297-22.731-19.925-34.108-.32-.55-.988-1.067-.464-2.077,29.939,9.039,60.198,17.053,90.343,25.484,1.211,5.622,3.215,10.555,5.995,15.144,2.164,3.573,3.973,7.324,5.728,11.096,2.542,5.461,5.393,10.762,8.249,16.058,2.596-3.608,5.361-7.018,8.299-10.215,1.881-2.046,3.814-3.991,5.773-5.886-2.553-4.947-5.189-9.85-7.757-14.79-3.391-6.525-6.913-12.982-10.3-19.509-2.402-4.629-4.64-9.344-7.015-13.988-3.024-5.912-6.297-11.705-9.133-17.704-4.77-10.093-10.327-19.773-15.443-29.681-2.899-5.613-5.632-11.326-8.694-16.865-1.928-3.485-3.507-7.163-5.268-10.806-1.318,.413-2.694,.47-3.189,1.6,15.933,31.398,31.75,62.568,47.748,94.096-2.795-.211-5.153-.058-7.326-1.265-1.295-.718-2.697-.809-4.162-.595-.931,.136-1.94,.267-2.831,.053-3.669-.882-7.311-1.876-10.952-2.871-1.488-.407-2.741-1.372-4.279-1.743-6.325-1.528-12.654-3.025-18.851-5.061-6.843-2.247-14.007-3.318-20.876-5.541-5.167-1.673-10.501-2.831-15.665-4.509-5.771-1.876-11.685-3.13-17.575-4.49-1.68-.388-3.162-1.937-4.904-.902-1.195-.637-1.455-2.24-3.256-1.979-1.87,3.857,2.38,6.219,2.638,9.829-2.273-.701-4.432-1.93-7.29-.527,4.598,7.934,7.875,16.327,11.992,24.512-11.216,.531-24.513,2.57-27.541,4.243,.757,3.602,2.989,6.816,3.527,10.695-3.367-.454-6.373,.776-9.446,.605-2.47-.138-4.076,.759-5.081,2.891,3.236,8.818,8.199,16.784,11.89,25.569-5.561,2.388-11.435,1.765-16.574,4.379-.499,.775-1.071,1.662-1.872,2.904,5.62,11.863,11.469,23.833,17.885,35.613-1.221,.965-2.228,1.76-3.362,2.655-1.813-.369-3.617,.493-5.505,.394-3.549-.186-7.025,.051-10.535,.807-4.48,.964-9.066,1.429-13.59,2.204-1.436,.246-3.224-.031-3.989,2.088,.366,.983,.825,2.024,2.047,2.311Z" fill="#232323"/>
    <path d="M259.766,358.833c-1.984-5.471-4.924-10.475-7.245-15.778-1.442-3.296-3.012-6.543-4.613-9.778-1.411-.22-2.722-.696-3.919-1.371,.617,1.339,1.235,2.677,1.868,4.008,1.363,2.868,2.74,5.728,4.086,8.604,1.405,3.004,2.615,6.113,4.205,9.014,2.657,4.848,5.101,9.787,7.308,14.851,.804,1.846,1.436,3.818,2.537,5.473,2.791,4.193,4.397,8.948,6.617,13.421v-5.758c-.826-1.572-1.644-3.148-2.389-4.755-1.195-2.576-2.229-5.231-3.509-7.776-1.692-3.367-3.67-6.635-4.947-10.155Z" fill="#232323"/>
    <path d="M347.519,247.491c-3.056-6.034-6.167-12.039-9.268-18.05-.439,3.629-.706,7.387-.706,11.356,0,11.001,2.885,21.603,8.823,32.417,5.43,9.906,13.566,18.816,24.215,26.525h4.306c-5.087-9.099-10.361-18.095-14.829-27.546-3.94-8.337-8.368-16.463-12.541-24.703Z" fill="#232323"/>
    <path d="M502.693,473.739c2.911-.839,5.268-.285,7.841,.608,2.297,.797,4.595,1.597,6.899,2.378,.542-.929,1.094-1.85,1.651-2.768-3.223-1.039-6.435-2.114-9.665-3.131-3.716-1.17-7.492-2.294-11.325-2.908-5.238-.839-10.419-1.968-15.705-2.641-8.343-1.062-16.688-2.31-25.056-2.967-8.109-.636-16.269-1.355-24.442-.786-.456,.032-.954,.043-1.377-.101-2.891-.983-5.961-.938-8.798-.48-4.683,.755-9.323-.123-13.968,.341-4.473,.446-9.016-.001-13.456,.776-1.778,.311-3.507,.343-5.278,.335-3.799-.015-7.6-.061-11.399-.026v20.316c7.078-1.781,14.241-3.129,21.485-4.066,1.652-.214,3.363-.267,4.936-.749,7.655-2.347,15.687-2.612,23.464-4.402,7.029-1.618,14.292-2.264,21.57-2.66,7.338-.4,14.616,.55,21.989-.021,6.902-.535,13.975,.101,20.778,2.344,3.128,1.031,6.715,1.513,9.854,.608Z" fill="#232323"/>
    <path d="M523.267,467.351c-.235-.033-.456-.081-.608-.212-2.69-2.317-6.064-2.935-9.315-3.883-3.177-.927-6.487-1.392-9.619-2.361-6.61-2.045-13.384-3.026-20.197-3.817-6.118-.711-12.186-1.761-18.312-2.44-5.063-.561-10.114-1.329-15.187-1.866-4.574-.484-9.124-1.133-13.734-1.362-4.6-.228-9.179-.885-13.765-1.381-3.962-.429-7.964,.752-11.915-.325-.674-.184-1.41-.141-2.07,.275-.381,.24-.786,.566-1.295,.327-3.101-1.452-6.418-.645-9.63-.876-4.368-.314-8.747,.006-13.124,.095-1.958,.04-3.919,.011-5.88-.028v3.459c6.539,.193,13.082,.029,19.6-.089,7.228-.131,14.429,.314,21.642,.339,6.736,.024,13.485,.857,20.2,1.592,12.246,1.34,24.47,2.873,36.704,4.322,5.066,.6,10.047,1.76,15.091,2.425,6.111,.805,12.204,1.902,18.022,3.698,4.049,1.25,8.087,2.565,12.08,4.002,.419-.645,.884-1.254,1.311-1.893Z" fill="#232323"/>
    <path d="M544.584,441.1c.958-.971,1.989-1.881,2.97-2.832-.658-.685-1.281-1.394-1.839-2.149-4.229-5.714-8.483-11.432-13.446-16.516-3.808-3.902-7.176-8.2-11.349-11.792-5.651-4.863-10.982-10.102-16.377-15.256-1.914-1.829-4.536-2.701-6.343-4.425-3.728-3.559-8.046-6.272-12.135-9.294-2.176-1.608-4.189-3.506-6.529-4.813-3.016-1.686-5.816-3.662-8.724-5.483-3.222-2.018-6.202-4.383-9.511-6.27-6.176-3.522-12.23-7.257-18.404-10.784-2.002-1.144-4.044-2.534-6.601-1.876,1.571,1.348,2.975,3.01,4.76,3.958,3.777,2.005,6.905,5.039,10.986,6.571,1.732,.65,3.365,1.684,4.975,2.707,3.996,2.538,7.798,5.369,11.811,7.859,5.149,3.196,9.913,6.93,14.947,10.285,6.11,4.073,11.824,8.741,17.69,13.177,1.134,.857,2.119,1.885,3.123,2.904,3.07,3.116,6.218,6.144,9.57,8.984,2.031,1.721,4.153,3.486,5.896,5.454,2.743,3.096,5.431,6.255,8.337,9.194,4.692,4.745,8.908,9.852,12.576,15.418,.982,1.49,2.044,2.91,3.134,4.326,.166,.214,.315,.439,.479,.654Z" fill="#232323"/>
    <path d="M552.686,433.375c-1.821-3.523-3.63-7.051-5.228-10.672-1.775-4.022-4.239-7.671-5.872-11.738-1.776-4.422-4.922-8.106-6.659-12.546-.43-1.099-.814-2.206-1.394-3.265-2.506-4.586-5.104-9.138-7.286-13.88-3.073-6.678-6.761-13.028-10.175-19.516-2.753-5.231-5.087-10.674-8.118-15.773-2.342-3.94-4.127-8.208-6.25-12.284-4.107-7.885-8.295-15.727-12.413-23.606-3.181-6.084-6.206-12.251-9.509-18.266-1.156-2.105-1.591-4.471-2.863-6.495-1.616-2.573-3.045-5.246-4.437-7.94-1.148,.391-2.332,.708-3.512,1.033,1.854,3.636,3.676,7.289,5.545,10.918,11.644,22.605,23.058,45.326,34.693,67.936,11.678,22.691,23.304,45.419,34.592,68.327-2.285-2.845-4.272-5.861-6.327-8.831-2.836-4.099-5.884-8.002-9.305-11.673-3.293-3.532-5.9-7.699-9.729-10.767-.487-.391-.703-.909-.802-1.531-.136-.864-.675-1.585-1.348-2.044-5.206-3.545-9.032-8.601-13.971-12.501-6.76-5.339-13.418-10.827-20.169-16.189-4.265-3.387-8.546-6.754-12.889-10.039-3.209-2.427-5.959-5.394-9.312-7.656-1.268-.856-2.854-1.287-3.885-2.294-4.305-4.206-9.776-6.644-14.662-9.955-1.762-1.194-3.709-2.12-5.653-3.04-.429,.528-.895,1.014-1.407,1.46,5.277,3.449,10.547,6.911,15.892,10.253,1.192,.745,2.465,1.356,3.62,2.206,7.805,5.754,14.588,12.767,22.608,18.262,3.606,2.47,6.655,5.694,10.175,8.246,8.732,6.331,16.848,13.347,24.515,20.903,5.744,5.66,11.067,11.697,16.256,17.877,4.046,4.819,7.448,10.066,11.114,15.139,2.768,3.831,5.595,7.632,8.106,11.629,.508,.809,1.231,1.572,1.707,2.465,1.448-1.388,2.856-2.808,4.356-4.154Z" fill="#232323"/>
    <path d="M506.227,495.111c.6-.022,1.202-.057,1.802-.086,.494-1.099,.933-2.212,1.448-3.305-4.659-.308-9.285,.365-13.925,.668-5.499,.36-10.865,1.733-16.42,1.837-2.693,.05-5.445-.673-8.063,.058-3.357,.936-6.744,.917-10.163,1.158-5.647,.398-11.27,1.424-16.827,2.432-6.627,1.202-13.34,1.671-19.955,3.199-8.397,1.941-17.091,2.594-25.657,3.796-5.983,.84-11.967,1.67-17.95,2.507-.628,.088-1.264,.151-1.901,.215v3.551c3.152-.38,6.314-.724,9.451-1.185,8.159-1.199,16.327-2.33,24.436-3.865,1.681-.318,3.463-.927,4.965-.973,3.936-.12,7.716-.882,11.548-1.515,4.908-.812,9.821-1.599,14.74-2.343,4.413-.667,8.824-1.372,13.257-1.86,8.132-.893,16.273-1.705,24.422-2.426,8.256-.73,16.516-1.56,24.792-1.865Z" fill="#232323"/>
    <path d="M253.62,536.866c1.468,.498,2.982,.345,4.195-.233,4.069-1.942,8.51-2.425,12.796-3.486v-2.906c-4.701,1.43-9.622,2.286-14.593,4.632,1.447-2.137,.33-3.367-.339-4.671-4.259-8.297-7.957-16.857-11.744-25.369-2.072-4.657-4.299-9.244-6.311-13.922-3.184-7.405-6.595-14.705-9.877-22.064-2.176-4.878-4.756-9.587-6.758-14.516-4.329-10.665-9.414-20.983-13.979-31.535-3.333-7.704-7.353-15.083-10.401-22.939-1.632-4.208-4.124-8.072-5.792-12.369-2.735-7.044-6.154-13.825-9.196-20.758-2.927-6.668-6.425-13.087-9.216-19.845-2.351-5.695-5.112-11.221-7.661-16.835-3.915-8.619-7.777-17.263-11.714-25.873-3.379-7.391-6.916-14.711-10.227-22.132-2.995-6.715-6.414-13.241-9.022-20.131-.417-1.103-1.026-2.148-1.651-3.156-.601-.969-1.274-.92-2.022,.398,1.127,.82,1.366,2.216,1.881,3.501,1.542,3.849,2.995,7.75,4.804,11.475,4.784,9.853,9.213,19.861,13.55,29.915,.752,1.744,1.439,3.537,2.388,5.173,1.7,2.933,3.224,6.058,4.354,9.13,1.959,5.328,4.732,10.257,6.722,15.546,1.252,3.328,3.044,6.454,4.278,9.786,1.259,3.397,3.887,6.079,4.743,9.663,.328,1.374,.818,2.735,1.421,4.013,2.12,4.495,4.218,8.992,6.182,13.562,1.212,2.821,2.2,5.736,3.521,8.508,3.837,8.049,7.82,16.03,11.506,24.147,3.168,6.975,6.043,14.085,8.974,21.166,1.182,2.853,3.127,5.356,3.897,8.372,.421,1.65,1.167,3.116,2.005,4.538,3.385,5.743,5.5,12.073,8.291,18.088,1.587,3.421,2.989,6.97,4.745,10.305,2.98,5.658,4.982,11.756,8.035,17.361,2.502,4.594,4.022,9.605,6.353,14.278,1.79,3.586,3.562,7.2,5.183,10.863,2.489,5.625,4.925,11.274,7.513,16.856,1.666,3.592,3.471,7.169,3.162,11.465Z" fill="#232323"/>
    <path d="M287.52,50.028c2.59,4.648,5.138,9.325,7.788,13.94,5.247,9.138,9.828,18.659,14.273,28.238,5.295,11.412,11.634,22.287,17.876,33.204,2.643,4.623,5.349,9.213,7.868,13.903,3.028,5.639,5.668,11.495,8.872,17.029,.442,.763,.87,1.532,1.308,2.297,1.139-.562,2.301-1.08,3.458-1.605-1.047-1.896-2.092-3.792-3.144-5.685-2.763-4.973-4.896-10.261-7.838-15.147-2.984-4.955-5.816-10.003-8.637-15.055-1.446-2.587-2.417-5.489-4.132-7.865-4.12-5.703-6.922-12.131-10.003-18.34-4.566-9.2-9.078-18.442-14.279-27.271-3.852-6.539-7.177-13.413-11.649-19.588-.277-.382-.432-.845-.057-1.318,1.001,.129,1.615,.932,2.402,1.433,4.601,2.932,8.46,6.957,13.458,9.285,2.974,1.385,5.537,3.417,7.737,5.653,4.828,4.905,10.299,9.052,15.312,13.726,3.19,2.974,6.762,5.574,9.721,8.754,5.492,5.901,11.196,11.584,16.922,17.245,6.08,6.01,11.747,12.327,16.754,19.291,5.102,7.097,10.565,13.94,16.008,20.785,.902,1.135,1.804,2.269,2.709,3.401,1.556-.14,3.131-.239,4.708-.33-2.047-2.441-4.238-4.754-6.111-7.334-1.593-2.193-3.069-4.495-4.855-6.521-5.728-6.492-10.399-13.805-16.189-20.281-3.219-3.6-6.319-7.301-9.704-10.777-4.871-5.002-10.13-9.611-14.78-14.836-2.288-2.571-5.307-4.439-7.689-6.819-3.51-3.505-7.285-6.695-10.963-9.975-3.972-3.542-8.059-6.975-12.128-10.416-2.335-1.975-4.717-4.034-7.548-5.233-3.013-1.276-5.568-3.156-7.989-5.227-3.198-2.737-6.727-4.804-10.719-6.101-1.171-.774-1.246-3.414-3.72-2.208-.108,.951,.283,1.714,.701,2.383,1.503,2.408,2.877,4.885,4.258,7.364Z" fill="#232323"/>
    <path d="M660.29,56.391c2.135,4.586,5.631,8.207,8.573,12.215,4.147,5.648,8.134,11.357,11.316,17.647,2.016,3.986,3.937,8.067,6.649,11.692,2.27,3.035,4.465,6.137,6.517,9.324,4.681,7.27,8.39,15.1,12.925,22.468,5.158,8.382,9.973,16.973,14.691,25.622,4.831,8.858,10.176,17.433,15.217,26.178,3.429,5.948,6.703,11.985,10.087,17.959,.817,1.443,1.858,2.759,2.685,4.197,2.822,4.91,5.498,9.905,8.412,14.759,3.112,5.186,6.287,10.348,9.701,15.337,3.21,4.69,6.006,9.655,9.646,14.069,2.021,2.45,4.142,4.854,5.739,7.658,1.527,2.68,3.06,5.397,4.943,7.824,4.36,5.62,7.2,12.224,11.765,17.712,2.092,2.517,3.612,5.508,5.978,7.65,1.778-.304,2.547-1.21,2.675-2.867-.28-.502-.581-1.148-.975-1.731-2.24-3.314-4.472-6.635-6.767-9.911-1.83-2.612-3.161-5.527-5.128-8.064-3.915-5.05-6.771-10.804-10.566-15.961-2.635-3.58-4.679-7.597-7.61-11.002-.769-.895-1.369-1.942-2.007-2.944-3.499-5.492-6.648-11.203-10.569-16.43-2.325-3.1-4.247-6.467-6.146-9.858-1.673-2.986-3.081-6.106-5.113-8.942-2.26-3.156-4.695-6.364-5.987-10.059-.988-2.825-2.522-5.363-4.003-7.798-4.681-7.699-8.866-15.678-13.57-23.362-4.751-7.761-9.035-15.807-13.787-23.567-2.408-3.933-4.918-7.81-7.275-11.777-2.228-3.749-4.21-7.644-6.487-11.36-2.534-4.134-4.84-8.392-7.741-12.332-3.704-5.032-7.749-9.878-10.339-15.678-.913-2.043-2.118-3.965-3.303-5.873-3.88-6.248-8.538-11.926-13.232-17.557-3.033-3.638-5.593-7.665-9.075-10.941-.888-.835-1.507-1.824-2.747-1.1-.351,.94,.285,1.251,.549,1.746,1.079,2.02,3.396,2.98,4.361,5.052Z" fill="#232323"/>
    <path d="M408.082,293.106c1.21,2.223,2.445,4.43,3.688,6.634h4.246c-1.709-2.755-3.36-5.542-4.719-8.488-2.98-6.461-6.91-12.39-10.294-18.624-3.105-5.72-6.345-11.369-9.314-17.157-1.957-3.815-4.714-7.187-6.464-11.024-1.77-3.882-4.038-7.472-5.947-11.256-4.676-9.268-10.23-18.091-14.995-27.319-2.559-4.955-5.247-9.837-7.951-14.709-.878,.867-1.74,1.816-2.6,2.776,1.891,3.459,3.8,6.909,5.659,10.386,5.697,10.655,11.647,21.175,17.503,31.745,3.213,5.8,6.722,11.452,9.628,17.402,3.435,7.033,7.392,13.772,11.142,20.62,3.47,6.337,6.963,12.665,10.418,19.013Z" fill="#232323"/>
    <path d="M282.187,63.092c2.336,5.055,5.253,9.841,7.904,14.751,2.592,4.802,5.045,9.686,7.792,14.398,3.103,5.322,5.778,10.874,9.018,16.127,2.357,3.822,4.172,7.975,6.334,11.922,4.303,7.856,8.707,15.657,13.015,23.51,3.571,6.51,7.073,13.058,10.635,19.573,1.004-.602,2.004-1.214,3.024-1.785-3.353-5.938-6.693-11.888-9.849-17.937-3.221-6.174-6.793-12.166-9.942-18.375-2.246-4.425-4.696-8.746-7.162-13.023-4.028-6.985-7.601-14.219-11.843-21.09-2.361-3.824-4.646-7.737-6.478-11.881-1.781-4.028-4.399-7.617-6.37-11.523-1.99-3.943-4.785-7.362-6.632-11.403-1.767-3.866-4.224-7.417-6.367-11.112-.42-.724-.766-1.504-1.966-1.627-1.29,1.37-.156,2.331,.263,3.335,2.357,5.65,6.054,10.579,8.624,16.14Z" fill="#232323"/>
    <path d="M241.723,467.736c-3.229-5.775-5.669-11.991-8.475-18.005-3.599-7.714-7.223-15.415-10.738-22.913-1.157-.551-1.875-.325-2.558,.524-.007,.359-.174,.898,.001,1.28,1.823,3.984,3.098,8.191,5.148,12.089,2.372,4.512,4.664,9.078,6.721,13.739,2.899,6.569,5.83,13.109,9.689,19.186,.954,1.502,2.021,2.916,2.829,4.528,2.965,5.919,6.541,11.501,9.789,17.264,4.77,8.461,10.369,16.452,15.259,24.851,.398,.682,.802,1.182,1.224,1.579v-5.067c-3.597-6.294-7.022-12.692-10.847-18.843-3.451-5.55-6.509-11.315-9.846-16.924-2.665-4.479-5.666-8.763-8.196-13.286Z" fill="#232323"/>
    <path d="M491.057,481.843c-4.042-.036-8.111,.892-12.047,.702-4.898-.236-9.604,.861-14.441,.898-4.665,.036-9.437,.234-14.04,1.483-1.696,.46-3.449,.684-5.184,.982-2.203,.378-4.51-.641-6.635,.68-1.206,.75-2.516,1.093-4.021,.47-.69-.286-1.634,.027-2.463,.087-6.601,.483-12.938,2.491-19.587,3.064-5.212,.449-10.527,1.467-15.752,2.488-5.229,1.021-10.559,1.654-15.678,3.064-.859,.236-1.73,.41-2.595,.614v3.727c3.822-1.215,7.689-2.115,11.57-2.609,10.23-1.305,20.304-3.504,30.522-4.863,13.649-1.816,27.266-3.886,40.885-5.927,5.264-.789,10.588-.778,15.874-1.407,3.691-.439,7.572-.31,11.341-.524,2.757-.156,5.561,.02,8.277-.255,.496-1.608-.225-2.312-1.42-2.46-1.522-.189-3.07-.198-4.608-.212Z" fill="#232323"/>
    <path d="M263.306,69.562c4.577,8.827,9.244,17.609,13.858,26.417,2.803,5.35,5.348,10.848,8.387,16.059,4.599,7.886,8.708,16.044,12.887,24.131,4.24,8.205,8.792,16.242,13.128,24.387,2.7,5.071,5.458,10.128,8.205,15.185,.93-.798,1.855-1.605,2.801-2.372-.502-.899-1.026-1.786-1.515-2.692-5.122-9.504-10.056-19.11-15.188-28.609-4.499-8.327-9.198-16.547-13.74-24.851-3.012-5.506-5.879-11.09-8.859-16.613-2.305-4.271-4.471-8.64-7.103-12.704-1.935-2.989-3.613-6.073-5.219-9.229-1.99-3.913-4.056-7.789-6.138-11.655-.552-1.024-1.386-1.577-2.559-.836-.381,1.437,.542,2.392,1.055,3.381Z" fill="#232323"/>
    <path d="M386.257,299.74h4.142c-.133-.233-.256-.471-.391-.704-2.248-3.892-4.365-7.887-6.177-11.996-1.448-3.284-3.677-6.064-5.264-9.234-1.646-3.288-3.156-6.657-4.991-9.837-3.728-6.459-6.799-13.261-10.762-19.621-1.801-2.892-3.322-6.166-4.892-9.303-2.319-4.635-4.894-9.142-7.331-13.718-2.002-3.759-3.846-7.606-5.977-11.289-.572-.988-1.139-1.976-1.709-2.964-.621,1.503-1.218,3.023-1.729,4.601,1.074,1.985,2.163,3.966,3.236,5.95,3.436,6.352,7.073,12.628,10.187,19.152,2.304,4.825,5.296,9.244,7.665,14.033,1.724,3.484,3.264,7.072,5.432,10.378,2.461,3.754,4.418,7.862,6.564,11.806,1.841,3.386,3.654,6.885,5.395,10.363,2.092,4.182,4.341,8.286,6.603,12.385Z" fill="#232323"/>
    <path d="M362.478,230.842c.297,.162,.653,.214,.936,.303,1.046-.425,1.503-1.211,1.856-2.587-4.463-6.061-7.233-13.028-10.644-19.629-1.676-3.244-3.452-6.433-5.215-9.629-.876,1.228-1.68,2.501-2.458,3.79,4.6,8.519,9.203,17.036,13.792,25.56,.459,.851,.85,1.712,1.731,2.193Z" fill="#232323"/>
    <path d="M278.838,75.303c4.343,8.284,8.797,16.51,13.161,24.784,3.434,6.509,6.862,13.022,10.183,19.588,2.986,5.904,6.495,11.514,9.434,17.454,3.679,7.437,7.839,14.637,11.822,21.924,1.756,3.212,3.555,6.401,5.328,9.604,1.003-.716,2.027-1.39,3.046-2.072-1.265-2.418-2.554-4.822-3.823-7.238-5.126-9.753-10.451-19.402-15.706-29.088-3.204-5.907-6.285-11.889-9.683-17.683-5.338-9.1-10.322-18.401-15.371-27.651-4.715-8.637-9.683-17.14-14.227-25.872-.391-.751-.693-1.783-1.897-1.767-.417,.973-.487,1.83-.004,2.773,2.599,5.071,5.092,10.196,7.737,15.242Z" fill="#232323"/>
    <path d="M410.638,412.43c5.267,.834,10.583,1.492,15.765,2.705,8.533,1.998,17.207,3.365,25.577,6.135,8.21,2.716,16.603,4.876,24.891,7.362,6.709,2.012,13.22,4.635,19.874,6.794,6.479,2.102,12.539,4.976,18.435,8.293,2.146,1.207,4.294,2.436,6.86,2.617,.686-1.77,.116-2.803-1.304-3.709-3.92-2.502-8.187-4.244-12.396-6.168-8.858-4.049-18.007-7.296-27.212-10.369-11.026-3.682-22.322-6.483-33.48-9.735-6.402-1.866-12.958-2.942-19.46-4.302-7.428-1.553-14.913-2.76-22.441-3.741-5.852-.761-11.644-2.019-17.505-2.664-3.239-.356-6.412-1.212-9.625-1.53v2.939c2.485,.471,4.963,1.019,7.445,1.497,8.138,1.569,16.384,2.579,24.577,3.876Z" fill="#232323"/>
    <path d="M631.616,376.622c-3.032,2.624-5.933,5.4-8.964,8.025-2.683,2.324-5.582,4.408-8.177,6.822-2.789,2.596-5.484,5.294-8.202,7.966,2.231-.925,4.535-1.707,6.811-2.546,4.24-3.529,8.582-6.95,12.25-11.119,.225-.255,.608-.365,.892-.577,2.748-2.06,5.669-3.933,8.199-6.234,5.698-5.181,11.382-10.364,17.362-15.228,4.766-3.876,9.3-8.036,13.957-12.047,7.455-6.421,15.018-12.713,22.392-19.234,3.063-2.708,6.018-5.712,9.714-7.661,5.063-2.671,9.653-6.029,14.101-9.589,6.572-5.259,13.023-10.673,20.034-15.358,.401-.267,.678-.662,.701-1.443-.514-.766-.786-2.031-2.551-2.04-3.473,2.546-7.153,5.116-10.693,7.868-8.215,6.385-15.684,13.8-25.312,18.228-.404,.186-.71,.619-1.02,.973-3.295,3.766-7.411,6.621-11.226,9.77-7.943,6.558-15.586,13.452-23.392,20.159-4.591,3.943-8.924,8.193-13.613,12.009-4.503,3.662-8.88,7.462-13.262,11.257Z" fill="#232323"/>
    <path d="M378.616,440.684c1.173,.049,2.333,.159,3.502,.202,4.377,.161,8.784-.657,13.125,.253,2.357,.495,4.717,.542,7.071,.395,1.791-.112,3.563-.109,5.334,.057,5.756,.541,11.514,1.08,17.26,1.714,5.885,.649,11.778,1.28,17.63,2.164,4.328,.654,8.695,.847,13.036,1.468,8.328,1.19,16.677,2.334,25.018,3.464,6.685,.906,13.247,2.592,19.705,4.66,2.99,.957,6.172,1.309,9.687,2.02-.366-2.693-1.682-3.813-3.456-3.809-5.002,.011-9.274-2.654-14.021-3.654-4.25-.895-8.525-1.954-12.809-2.745-1.703-.315-3.397-.88-5.209-.91-4.733-.078-9.496-.687-14.092-1.516-6.878-1.24-13.85-1.533-20.721-2.805-6.478-1.199-13.129-1.467-19.708-2.097-4.832-.462-9.675-1.213-14.505-1.153-3.928,.049-7.827-.211-11.719-.421-5.043-.272-10.083-.423-15.128-.51v3.224Z" fill="#232323"/>
    <path d="M378.616,426.435c3.407,.2,6.815,.392,10.219,.628,6.264,.434,12.498,1.36,18.74,1.938,5.995,.555,12.047,.797,18.039,1.472,5.53,.623,11.086,.917,16.61,1.742,4.04,.603,8.178,.899,12.25,1.422,6.711,.862,13.241,2.706,19.775,4.401,5.726,1.486,11.594,2.5,17.117,4.737,1.651,.669,3.325,.108,5.456,.356-1.596-3.004-3.922-3.945-6.446-4.569-1.728-.427-3.526-.629-5.205-1.193-4.392-1.475-8.869-2.647-13.384-3.618-5.418-1.167-10.879-2.207-16.288-3.373-4.652-1.002-9.361-1.278-14.014-2.091-5.692-.995-11.522-.849-17.3-1.739-7.224-1.112-14.623-1.091-21.942-1.901-7.278-.806-14.594-1.688-21.957-1.758-.557-.005-1.114-.007-1.671-.01v3.556Z" fill="#232323"/>
    <path d="M270.611,355.071v-7.366c-.968-1.017-2.056-.968-3.334,.009,.331,1.704,1.147,3.127,1.876,4.608,.459,.931,.955,1.842,1.458,2.749Z" fill="#232323"/>
    <path d="M237.277,283.148c-.253-.913-.739-1.741-1.728-2.09-1.077-.008-1.787,.543-2.41,1.545,1.677,4.812,4.351,9.391,5.682,15.074,1.517,1.094,2.132,3.165,2.9,5.254,.865-.812,1.856-1.481,2.938-2.002-1.042-2.426-2.046-4.87-3.077-7.304-1.472-3.479-3.287-6.808-4.304-10.479Z" fill="#232323"/>
    <path d="M262.248,64.552c.586-2.532-1.791-3.901-2.435-5.916-.703-2.203-2.164-3.915-3.324-5.813-1.042-1.704-.987-4.376-3.834-4.893,.292,1.954,6.125,13.85,7.845,16.131,.384,.509,.934,.683,1.747,.492Z" fill="#232323"/>
    <path d="M436.225,349.579c0,.013,0,.026-.001,.039,.025-.007,.047,0,.073-.007-.013-.012-.026-.024-.039-.036-.011,.002-.021,.002-.033,.004Z" fill="#232323"/>
    <path d="M428.953,344.178c-.38-.626-.908-1.047-1.59-1.347-3.33-1.462-6.766-2.74-9.922-4.515-2.196-1.235-4.627-1.374-6.857-2.289-.66-.27-1.414-.131-1.73,.794,.205,1.051,1.108,1.444,1.95,1.803,4.205,1.794,8.411,3.593,12.661,5.278,1.287,.51,2.442,1.552,3.991,1.264,1.573,1.621,3.853,2.176,5.515,3.666,.938,.842,2.06,.98,3.253,.746,.02-.572,.04-1.145,.062-1.766-2.257-1.629-4.898-2.43-7.334-3.635Z" fill="#232323"/>
  </g>
  <path d="M765.466,668.124c-19.068,17.866-39.645,26.79-61.714,26.79-31.307,0-56.592-11.831-75.857-35.519-19.267-23.679-30.708-52.981-34.32-87.9,20.471,9.63,43.746,14.449,69.839,14.449,25.285,0,48.468-4.216,69.538-12.643,21.074-8.431,37.723-20.369,49.972-35.825,12.239-15.448,18.363-32.812,18.363-52.076,0-15.656-4.318-30.304-12.945-43.954-7.448-11.763-18.19-21.509-32.203-29.252-1.105-.61-2.263-1.189-3.408-1.775-.783-.4-1.555-.806-2.357-1.195-.397-.192-.764-.402-1.165-.591-17.02-8.012-37.79-12.101-62.253-12.302-.63-.005-1.233-.039-1.866-.039-.062,0-.123,.005-.185,.005-1.959,.002-3.861,.118-5.796,.168-33.654,.87-63.603,8.98-89.742,24.513-11.521,6.847-21.866,14.652-31.166,23.304-2.331,2.169-4.618,4.374-6.81,6.656-1.075,1.119-2.1,2.279-3.142,3.426-.816,.899-1.667,1.77-2.463,2.685-3.982,4.583-7.659,9.413-11.123,14.416-.551,.795-1.114,1.581-1.652,2.387-.841,1.26-1.683,2.52-2.491,3.806-.557,.887-1.072,1.808-1.615,2.707-1.128,1.871-2.298,3.708-3.361,5.633-.996,1.804-1.872,3.634-2.802,5.452-.58,1.136-1.196,2.265-1.75,3.406-11.792,24.276-17.725,49.813-17.725,76.637,0,28.898,5.92,55.896,17.764,80.978,11.835,25.086,29.501,45.361,52.98,60.804,23.48,15.447,51.872,23.182,85.189,23.182,20.866,0,42.042-4.819,63.52-14.449,21.465-9.634,40.338-24.385,56.593-44.252,16.255-19.867,27.185-44.048,32.812-72.55l-4.815-3.612c-8.836,26.492-22.787,48.672-41.842,66.529Zm-173.093-120.711c0-3.227,.088-6.444,.228-9.655,.045-1.046,.121-2.089,.181-3.133,.179-3.084,.42-6.161,.728-9.231,.099-.984,.174-1.971,.287-2.955,.368-3.232,.809-6.456,1.321-9.671,1.755-11.025,4.344-21.955,7.791-32.789,1.029-3.236,2.153-6.362,3.324-9.43,.239-.626,.497-1.231,.741-1.85,1.365-3.446,2.813-6.794,4.361-10.024,6.106-12.735,13.613-23.819,22.579-33.182,10.326-10.779,22.156-17.468,35.479-20.091,2.361-.465,4.777-.781,7.231-.99,.242-.021,.493-.018,.736-.035,1.758-.131,3.517-.256,5.323-.256,13.242,0,24.279,6.319,33.114,18.962,1.941,2.783,3.632,5.813,5.148,9.014,.426,.902,.835,1.823,1.228,2.759,.53,1.26,1.053,2.527,1.522,3.847,3.551,10.023,5.344,21.766,5.344,35.257,0,29.705-8.031,54.09-24.077,73.149-16.061,19.068-37.134,28.596-63.219,28.596-14.853,0-31.107-3.808-48.764-11.436-.408-3.612-.604-9.23-.604-16.858Z" fill="#232323"/>
  <polygon points="49.888 851.858 62.114 851.858 70.023 799.033 57.796 799.033 49.888 851.858" fill="#232323"/>
  <polygon points="134.291 832.192 134.072 832.231 119.703 799.033 107.442 799.033 99.53 851.858 111.795 851.858 116.73 818.661 116.947 818.622 131.352 851.858 143.578 851.858 151.486 799.033 139.26 799.033 134.291 832.192" fill="#232323"/>
  <polygon points="182.48 808.465 196.194 808.465 189.701 851.858 201.965 851.858 208.458 808.465 222.427 808.465 223.841 799.033 183.894 799.033 182.48 808.465" fill="#232323"/>
  <polygon points="249.137 851.858 283.715 851.858 285.129 842.427 262.817 842.427 264.777 829.254 283.387 829.254 284.802 819.822 266.192 819.822 267.895 808.465 290.247 808.465 291.661 799.033 257.049 799.033 249.137 851.858" fill="#232323"/>
  <path d="M345.15,799.033h-18.396l-7.911,52.825h12.265l3.009-20.243h6.605c2.611,0,4.475,.642,5.586,1.918,1.113,1.283,1.475,3.234,1.091,5.845l-.51,3.189c-.267,1.719-.386,3.509-.363,5.37,.025,1.867,.459,3.169,1.306,3.92h12.663l.109-.725c-.895-.751-1.421-1.996-1.578-3.741-.157-1.739-.126-3.324,.093-4.748l.507-3.343c.436-3.093,.076-5.723-1.072-7.886-1.149-2.168-3.221-3.721-6.221-4.664,3.023-1.187,5.393-2.746,7.11-4.684,1.719-1.932,2.806-4.325,3.266-7.18,.729-4.864-.543-8.72-3.809-11.575-3.266-2.855-7.85-4.28-13.749-4.28Zm5.222,16.618c-.34,2.079-1.263,3.683-2.775,4.825-1.511,1.136-3.452,1.701-5.822,1.701h-6.24l2.066-13.711h6.13c2.468,0,4.27,.642,5.409,1.925,1.136,1.277,1.546,3.035,1.232,5.261Z" fill="#232323"/>
  <polygon points="429.225 832.192 429.007 832.231 414.637 799.033 402.377 799.033 394.465 851.858 406.73 851.858 411.664 818.661 411.882 818.622 426.286 851.858 438.512 851.858 446.42 799.033 434.194 799.033 429.225 832.192" fill="#232323"/>
  <path d="M503.541,799.033l-.038,.032v-.032h-6.567l-25.142,52.825h12.915l4.607-10.266h15.675l1.559,10.266h12.916l-9.358-52.825h-6.567Zm-10.016,33.121l7.401-16.393,.218,.032,2.432,16.361h-10.051Z" fill="#232323"/>
  <path d="M578.976,798.27c-6.336,0-11.687,1.938-16.054,5.826-4.366,3.882-7.044,9.156-8.036,15.836l-1.671,11.029c-.966,6.359,.292,11.562,3.776,15.598,3.481,4.042,8.367,6.063,14.658,6.063,6.506,0,11.706-1.495,15.601-4.485,3.895-2.984,6.262-7.61,7.109-13.878l-.071-.212h-11.902c-.485,3.24-1.486,5.569-3.01,7-1.523,1.424-3.628,2.143-6.313,2.143-3.048,0-5.22-1.084-6.513-3.253-1.296-2.162-1.652-5.152-1.071-8.977l1.668-11.1c.533-3.631,1.742-6.564,3.628-8.803,1.886-2.233,4.148-3.355,6.785-3.355,3.192,0,5.357,.673,6.493,2.014,1.139,1.341,1.466,3.696,.982,7.058h11.972l.109-.218c.966-5.903-.198-10.426-3.499-13.57-3.304-3.144-8.184-4.716-14.642-4.716Z" fill="#232323"/>
  <polygon points="627.496 851.858 639.721 851.858 647.629 799.033 635.404 799.033 627.496 851.858" fill="#232323"/>
  <path d="M706.672,798.27c-6.772,0-12.524,2.053-17.254,6.166-4.729,4.113-7.587,9.534-8.578,16.259l-1.415,9.502c-.994,6.41,.343,11.748,4.007,16.021,3.668,4.267,8.713,6.403,15.149,6.403,6.724,0,12.431-2.047,17.125-6.134,4.694-4.087,7.559-9.515,8.598-16.29l1.419-9.502c.943-6.41-.402-11.755-4.03-16.022-3.629-4.267-8.633-6.403-15.02-6.403Zm6.82,22.348l-1.415,9.579c-.58,3.773-1.963,6.885-4.154,9.322-2.188,2.445-4.831,3.67-7.927,3.67-3.337,0-5.714-1.174-7.129-3.522-1.415-2.348-1.823-5.505-1.215-9.47l1.415-9.579c.555-3.747,1.927-6.839,4.119-9.272,2.188-2.425,4.88-3.644,8.072-3.644,3.266,0,5.598,1.174,7.003,3.522,1.402,2.342,1.813,5.48,1.232,9.393Z" fill="#232323"/>
  <polygon points="791.507 832.192 791.288 832.231 776.92 799.033 764.658 799.033 756.747 851.858 769.012 851.858 773.945 818.661 774.164 818.622 788.568 851.858 800.794 851.858 808.702 799.033 796.476 799.033 791.507 832.192" fill="#232323"/>
  <path d="M865.823,799.033l-.038,.032v-.032h-6.568l-25.142,52.825h12.917l4.607-10.266h15.674l1.559,10.266h12.916l-9.358-52.825h-6.566Zm-10.016,33.121l7.401-16.393,.219,.032,2.431,16.361h-10.051Z" fill="#232323"/>
  <polygon points="927.437 842.427 933.93 799.033 921.67 799.033 913.758 851.858 948.698 851.858 950.112 842.427 927.437 842.427" fill="#232323"/>
  <path d="M366.892,545.807v-224.073h59.791v-10.27h-59.791c-3.045-2.058-5.894-4.21-8.6-6.428-9.464-7.757-16.885-16.479-22.206-26.185-6.263-11.407-9.62-22.987-10.156-34.739-.05-1.104-.11-2.207-.11-3.314,0-10.195,1.371-19.514,4.036-28.009,1.129-3.6,2.525-7.03,4.134-10.325,.681-1.396,1.37-2.788,2.138-4.13,1.367-2.389,2.902-4.671,4.543-6.887,.871-1.176,1.718-2.368,2.666-3.495,.013-.015,.028-.028,.041-.044,1.44-1.71,2.909-3.317,4.41-4.816,.886-.885,1.805-1.654,2.712-2.465,1.528-1.367,3.088-2.629,4.677-3.788,1.054-.768,2.114-1.517,3.194-2.193,7.961-4.982,16.629-7.527,26.033-7.527,12.478,0,22.245,4.332,29.293,12.982,7.043,8.667,10.573,18.831,10.573,30.503,0,16.516-5.645,28.99-16.912,37.448,4.424,6.851,10.466,12.078,18.118,15.701,7.644,3.624,15.901,5.436,24.76,5.436,4.69,0,9.113-.502,13.301-1.454,1.17-.266,2.31-.585,3.439-.925,6.292-1.893,12-4.897,17.084-9.097,9.26-7.643,13.894-18.314,13.894-32.008,0-19.725-8.966-36.032-26.88-48.924-2.429-1.746-4.957-3.35-7.553-4.859-.99-.575-2.029-1.081-3.042-1.622-15.945-8.51-34.826-12.844-56.746-12.844-.045,0-.088,.003-.132,.003-1.545,.002-3.065,.053-4.586,.103-16.154,.531-30.985,3.797-44.488,9.806-1.119,.498-2.232,1.009-3.332,1.544-1.883,.916-3.742,1.88-5.572,2.907-1.04,.583-2.059,1.208-3.082,1.827-1.836,1.111-3.643,2.277-5.424,3.502-.946,.651-1.892,1.304-2.823,1.987-1.997,1.467-3.949,3.023-5.874,4.638-1.008,.847-2.019,1.685-3.007,2.572-2.07,1.858-4.084,3.835-6.067,5.873-.865,.889-1.738,1.759-2.586,2.682-3.865,4.205-7.376,8.838-10.59,13.83-13.306,20.668-21.044,48.067-23.195,82.23-.121,1.93-.209,3.901-.295,5.874-.207,4.766-.345,9.616-.345,14.633h-32.618v10.27h32.618v233.132c0,20.536-.814,35.841-2.418,45.902-1.616,10.07-6.04,22.953-13.288,38.654h115.963c-7.248-17.308-11.681-31.407-13.288-42.278-1.612-10.871-2.413-27.98-2.413-51.338Z" fill="#232323"/>
</svg>