<?xml version="1.0" encoding="UTF-8"?>
<svg id="a" xmlns="http://www.w3.org/2000/svg" width="53" height="53" viewBox="0 0 53 53">
  <rect x="1.058" y="1.058" width="50.885" height="50.885" rx="13.381" ry="13.381" fill="#fff"/>
  <path d="M29.844,21.021c-.099-.093-.253-.093-.353,0l-1.152,1.153-1.871-1.871c2.625-2.82,2.468-7.235-.353-9.861-2.82-2.625-7.235-2.468-9.861,.353-2.625,2.82-2.468,7.235,.353,9.861,2.679,2.495,6.829,2.495,9.509,0l1.871,1.871-1.153,1.152c-.097,.097-.097,.254,0,.353l8.149,8.148c.831,.831,2.178,.831,3.009,0s.831-2.178,0-3.009l-8.148-8.149h0Zm-14.907-5.444c0-3.563,2.888-6.453,6.451-6.453s6.453,2.888,6.453,6.451-2.888,6.453-6.451,6.453c-3.562-.004-6.448-2.891-6.453-6.451Zm22.703,16.25c-.646,.615-1.66,.615-2.306,0l-7.971-7.971,2.306-2.306,7.971,7.971c.636,.636,.637,1.668,0,2.304h0v.002Z"/>
  <g>
    <path d="M21.18,42.395v-6.601h2.557c.437,0,.817,.077,1.14,.23,.323,.154,.575,.369,.757,.646s.272,.601,.272,.97-.091,.692-.272,.969c-.182,.277-.434,.492-.757,.646-.323,.153-.703,.23-1.14,.23h-1.846v2.908h-.711Zm.711-5.973v2.437h1.846c.449,0,.802-.107,1.057-.322,.255-.216,.383-.515,.383-.896s-.127-.681-.383-.896c-.255-.216-.608-.323-1.057-.323h-1.846Z"/>
    <path d="M27.732,38.734c-.102,.102-.223,.152-.364,.152s-.263-.051-.364-.152c-.102-.102-.153-.224-.153-.365s.051-.263,.153-.364c.102-.102,.223-.152,.364-.152s.263,.051,.364,.152,.152,.223,.152,.364-.051,.264-.152,.365Zm0,3.601c-.102,.102-.223,.152-.364,.152s-.263-.051-.364-.152c-.102-.102-.153-.224-.153-.365s.051-.263,.153-.364c.102-.102,.223-.152,.364-.152s.263,.051,.364,.152,.152,.223,.152,.364-.051,.264-.152,.365Z"/>
    <path d="M31.504,35.794v6.601h-.683v-5.844l-1.688,1.339v-.757l1.688-1.339h.683Z"/>
  </g>
</svg>