<?xml version="1.0" encoding="UTF-8"?>
<svg id="a" xmlns="http://www.w3.org/2000/svg" width="53" height="53" viewBox="0 0 53 53">
  <rect x="1.058" y="1.058" width="50.885" height="50.885" rx="13.381" ry="13.381" fill="#fff"/>
  <g>
    <path d="M33.426,8.198c-1.256-.887-2.993-.59-3.882,.664l-1.518,2.143-.558-.395c-.045-.032-.1-.044-.154-.035-.054,.009-.102,.039-.134,.084l-1.08,1.526c-.066,.093-.044,.222,.049,.288l.947,.671-5.63,7.95c-1.275,1.827-1.877,4.039-1.706,6.261,.008,.108,.098,.192,.206,.192,.018,0,.036-.002,.054-.007,1.068-.288,2.08-.756,2.992-1.382,.912-.624,1.708-1.404,2.348-2.305l5.629-7.95,.82,.581c.093,.066,.222,.044,.288-.049h0l1.08-1.526c.066-.093,.044-.222-.049-.288l-.558-.395,1.517-2.143c.888-1.256,.591-2.994-.664-3.883h0s.003-.002,.003-.002Zm-8.402,15.415c-.613,.862-1.373,1.608-2.246,2.205-.803,.552-1.687,.975-2.62,1.254-.103-2.042,.476-4.061,1.646-5.738l1.256-1.774,4.292,.768-2.327,3.285h0Zm2.59-3.658l-4.292-.768,4.109-5.805,3.221,2.281-3.039,4.293h0Zm4.267-3.932l-.819-.58-3.558-2.519h-.002l-.946-.67,.842-1.189,.558,.395h0l4.207,2.978h0l.558,.395-.841,1.191h.001Zm1.871-4.186l-1.517,2.143-3.872-2.741,1.517-2.143c.757-1.069,2.237-1.322,3.306-.565,1.069,.757,1.322,2.237,.565,3.306h0Z"/>
    <path d="M19.746,29.271c-.138,.218-1.345,2.152-1.345,2.915,.01,.839,.698,1.511,1.537,1.501,.825-.01,1.492-.676,1.501-1.501,0-.763-1.207-2.697-1.345-2.915-.069-.096-.203-.119-.299-.05-.019,.014-.036,.031-.05,.05h0Zm.175,4.021c-.611,0-1.105-.495-1.106-1.106,0-.471,.688-1.715,1.106-2.41,.418,.695,1.106,1.939,1.106,2.41,0,.61-.495,1.105-1.106,1.106h0Z"/>
  </g>
  <g>
    <path d="M20.524,42.395v-6.601h2.557c.437,0,.817,.077,1.14,.23,.323,.154,.575,.369,.757,.646s.272,.601,.272,.97-.091,.692-.272,.969c-.182,.277-.434,.492-.757,.646-.323,.153-.703,.23-1.14,.23h-1.846v2.908h-.711Zm.711-5.973v2.437h1.846c.449,0,.802-.107,1.057-.322,.255-.216,.383-.515,.383-.896s-.127-.681-.383-.896c-.255-.216-.608-.323-1.057-.323h-1.846Z"/>
    <path d="M27.076,38.734c-.101,.102-.222,.152-.364,.152s-.263-.051-.365-.152-.152-.224-.152-.365,.051-.263,.152-.364,.223-.152,.365-.152,.263,.051,.364,.152c.102,.102,.152,.223,.152,.364s-.051,.264-.152,.365Zm0,3.601c-.101,.102-.222,.152-.364,.152s-.263-.051-.365-.152-.152-.224-.152-.365,.051-.263,.152-.364,.223-.152,.365-.152,.263,.051,.364,.152c.102,.102,.152,.223,.152,.364s-.051,.264-.152,.365Z"/>
    <path d="M28.218,42.395v-.591l2.29-2.179c.418-.4,.738-.76,.959-1.08,.223-.32,.333-.649,.333-.987,0-.24-.056-.461-.167-.66-.109-.2-.268-.358-.471-.476s-.442-.176-.719-.176c-.376,0-.713,.104-1.012,.31s-.555,.484-.771,.835l-.489-.452c.609-.861,1.375-1.292,2.299-1.292,.412,0,.77,.086,1.07,.258,.302,.173,.537,.405,.707,.697,.168,.293,.254,.62,.254,.983,0,.283-.061,.553-.181,.808-.12,.256-.298,.519-.536,.789-.236,.271-.536,.576-.899,.914-.302,.289-.604,.575-.909,.858s-.607,.566-.91,.85h3.472v.591h-4.32Z"/>
  </g>
</svg>