<?xml version="1.0" encoding="UTF-8"?>
<svg id="a" xmlns="http://www.w3.org/2000/svg" width="53" height="53" viewBox="0 0 53 53">
  <rect x="1.058" y="1.058" width="50.885" height="50.885" rx="13.381" ry="13.381" fill="#fff"/>
  <path d="M34.556,26.339l-4.116-6.441c-.515-.806-.787-1.737-.787-2.692v-6.082h.597c.12,0,.217-.097,.217-.217s-.097-.217-.217-.217h-.807l-.007-.002-5.869,.002h-.816c-.12,0-.217,.097-.217,.217s.097,.217,.217,.217h.598v6.082c0,.956-.271,1.887-.786,2.692l-4.116,6.442c-.564,.883-.601,1.96-.097,2.879s1.43,1.468,2.478,1.468h11.345c1.048,0,1.975-.55,2.478-1.469,.503-.919,.467-1.996-.097-2.879h.002Zm-.284,2.67c-.426,.778-1.21,1.243-2.097,1.243h-11.345c-.887,0-1.671-.463-2.097-1.241s-.396-1.689,.082-2.436l4.116-6.442c.113-.176,.212-.36,.303-.546h2.321c.12,0,.217-.097,.217-.217s-.097-.217-.217-.217h-2.13c.237-.618,.362-1.276,.362-1.946v-.411h1.782c.12,0,.217-.097,.217-.217s-.097-.217-.217-.217h-1.782v-2.369h1.769c.12,0,.217-.097,.217-.217s-.097-.217-.217-.217h-1.769v-2.433h5.434v6.082c0,1.039,.296,2.051,.855,2.926l4.116,6.441c.477,.748,.508,1.658,.082,2.436,0,0-.002-.002-.002-.002Z"/>
  <g>
    <path d="M20.519,42.395v-6.601h2.557c.437,0,.817,.077,1.14,.23,.323,.154,.575,.369,.757,.646s.272,.601,.272,.97-.091,.692-.272,.969c-.182,.277-.434,.492-.757,.646-.323,.153-.703,.23-1.14,.23h-1.846v2.908h-.711Zm.711-5.973v2.437h1.846c.449,0,.802-.107,1.057-.322,.255-.216,.383-.515,.383-.896s-.127-.681-.383-.896c-.255-.216-.608-.323-1.057-.323h-1.846Z"/>
    <path d="M27.072,38.734c-.102,.102-.223,.152-.365,.152s-.263-.051-.365-.152-.152-.224-.152-.365,.051-.263,.152-.364,.223-.152,.365-.152,.263,.051,.365,.152c.102,.102,.152,.223,.152,.364s-.051,.264-.152,.365Zm0,3.601c-.102,.102-.223,.152-.365,.152s-.263-.051-.365-.152-.152-.224-.152-.365,.051-.263,.152-.364,.223-.152,.365-.152,.263,.051,.365,.152c.102,.102,.152,.223,.152,.364s-.051,.264-.152,.365Z"/>
    <path d="M28.582,40.89c.234,.32,.512,.575,.831,.767,.319,.19,.683,.286,1.089,.286,.475,0,.854-.13,1.141-.388,.286-.259,.43-.585,.43-.979,0-.277-.072-.514-.217-.711-.146-.197-.342-.35-.592-.457-.249-.107-.53-.162-.844-.162h-.646v-.6h.646c.276,0,.525-.049,.747-.147s.397-.237,.526-.416c.129-.178,.193-.388,.193-.627,0-.357-.126-.648-.378-.873-.253-.225-.585-.337-.997-.337-.369,0-.699,.094-.988,.282-.289,.188-.541,.444-.756,.771l-.49-.452c.283-.376,.613-.67,.988-.882,.375-.213,.791-.318,1.246-.318,.412,0,.775,.078,1.09,.235,.313,.157,.56,.372,.738,.646,.178,.273,.268,.583,.268,.928,0,.319-.102,.605-.305,.858-.203,.252-.48,.446-.831,.581,.406,.136,.728,.353,.965,.651,.237,.298,.355,.642,.355,1.029,0,.369-.097,.703-.291,1.001-.194,.299-.462,.534-.804,.707-.341,.172-.739,.258-1.195,.258-.492,0-.941-.105-1.348-.318-.406-.212-.76-.506-1.062-.882l.489-.452Z"/>
  </g>
</svg>