<?xml version="1.0" encoding="UTF-8"?>
<svg id="a" xmlns="http://www.w3.org/2000/svg" width="422" height="376" viewBox="0 0 422 376">
  <rect x="77.095" y="41.413" width="329.465" height="51.803" rx="15.906" ry="15.906" fill="#fff"/>
  <rect x="-104.664" y="161.517" width="292.011" height="51.803" rx="14.974" ry="14.974" transform="translate(228.76 146.077) rotate(90)"/>
  <rect x="77.095" y="101.756" width="329.465" height="51.803" rx="15.906" ry="15.906" fill="#fff"/>
  <rect x="77.095" y="162.098" width="329.465" height="51.803" rx="15.906" ry="15.906" fill="#fff"/>
  <rect x="77.095" y="222.441" width="329.465" height="51.803" rx="15.906" ry="15.906" fill="#fff"/>
  <rect x="77.095" y="282.783" width="329.465" height="51.803" rx="15.906" ry="15.906" fill="#fff"/>
  <g>
    <path d="M103.641,74.659v-2.149c-.65,.8-1.487,1.425-2.512,1.875-1.025,.45-2.154,.675-3.387,.675-1.333,0-2.562-.233-3.687-.7-1.125-.467-2.108-1.121-2.949-1.962-.841-.842-1.491-1.833-1.95-2.975-.458-1.141-.687-2.378-.687-3.711s.229-2.566,.687-3.699c.458-1.133,1.104-2.12,1.938-2.962,.833-.841,1.808-1.495,2.924-1.962,1.117-.466,2.333-.7,3.649-.7,1.533,0,2.916,.304,4.149,.912,1.233,.608,2.25,1.438,3.049,2.487l-1.399,1.325c-.634-.916-1.429-1.641-2.387-2.174-.958-.533-2.095-.8-3.412-.8-1.383,0-2.62,.329-3.712,.987-1.091,.658-1.945,1.558-2.562,2.699-.617,1.142-.925,2.437-.925,3.887s.312,2.75,.938,3.899c.625,1.15,1.487,2.054,2.587,2.712,1.1,.658,2.357,.987,3.773,.987,1.316,0,2.487-.271,3.512-.812,1.025-.542,1.804-1.262,2.337-2.162v-3.274h-6.048v-1.7h7.923v9.298h-1.85Z"/>
    <path d="M120.467,72.385c-.649,.833-1.433,1.487-2.35,1.962-.916,.475-1.966,.712-3.148,.712-1.3,0-2.462-.283-3.487-.85-1.024-.567-1.828-1.341-2.412-2.325-.583-.983-.875-2.108-.875-3.374s.279-2.391,.837-3.374c.559-.983,1.329-1.758,2.312-2.325,.983-.566,2.1-.85,3.35-.85,1.2,0,2.262,.279,3.187,.837,.925,.558,1.654,1.32,2.188,2.287s.8,2.083,.8,3.349v.725h-10.697c.149,1.283,.662,2.316,1.537,3.099,.874,.783,1.97,1.175,3.286,1.175,1.733,0,3.124-.758,4.174-2.274l1.3,1.225Zm-8.811-7.686c-.808,.741-1.295,1.72-1.462,2.937h8.723c-.149-1.216-.616-2.195-1.399-2.937-.783-.742-1.725-1.112-2.824-1.112-1.217,0-2.229,.371-3.037,1.112Z"/>
    <path d="M124.045,71.51c.583,.617,1.241,1.1,1.975,1.45,.732,.35,1.558,.525,2.474,.525,1,0,1.821-.212,2.462-.637,.642-.425,.963-.971,.963-1.637,0-.583-.271-1.037-.812-1.362-.542-.325-1.454-.579-2.737-.762-1.866-.267-3.178-.67-3.937-1.212-.758-.542-1.137-1.271-1.137-2.187,0-.75,.217-1.404,.649-1.962,.434-.558,1.033-.991,1.8-1.299,.767-.309,1.642-.462,2.624-.462,1.101,0,2.083,.2,2.95,.6,.866,.4,1.633,.966,2.299,1.7l-1.3,1.25c-.5-.616-1.074-1.1-1.725-1.45-.649-.35-1.391-.524-2.225-.524-.916,0-1.674,.191-2.274,.575-.6,.383-.899,.892-.899,1.524,0,.467,.254,.837,.763,1.112,.508,.275,1.37,.496,2.587,.663,1.933,.267,3.295,.695,4.086,1.287,.792,.591,1.188,1.412,1.188,2.462,0,.767-.229,1.445-.688,2.037-.458,.591-1.087,1.049-1.887,1.375-.8,.325-1.717,.487-2.75,.487-1.199,0-2.27-.204-3.211-.612s-1.787-.971-2.537-1.687l1.3-1.25Z"/>
    <path d="M140.919,74.659c-.866,0-1.537-.237-2.012-.712-.476-.475-.713-1.146-.713-2.012v-7.998h-2.549v-1.575h2.549v-3.599h1.85v3.599h3.6v1.575h-3.6v7.848c0,.85,.425,1.275,1.274,1.275h2.5v1.6h-2.899Z"/>
    <path d="M146.42,58.676c-.267-.258-.4-.571-.4-.938,0-.383,.134-.704,.4-.962s.583-.387,.949-.387c.384,0,.704,.129,.963,.387,.258,.258,.387,.579,.387,.962,0,.367-.129,.679-.387,.938-.259,.258-.579,.387-.963,.387-.366,0-.683-.129-.949-.387Zm.024,15.983v-12.297h1.85v12.297h-1.85Z"/>
    <path d="M154.368,74.209c-.982-.567-1.753-1.341-2.312-2.325-.559-.983-.837-2.108-.837-3.374s.278-2.391,.837-3.374c.559-.983,1.329-1.758,2.312-2.325,.983-.566,2.1-.85,3.35-.85,1.267,0,2.387,.283,3.361,.85,.976,.566,1.741,1.341,2.3,2.325,.559,.983,.837,2.107,.837,3.374s-.278,2.391-.837,3.374c-.559,.983-1.324,1.758-2.3,2.325-.975,.566-2.095,.85-3.361,.85-1.25,0-2.366-.283-3.35-.85Zm5.724-1.4c.684-.417,1.217-.996,1.6-1.737,.384-.742,.575-1.596,.575-2.562s-.191-1.82-.575-2.562c-.383-.741-.916-1.32-1.6-1.737-.683-.417-1.475-.625-2.374-.625s-1.691,.208-2.374,.625c-.684,.417-1.217,.996-1.6,1.737-.384,.742-.575,1.596-.575,2.562s.191,1.82,.575,2.562c.383,.741,.916,1.32,1.6,1.737,.683,.417,1.475,.625,2.374,.625s1.691-.208,2.374-.625Z"/>
    <path d="M176.567,74.659v-7.098c0-1.316-.3-2.308-.9-2.975-.6-.667-1.408-1-2.424-1-.733,0-1.425,.191-2.075,.575-.649,.383-1.175,.983-1.574,1.8-.4,.816-.6,1.875-.6,3.174v5.523h-1.85v-12.297h1.824v2.574c.417-1.083,1.046-1.85,1.887-2.299,.842-.45,1.746-.675,2.712-.675,1.5,0,2.683,.462,3.55,1.387,.866,.925,1.3,2.262,1.3,4.011v7.298h-1.85Z"/>
    <path d="M183.231,74.547c-.708-.342-1.258-.804-1.649-1.387-.392-.583-.588-1.25-.588-2,0-.867,.242-1.604,.726-2.212,.483-.608,1.146-1.071,1.986-1.387,.842-.317,1.796-.475,2.862-.475h3.799v-.125c0-1.033-.333-1.858-1-2.474-.666-.617-1.565-.925-2.699-.925-.816,0-1.554,.175-2.212,.525-.658,.35-1.237,.825-1.737,1.424l-1.299-1.25c.683-.733,1.453-1.3,2.312-1.7s1.837-.6,2.937-.6,2.062,.204,2.887,.612c.825,.408,1.467,.979,1.925,1.712,.458,.733,.688,1.6,.688,2.6v7.773h-1.774v-1.725c-.5,.667-1.158,1.187-1.975,1.562s-1.725,.562-2.725,.562c-.933,0-1.754-.171-2.462-.512Zm5.437-1.775c.8-.491,1.366-1.154,1.699-1.987v-2.2h-3.549c-1.116,0-2.046,.204-2.787,.613-.741,.408-1.112,1.045-1.112,1.912,0,.733,.275,1.316,.825,1.75,.55,.434,1.274,.65,2.174,.65,1.033,0,1.95-.246,2.75-.737Z"/>
    <path d="M213.34,74.659v-7.098c0-1.316-.279-2.308-.838-2.975-.558-.667-1.304-1-2.236-1-.684,0-1.333,.191-1.95,.575-.616,.383-1.112,.983-1.486,1.8-.375,.816-.562,1.875-.562,3.174v5.523h-1.85v-7.098c0-1.316-.279-2.308-.838-2.975-.558-.667-1.304-1-2.236-1-.684,0-1.333,.191-1.95,.575-.616,.383-1.111,.983-1.486,1.8s-.562,1.875-.562,3.174v5.523h-1.85v-12.297h1.824v2.524c.4-1.066,1-1.82,1.8-2.262,.8-.441,1.649-.662,2.549-.662,1.05,0,1.929,.271,2.638,.812,.708,.542,1.212,1.321,1.512,2.337,.4-1.116,1.029-1.92,1.887-2.412,.858-.492,1.779-.737,2.762-.737,1.483,0,2.642,.462,3.475,1.387s1.25,2.262,1.25,4.011v7.298h-1.85Z"/>
    <path d="M221.093,74.209c-.982-.567-1.753-1.341-2.312-2.325-.559-.983-.837-2.108-.837-3.374s.278-2.391,.837-3.374c.559-.983,1.329-1.758,2.312-2.325,.983-.566,2.1-.85,3.35-.85,1.267,0,2.387,.283,3.361,.85,.976,.566,1.741,1.341,2.3,2.325,.559,.983,.837,2.107,.837,3.374s-.278,2.391-.837,3.374c-.559,.983-1.324,1.758-2.3,2.325-.975,.566-2.095,.85-3.361,.85-1.25,0-2.366-.283-3.35-.85Zm5.724-1.4c.684-.417,1.217-.996,1.6-1.737,.384-.742,.575-1.596,.575-2.562s-.191-1.82-.575-2.562c-.383-.741-.916-1.32-1.6-1.737-.683-.417-1.475-.625-2.374-.625s-1.691,.208-2.374,.625c-.684,.417-1.217,.996-1.6,1.737-.384,.742-.575,1.596-.575,2.562s.191,1.82,.575,2.562c.383,.741,.916,1.32,1.6,1.737,.683,.417,1.475,.625,2.374,.625s1.691-.208,2.374-.625Z"/>
    <path d="M234.119,71.51c.583,.617,1.241,1.1,1.975,1.45,.732,.35,1.558,.525,2.474,.525,1,0,1.821-.212,2.462-.637,.642-.425,.963-.971,.963-1.637,0-.583-.271-1.037-.812-1.362-.542-.325-1.454-.579-2.737-.762-1.866-.267-3.178-.67-3.937-1.212-.758-.542-1.137-1.271-1.137-2.187,0-.75,.217-1.404,.649-1.962,.434-.558,1.033-.991,1.8-1.299,.767-.309,1.642-.462,2.624-.462,1.101,0,2.083,.2,2.95,.6,.866,.4,1.633,.966,2.299,1.7l-1.3,1.25c-.5-.616-1.074-1.1-1.725-1.45-.649-.35-1.391-.524-2.225-.524-.916,0-1.674,.191-2.274,.575-.6,.383-.899,.892-.899,1.524,0,.467,.254,.837,.763,1.112,.508,.275,1.37,.496,2.587,.663,1.933,.267,3.295,.695,4.086,1.287,.792,.591,1.188,1.412,1.188,2.462,0,.767-.229,1.445-.688,2.037-.458,.591-1.087,1.049-1.887,1.375-.8,.325-1.717,.487-2.75,.487-1.199,0-2.27-.204-3.211-.612s-1.787-.971-2.537-1.687l1.3-1.25Z"/>
    <path d="M269.439,74.659v-7.098c0-1.316-.279-2.308-.838-2.975-.558-.667-1.304-1-2.236-1-.684,0-1.333,.191-1.95,.575-.616,.383-1.112,.983-1.486,1.8-.375,.816-.562,1.875-.562,3.174v5.523h-1.85v-7.098c0-1.316-.279-2.308-.838-2.975-.558-.667-1.304-1-2.236-1-.684,0-1.333,.191-1.95,.575-.616,.383-1.111,.983-1.486,1.8s-.562,1.875-.562,3.174v5.523h-1.85v-12.297h1.824v2.524c.4-1.066,1-1.82,1.8-2.262,.8-.441,1.649-.662,2.549-.662,1.05,0,1.929,.271,2.638,.812,.708,.542,1.212,1.321,1.512,2.337,.4-1.116,1.029-1.92,1.887-2.412,.858-.492,1.779-.737,2.762-.737,1.483,0,2.642,.462,3.475,1.387s1.25,2.262,1.25,4.011v7.298h-1.85Z"/>
    <path d="M276.105,74.547c-.709-.342-1.259-.804-1.65-1.387-.392-.583-.587-1.25-.587-2,0-.867,.241-1.604,.725-2.212,.483-.608,1.146-1.071,1.987-1.387,.842-.317,1.795-.475,2.861-.475h3.8v-.125c0-1.033-.334-1.858-1-2.474-.667-.617-1.566-.925-2.699-.925-.816,0-1.554,.175-2.212,.525-.658,.35-1.237,.825-1.737,1.424l-1.3-1.25c.684-.733,1.454-1.3,2.312-1.7,.857-.4,1.837-.6,2.937-.6s2.062,.204,2.887,.612c.824,.408,1.466,.979,1.925,1.712,.458,.733,.687,1.6,.687,2.6v7.773h-1.774v-1.725c-.5,.667-1.158,1.187-1.975,1.562s-1.725,.562-2.724,.562c-.934,0-1.754-.171-2.462-.512Zm5.436-1.775c.8-.491,1.366-1.154,1.7-1.987v-2.2h-3.55c-1.116,0-2.045,.204-2.786,.613-.742,.408-1.112,1.045-1.112,1.912,0,.733,.274,1.316,.824,1.75,.55,.434,1.275,.65,2.175,.65,1.033,0,1.949-.246,2.749-.737Z"/>
    <path d="M294.967,63.962h-.5c-.733,0-1.425,.191-2.075,.575-.649,.383-1.175,.983-1.574,1.8-.4,.816-.6,1.875-.6,3.174v5.149h-1.85v-12.297h1.824v2.774c.434-1.083,1.066-1.85,1.899-2.3,.833-.45,1.7-.675,2.6-.675h.275v1.8Z"/>
    <path d="M307.915,72.685c-.566,.733-1.278,1.312-2.137,1.737s-1.829,.637-2.912,.637c-1.249,0-2.361-.283-3.336-.85-.975-.567-1.741-1.341-2.3-2.325-.559-.983-.837-2.108-.837-3.374s.278-2.391,.837-3.374c.559-.983,1.329-1.758,2.312-2.325,.983-.566,2.1-.85,3.35-.85,1.083,0,2.05,.212,2.899,.637s1.558,1.004,2.124,1.737l-1.324,1.225c-.4-.6-.899-1.079-1.5-1.438-.6-.358-1.333-.537-2.199-.537-.899,0-1.691,.208-2.374,.625-.684,.417-1.217,.996-1.6,1.737-.384,.742-.575,1.596-.575,2.562s.191,1.82,.575,2.562c.383,.741,.916,1.32,1.6,1.737,.683,.417,1.475,.625,2.374,.625,.866,0,1.6-.179,2.199-.538,.601-.358,1.1-.837,1.5-1.437l1.324,1.225Z"/>
    <path d="M312.08,74.547c-.708-.342-1.258-.804-1.649-1.387-.392-.583-.588-1.25-.588-2,0-.867,.242-1.604,.726-2.212,.483-.608,1.146-1.071,1.986-1.387,.842-.317,1.796-.475,2.862-.475h3.799v-.125c0-1.033-.333-1.858-1-2.474-.666-.617-1.565-.925-2.699-.925-.816,0-1.554,.175-2.212,.525-.658,.35-1.237,.825-1.737,1.424l-1.299-1.25c.683-.733,1.453-1.3,2.312-1.7s1.837-.6,2.937-.6,2.062,.204,2.887,.612c.825,.408,1.467,.979,1.925,1.712,.458,.733,.688,1.6,.688,2.6v7.773h-1.774v-1.725c-.5,.667-1.158,1.187-1.975,1.562s-1.725,.562-2.725,.562c-.933,0-1.754-.171-2.462-.512Zm5.437-1.775c.8-.491,1.366-1.154,1.699-1.987v-2.2h-3.549c-1.116,0-2.046,.204-2.787,.613-.741,.408-1.112,1.045-1.112,1.912,0,.733,.275,1.316,.825,1.75,.55,.434,1.274,.65,2.174,.65,1.033,0,1.95-.246,2.75-.737Z"/>
    <path d="M324.593,71.51c.583,.617,1.241,1.1,1.975,1.45,.732,.35,1.558,.525,2.474,.525,1,0,1.821-.212,2.462-.637,.642-.425,.963-.971,.963-1.637,0-.583-.271-1.037-.812-1.362-.542-.325-1.454-.579-2.737-.762-1.866-.267-3.178-.67-3.937-1.212-.758-.542-1.137-1.271-1.137-2.187,0-.75,.217-1.404,.649-1.962,.434-.558,1.033-.991,1.8-1.299,.767-.309,1.642-.462,2.624-.462,1.101,0,2.083,.2,2.95,.6,.866,.4,1.633,.966,2.299,1.7l-1.3,1.25c-.5-.616-1.074-1.1-1.725-1.45-.649-.35-1.391-.524-2.225-.524-.916,0-1.674,.191-2.274,.575-.6,.383-.899,.892-.899,1.524,0,.467,.254,.837,.763,1.112,.508,.275,1.37,.496,2.587,.663,1.933,.267,3.295,.695,4.086,1.287,.792,.591,1.188,1.412,1.188,2.462,0,.767-.229,1.445-.688,2.037-.458,.591-1.087,1.049-1.887,1.375-.8,.325-1.717,.487-2.75,.487-1.199,0-2.27-.204-3.211-.612s-1.787-.971-2.537-1.687l1.3-1.25Z"/>
  </g>
  <g>
    <path d="M102.342,135.001l-1.975-4.999h-8.448l-1.974,4.999h-1.95l7.148-17.871h2.074l7.148,17.871h-2.024Zm-2.649-6.698l-3.549-8.948-3.55,8.948h7.099Z"/>
    <path d="M124.865,135.001v-7.098c0-1.316-.279-2.308-.837-2.975-.559-.667-1.304-1-2.237-1-.683,0-1.333,.191-1.949,.575s-1.112,.983-1.487,1.8-.562,1.875-.562,3.174v5.523h-1.85v-7.098c0-1.316-.279-2.308-.837-2.975-.559-.667-1.304-1-2.237-1-.683,0-1.333,.191-1.949,.575s-1.112,.983-1.487,1.8-.562,1.875-.562,3.174v5.523h-1.85v-12.297h1.825v2.524c.399-1.066,1-1.82,1.799-2.262,.8-.441,1.65-.662,2.55-.662,1.05,0,1.929,.271,2.637,.812s1.212,1.321,1.513,2.337c.399-1.116,1.028-1.92,1.887-2.412,.858-.492,1.778-.737,2.762-.737,1.483,0,2.641,.462,3.474,1.387,.834,.925,1.25,2.262,1.25,4.011v7.298h-1.85Z"/>
    <path d="M131.532,134.889c-.709-.342-1.259-.804-1.65-1.387-.392-.583-.587-1.25-.587-2,0-.867,.241-1.604,.725-2.212,.483-.608,1.146-1.071,1.987-1.387,.842-.317,1.795-.475,2.861-.475h3.8v-.125c0-1.033-.334-1.858-1-2.474-.667-.617-1.566-.925-2.699-.925-.816,0-1.554,.175-2.212,.525-.658,.35-1.237,.825-1.737,1.424l-1.3-1.25c.684-.733,1.454-1.3,2.312-1.7,.857-.4,1.837-.6,2.937-.6s2.062,.204,2.887,.612c.824,.408,1.466,.979,1.925,1.712,.458,.733,.687,1.6,.687,2.6v7.773h-1.774v-1.725c-.5,.667-1.158,1.187-1.975,1.562s-1.725,.562-2.724,.562c-.934,0-1.754-.171-2.462-.512Zm5.436-1.775c.8-.491,1.366-1.154,1.7-1.987v-2.2h-3.55c-1.116,0-2.045,.204-2.786,.613-.742,.408-1.112,1.045-1.112,1.912,0,.733,.274,1.316,.824,1.75,.55,.434,1.275,.65,2.175,.65,1.033,0,1.949-.246,2.749-.737Z"/>
    <path d="M153.217,135.001v-7.098c0-1.316-.3-2.308-.899-2.975s-1.408-1-2.425-1c-.733,0-1.425,.191-2.074,.575-.65,.383-1.175,.983-1.575,1.8-.399,.816-.6,1.875-.6,3.174v5.523h-1.85v-12.297h1.825v2.574c.416-1.083,1.045-1.85,1.887-2.299,.842-.45,1.745-.675,2.712-.675,1.5,0,2.683,.462,3.549,1.387s1.3,2.262,1.3,4.011v7.298h-1.85Z"/>
    <path d="M168.891,135.001v-1.975c-.433,.733-1.062,1.312-1.887,1.737-.825,.425-1.771,.637-2.837,.637-1.233,0-2.329-.283-3.287-.85-.958-.567-1.708-1.341-2.249-2.325-.542-.983-.812-2.108-.812-3.374,0-1.25,.271-2.366,.812-3.349,.541-.983,1.283-1.762,2.225-2.337,.941-.575,2.012-.862,3.212-.862,1.066,0,2.024,.242,2.874,.725,.85,.483,1.491,1.142,1.925,1.975v-7.998h1.85v17.996h-1.825Zm-8.535-3.612c.392,.742,.933,1.325,1.625,1.75,.691,.425,1.486,.637,2.387,.637,1.05,0,1.982-.271,2.799-.812s1.383-1.254,1.7-2.137v-1.6c0-1.05-.192-1.971-.575-2.762-.384-.791-.921-1.412-1.612-1.862s-1.487-.675-2.387-.675c-.883,0-1.666,.212-2.35,.637-.683,.425-1.216,1.008-1.6,1.75-.383,.742-.575,1.587-.575,2.537s.196,1.795,.588,2.537Z"/>
    <path d="M176.793,134.551c-.982-.567-1.753-1.341-2.312-2.325-.559-.983-.837-2.108-.837-3.374s.278-2.391,.837-3.374c.559-.983,1.329-1.758,2.312-2.325,.983-.566,2.1-.85,3.35-.85,1.267,0,2.387,.283,3.361,.85,.976,.566,1.741,1.341,2.3,2.325,.559,.983,.837,2.107,.837,3.374s-.278,2.391-.837,3.374c-.559,.983-1.324,1.758-2.3,2.325-.975,.566-2.095,.85-3.361,.85-1.25,0-2.366-.283-3.35-.85Zm5.724-1.4c.684-.417,1.217-.996,1.6-1.737,.384-.742,.575-1.596,.575-2.562s-.191-1.82-.575-2.562c-.383-.741-.916-1.32-1.6-1.737-.683-.417-1.475-.625-2.374-.625s-1.691,.208-2.374,.625c-.684,.417-1.217,.996-1.6,1.737-.384,.742-.575,1.596-.575,2.562s.191,1.82,.575,2.562c.383,.741,.916,1.32,1.6,1.737,.683,.417,1.475,.625,2.374,.625s1.691-.208,2.374-.625Z"/>
    <path d="M206.14,132.727c-.649,.833-1.433,1.487-2.35,1.962-.916,.475-1.966,.712-3.148,.712-1.3,0-2.462-.283-3.487-.85-1.024-.567-1.828-1.341-2.412-2.325-.583-.983-.874-2.108-.874-3.374s.278-2.391,.837-3.374c.559-.983,1.329-1.758,2.312-2.325,.983-.566,2.1-.85,3.35-.85,1.2,0,2.262,.279,3.187,.837,.925,.558,1.654,1.32,2.188,2.287s.8,2.083,.8,3.349v.725h-10.697c.149,1.283,.662,2.316,1.537,3.099,.874,.783,1.97,1.175,3.286,1.175,1.733,0,3.124-.758,4.174-2.274l1.3,1.225Zm-8.811-7.686c-.808,.741-1.295,1.72-1.462,2.937h8.723c-.149-1.216-.616-2.195-1.399-2.937-.783-.742-1.725-1.112-2.824-1.112-1.217,0-2.229,.371-3.037,1.112Z"/>
    <path d="M209.468,135.001v-17.996h1.85v17.996h-1.85Z"/>
    <path d="M219.693,139.85v-17.146h1.824v2.375c.434-.85,1.092-1.525,1.975-2.025,.883-.5,1.858-.75,2.925-.75,1.199,0,2.266,.287,3.199,.862,.933,.575,1.662,1.354,2.187,2.337,.524,.983,.787,2.099,.787,3.349,0,1.266-.271,2.391-.812,3.374-.541,.983-1.291,1.758-2.249,2.325-.958,.566-2.054,.85-3.287,.85-1.066,0-2.008-.208-2.824-.625s-1.441-.983-1.874-1.699v6.773h-1.85Zm1.85-9.022c.316,.883,.883,1.595,1.699,2.137s1.75,.812,2.8,.812c.916,0,1.716-.212,2.399-.637,.683-.425,1.22-1.008,1.611-1.75,.392-.741,.588-1.587,.588-2.537s-.188-1.795-.562-2.537c-.375-.741-.896-1.325-1.562-1.75-.666-.425-1.441-.637-2.324-.637-.899,0-1.699,.225-2.399,.675-.699,.45-1.25,1.071-1.649,1.862-.4,.792-.6,1.712-.6,2.762v1.6Z"/>
    <path d="M242.117,124.304h-.5c-.733,0-1.425,.191-2.075,.575-.649,.383-1.175,.983-1.574,1.8-.4,.816-.6,1.875-.6,3.174v5.149h-1.85v-12.297h1.824v2.774c.434-1.083,1.066-1.85,1.899-2.3,.833-.45,1.7-.675,2.6-.675h.275v1.8Z"/>
    <path d="M246.692,134.551c-.982-.567-1.753-1.341-2.312-2.325-.559-.983-.837-2.108-.837-3.374s.278-2.391,.837-3.374c.559-.983,1.329-1.758,2.312-2.325,.983-.566,2.1-.85,3.35-.85,1.267,0,2.387,.283,3.361,.85,.976,.566,1.741,1.341,2.3,2.325,.559,.983,.837,2.107,.837,3.374s-.278,2.391-.837,3.374c-.559,.983-1.324,1.758-2.3,2.325-.975,.566-2.095,.85-3.361,.85-1.25,0-2.366-.283-3.35-.85Zm5.724-1.4c.684-.417,1.217-.996,1.6-1.737,.384-.742,.575-1.596,.575-2.562s-.191-1.82-.575-2.562c-.383-.741-.916-1.32-1.6-1.737-.683-.417-1.475-.625-2.374-.625s-1.691,.208-2.374,.625c-.684,.417-1.217,.996-1.6,1.737-.384,.742-.575,1.596-.575,2.562s.191,1.82,.575,2.562c.383,.741,.916,1.32,1.6,1.737,.683,.417,1.475,.625,2.374,.625s1.691-.208,2.374-.625Z"/>
    <path d="M270.416,133.026c-.566,.733-1.279,1.312-2.137,1.737-.858,.425-1.829,.637-2.912,.637-1.25,0-2.362-.283-3.337-.85-.975-.567-1.741-1.341-2.299-2.325-.559-.983-.838-2.108-.838-3.374s.279-2.391,.838-3.374c.558-.983,1.328-1.758,2.312-2.325s2.1-.85,3.35-.85c1.083,0,2.049,.212,2.898,.637,.851,.425,1.559,1.004,2.125,1.737l-1.325,1.225c-.399-.6-.899-1.079-1.499-1.438-.6-.358-1.333-.537-2.199-.537-.9,0-1.691,.208-2.375,.625-.683,.417-1.216,.996-1.6,1.737-.383,.742-.575,1.596-.575,2.562s.192,1.82,.575,2.562c.384,.741,.917,1.32,1.6,1.737,.684,.417,1.475,.625,2.375,.625,.866,0,1.6-.179,2.199-.538,.6-.358,1.1-.837,1.499-1.437l1.325,1.225Z"/>
    <path d="M284.291,132.727c-.65,.833-1.434,1.487-2.35,1.962-.917,.475-1.967,.712-3.149,.712-1.3,0-2.462-.283-3.486-.85-1.025-.567-1.829-1.341-2.412-2.325-.583-.983-.875-2.108-.875-3.374s.279-2.391,.838-3.374c.558-.983,1.328-1.758,2.312-2.325s2.1-.85,3.35-.85c1.199,0,2.262,.279,3.187,.837,.925,.558,1.653,1.32,2.187,2.287s.8,2.083,.8,3.349v.725h-10.697c.15,1.283,.662,2.316,1.537,3.099s1.971,1.175,3.287,1.175c1.732,0,3.124-.758,4.174-2.274l1.3,1.225Zm-8.811-7.686c-.809,.741-1.296,1.72-1.462,2.937h8.723c-.15-1.216-.616-2.195-1.399-2.937-.783-.742-1.725-1.112-2.824-1.112-1.217,0-2.229,.371-3.037,1.112Z"/>
    <path d="M287.868,131.852c.583,.617,1.241,1.1,1.975,1.45,.733,.35,1.558,.525,2.475,.525,1,0,1.82-.212,2.462-.637s.962-.971,.962-1.637c0-.583-.271-1.037-.812-1.362-.541-.325-1.453-.579-2.736-.762-1.866-.267-3.179-.67-3.937-1.212s-1.138-1.271-1.138-2.187c0-.75,.217-1.404,.65-1.962,.433-.558,1.033-.991,1.8-1.299,.766-.309,1.641-.462,2.624-.462,1.1,0,2.083,.2,2.949,.6s1.633,.966,2.3,1.7l-1.3,1.25c-.5-.616-1.075-1.1-1.725-1.45-.65-.35-1.392-.524-2.225-.524-.916,0-1.675,.191-2.274,.575s-.899,.892-.899,1.524c0,.467,.254,.837,.762,1.112,.509,.275,1.371,.496,2.587,.663,1.933,.267,3.295,.695,4.087,1.287,.791,.591,1.187,1.412,1.187,2.462,0,.767-.229,1.445-.687,2.037-.459,.591-1.088,1.049-1.888,1.375-.8,.325-1.716,.487-2.749,.487-1.2,0-2.271-.204-3.212-.612s-1.787-.971-2.537-1.687l1.3-1.25Z"/>
    <path d="M303.043,134.551c-.983-.567-1.754-1.341-2.312-2.325-.559-.983-.838-2.108-.838-3.374s.279-2.391,.838-3.374c.558-.983,1.328-1.758,2.312-2.325s2.1-.85,3.35-.85c1.266,0,2.387,.283,3.361,.85s1.741,1.341,2.3,2.325c.558,.983,.837,2.107,.837,3.374s-.279,2.391-.837,3.374c-.559,.983-1.325,1.758-2.3,2.325-.975,.566-2.096,.85-3.361,.85-1.25,0-2.366-.283-3.35-.85Zm5.724-1.4c.683-.417,1.216-.996,1.6-1.737,.383-.742,.575-1.596,.575-2.562s-.192-1.82-.575-2.562c-.384-.741-.917-1.32-1.6-1.737-.684-.417-1.475-.625-2.374-.625s-1.691,.208-2.375,.625c-.683,.417-1.216,.996-1.6,1.737-.383,.742-.575,1.596-.575,2.562s.192,1.82,.575,2.562c.384,.741,.917,1.32,1.6,1.737,.684,.417,1.475,.625,2.375,.625s1.69-.208,2.374-.625Z"/>
  </g>
  <g>
    <path d="M47.906,76.291v-2.646c-.8,.984-1.831,1.753-3.091,2.307-1.262,.554-2.651,.831-4.168,.831-1.641,0-3.153-.287-4.538-.861-1.384-.574-2.594-1.379-3.63-2.415-1.035-1.036-1.835-2.256-2.399-3.661-.563-1.404-.846-2.927-.846-4.568s.282-3.158,.846-4.553c.564-1.395,1.359-2.61,2.384-3.645,1.025-1.036,2.225-1.841,3.599-2.415s2.871-.861,4.491-.861c1.887,0,3.589,.374,5.106,1.123,1.518,.748,2.769,1.769,3.753,3.061l-1.723,1.63c-.779-1.128-1.759-2.02-2.938-2.676-1.18-.656-2.579-.984-4.199-.984-1.702,0-3.225,.405-4.568,1.215-1.343,.811-2.394,1.918-3.153,3.322-.759,1.405-1.138,3-1.138,4.784s.385,3.384,1.153,4.799c.77,1.415,1.831,2.528,3.184,3.337,1.354,.811,2.902,1.215,4.645,1.215,1.62,0,3.061-.333,4.322-1,1.261-.667,2.22-1.554,2.876-2.661v-4.03h-7.444v-2.092h9.751v11.443h-2.276Z" fill="#fff"/>
    <path d="M47.384,136.205l-2.43-6.152h-10.397l-2.431,6.152h-2.399l8.798-21.995h2.554l8.798,21.995h-2.492Zm-3.261-8.244l-4.368-11.013-4.368,11.013h8.736Z" fill="#fff"/>
    <path d="M33.741,196.118v-21.995h2.369v19.873h11.259v2.122h-13.627Z" fill="#fff"/>
    <path d="M33.741,256.032v-21.994h2.369v19.872h11.259v2.122h-13.627Z" fill="#fff"/>
    <path d="M35.263,315.577c-1.385-.574-2.595-1.379-3.63-2.415-1.036-1.035-1.836-2.256-2.399-3.66-.564-1.405-.846-2.928-.846-4.568s.282-3.158,.846-4.553c.563-1.395,1.363-2.609,2.399-3.646s2.245-1.84,3.63-2.414c1.384-.574,2.896-.861,4.537-.861s3.153,.287,4.537,.861c1.385,.574,2.595,1.379,3.63,2.414s1.836,2.251,2.399,3.646c.564,1.395,.846,2.912,.846,4.553s-.282,3.163-.846,4.568c-.563,1.404-1.363,2.625-2.399,3.66-1.035,1.036-2.245,1.841-3.63,2.415-1.384,.574-2.896,.861-4.537,.861s-3.153-.287-4.537-.861Zm9.197-2.491c1.344-.801,2.395-1.908,3.153-3.322,.759-1.416,1.138-3.025,1.138-4.83s-.379-3.409-1.138-4.814c-.759-1.404-1.81-2.507-3.153-3.307-1.343-.8-2.896-1.199-4.66-1.199-1.743,0-3.292,.399-4.645,1.199s-2.41,1.902-3.168,3.307c-.759,1.405-1.138,3.01-1.138,4.814s.379,3.414,1.138,4.83c.759,1.414,1.815,2.521,3.168,3.322,1.354,.799,2.902,1.199,4.645,1.199,1.764,0,3.317-.4,4.66-1.199Z" fill="#fff"/>
  </g>
  <g>
    <path d="M89.22,195.344v-17.871h1.924v16.146h9.148v1.725h-11.072Z"/>
    <path d="M105.019,194.894c-.983-.566-1.753-1.341-2.312-2.324-.559-.983-.837-2.107-.837-3.374s.279-2.392,.837-3.374c.558-.983,1.329-1.758,2.312-2.324,.983-.567,2.1-.851,3.35-.851,1.266,0,2.387,.283,3.361,.851,.975,.566,1.741,1.341,2.3,2.324,.558,.982,.837,2.107,.837,3.374s-.279,2.391-.837,3.374c-.559,.983-1.325,1.758-2.3,2.324-.975,.566-2.095,.851-3.361,.851-1.25,0-2.366-.284-3.35-.851Zm5.724-1.399c.683-.416,1.216-.995,1.6-1.737,.383-.741,.575-1.595,.575-2.562s-.192-1.82-.575-2.562c-.383-.742-.917-1.321-1.6-1.737-.683-.417-1.475-.625-2.374-.625s-1.691,.208-2.375,.625c-.683,.416-1.216,.995-1.6,1.737-.383,.741-.575,1.595-.575,2.562s.192,1.82,.575,2.562c.383,.742,.917,1.321,1.6,1.737,.683,.417,1.475,.625,2.375,.625s1.691-.208,2.374-.625Z"/>
    <path d="M129.28,197.543c-.558,.95-1.316,1.695-2.274,2.237-.958,.541-2.054,.812-3.287,.812-1.167,0-2.221-.213-3.162-.638s-1.72-1.004-2.337-1.737l1.3-1.249c.45,.616,1.017,1.104,1.7,1.462s1.516,.537,2.5,.537c.899,0,1.691-.2,2.374-.6,.684-.4,1.217-.95,1.6-1.649,.383-.7,.575-1.508,.575-2.425v-1.074c-.45,.699-1.087,1.253-1.912,1.662-.825,.408-1.754,.612-2.787,.612-1.216,0-2.303-.271-3.262-.812-.958-.542-1.712-1.296-2.262-2.262-.55-.967-.825-2.075-.825-3.324s.279-2.358,.837-3.324c.558-.967,1.308-1.729,2.249-2.287,.942-.559,1.996-.838,3.162-.838,1,0,1.941,.226,2.824,.675,.883,.45,1.55,1.134,2,2.05v-2.324h1.825v11.247c0,1.217-.279,2.3-.837,3.249Zm-9.535-5.974c.383,.717,.92,1.279,1.612,1.688,.692,.408,1.496,.612,2.412,.612,1.033,0,1.958-.271,2.774-.812,.816-.541,1.391-1.262,1.725-2.162v-1.324c0-1.167-.217-2.142-.65-2.925s-.996-1.374-1.687-1.774c-.692-.399-1.438-.6-2.237-.6-.883,0-1.666,.213-2.349,.638s-1.216,.999-1.6,1.725c-.383,.725-.575,1.545-.575,2.462,0,.933,.192,1.758,.575,2.474Z"/>
    <path d="M140.218,184.646h-.5c-.733,0-1.425,.191-2.075,.575-.65,.383-1.175,.982-1.574,1.799-.4,.816-.6,1.875-.6,3.175v5.148h-1.85v-12.297h1.825v2.774c.433-1.083,1.066-1.85,1.899-2.3s1.7-.675,2.6-.675h.275v1.8Z"/>
    <path d="M144.207,195.231c-.708-.342-1.258-.804-1.65-1.388-.392-.583-.587-1.249-.587-1.999,0-.866,.242-1.604,.725-2.212s1.146-1.07,1.987-1.388c.842-.316,1.795-.475,2.862-.475h3.799v-.125c0-1.033-.333-1.857-1-2.475-.667-.616-1.566-.925-2.699-.925-.816,0-1.554,.176-2.212,.525s-1.237,.824-1.737,1.425l-1.299-1.25c.683-.733,1.454-1.3,2.312-1.699,.858-.4,1.837-.601,2.937-.601s2.062,.204,2.887,.612,1.466,.979,1.925,1.713c.458,.732,.687,1.6,.687,2.599v7.773h-1.774v-1.725c-.5,.667-1.158,1.188-1.975,1.562s-1.725,.562-2.724,.562c-.933,0-1.754-.171-2.462-.513Zm5.436-1.774c.8-.492,1.366-1.154,1.7-1.987v-2.199h-3.549c-1.116,0-2.045,.204-2.787,.612-.742,.408-1.112,1.045-1.112,1.912,0,.732,.275,1.316,.825,1.749,.55,.434,1.275,.65,2.174,.65,1.033,0,1.95-.246,2.75-.737Z"/>
    <path d="M165.892,195.344v-7.099c0-1.316-.3-2.308-.899-2.974-.6-.667-1.408-1-2.425-1-.732,0-1.424,.191-2.074,.575-.649,.383-1.175,.982-1.574,1.799-.4,.816-.601,1.875-.601,3.175v5.523h-1.849v-12.297h1.825v2.574c.416-1.083,1.046-1.85,1.887-2.3,.842-.449,1.746-.675,2.712-.675,1.5,0,2.683,.463,3.549,1.388,.867,.925,1.3,2.262,1.3,4.012v7.298h-1.85Z"/>
    <path d="M181.568,195.344v-1.975c-.434,.733-1.062,1.312-1.887,1.737-.825,.425-1.771,.638-2.837,.638-1.233,0-2.329-.284-3.287-.851s-1.708-1.341-2.249-2.324c-.542-.983-.812-2.107-.812-3.374,0-1.25,.271-2.366,.812-3.35,.541-.982,1.283-1.762,2.225-2.337,.941-.574,2.012-.862,3.211-.862,1.066,0,2.024,.242,2.875,.726,.85,.482,1.491,1.141,1.924,1.974v-7.998h1.85v17.996h-1.824Zm-8.535-3.611c.392,.741,.933,1.324,1.624,1.749s1.487,.638,2.387,.638c1.05,0,1.983-.271,2.8-.812,.816-.541,1.383-1.254,1.699-2.137v-1.6c0-1.05-.191-1.971-.574-2.762-.384-.792-.921-1.412-1.612-1.862s-1.487-.675-2.387-.675c-.884,0-1.667,.213-2.35,.638-.684,.425-1.217,1.008-1.6,1.749-.384,.741-.575,1.587-.575,2.537s.196,1.795,.588,2.537Z"/>
    <path d="M189.469,194.894c-.983-.566-1.754-1.341-2.312-2.324-.558-.983-.837-2.107-.837-3.374s.279-2.392,.837-3.374c.559-.983,1.329-1.758,2.312-2.324,.982-.567,2.1-.851,3.349-.851,1.267,0,2.387,.283,3.362,.851,.975,.566,1.741,1.341,2.299,2.324,.559,.982,.838,2.107,.838,3.374s-.279,2.391-.838,3.374c-.558,.983-1.324,1.758-2.299,2.324-.976,.566-2.096,.851-3.362,.851-1.249,0-2.366-.284-3.349-.851Zm5.724-1.399c.683-.416,1.216-.995,1.6-1.737,.383-.741,.574-1.595,.574-2.562s-.191-1.82-.574-2.562c-.384-.742-.917-1.321-1.6-1.737-.684-.417-1.475-.625-2.375-.625s-1.691,.208-2.374,.625c-.684,.416-1.217,.995-1.6,1.737-.384,.741-.575,1.595-.575,2.562s.191,1.82,.575,2.562c.383,.742,.916,1.321,1.6,1.737,.683,.417,1.475,.625,2.374,.625s1.691-.208,2.375-.625Z"/>
    <path d="M207.094,179.36c-.267-.259-.4-.571-.4-.938,0-.383,.134-.704,.4-.962,.267-.259,.583-.388,.95-.388,.383,0,.703,.129,.962,.388s.388,.579,.388,.962c0,.366-.13,.679-.388,.938-.259,.258-.579,.388-.962,.388-.367,0-.684-.13-.95-.388Zm.025,15.983v-12.297h1.85v12.297h-1.85Z"/>
    <path d="M221.891,195.344v-7.099c0-1.316-.3-2.308-.899-2.974-.6-.667-1.408-1-2.425-1-.732,0-1.424,.191-2.074,.575-.649,.383-1.175,.982-1.574,1.799-.4,.816-.6,1.875-.6,3.175v5.523h-1.849v-12.297h1.824v2.574c.416-1.083,1.045-1.85,1.886-2.3,.842-.449,1.746-.675,2.712-.675,1.5,0,2.683,.463,3.549,1.388,.867,.925,1.3,2.262,1.3,4.012v7.298h-1.85Z"/>
    <path d="M227.318,192.194c.584,.616,1.242,1.1,1.975,1.45,.733,.35,1.559,.524,2.475,.524,1,0,1.82-.212,2.462-.638,.642-.425,.963-.97,.963-1.637,0-.583-.271-1.037-.812-1.362-.542-.325-1.454-.579-2.737-.762-1.866-.267-3.178-.671-3.937-1.213-.758-.541-1.137-1.271-1.137-2.187,0-.75,.216-1.404,.649-1.962,.434-.559,1.033-.991,1.8-1.3s1.642-.463,2.624-.463c1.1,0,2.083,.2,2.949,.601,.867,.399,1.633,.966,2.3,1.699l-1.3,1.25c-.5-.617-1.074-1.1-1.725-1.45-.649-.35-1.392-.524-2.225-.524-.916,0-1.675,.191-2.274,.574-.6,.384-.899,.892-.899,1.525,0,.466,.254,.837,.762,1.112,.509,.274,1.371,.495,2.587,.662,1.934,.267,3.295,.695,4.087,1.287,.791,.592,1.188,1.412,1.188,2.462,0,.767-.229,1.445-.688,2.037-.458,.591-1.088,1.05-1.887,1.374-.801,.325-1.717,.488-2.75,.488-1.199,0-2.271-.205-3.212-.613s-1.787-.97-2.536-1.687l1.299-1.25Z"/>
    <path d="M239.919,200.192v-17.146h1.824v2.374c.434-.85,1.091-1.524,1.975-2.024,.883-.5,1.857-.75,2.924-.75,1.2,0,2.267,.288,3.199,.862,.934,.575,1.662,1.354,2.188,2.337,.524,.983,.787,2.1,.787,3.35,0,1.267-.271,2.391-.812,3.374-.541,.983-1.291,1.758-2.249,2.324s-2.054,.851-3.287,.851c-1.066,0-2.008-.209-2.824-.625-.816-.417-1.441-.983-1.875-1.7v6.773h-1.849Zm1.849-9.022c.317,.883,.884,1.596,1.7,2.137,.816,.542,1.749,.812,2.799,.812,.917,0,1.717-.213,2.399-.638,.684-.425,1.221-1.008,1.612-1.749,.392-.742,.588-1.588,.588-2.537s-.188-1.796-.562-2.537-.896-1.324-1.562-1.749c-.666-.425-1.441-.638-2.324-.638-.899,0-1.699,.225-2.399,.675s-1.25,1.07-1.649,1.862c-.4,.791-.601,1.712-.601,2.762v1.6Z"/>
    <path d="M255.718,179.36c-.267-.259-.4-.571-.4-.938,0-.383,.134-.704,.4-.962,.267-.259,.583-.388,.95-.388,.383,0,.703,.129,.962,.388s.388,.579,.388,.962c0,.366-.13,.679-.388,.938-.259,.258-.579,.388-.962,.388-.367,0-.684-.13-.95-.388Zm.025,15.983v-12.297h1.85v12.297h-1.85Z"/>
    <path d="M267.691,184.646h-.5c-.732,0-1.424,.191-2.074,.575-.649,.383-1.175,.982-1.574,1.799-.4,.816-.6,1.875-.6,3.175v5.148h-1.85v-12.297h1.824v2.774c.434-1.083,1.066-1.85,1.899-2.3s1.699-.675,2.6-.675h.274v1.8Z"/>
    <path d="M271.679,195.231c-.708-.342-1.258-.804-1.649-1.388-.392-.583-.587-1.249-.587-1.999,0-.866,.241-1.604,.725-2.212s1.146-1.07,1.987-1.388c.841-.316,1.795-.475,2.861-.475h3.799v-.125c0-1.033-.333-1.857-.999-2.475-.667-.616-1.566-.925-2.699-.925-.817,0-1.555,.176-2.213,.525-.657,.35-1.236,.824-1.736,1.425l-1.3-1.25c.683-.733,1.454-1.3,2.312-1.699,.858-.4,1.837-.601,2.938-.601s2.062,.204,2.887,.612c.824,.408,1.466,.979,1.924,1.713,.459,.732,.688,1.6,.688,2.599v7.773h-1.774v-1.725c-.5,.667-1.158,1.188-1.975,1.562s-1.725,.562-2.725,.562c-.933,0-1.753-.171-2.462-.513Zm5.437-1.774c.8-.492,1.366-1.154,1.699-1.987v-2.199h-3.549c-1.116,0-2.045,.204-2.787,.612-.741,.408-1.112,1.045-1.112,1.912,0,.732,.275,1.316,.825,1.749,.55,.434,1.274,.65,2.175,.65,1.033,0,1.949-.246,2.749-.737Z"/>
    <path d="M290.541,184.646h-.5c-.732,0-1.424,.191-2.074,.575-.649,.383-1.175,.982-1.574,1.799-.4,.816-.6,1.875-.6,3.175v5.148h-1.85v-12.297h1.824v2.774c.434-1.083,1.066-1.85,1.899-2.3s1.699-.675,2.6-.675h.274v1.8Z"/>
  </g>
  <g>
    <path d="M89.219,255.687v-17.871h1.924v16.146h9.148v1.725h-11.072Z"/>
    <path d="M102.92,239.703c-.267-.259-.4-.571-.4-.938,0-.383,.133-.704,.4-.962,.267-.259,.583-.388,.95-.388,.383,0,.704,.129,.962,.388,.258,.258,.387,.579,.387,.962,0,.366-.129,.679-.387,.938-.258,.258-.579,.387-.962,.387-.367,0-.683-.129-.95-.387Zm.025,15.983v-12.297h1.85v12.297h-1.85Z"/>
    <path d="M118.792,255.687v-1.975c-.433,.733-1.062,1.312-1.887,1.737s-1.771,.637-2.837,.637c-1.233,0-2.329-.283-3.287-.85s-1.708-1.341-2.25-2.324-.812-2.107-.812-3.374c0-1.25,.271-2.366,.812-3.35,.542-.982,1.283-1.762,2.225-2.337,.941-.574,2.012-.862,3.212-.862,1.066,0,2.024,.242,2.874,.726,.85,.482,1.491,1.141,1.925,1.975v-7.998h1.85v17.995h-1.825Zm-8.536-3.611c.392,.741,.933,1.324,1.625,1.749,.691,.425,1.487,.638,2.387,.638,1.05,0,1.983-.271,2.799-.812,.816-.541,1.383-1.254,1.7-2.137v-1.6c0-1.05-.192-1.971-.575-2.762-.383-.792-.92-1.412-1.612-1.862s-1.487-.675-2.387-.675c-.883,0-1.666,.213-2.349,.638s-1.216,1.008-1.6,1.749-.575,1.587-.575,2.537,.196,1.795,.587,2.537Z"/>
    <path d="M135.816,253.412c-.65,.833-1.433,1.487-2.35,1.962s-1.966,.712-3.149,.712c-1.3,0-2.462-.283-3.487-.85s-1.829-1.341-2.412-2.324c-.583-.983-.875-2.107-.875-3.374s.279-2.392,.837-3.374c.558-.983,1.329-1.758,2.312-2.324,.983-.567,2.1-.851,3.35-.851,1.2,0,2.262,.279,3.187,.838,.925,.558,1.654,1.32,2.187,2.287,.533,.966,.8,2.082,.8,3.349v.725h-10.697c.15,1.283,.662,2.316,1.537,3.1,.875,.783,1.97,1.175,3.287,1.175,1.733,0,3.124-.758,4.174-2.274l1.3,1.225Zm-8.811-7.686c-.808,.741-1.295,1.721-1.462,2.937h8.723c-.15-1.216-.616-2.195-1.399-2.937s-1.725-1.112-2.824-1.112c-1.217,0-2.229,.371-3.037,1.112Z"/>
    <path d="M145.742,244.989h-.5c-.733,0-1.425,.191-2.075,.575-.65,.383-1.174,.982-1.575,1.799-.399,.816-.6,1.875-.6,3.175v5.148h-1.85v-12.297h1.825v2.774c.433-1.083,1.066-1.85,1.899-2.3s1.7-.675,2.6-.675h.275v1.8Z"/>
    <path d="M149.731,255.574c-.708-.342-1.258-.804-1.65-1.388-.392-.583-.587-1.249-.587-1.999,0-.866,.241-1.604,.725-2.212s1.146-1.07,1.987-1.388c.842-.316,1.795-.475,2.862-.475h3.799v-.125c0-1.033-.333-1.857-1-2.475-.667-.616-1.566-.925-2.699-.925-.816,0-1.554,.176-2.212,.525s-1.237,.824-1.737,1.425l-1.299-1.25c.683-.733,1.454-1.3,2.312-1.699,.858-.4,1.837-.601,2.937-.601s2.062,.204,2.887,.612,1.466,.979,1.925,1.713c.458,.732,.687,1.6,.687,2.599v7.773h-1.774v-1.725c-.5,.667-1.158,1.188-1.975,1.562s-1.725,.562-2.724,.562c-.933,0-1.754-.17-2.462-.512Zm5.436-1.774c.8-.492,1.366-1.154,1.7-1.987v-2.199h-3.549c-1.116,0-2.045,.204-2.787,.612-.742,.408-1.112,1.045-1.112,1.912,0,.732,.275,1.316,.825,1.749,.55,.434,1.275,.65,2.174,.65,1.033,0,1.95-.246,2.75-.737Z"/>
    <path d="M171.416,255.687v-7.099c0-1.316-.3-2.308-.899-2.974-.601-.667-1.408-1-2.425-1-.733,0-1.425,.191-2.074,.575-.65,.383-1.175,.982-1.575,1.799-.399,.816-.6,1.875-.6,3.175v5.523h-1.85v-12.297h1.824v2.574c.417-1.083,1.046-1.85,1.888-2.3,.841-.449,1.745-.675,2.712-.675,1.499,0,2.683,.463,3.549,1.388s1.3,2.262,1.3,4.012v7.298h-1.85Z"/>
    <path d="M187.091,255.687v-1.975c-.434,.733-1.062,1.312-1.887,1.737-.825,.425-1.771,.637-2.837,.637-1.233,0-2.329-.283-3.287-.85s-1.708-1.341-2.249-2.324c-.542-.983-.812-2.107-.812-3.374,0-1.25,.271-2.366,.812-3.35,.541-.982,1.283-1.762,2.225-2.337,.941-.574,2.012-.862,3.211-.862,1.066,0,2.024,.242,2.875,.726,.85,.482,1.491,1.141,1.924,1.975v-7.998h1.85v17.995h-1.824Zm-8.535-3.611c.392,.741,.933,1.324,1.624,1.749s1.487,.638,2.387,.638c1.05,0,1.983-.271,2.8-.812,.816-.541,1.383-1.254,1.699-2.137v-1.6c0-1.05-.191-1.971-.574-2.762-.384-.792-.921-1.412-1.612-1.862s-1.487-.675-2.387-.675c-.884,0-1.667,.213-2.35,.638-.684,.425-1.217,1.008-1.6,1.749-.384,.741-.575,1.587-.575,2.537s.196,1.795,.588,2.537Z"/>
    <path d="M194.993,255.236c-.983-.566-1.754-1.341-2.312-2.324-.558-.983-.837-2.107-.837-3.374s.279-2.392,.837-3.374c.559-.983,1.329-1.758,2.312-2.324,.982-.567,2.1-.851,3.349-.851,1.267,0,2.387,.283,3.362,.851,.975,.566,1.741,1.341,2.299,2.324,.559,.982,.838,2.107,.838,3.374s-.279,2.391-.838,3.374c-.558,.983-1.324,1.758-2.299,2.324-.976,.566-2.096,.85-3.362,.85-1.249,0-2.366-.283-3.349-.85Zm5.724-1.399c.683-.417,1.216-.995,1.6-1.737,.383-.741,.574-1.595,.574-2.562s-.191-1.82-.574-2.562c-.384-.742-.917-1.321-1.6-1.737-.684-.417-1.475-.625-2.375-.625s-1.691,.208-2.374,.625c-.684,.416-1.217,.995-1.6,1.737-.384,.741-.575,1.595-.575,2.562s.191,1.82,.575,2.562c.383,.742,.916,1.32,1.6,1.737,.683,.417,1.475,.625,2.374,.625s1.691-.208,2.375-.625Z"/>
    <path d="M223.592,253.712c-.567,.733-1.279,1.312-2.138,1.737-.857,.425-1.828,.637-2.911,.637-1.25,0-2.362-.283-3.337-.85-.975-.566-1.742-1.341-2.3-2.324-.558-.983-.837-2.107-.837-3.374s.279-2.392,.837-3.374c.559-.983,1.329-1.758,2.313-2.324,.982-.567,2.1-.851,3.349-.851,1.083,0,2.05,.213,2.899,.638s1.558,1.004,2.125,1.737l-1.325,1.225c-.399-.6-.899-1.079-1.499-1.438-.601-.358-1.333-.537-2.2-.537-.899,0-1.691,.208-2.374,.625-.684,.416-1.217,.995-1.6,1.737-.384,.741-.576,1.595-.576,2.562s.191,1.82,.576,2.562c.383,.742,.916,1.32,1.6,1.737,.683,.417,1.475,.625,2.374,.625,.867,0,1.6-.18,2.2-.537,.6-.358,1.1-.838,1.499-1.438l1.325,1.225Z"/>
    <path d="M228.343,255.236c-.983-.566-1.754-1.341-2.312-2.324-.558-.983-.837-2.107-.837-3.374s.279-2.392,.837-3.374c.559-.983,1.329-1.758,2.312-2.324,.982-.567,2.1-.851,3.349-.851,1.267,0,2.387,.283,3.362,.851,.975,.566,1.741,1.341,2.299,2.324,.559,.982,.838,2.107,.838,3.374s-.279,2.391-.838,3.374c-.558,.983-1.324,1.758-2.299,2.324-.976,.566-2.096,.85-3.362,.85-1.249,0-2.366-.283-3.349-.85Zm5.724-1.399c.683-.417,1.216-.995,1.6-1.737,.383-.741,.574-1.595,.574-2.562s-.191-1.82-.574-2.562c-.384-.742-.917-1.321-1.6-1.737-.684-.417-1.475-.625-2.375-.625s-1.691,.208-2.374,.625c-.684,.416-1.217,.995-1.6,1.737-.384,.741-.575,1.595-.575,2.562s.191,1.82,.575,2.562c.383,.742,.916,1.32,1.6,1.737,.683,.417,1.475,.625,2.374,.625s1.691-.208,2.375-.625Z"/>
    <path d="M250.542,255.687v-7.099c0-1.316-.3-2.308-.899-2.974-.6-.667-1.408-1-2.425-1-.732,0-1.424,.191-2.074,.575-.649,.383-1.175,.982-1.574,1.799-.4,.816-.6,1.875-.6,3.175v5.523h-1.85v-12.297h1.824v2.574c.416-1.083,1.046-1.85,1.887-2.3,.842-.449,1.746-.675,2.712-.675,1.5,0,2.683,.463,3.549,1.388,.867,.925,1.3,2.262,1.3,4.012v7.298h-1.85Z"/>
    <path d="M271.542,253.712c-.566,.733-1.279,1.312-2.138,1.737-.857,.425-1.828,.637-2.911,.637-1.25,0-2.362-.283-3.337-.85s-1.741-1.341-2.3-2.324c-.558-.983-.837-2.107-.837-3.374s.279-2.392,.837-3.374c.559-.983,1.329-1.758,2.312-2.324,.982-.567,2.1-.851,3.349-.851,1.083,0,2.05,.213,2.899,.638s1.559,1.004,2.125,1.737l-1.325,1.225c-.399-.6-.899-1.079-1.499-1.438-.601-.358-1.333-.537-2.2-.537-.899,0-1.691,.208-2.374,.625-.684,.416-1.217,.995-1.6,1.737-.384,.741-.575,1.595-.575,2.562s.191,1.82,.575,2.562c.383,.742,.916,1.32,1.6,1.737,.683,.417,1.475,.625,2.374,.625,.867,0,1.6-.18,2.2-.537,.6-.358,1.1-.838,1.499-1.438l1.325,1.225Z"/>
    <path d="M280.817,244.989h-.5c-.732,0-1.424,.191-2.074,.575-.649,.383-1.175,.982-1.574,1.799-.4,.816-.6,1.875-.6,3.175v5.148h-1.85v-12.297h1.824v2.774c.434-1.083,1.066-1.85,1.899-2.3s1.699-.675,2.6-.675h.274v1.8Z"/>
    <path d="M294.515,253.412c-.649,.833-1.433,1.487-2.349,1.962-.917,.475-1.967,.712-3.149,.712-1.3,0-2.462-.283-3.487-.85-1.024-.566-1.828-1.341-2.411-2.324s-.875-2.107-.875-3.374,.279-2.392,.837-3.374c.559-.983,1.329-1.758,2.312-2.324,.982-.567,2.1-.851,3.349-.851,1.2,0,2.263,.279,3.187,.838,.925,.558,1.654,1.32,2.188,2.287,.533,.966,.8,2.082,.8,3.349v.725h-10.697c.149,1.283,.662,2.316,1.537,3.1s1.97,1.175,3.286,1.175c1.733,0,3.125-.758,4.175-2.274l1.299,1.225Zm-8.81-7.686c-.809,.741-1.296,1.721-1.463,2.937h8.724c-.15-1.216-.617-2.195-1.4-2.937s-1.725-1.112-2.824-1.112c-1.216,0-2.229,.371-3.036,1.112Z"/>
    <path d="M299.331,255.574c-.708-.342-1.258-.804-1.649-1.388-.392-.583-.587-1.249-.587-1.999,0-.866,.241-1.604,.725-2.212s1.146-1.07,1.987-1.388c.841-.316,1.795-.475,2.861-.475h3.799v-.125c0-1.033-.333-1.857-.999-2.475-.667-.616-1.566-.925-2.699-.925-.817,0-1.555,.176-2.213,.525-.657,.35-1.236,.824-1.736,1.425l-1.3-1.25c.683-.733,1.454-1.3,2.312-1.699,.858-.4,1.837-.601,2.938-.601s2.062,.204,2.887,.612c.824,.408,1.466,.979,1.924,1.713,.459,.732,.688,1.6,.688,2.599v7.773h-1.774v-1.725c-.5,.667-1.158,1.188-1.975,1.562s-1.725,.562-2.725,.562c-.933,0-1.753-.17-2.462-.512Zm5.437-1.774c.8-.492,1.366-1.154,1.699-1.987v-2.199h-3.549c-1.116,0-2.045,.204-2.787,.612-.741,.408-1.112,1.045-1.112,1.912,0,.732,.275,1.316,.825,1.749,.55,.434,1.274,.65,2.175,.65,1.033,0,1.949-.246,2.749-.737Z"/>
    <path d="M315.868,255.687c-.866,0-1.537-.237-2.012-.712-.475-.476-.713-1.146-.713-2.013v-7.998h-2.549v-1.574h2.549v-3.6h1.85v3.6h3.6v1.574h-3.6v7.849c0,.85,.425,1.274,1.275,1.274h2.499v1.6h-2.899Z"/>
    <path d="M321.369,239.703c-.267-.259-.4-.571-.4-.938,0-.383,.134-.704,.4-.962,.267-.259,.583-.388,.95-.388,.383,0,.703,.129,.962,.388s.388,.579,.388,.962c0,.366-.13,.679-.388,.938-.259,.258-.579,.387-.962,.387-.367,0-.684-.129-.95-.387Zm.025,15.983v-12.297h1.849v12.297h-1.849Z"/>
    <path d="M330.793,255.687l-5.299-12.297h1.999l4.249,10.348,4.274-10.348h1.899l-5.299,12.297h-1.824Z"/>
    <path d="M340.143,239.703c-.267-.259-.4-.571-.4-.938,0-.383,.134-.704,.4-.962,.267-.259,.583-.388,.95-.388,.383,0,.703,.129,.962,.388s.388,.579,.388,.962c0,.366-.13,.679-.388,.938-.259,.258-.579,.387-.962,.387-.367,0-.684-.129-.95-.387Zm.025,15.983v-12.297h1.85v12.297h-1.85Z"/>
    <path d="M356.015,255.687v-1.975c-.434,.733-1.062,1.312-1.887,1.737-.825,.425-1.771,.637-2.837,.637-1.233,0-2.329-.283-3.287-.85s-1.708-1.341-2.249-2.324c-.542-.983-.812-2.107-.812-3.374,0-1.25,.271-2.366,.812-3.35,.541-.982,1.283-1.762,2.225-2.337,.941-.574,2.012-.862,3.211-.862,1.066,0,2.024,.242,2.875,.726,.85,.482,1.491,1.141,1.924,1.975v-7.998h1.85v17.995h-1.824Zm-8.535-3.611c.392,.741,.933,1.324,1.624,1.749s1.487,.638,2.387,.638c1.05,0,1.983-.271,2.8-.812,.816-.541,1.383-1.254,1.699-2.137v-1.6c0-1.05-.191-1.971-.574-2.762-.384-.792-.921-1.412-1.612-1.862s-1.487-.675-2.387-.675c-.884,0-1.667,.213-2.35,.638-.684,.425-1.217,1.008-1.6,1.749-.384,.741-.575,1.587-.575,2.537s.196,1.795,.588,2.537Z"/>
    <path d="M362.829,255.574c-.708-.342-1.258-.804-1.649-1.388-.392-.583-.587-1.249-.587-1.999,0-.866,.241-1.604,.725-2.212s1.146-1.07,1.987-1.388c.841-.316,1.795-.475,2.861-.475h3.799v-.125c0-1.033-.333-1.857-.999-2.475-.667-.616-1.566-.925-2.699-.925-.817,0-1.555,.176-2.213,.525-.657,.35-1.236,.824-1.736,1.425l-1.3-1.25c.683-.733,1.454-1.3,2.312-1.699,.858-.4,1.837-.601,2.938-.601s2.062,.204,2.887,.612c.824,.408,1.466,.979,1.924,1.713,.459,.732,.688,1.6,.688,2.599v7.773h-1.774v-1.725c-.5,.667-1.158,1.188-1.975,1.562s-1.725,.562-2.725,.562c-.933,0-1.753-.17-2.462-.512Zm5.437-1.774c.8-.492,1.366-1.154,1.699-1.987v-2.199h-3.549c-1.116,0-2.045,.204-2.787,.612-.741,.408-1.112,1.045-1.112,1.912,0,.732,.275,1.316,.825,1.749,.55,.434,1.274,.65,2.175,.65,1.033,0,1.949-.246,2.749-.737Z"/>
    <path d="M385.59,255.687v-1.975c-.434,.733-1.062,1.312-1.887,1.737-.825,.425-1.771,.637-2.837,.637-1.233,0-2.329-.283-3.287-.85s-1.708-1.341-2.249-2.324c-.542-.983-.812-2.107-.812-3.374,0-1.25,.271-2.366,.812-3.35,.541-.982,1.283-1.762,2.225-2.337,.941-.574,2.012-.862,3.211-.862,1.066,0,2.024,.242,2.875,.726,.85,.482,1.491,1.141,1.924,1.975v-7.998h1.85v17.995h-1.824Zm-8.535-3.611c.392,.741,.933,1.324,1.624,1.749s1.487,.638,2.387,.638c1.05,0,1.983-.271,2.8-.812,.816-.541,1.383-1.254,1.699-2.137v-1.6c0-1.05-.191-1.971-.574-2.762-.384-.792-.921-1.412-1.612-1.862s-1.487-.675-2.387-.675c-.884,0-1.667,.213-2.35,.638-.684,.425-1.217,1.008-1.6,1.749-.384,.741-.575,1.587-.575,2.537s.196,1.795,.588,2.537Z"/>
  </g>
  <g>
    <path d="M94.056,315.729c-1.125-.467-2.108-1.121-2.949-1.962-.842-.842-1.492-1.833-1.95-2.975s-.688-2.379-.688-3.712,.229-2.565,.688-3.698c.458-1.134,1.108-2.121,1.95-2.962,.841-.842,1.824-1.496,2.949-1.962,1.125-.467,2.354-.7,3.687-.7s2.562,.233,3.687,.7c1.125,.466,2.108,1.12,2.949,1.962,.841,.841,1.491,1.828,1.95,2.962,.458,1.133,.687,2.365,.687,3.698s-.229,2.57-.687,3.712c-.458,1.142-1.108,2.133-1.95,2.975-.841,.841-1.825,1.495-2.949,1.962s-2.354,.7-3.687,.7-2.562-.233-3.687-.7Zm7.473-2.024c1.091-.65,1.945-1.55,2.562-2.699,.617-1.15,.925-2.458,.925-3.925s-.308-2.77-.925-3.911c-.616-1.142-1.47-2.037-2.562-2.687-1.091-.65-2.354-.975-3.787-.975-1.417,0-2.674,.324-3.774,.975-1.1,.649-1.958,1.545-2.575,2.687-.616,1.142-.925,2.445-.925,3.911s.309,2.774,.925,3.925c.617,1.149,1.475,2.049,2.575,2.699,1.1,.649,2.357,.975,3.774,.975,1.433,0,2.695-.325,3.787-.975Z"/>
    <path d="M116.743,305.331h-.5c-.733,0-1.425,.191-2.075,.575-.65,.383-1.174,.982-1.575,1.799-.399,.816-.6,1.875-.6,3.175v5.148h-1.85v-12.297h1.825v2.774c.433-1.083,1.066-1.85,1.899-2.3s1.7-.675,2.6-.675h.275v1.8Z"/>
    <path d="M119.22,300.045c-.267-.259-.4-.571-.4-.938,0-.383,.133-.704,.4-.962,.267-.259,.583-.388,.95-.388,.383,0,.704,.129,.962,.388,.258,.258,.387,.579,.387,.962,0,.366-.129,.679-.387,.938-.258,.258-.579,.388-.962,.388-.367,0-.683-.13-.95-.388Zm.025,15.983v-12.297h1.85v12.297h-1.85Z"/>
    <path d="M136.292,313.754c-.65,.833-1.433,1.487-2.35,1.962s-1.966,.713-3.149,.713c-1.3,0-2.462-.284-3.487-.851s-1.829-1.341-2.412-2.324c-.583-.983-.875-2.107-.875-3.374s.279-2.392,.837-3.374c.558-.983,1.329-1.758,2.312-2.324,.983-.567,2.1-.851,3.35-.851,1.2,0,2.262,.279,3.187,.838,.925,.558,1.654,1.32,2.187,2.287,.533,.966,.8,2.082,.8,3.349v.725h-10.697c.15,1.283,.662,2.316,1.537,3.1,.875,.783,1.97,1.175,3.287,1.175,1.733,0,3.124-.758,4.174-2.274l1.3,1.225Zm-8.811-7.686c-.808,.741-1.295,1.721-1.462,2.937h8.723c-.15-1.216-.616-2.195-1.399-2.937s-1.725-1.112-2.824-1.112c-1.217,0-2.229,.371-3.037,1.112Z"/>
    <path d="M149.042,316.028v-7.099c0-1.316-.3-2.308-.9-2.974-.6-.667-1.408-1-2.424-1-.733,0-1.425,.191-2.075,.575-.65,.383-1.174,.982-1.575,1.799-.399,.816-.6,1.875-.6,3.175v5.523h-1.85v-12.297h1.825v2.574c.417-1.083,1.045-1.85,1.887-2.3,.842-.449,1.746-.675,2.712-.675,1.5,0,2.683,.463,3.549,1.388,.866,.925,1.3,2.262,1.3,4.012v7.298h-1.85Z"/>
    <path d="M158.493,316.028c-.866,0-1.537-.237-2.012-.712-.475-.476-.712-1.146-.712-2.013v-7.998h-2.549v-1.574h2.549v-3.6h1.85v3.6h3.599v1.574h-3.599v7.849c0,.85,.425,1.274,1.274,1.274h2.5v1.6h-2.899Z"/>
    <path d="M165.507,315.916c-.708-.342-1.258-.804-1.65-1.388-.392-.583-.587-1.249-.587-1.999,0-.866,.241-1.604,.725-2.212s1.146-1.07,1.987-1.388c.842-.316,1.795-.475,2.862-.475h3.799v-.125c0-1.033-.333-1.857-.999-2.475-.667-.616-1.566-.925-2.699-.925-.817,0-1.555,.176-2.212,.525-.658,.35-1.237,.824-1.737,1.425l-1.299-1.25c.683-.733,1.454-1.3,2.312-1.699,.858-.4,1.836-.601,2.937-.601s2.062,.204,2.887,.612c.824,.408,1.466,.979,1.924,1.713,.459,.732,.688,1.6,.688,2.599v7.773h-1.774v-1.725c-.5,.667-1.158,1.188-1.975,1.562s-1.725,.562-2.725,.562c-.933,0-1.753-.171-2.461-.513Zm5.436-1.774c.8-.492,1.366-1.154,1.699-1.987v-2.199h-3.549c-1.116,0-2.045,.204-2.787,.612-.742,.408-1.112,1.045-1.112,1.912,0,.732,.275,1.316,.825,1.749,.55,.434,1.274,.65,2.175,.65,1.033,0,1.949-.246,2.749-.737Z"/>
    <path d="M187.192,316.028v-7.099c0-1.316-.3-2.308-.899-2.974-.6-.667-1.408-1-2.425-1-.732,0-1.424,.191-2.074,.575-.649,.383-1.175,.982-1.574,1.799-.4,.816-.6,1.875-.6,3.175v5.523h-1.85v-12.297h1.824v2.574c.416-1.083,1.046-1.85,1.887-2.3,.842-.449,1.746-.675,2.712-.675,1.5,0,2.683,.463,3.549,1.388,.867,.925,1.3,2.262,1.3,4.012v7.298h-1.85Z"/>
    <path d="M202.866,316.028v-1.975c-.434,.733-1.062,1.312-1.887,1.737-.825,.425-1.771,.638-2.837,.638-1.233,0-2.329-.284-3.287-.851s-1.708-1.341-2.249-2.324c-.542-.983-.812-2.107-.812-3.374,0-1.25,.271-2.366,.812-3.35,.541-.982,1.283-1.762,2.225-2.337,.941-.574,2.012-.862,3.211-.862,1.066,0,2.024,.242,2.875,.726,.85,.482,1.491,1.141,1.924,1.974v-7.998h1.85v17.996h-1.824Zm-8.535-3.611c.392,.741,.933,1.324,1.624,1.749s1.487,.638,2.387,.638c1.05,0,1.983-.271,2.8-.812,.816-.541,1.383-1.254,1.699-2.137v-1.6c0-1.05-.191-1.971-.574-2.762-.384-.792-.921-1.412-1.612-1.862s-1.487-.675-2.387-.675c-.884,0-1.667,.213-2.35,.638-.684,.425-1.217,1.008-1.6,1.749-.384,.741-.575,1.587-.575,2.537s.196,1.795,.588,2.537Z"/>
    <path d="M210.769,315.578c-.983-.566-1.754-1.341-2.312-2.324-.558-.983-.837-2.107-.837-3.374s.279-2.392,.837-3.374c.559-.983,1.329-1.758,2.312-2.324,.982-.567,2.1-.851,3.349-.851,1.266,0,2.386,.283,3.362,.851,.975,.566,1.741,1.341,2.299,2.324,.559,.982,.838,2.107,.838,3.374s-.279,2.391-.838,3.374c-.558,.983-1.324,1.758-2.299,2.324-.976,.566-2.096,.851-3.362,.851-1.249,0-2.366-.284-3.349-.851Zm5.723-1.399c.683-.416,1.216-.995,1.6-1.737,.383-.741,.574-1.595,.574-2.562s-.191-1.82-.574-2.562c-.384-.742-.917-1.321-1.6-1.737-.684-.417-1.475-.625-2.375-.625s-1.691,.208-2.374,.625c-.684,.416-1.217,.995-1.6,1.737-.384,.741-.575,1.595-.575,2.562s.191,1.82,.575,2.562c.383,.742,.916,1.321,1.6,1.737,.683,.417,1.475,.625,2.374,.625s1.691-.208,2.375-.625Z"/>
    <path d="M232.692,316.028c-.866,0-1.537-.237-2.012-.712-.475-.476-.713-1.146-.713-2.013v-7.998h-2.549v-1.574h2.549v-3.6h1.85v3.6h3.6v1.574h-3.6v7.849c0,.85,.425,1.274,1.275,1.274h2.499v1.6h-2.899Z"/>
    <path d="M247.441,316.028v-2c-.417,.733-1.021,1.316-1.812,1.75-.791,.434-1.687,.65-2.687,.65-1.483,0-2.67-.442-3.562-1.325s-1.338-2.158-1.338-3.824v-7.548h1.85v7.348c0,1.217,.296,2.142,.888,2.774,.592,.634,1.421,.95,2.487,.95,.933,0,1.778-.263,2.536-.787,.759-.525,1.296-1.237,1.612-2.138v-8.147h1.85v12.297h-1.824Z"/>
    <path d="M253.017,312.879c.584,.616,1.242,1.1,1.975,1.45,.733,.35,1.559,.524,2.475,.524,1,0,1.82-.212,2.462-.638,.642-.425,.963-.97,.963-1.637,0-.583-.271-1.037-.812-1.362-.542-.325-1.454-.579-2.737-.762-1.866-.267-3.178-.671-3.937-1.213-.758-.541-1.137-1.271-1.137-2.187,0-.75,.216-1.404,.649-1.962,.434-.559,1.033-.991,1.8-1.3s1.642-.463,2.624-.463c1.1,0,2.083,.2,2.949,.601,.867,.399,1.633,.966,2.3,1.699l-1.3,1.25c-.5-.617-1.074-1.1-1.725-1.45-.649-.35-1.392-.524-2.225-.524-.916,0-1.675,.191-2.274,.574-.6,.384-.899,.892-.899,1.525,0,.466,.254,.837,.762,1.112,.509,.274,1.371,.495,2.587,.662,1.934,.267,3.295,.695,4.087,1.287,.791,.592,1.188,1.412,1.188,2.462,0,.767-.229,1.445-.688,2.037-.458,.591-1.088,1.05-1.887,1.374-.801,.325-1.717,.488-2.75,.488-1.199,0-2.271-.205-3.212-.613s-1.787-.97-2.536-1.687l1.299-1.25Z"/>
    <path d="M270.468,300.045c-.267-.259-.4-.571-.4-.938,0-.383,.134-.704,.4-.962,.267-.259,.583-.388,.95-.388,.383,0,.703,.129,.962,.388s.388,.579,.388,.962c0,.366-.13,.679-.388,.938-.259,.258-.579,.388-.962,.388-.367,0-.684-.13-.95-.388Zm.025,15.983v-12.297h1.849v12.297h-1.849Z"/>
    <path d="M286.34,316.028v-1.975c-.434,.733-1.062,1.312-1.887,1.737-.825,.425-1.771,.638-2.837,.638-1.233,0-2.329-.284-3.287-.851s-1.708-1.341-2.249-2.324c-.542-.983-.812-2.107-.812-3.374,0-1.25,.271-2.366,.812-3.35,.541-.982,1.283-1.762,2.225-2.337,.941-.574,2.012-.862,3.211-.862,1.066,0,2.024,.242,2.875,.726,.85,.482,1.491,1.141,1.924,1.974v-7.998h1.85v17.996h-1.824Zm-8.535-3.611c.392,.741,.933,1.324,1.624,1.749s1.487,.638,2.387,.638c1.05,0,1.983-.271,2.8-.812,.816-.541,1.383-1.254,1.699-2.137v-1.6c0-1.05-.191-1.971-.574-2.762-.384-.792-.921-1.412-1.612-1.862s-1.487-.675-2.387-.675c-.884,0-1.667,.213-2.35,.638-.684,.425-1.217,1.008-1.6,1.749-.384,.741-.575,1.587-.575,2.537s.196,1.795,.588,2.537Z"/>
    <path d="M303.364,313.754c-.649,.833-1.433,1.487-2.349,1.962-.917,.475-1.967,.713-3.149,.713-1.3,0-2.462-.284-3.487-.851-1.024-.566-1.828-1.341-2.411-2.324s-.875-2.107-.875-3.374,.279-2.392,.837-3.374c.559-.983,1.329-1.758,2.312-2.324,.982-.567,2.1-.851,3.349-.851,1.2,0,2.263,.279,3.187,.838,.925,.558,1.654,1.32,2.188,2.287,.533,.966,.8,2.082,.8,3.349v.725h-10.697c.149,1.283,.662,2.316,1.537,3.1s1.97,1.175,3.286,1.175c1.733,0,3.125-.758,4.175-2.274l1.299,1.225Zm-8.81-7.686c-.809,.741-1.296,1.721-1.463,2.937h8.724c-.15-1.216-.617-2.195-1.4-2.937s-1.725-1.112-2.824-1.112c-1.216,0-2.229,.371-3.036,1.112Z"/>
    <path d="M308.178,315.916c-.708-.342-1.258-.804-1.649-1.388-.392-.583-.587-1.249-.587-1.999,0-.866,.241-1.604,.725-2.212s1.146-1.07,1.987-1.388c.841-.316,1.795-.475,2.861-.475h3.799v-.125c0-1.033-.333-1.857-.999-2.475-.667-.616-1.566-.925-2.699-.925-.817,0-1.555,.176-2.213,.525-.657,.35-1.236,.824-1.736,1.425l-1.3-1.25c.683-.733,1.454-1.3,2.312-1.699,.858-.4,1.837-.601,2.938-.601s2.062,.204,2.887,.612c.824,.408,1.466,.979,1.924,1.713,.459,.732,.688,1.6,.688,2.599v7.773h-1.774v-1.725c-.5,.667-1.158,1.188-1.975,1.562s-1.725,.562-2.725,.562c-.933,0-1.753-.171-2.462-.513Zm5.437-1.774c.8-.492,1.366-1.154,1.699-1.987v-2.199h-3.549c-1.116,0-2.045,.204-2.787,.612-.741,.408-1.112,1.045-1.112,1.912,0,.732,.275,1.316,.825,1.749,.55,.434,1.274,.65,2.175,.65,1.033,0,1.949-.246,2.749-.737Z"/>
    <path d="M320.691,312.879c.584,.616,1.242,1.1,1.975,1.45,.733,.35,1.559,.524,2.475,.524,1,0,1.82-.212,2.462-.638,.642-.425,.963-.97,.963-1.637,0-.583-.271-1.037-.812-1.362-.542-.325-1.454-.579-2.737-.762-1.866-.267-3.178-.671-3.937-1.213-.758-.541-1.137-1.271-1.137-2.187,0-.75,.216-1.404,.649-1.962,.434-.559,1.033-.991,1.8-1.3s1.642-.463,2.624-.463c1.1,0,2.083,.2,2.949,.601,.867,.399,1.633,.966,2.3,1.699l-1.3,1.25c-.5-.617-1.074-1.1-1.725-1.45-.649-.35-1.392-.524-2.225-.524-.916,0-1.675,.191-2.274,.574-.6,.384-.899,.892-.899,1.525,0,.466,.254,.837,.762,1.112,.509,.274,1.371,.495,2.587,.662,1.934,.267,3.295,.695,4.087,1.287,.791,.592,1.188,1.412,1.188,2.462,0,.767-.229,1.445-.688,2.037-.458,.591-1.088,1.05-1.887,1.374-.801,.325-1.717,.488-2.75,.488-1.199,0-2.271-.205-3.212-.613s-1.787-.97-2.536-1.687l1.299-1.25Z"/>
  </g>
</svg>