<?xml version="1.0" encoding="UTF-8"?>
<svg id="a" data-name="Capa 1" xmlns="http://www.w3.org/2000/svg" width="40" height="40" viewBox="0 0 40 40">
  <path d="M13.92,28.712h-.002c-1.049,0-1.902,.854-1.902,1.902s.854,1.902,1.902,1.902,1.902-.854,1.902-1.902c0-.508-.198-.985-.558-1.345s-.837-.558-1.343-.558Zm-.002,3.096c-.658,0-1.194-.535-1.194-1.193s.536-1.194,1.194-1.194,1.194,.536,1.194,1.194-.536,1.193-1.194,1.193Z"/>
  <path d="M25.724,16.29c-.066-.067-.155-.104-.25-.104s-.184,.036-.251,.104c-.138,.138-.138,.363,0,.501,.857,.856,1.329,1.996,1.329,3.209s-.472,2.353-1.329,3.21c-.067,.066-.104,.155-.104,.25,0,.095,.037,.184,.104,.251,.135,.133,.365,.135,.502,0,.99-.991,1.536-2.31,1.536-3.71s-.546-2.719-1.537-3.71Z"/>
  <path d="M20.339,4.782H7.497c-1.385,0-2.511,1.126-2.511,2.511v25.414c0,1.385,1.126,2.511,2.511,2.511h12.842c1.385,0,2.511-1.126,2.511-2.511V7.293c0-1.385-1.126-2.511-2.511-2.511Zm-2.01,.709l-.71,2.186h-7.402l-.71-2.186h8.822Zm3.812,27.216c0,.994-.809,1.803-1.803,1.803H7.497c-.994,0-1.803-.809-1.803-1.803V7.293c0-.993,.809-1.802,1.803-1.802h1.265l.86,2.649c.048,.146,.184,.244,.337,.244h7.918c.153,0,.289-.099,.337-.244l.86-2.649h1.265c.994,0,1.803,.809,1.803,1.802v25.414Z"/>
  <path d="M28.465,13.549c-.066-.067-.155-.104-.25-.104-.095,0-.184,.037-.251,.104-.067,.066-.104,.155-.104,.25s.037,.184,.104,.251c1.59,1.59,2.465,3.702,2.465,5.95s-.875,4.36-2.465,5.951c-.138,.138-.138,.362,0,.501,.135,.133,.365,.136,.502,0,1.722-1.722,2.671-4.014,2.671-6.451s-.949-4.729-2.672-6.451Z"/>
  <path d="M31.206,10.808c-.066-.067-.155-.104-.25-.104-.095,0-.184,.037-.251,.104-.138,.138-.138,.363,0,.501,2.322,2.322,3.601,5.408,3.601,8.691s-1.278,6.37-3.601,8.692c-.138,.138-.138,.362,0,.501,.133,.132,.365,.135,.502,0,2.454-2.454,3.807-5.72,3.807-9.192s-1.353-6.737-3.808-9.192Z"/>
</svg>