<?xml version="1.0" encoding="UTF-8"?>
<svg id="a" data-name="Capa 1" xmlns="http://www.w3.org/2000/svg" width="25" height="25" viewBox="0 0 25 25">
  <path d="M17.479,8.101l2.189-2.19c.16-.16,.16-.421,0-.581-.077-.077-.184-.116-.29-.116s-.214,.039-.292,.116l-2.188,2.191c-.079,.078-.122,.181-.122,.291s.043,.212,.12,.29c.156,.156,.425,.156,.583,0Z"/>
  <path d="M19.567,11.676c.069,.212,.316,.333,.518,.266l2.127-.685c.104-.034,.19-.106,.24-.204,.05-.098,.059-.208,.024-.312-.067-.215-.298-.333-.518-.266l-2.127,.685c-.215,.069-.334,.301-.265,.517Z"/>
  <path d="M13.307,5.425l.015,.004c.222,.07,.449-.056,.516-.264l.685-2.128c.034-.104,.025-.216-.024-.314-.05-.098-.136-.17-.24-.204-.104-.034-.215-.022-.313,.026-.098,.05-.17,.135-.203,.238l-.685,2.128c-.034,.104-.025,.216,.024,.314,.048,.093,.128,.164,.227,.199Z"/>
  <path d="M21.44,17.138l-2.428-1.608c-.763-.504-1.745-.539-2.496-.089l-2.062,.969c-.137,.083-.321,.087-.482,.009l-.357-.181c-1.352-.669-3.395-1.68-4.906-5.012-.05-.112-.083-.292,.051-.509l.888-1.784c.462-.741,.479-1.659,.053-2.406l-1.613-2.827c-.438-.765-1.243-1.2-2.074-1.2-.354,0-.713,.079-1.05,.245-1.578,.776-2.403,2.08-2.453,3.874-.022,.594-.365,14.539,15.305,15.856,.051,.006,.31,.032,.687,.032,.942,0,2.602-.17,3.136-1.308l.54-.922c.628-1.071,.306-2.45-.735-3.139Zm.026,2.724l-.557,.954c-.335,.711-1.626,.866-2.472,.866-.223,0-.414-.011-.549-.025C2.889,20.395,3.304,7.225,3.328,6.665c.043-1.509,.695-2.543,1.996-3.183,.217-.106,.449-.161,.688-.161,.562,0,1.082,.301,1.358,.785l1.614,2.827c.28,.491,.26,1.088-.055,1.597l-.889,1.784c-.237,.382-.266,.846-.081,1.25,1.631,3.598,3.921,4.733,5.29,5.411l.345,.174c.403,.206,.882,.201,1.241-.014l2.062-.968c.503-.3,1.157-.284,1.659,.048l2.428,1.607c.677,.447,.888,1.343,.48,2.039Z"/>
</svg>