<?xml version="1.0" encoding="UTF-8"?>
<svg id="a" data-name="Capa 1" xmlns="http://www.w3.org/2000/svg" width="1000" height="1000" viewBox="0 0 1000 1000">
  <path d="M197.582,625.581l-.46,.424c.177-.106,.318-.283,.46-.424Z"/>
  <path d="M762.872,711.298c-1.49-2.324-3.074-4.739-5.48-6.094-1.336-.753-2.846-1.128-4.335-1.496-14.619-3.609-36.906-10.592-56.721-16.487,.012-.004,.026-.015,.038-.018,86.385-38.998,146.625-125.728,146.625-226.656,0-22.587-2.989-44.51-8.703-65.303v-.066c-8.834-32.419-24.048-62.181-44.244-87.89,0,0-1.395-1.794-2.193-2.79,.133-.066,.266-.199,.399-.266,15.81-11.56,26.041-30.161,26.041-51.153,0-22.919-12.158-42.982-30.427-54.076,5.182-2.126,10.763-3.455,16.543-3.787-7.641-6.112-17.007-10.164-27.304-11.227-1.794-.199-3.654-.332-5.581-.332-6.909,0-13.553,1.329-19.597,3.787,5.448-6.112,12.291-10.895,20.063-13.951,5.779-2.192,12.025-3.388,18.601-3.388,1.129,0,2.193,.066,3.255,.133-1.794-1.727-3.721-3.255-5.78-4.65-5.049-3.521-10.695-6.178-16.808-7.773l-.796-.133c.066-.996,.066-1.727,.066-2.724,0-24.647-17.273-45.307-40.391-50.555-.472-.092-1.594-.332-2.324-.465,4.251,8.171,6.71,17.405,6.908,27.171-21.125-15.412-47.166-24.447-75.267-24.447-27.635,0-53.146,8.703-74.073,23.584,7.109-1.196,14.35-1.86,21.857-1.86,27.835,0,53.612,8.836,74.604,23.982-12.887-4.384-26.64-6.71-40.988-6.71-43.314,0-81.579,21.458-104.831,54.342-5.581,7.839-10.231,16.342-13.885,25.377,3.257-3.255,6.711-6.311,10.364-9.167,21.79-17.206,49.425-27.503,79.388-27.503,12.622,0,24.844,1.86,36.337,5.315-17.87,3.122-31.423,18.734-31.423,37.468,0,19.93,15.213,36.272,34.679,37.933l-.133,.332c-11.958,28.367-21.923,57.597-29.961,87.757-2.459,8.969-4.65,18.003-6.71,27.171-1.064,4.65-2.06,9.367-2.991,14.084-3.056,15.213-5.646,30.559-7.639,46.171l-.332-.066c.066,.066,.199,.066,.332,.066h0c-.399,2.524-.665,5.049-.996,7.573,.266-2.524,.532-5.115,.663-7.639,.532-6.046,.731-12.091,.731-18.269,0-9.898-.598-19.664-1.794-29.297-.067-.332-.067-.664-.133-.996-.067-.2-.067-.465-.133-.665-2.258-18.468-6.643-36.272-12.821-53.146-3.388-9.3-7.242-18.269-11.692-26.972-2.725-5.448-5.714-10.762-8.836-15.944v-.067c-2.391-3.986-4.916-7.839-7.573-11.626-8.57-12.423-18.203-23.982-28.965-34.612-1.129-1.196-2.324-2.391-3.521-3.521-3.586-3.388-7.307-6.776-11.094-9.965-.2-.133-.333-.266-.532-.465-1.528-1.262-3.056-2.524-4.65-3.72-.532-.532-1.129-.93-1.661-1.395-41.72-32.95-94.267-52.481-151.4-52.481-90.879,0-170.133,49.426-212.451,122.9,32.752-15.877,69.488-24.78,108.352-24.78,19.265,0,37.933,2.192,55.936,6.311,.067,.066,.133,.066,.2,.066-.333,.199-.663,.332-.996,.532q-.066,.066-.133,.133c-2.392,1.329-4.783,2.657-7.175,4.053-2.391,1.395-4.716,2.857-7.041,4.318-2.326,1.462-4.585,2.99-6.844,4.517-2.258,1.528-4.517,3.123-6.708,4.717-2.193,1.594-4.386,3.255-6.51,4.916-1.13,.864-2.193,1.727-3.257,2.591-1.062,.864-2.125,1.727-3.122,2.591-1.792,1.528-3.654,3.056-5.446,4.65-2.06,1.794-4.053,3.654-6.046,5.581-.73,.664-1.461,1.395-2.191,2.126-.466,.399-.997,.93-1.463,1.395-.73,.731-1.461,1.462-2.191,2.192-1.328,1.329-2.723,2.724-3.987,4.185-1.528,1.594-3.056,3.255-4.517,4.916-1.927,2.192-3.854,4.385-5.78,6.643-2.324,2.857-4.65,5.78-6.909,8.703-1.395,1.794-2.723,3.654-4.052,5.514-.532,.731-1.062,1.461-1.594,2.192-.133,.266-.333,.465-.532,.731l-2.391,3.587c-.466,.665-.864,1.262-1.263,1.927-.796,1.129-1.528,2.259-2.191,3.388-.931,1.395-1.727,2.724-2.592,4.119-1.661,2.79-3.322,5.58-4.916,8.437-.067,.199-.198,.399-.266,.598-1.328,2.325-2.59,4.716-3.785,7.108l-.2,.399c-.266,.531-.532,.996-.731,1.528-.597,1.063-1.129,2.126-1.661,3.255-.597,1.196-1.129,2.392-1.661,3.654-.663,1.329-1.262,2.591-1.794,3.92-.597,1.329-1.195,2.657-1.661,3.986-.133,.266-.266,.532-.331,.797-.399,.731-.731,1.528-.997,2.325-.133,.332-.266,.664-.397,.996-.731,1.794-1.396,3.588-2.06,5.448-1.262,3.322-2.392,6.643-3.455,9.965-.266,.598-.399,1.196-.598,1.727-.266,.731-.466,1.528-.663,2.259-.333,.93-.598,1.793-.864,2.724-.066,.399-.199,.864-.333,1.329-.597,2.059-1.195,4.185-1.727,6.311-1.528,5.979-2.856,12.091-3.918,18.203-.333,1.794-.665,3.654-.864,5.447-.399,1.993-.665,3.986-.863,5.979-.199,1.595-.399,3.256-.598,4.85-.067,.399-.133,.797-.133,1.196-.067,.332-.067,.598-.133,.93-.199,2.059-.397,4.052-.53,6.045-.068,.731-.133,1.395-.133,2.126-.2,2.458-.333,4.982-.399,7.507-.133,3.189-.2,6.444-.2,9.633,0,39.328,9.169,76.398,25.378,109.481-.465-5.979-.665-11.958-.665-18.003,0-3.255,.067-6.51,.2-9.699,0-.465,0-.864,.066-1.329,0-1.196,.067-2.391,.2-3.587,0-1.13,.066-2.192,.199-3.322,.067-1.595,.198-3.189,.399-4.783,.198-2.458,.464-4.849,.73-7.241,.133-1.13,.266-2.259,.466-3.388,.066-.731,.133-1.395,.264-2.126,.133-1.063,.266-2.126,.466-3.123,.133-.93,.266-1.793,.399-2.657,.266-1.661,.598-3.255,.929-4.916,.199-1.196,.399-2.392,.665-3.521,.067-.266,.067-.465,.133-.664,.532-2.657,1.129-5.315,1.727-7.905,.133-.333,.2-.665,.266-1.063,.663-2.524,1.328-5.049,2.058-7.573,.068-.465,.201-.93,.399-1.395,.067-.399,.133-.731,.266-1.063,.798-2.923,1.727-5.78,2.657-8.636,6.909,47.632,27.371,90.88,57.332,125.69-10.961-28.101-17.007-58.593-17.007-90.547,0-32.818,6.379-64.174,17.936-92.873-.597,7.108-.929,14.283-.929,21.524,0,111.541,73.475,205.875,174.652,237.364-53.013-45.573-86.562-113.068-86.562-188.469,0-16.209,1.528-32.087,4.517-47.433,.333,54.541,18.202,104.897,48.297,145.753,0,.067,.067,.133,.2,.199,29.363,39.86,70.486,70.684,118.184,87.292l5.579,1.86h.068c9.699,3.189,19.664,5.713,29.895,7.639h.065c12.991,2.463,26.39,3.85,40.019,4.205-1.303,6.737-2.411,12.53-2.549,14.292-.361,4.604,.46,9.731,3.965,12.738,1.043,.895,2.303,1.583,3.079,2.718,.969,1.416,1.006,3.247,1.031,4.963,.176,11.969,1.475,23.921,3.874,35.648-13.278-.361-24.104-10.8-31.461-21.86,1.144,16.477,13.085,31.682,28.821,36.699,3.296,1.051,7.162,2.038,8.616,5.177,.603,1.302,.668,2.786,.602,4.22-.318,6.962-3.474,13.551-7.701,19.093-5.012,6.573-28.379,26.13-35.834,29.7-4.759,2.28-9.87,3.846-14.384,6.578-4.514,2.732-8.524,6.984-9.211,12.216,2.879-3.607,6.605-6.533,10.792-8.475,.901-.418,1.905-.798,2.866-.548,.994,.258,1.689,1.119,2.455,1.803,3.689,3.294,9.489,2.639,14.008,.627,4.519-2.012,25.324-19.353,30.087-20.686,.747-.209,1.549-.37,2.289-.135,1.917,.609,2.113,3.162,2.433,5.148,.705,4.378,3.918,8.261,8.086,9.774-.906,2.478,.218,5.342,2.112,7.179s4.424,2.848,6.914,3.719c7.074,2.474,46.295,17.435,55.49,15,1.655-.438,3.291-1.087,5.003-1.081,4.025,.015,7.066,3.497,9.53,6.679-.016-5.788-4.228-11.312-9.805-12.859,4.138-1.301,8.612-.231,12.788,.944,4.176,1.175,8.536,2.464,12.782,1.574,4.245-.891,8.206-4.83,7.441-9.1,4.688,.864,8.919,3.939,11.188,8.131,.937-5.168-3.243-10.114-8.117-12.071-4.874-1.958-10.301-1.731-15.551-1.874-13.385-.365-26.693-3.36-38.944-8.762-3.751-1.654-7.428-3.546-10.658-6.07-3.808-2.976-6.911-6.766-9.603-10.78-1.826-2.724-13.539-11.429-13.557-14.681-.2-35.079-.11-92.224-.41-122.934,12.935-4.582,22.886-10.653,30.463-16.533,6.98,2.243,13.316,4.203,17.518,5.225-9.173,10.501-23.234,16.544-37.166,15.973,8.104,3.337,17.348,3.499,25.787,1.132,8.439-2.367,16.088-7.164,22.427-13.216,5.843,2.148,11.899,3.717,18.05,4.676l-.185,.901c1.417,2.891,2.834,5.783,4.251,8.674,1.534,3.13,3.113,6.323,5.583,8.783s6.042,4.095,9.449,3.36c-3.544-3.712-5.344-9.023-4.786-14.125,2.647,1.689,5.348,3.443,7.218,5.965,1.87,2.522,2.76,6.014,1.416,8.852-1.496,3.157-5.169,4.583-8.572,5.371-3.853,.893-7.928,1.336-11.735,.265-3.807-1.071-7.3-3.908-8.263-7.744,1.867,12.23,12.597,22.545,24.89,23.929-4.67,4.822-11.311,7.677-18.024,7.747,3.998,2.719,9.303,2.141,14.072,1.347,7.227-1.204,14.505-2.687,21.095-5.89,6.59-3.203,12.505-8.321,15.322-15.085,2.884-6.926,2.253-14.916-.171-22.016-2.424-7.1-6.512-13.495-10.562-19.811Z"/>
</svg>