<?xml version="1.0" encoding="UTF-8"?>
<svg id="a" xmlns="http://www.w3.org/2000/svg" width="483.05" height="330.917" viewBox="0 0 483.05 330.917">
  <g>
    <path d="M86.662,62.386V7.901h10.288V53.47h25.756v8.916h-36.044Z"/>
    <path d="M135.053,62.005c-2.235-1.067-3.975-2.54-5.22-4.42-1.245-1.879-1.867-4.064-1.867-6.553,0-3.912,1.689-6.985,5.067-9.221,3.378-2.235,7.887-3.353,13.526-3.353h8.839c-.152-2.489-1.092-4.419-2.82-5.791-1.727-1.372-4.013-2.058-6.858-2.058-2.235,0-4.293,.432-6.172,1.295-1.88,.864-3.531,2.032-4.953,3.505l-5.258-6.096c2.032-2.032,4.496-3.62,7.392-4.763,2.896-1.143,6.045-1.714,9.449-1.714,3.759,0,7.049,.635,9.868,1.905,2.82,1.27,5.017,3.086,6.592,5.449,1.575,2.362,2.362,5.245,2.362,8.649v23.546h-9.145v-4.496c-1.422,1.778-3.251,3.175-5.486,4.191s-4.75,1.524-7.544,1.524c-2.946,0-5.537-.533-7.772-1.6Zm16.308-7.621c1.829-1.117,3.175-2.616,4.039-4.496v-4.877h-8.078c-2.743,0-4.953,.482-6.629,1.448-1.677,.965-2.515,2.362-2.515,4.191,0,1.626,.647,2.934,1.943,3.925,1.295,.99,2.985,1.486,5.067,1.486,2.286,0,4.344-.559,6.173-1.677Z"/>
    <path d="M173.31,62.386V7.52h10.059V29.467c1.321-2.032,3.099-3.645,5.334-4.839s4.826-1.791,7.773-1.791c3.556,0,6.769,.863,9.64,2.591,2.87,1.727,5.156,4.115,6.858,7.163,1.702,3.048,2.553,6.579,2.553,10.592s-.863,7.557-2.591,10.63c-1.727,3.074-4.039,5.474-6.935,7.201-2.896,1.727-6.147,2.591-9.754,2.591-2.946,0-5.512-.559-7.696-1.676s-3.937-2.617-5.258-4.496v4.953h-9.982Zm10.059-13.945c.762,2.083,2.096,3.734,4,4.953,1.905,1.219,4.077,1.829,6.515,1.829,3.353,0,6.058-1.13,8.116-3.391,2.058-2.26,3.086-5.144,3.086-8.649,0-3.455-.965-6.312-2.896-8.573-1.93-2.261-4.546-3.391-7.849-3.391-3.15,0-5.766,1.105-7.849,3.315-2.083,2.21-3.124,5.194-3.124,8.954v4.954Z"/>
    <path d="M230.54,61.357c-1.219,1.194-2.718,1.791-4.496,1.791-1.727,0-3.213-.597-4.458-1.791s-1.867-2.654-1.867-4.381,.623-3.188,1.867-4.382,2.73-1.791,4.458-1.791c1.778,0,3.277,.597,4.496,1.791s1.829,2.654,1.829,4.382-.609,3.188-1.829,4.381Z" fill="#0025ff"/>
  </g>
  <g>
    <path d="M86.662,78.948h19.051c5.842,0,10.96,1.168,15.355,3.505,4.394,2.337,7.823,5.55,10.287,9.64s3.696,8.776,3.696,14.06c0,5.334-1.232,10.046-3.696,14.135-2.464,4.09-5.893,7.303-10.287,9.64-4.395,2.337-9.513,3.505-15.355,3.505h-19.051v-54.485Zm19.051,45.722c3.81,0,7.1-.762,9.868-2.286s4.902-3.683,6.401-6.477c1.499-2.794,2.248-6.045,2.248-9.754s-.749-6.947-2.248-9.716c-1.499-2.769-3.632-4.915-6.401-6.439-2.769-1.524-6.058-2.286-9.868-2.286h-8.763v36.958h8.763Z"/>
    <path d="M167.059,103.561h-2.057c-3.556,0-6.401,1.054-8.535,3.163-2.133,2.108-3.2,5.55-3.2,10.326v16.383h-10.059v-38.33h9.982v7.544c.864-2.083,1.981-3.721,3.353-4.915,1.372-1.194,2.857-2.045,4.458-2.553,1.601-.508,3.163-.762,4.687-.762h1.372v9.144Z"/>
    <path d="M210.497,127.641c-1.981,2.185-4.483,3.899-7.506,5.144-3.022,1.245-6.337,1.867-9.944,1.867-4.42,0-8.319-.864-11.697-2.591-3.378-1.728-6.007-4.115-7.887-7.163-1.88-3.048-2.819-6.579-2.819-10.592s.901-7.557,2.705-10.63c1.803-3.074,4.267-5.474,7.392-7.201,3.124-1.728,6.667-2.591,10.63-2.591,3.811,0,7.188,.851,10.135,2.553,2.946,1.702,5.258,4.051,6.934,7.048,1.677,2.998,2.515,6.478,2.515,10.44v3.505h-29.795c.661,2.997,2.096,5.296,4.306,6.896,2.209,1.6,4.915,2.4,8.115,2.4,4.623,0,8.484-1.753,11.583-5.258l5.334,6.172Zm-25.871-23.47c-1.803,1.625-2.959,3.861-3.467,6.706h19.812c-.406-2.794-1.473-5.017-3.2-6.667-1.728-1.651-3.886-2.477-6.478-2.477-2.642,0-4.864,.813-6.667,2.438Z"/>
    <path d="M222.998,133.052c-2.235-1.067-3.975-2.54-5.22-4.42-1.245-1.879-1.867-4.064-1.867-6.553,0-3.912,1.689-6.985,5.067-9.221,3.378-2.235,7.887-3.353,13.526-3.353h8.839c-.152-2.489-1.092-4.419-2.82-5.791-1.727-1.372-4.013-2.058-6.858-2.058-2.235,0-4.293,.432-6.172,1.295-1.88,.864-3.531,2.032-4.953,3.505l-5.258-6.096c2.032-2.032,4.496-3.62,7.392-4.763,2.896-1.143,6.045-1.714,9.449-1.714,3.759,0,7.049,.635,9.868,1.905,2.82,1.27,5.017,3.086,6.592,5.449,1.575,2.362,2.362,5.245,2.362,8.649v23.546h-9.145v-4.496c-1.422,1.778-3.251,3.175-5.486,4.191s-4.75,1.524-7.544,1.524c-2.946,0-5.537-.533-7.772-1.6Zm16.308-7.621c1.829-1.117,3.175-2.616,4.039-4.496v-4.877h-8.078c-2.743,0-4.953,.482-6.629,1.448-1.677,.965-2.515,2.362-2.515,4.191,0,1.626,.647,2.934,1.943,3.925,1.295,.99,2.985,1.486,5.067,1.486,2.286,0,4.344-.559,6.173-1.677Z"/>
    <path d="M312.691,133.433v-22.403c0-2.947-.609-5.144-1.829-6.592-1.219-1.448-2.87-2.172-4.953-2.172-2.337,0-4.394,.953-6.172,2.858-1.778,1.905-2.667,5.017-2.667,9.334v18.975h-10.059v-22.403c0-2.947-.623-5.144-1.867-6.592-1.245-1.448-2.908-2.172-4.991-2.172-1.524,0-2.959,.419-4.306,1.257-1.347,.838-2.438,2.146-3.276,3.925-.839,1.778-1.258,4.115-1.258,7.01v18.975h-10.059v-38.33h9.982v6.782c1.22-3.048,2.946-5.144,5.182-6.287s4.496-1.714,6.782-1.714c2.946,0,5.448,.724,7.506,2.171,2.058,1.448,3.519,3.62,4.382,6.516,.863-2.235,2.032-3.976,3.505-5.22,1.474-1.245,3.074-2.133,4.801-2.667,1.728-.533,3.455-.8,5.182-.8,4.42,0,7.888,1.41,10.402,4.229s3.771,6.871,3.771,12.154v23.166h-10.059Z"/>
    <path d="M341.273,132.404c-1.219,1.194-2.718,1.791-4.496,1.791-1.727,0-3.213-.597-4.457-1.791-1.245-1.194-1.867-2.654-1.867-4.381s.622-3.188,1.867-4.382c1.244-1.194,2.73-1.791,4.457-1.791,1.778,0,3.277,.597,4.496,1.791,1.22,1.194,1.829,2.654,1.829,4.382s-.609,3.188-1.829,4.381Z" fill="#e2ffa9"/>
  </g>
  <line x1="10.232" y1="164.876" x2="467.486" y2="164.876" fill="none" stroke="#000" stroke-miterlimit="10" stroke-width=".5"/>
  <g>
    <line x1="32.574" y1="83.232" x2="32.574" y2="127.916" fill="none" stroke="#000" stroke-linecap="round" stroke-linejoin="round" stroke-width=".75"/>
    <line x1="54.916" y1="105.574" x2="10.232" y2="105.574" fill="none" stroke="#000" stroke-linecap="round" stroke-linejoin="round" stroke-width=".75"/>
  </g>
  <g>
    <line x1="54.916" y1="208.091" x2="10.232" y2="208.091" fill="none" stroke="#000" stroke-linecap="round" stroke-linejoin="round" stroke-width=".75"/>
    <line x1="54.916" y1="230.962" x2="10.232" y2="230.962" fill="none" stroke="#000" stroke-linecap="round" stroke-linejoin="round" stroke-width=".75"/>
  </g>
  <g>
    <path d="M94.571,214.926v-17.871h11.822v1.7h-9.897v6.173h9.423v1.7h-9.423v6.598h9.897v1.7h-11.822Z"/>
    <path d="M118.694,214.926v-7.099c0-1.316-.3-2.308-.9-2.975-.6-.666-1.407-.999-2.424-.999-.733,0-1.425,.191-2.075,.574-.649,.384-1.174,.983-1.574,1.8-.399,.816-.6,1.875-.6,3.175v5.523h-1.85v-12.297h1.824v2.574c.417-1.083,1.046-1.85,1.887-2.3,.842-.45,1.746-.675,2.712-.675,1.5,0,2.683,.463,3.55,1.388,.866,.925,1.3,2.262,1.3,4.011v7.299h-1.85Z"/>
    <path d="M138.169,214.926v-7.099c0-1.316-.3-2.308-.899-2.975-.6-.666-1.408-.999-2.425-.999-.733,0-1.425,.191-2.074,.574-.65,.384-1.175,.983-1.574,1.8-.4,.816-.601,1.875-.601,3.175v5.523h-1.85v-12.297h1.825v2.574c.416-1.083,1.045-1.85,1.887-2.3s1.745-.675,2.712-.675c1.5,0,2.683,.463,3.549,1.388s1.3,2.262,1.3,4.011v7.299h-1.85Z"/>
    <path d="M152.569,214.926v-2c-.417,.733-1.021,1.316-1.812,1.75-.791,.433-1.687,.649-2.687,.649-1.483,0-2.67-.441-3.562-1.324-.892-.884-1.337-2.158-1.337-3.824v-7.548h1.85v7.348c0,1.217,.295,2.142,.887,2.774s1.421,.95,2.487,.95c.933,0,1.778-.263,2.537-.788,.758-.524,1.295-1.236,1.611-2.137v-8.147h1.85v12.297h-1.824Z"/>
    <path d="M169.594,212.652c-.65,.833-1.434,1.487-2.35,1.962-.917,.475-1.966,.712-3.149,.712-1.3,0-2.462-.283-3.486-.85-1.025-.566-1.829-1.341-2.412-2.324s-.875-2.108-.875-3.374,.279-2.392,.838-3.374c.558-.983,1.328-1.759,2.312-2.325s2.1-.85,3.35-.85c1.199,0,2.262,.279,3.187,.838,.925,.558,1.653,1.32,2.187,2.286,.533,.967,.8,2.083,.8,3.35v.725h-10.697c.15,1.283,.662,2.316,1.537,3.1s1.971,1.175,3.287,1.175c1.732,0,3.124-.759,4.174-2.274l1.3,1.225Zm-8.811-7.686c-.809,.741-1.296,1.72-1.462,2.937h8.723c-.15-1.217-.616-2.195-1.399-2.937-.783-.742-1.725-1.112-2.824-1.112-1.217,0-2.229,.37-3.037,1.112Z"/>
    <path d="M173.171,211.777c.583,.616,1.241,1.1,1.975,1.449,.733,.351,1.559,.525,2.475,.525,1,0,1.82-.213,2.462-.638s.962-.971,.962-1.637c0-.583-.271-1.037-.812-1.362-.541-.325-1.453-.579-2.736-.763-1.866-.267-3.179-.67-3.937-1.212-.758-.541-1.138-1.271-1.138-2.187,0-.75,.217-1.404,.65-1.963,.434-.558,1.033-.991,1.8-1.299,.767-.309,1.641-.463,2.624-.463,1.1,0,2.083,.2,2.949,.6,.866,.4,1.633,.967,2.3,1.7l-1.3,1.249c-.5-.616-1.075-1.1-1.725-1.449-.65-.35-1.392-.524-2.225-.524-.916,0-1.675,.191-2.274,.574-.6,.384-.899,.892-.899,1.524,0,.467,.254,.838,.762,1.112,.509,.275,1.371,.496,2.587,.663,1.933,.267,3.295,.695,4.087,1.287,.791,.591,1.187,1.412,1.187,2.462,0,.766-.229,1.445-.687,2.037-.459,.591-1.088,1.049-1.888,1.374s-1.716,.487-2.749,.487c-1.2,0-2.271-.204-3.212-.612s-1.787-.971-2.537-1.687l1.3-1.25Z"/>
    <path d="M190.045,214.926c-.866,0-1.537-.237-2.012-.713-.476-.475-.713-1.146-.713-2.012v-7.998h-2.549v-1.574h2.549v-3.6h1.85v3.6h3.6v1.574h-3.6v7.848c0,.851,.425,1.275,1.274,1.275h2.5v1.6h-2.899Z"/>
    <path d="M202.169,204.229h-.5c-.733,0-1.425,.191-2.074,.574-.65,.384-1.175,.983-1.574,1.8-.4,.816-.601,1.875-.601,3.174v5.149h-1.85v-12.297h1.825v2.774c.433-1.084,1.066-1.85,1.899-2.3s1.699-.675,2.6-.675h.274v1.8Z"/>
    <path d="M206.745,214.476c-.982-.566-1.753-1.341-2.312-2.324s-.837-2.108-.837-3.374,.278-2.392,.837-3.374c.559-.983,1.329-1.759,2.312-2.325,.983-.566,2.1-.85,3.35-.85,1.267,0,2.387,.283,3.361,.85,.976,.566,1.741,1.342,2.3,2.325,.559,.982,.837,2.107,.837,3.374s-.278,2.391-.837,3.374-1.324,1.758-2.3,2.324c-.975,.566-2.095,.85-3.361,.85-1.25,0-2.366-.283-3.35-.85Zm5.724-1.399c.684-.417,1.217-.996,1.6-1.737,.384-.741,.575-1.596,.575-2.562s-.191-1.82-.575-2.562c-.383-.741-.916-1.32-1.6-1.736-.683-.417-1.475-.625-2.374-.625s-1.691,.208-2.374,.625c-.684,.416-1.217,.995-1.6,1.736-.384,.742-.575,1.596-.575,2.562s.191,1.82,.575,2.562c.383,.741,.916,1.32,1.6,1.737,.683,.416,1.475,.625,2.374,.625s1.691-.209,2.374-.625Z"/>
    <path d="M224.397,214.926v-17.996h1.85v17.996h-1.85Z"/>
    <path d="M231.233,214.814c-.709-.342-1.259-.805-1.65-1.388s-.587-1.25-.587-1.999c0-.867,.241-1.604,.725-2.212,.483-.608,1.146-1.071,1.987-1.388s1.795-.475,2.861-.475h3.8v-.125c0-1.033-.334-1.858-1-2.475-.667-.616-1.566-.925-2.699-.925-.816,0-1.554,.175-2.212,.525-.658,.35-1.237,.824-1.737,1.424l-1.3-1.249c.684-.733,1.454-1.3,2.312-1.7,.857-.399,1.837-.6,2.937-.6s2.062,.204,2.887,.612c.824,.408,1.466,.979,1.925,1.712,.458,.733,.687,1.6,.687,2.6v7.773h-1.774v-1.725c-.5,.666-1.158,1.187-1.975,1.562s-1.725,.562-2.724,.562c-.934,0-1.754-.171-2.462-.512Zm5.436-1.775c.8-.491,1.366-1.153,1.7-1.986v-2.2h-3.55c-1.116,0-2.045,.204-2.786,.613-.742,.408-1.112,1.045-1.112,1.911,0,.733,.274,1.316,.824,1.75s1.275,.649,2.175,.649c1.033,0,1.949-.245,2.749-.737Z"/>
    <path d="M243.495,214.926v-17.996h1.85v8.023c.45-.833,1.112-1.496,1.987-1.987s1.837-.737,2.887-.737c1.2,0,2.267,.287,3.199,.862,.934,.575,1.662,1.354,2.187,2.337,.525,.983,.788,2.1,.788,3.35,0,1.266-.271,2.391-.812,3.374-.542,.983-1.291,1.758-2.25,2.324-.958,.566-2.053,.85-3.286,.85-1.066,0-2.012-.212-2.837-.637s-1.454-1.004-1.887-1.737v1.975h-1.825Zm1.85-4.174c.316,.883,.884,1.595,1.7,2.137,.816,.541,1.749,.812,2.799,.812,.917,0,1.717-.213,2.399-.638,.684-.425,1.221-1.008,1.612-1.75,.392-.741,.587-1.587,.587-2.536s-.188-1.796-.562-2.537c-.375-.741-.896-1.325-1.562-1.75-.667-.425-1.441-.637-2.324-.637-.9,0-1.7,.225-2.399,.675-.7,.449-1.25,1.07-1.649,1.861-.4,.792-.601,1.713-.601,2.763v1.6Z"/>
    <path d="M261.895,214.476c-.983-.566-1.754-1.341-2.312-2.324-.559-.983-.838-2.108-.838-3.374s.279-2.392,.838-3.374c.558-.983,1.328-1.759,2.312-2.325s2.1-.85,3.35-.85c1.266,0,2.387,.283,3.361,.85s1.741,1.342,2.3,2.325c.558,.982,.837,2.107,.837,3.374s-.279,2.391-.837,3.374c-.559,.983-1.325,1.758-2.3,2.324s-2.096,.85-3.361,.85c-1.25,0-2.366-.283-3.35-.85Zm5.724-1.399c.684-.417,1.217-.996,1.6-1.737s.575-1.596,.575-2.562-.192-1.82-.575-2.562c-.383-.741-.916-1.32-1.6-1.736-.684-.417-1.475-.625-2.374-.625s-1.691,.208-2.375,.625c-.683,.416-1.216,.995-1.6,1.736-.383,.742-.575,1.596-.575,2.562s.192,1.82,.575,2.562c.384,.741,.917,1.32,1.6,1.737,.684,.416,1.475,.625,2.375,.625s1.69-.209,2.374-.625Z"/>
    <path d="M281.269,204.229h-.5c-.733,0-1.425,.191-2.074,.574-.65,.384-1.175,.983-1.574,1.8-.4,.816-.601,1.875-.601,3.174v5.149h-1.85v-12.297h1.825v2.774c.433-1.084,1.066-1.85,1.899-2.3s1.699-.675,2.6-.675h.274v1.8Z"/>
    <path d="M285.258,214.814c-.709-.342-1.259-.805-1.65-1.388s-.587-1.25-.587-1.999c0-.867,.241-1.604,.725-2.212,.483-.608,1.146-1.071,1.987-1.388s1.795-.475,2.861-.475h3.8v-.125c0-1.033-.334-1.858-1-2.475-.667-.616-1.566-.925-2.699-.925-.816,0-1.554,.175-2.212,.525-.658,.35-1.237,.824-1.737,1.424l-1.3-1.249c.684-.733,1.454-1.3,2.312-1.7,.857-.399,1.837-.6,2.937-.6s2.062,.204,2.887,.612c.824,.408,1.466,.979,1.925,1.712,.458,.733,.687,1.6,.687,2.6v7.773h-1.774v-1.725c-.5,.666-1.158,1.187-1.975,1.562s-1.725,.562-2.724,.562c-.934,0-1.754-.171-2.462-.512Zm5.436-1.775c.8-.491,1.366-1.153,1.7-1.986v-2.2h-3.55c-1.116,0-2.045,.204-2.786,.613-.742,.408-1.112,1.045-1.112,1.911,0,.733,.274,1.316,.824,1.75s1.275,.649,2.175,.649c1.033,0,1.949-.245,2.749-.737Z"/>
    <path d="M301.794,214.926c-.866,0-1.537-.237-2.012-.713-.476-.475-.713-1.146-.713-2.012v-7.998h-2.549v-1.574h2.549v-3.6h1.85v3.6h3.6v1.574h-3.6v7.848c0,.851,.425,1.275,1.274,1.275h2.5v1.6h-2.899Z"/>
    <path d="M309.644,214.476c-.982-.566-1.753-1.341-2.312-2.324s-.837-2.108-.837-3.374,.278-2.392,.837-3.374c.559-.983,1.329-1.759,2.312-2.325,.983-.566,2.1-.85,3.35-.85,1.267,0,2.387,.283,3.361,.85,.976,.566,1.741,1.342,2.3,2.325,.559,.982,.837,2.107,.837,3.374s-.278,2.391-.837,3.374-1.324,1.758-2.3,2.324c-.975,.566-2.095,.85-3.361,.85-1.25,0-2.366-.283-3.35-.85Zm5.724-1.399c.684-.417,1.217-.996,1.6-1.737,.384-.741,.575-1.596,.575-2.562s-.191-1.82-.575-2.562c-.383-.741-.916-1.32-1.6-1.736-.683-.417-1.475-.625-2.374-.625s-1.691,.208-2.374,.625c-.684,.416-1.217,.995-1.6,1.736-.384,.742-.575,1.596-.575,2.562s.191,1.82,.575,2.562c.383,.741,.916,1.32,1.6,1.737,.683,.416,1.475,.625,2.374,.625s1.691-.209,2.374-.625Z"/>
    <path d="M329.019,204.229h-.5c-.733,0-1.425,.191-2.075,.574-.649,.384-1.174,.983-1.574,1.8-.399,.816-.6,1.875-.6,3.174v5.149h-1.85v-12.297h1.824v2.774c.434-1.084,1.066-1.85,1.899-2.3s1.7-.675,2.6-.675h.275v1.8Z"/>
    <path d="M331.495,198.943c-.267-.259-.4-.571-.4-.938,0-.384,.134-.704,.4-.963,.267-.258,.583-.387,.949-.387,.384,0,.704,.129,.963,.387,.258,.259,.387,.579,.387,.963,0,.366-.129,.679-.387,.938-.259,.258-.579,.387-.963,.387-.366,0-.683-.129-.949-.387Zm.024,15.983v-12.297h1.85v12.297h-1.85Z"/>
    <path d="M339.443,214.476c-.982-.566-1.753-1.341-2.312-2.324s-.837-2.108-.837-3.374,.278-2.392,.837-3.374c.559-.983,1.329-1.759,2.312-2.325,.983-.566,2.1-.85,3.35-.85,1.267,0,2.387,.283,3.361,.85,.976,.566,1.741,1.342,2.3,2.325,.559,.982,.837,2.107,.837,3.374s-.278,2.391-.837,3.374-1.324,1.758-2.3,2.324c-.975,.566-2.095,.85-3.361,.85-1.25,0-2.366-.283-3.35-.85Zm5.724-1.399c.684-.417,1.217-.996,1.6-1.737,.384-.741,.575-1.596,.575-2.562s-.191-1.82-.575-2.562c-.383-.741-.916-1.32-1.6-1.736-.683-.417-1.475-.625-2.374-.625s-1.691,.208-2.374,.625c-.684,.416-1.217,.995-1.6,1.736-.384,.742-.575,1.596-.575,2.562s.191,1.82,.575,2.562c.383,.741,.916,1.32,1.6,1.737,.683,.416,1.475,.625,2.374,.625s1.691-.209,2.374-.625Z"/>
    <path d="M368.042,212.951c-.566,.733-1.279,1.312-2.137,1.737-.858,.425-1.829,.637-2.912,.637-1.25,0-2.362-.283-3.337-.85s-1.741-1.341-2.299-2.324c-.559-.983-.838-2.108-.838-3.374s.279-2.392,.838-3.374c.558-.983,1.328-1.759,2.312-2.325s2.1-.85,3.35-.85c1.083,0,2.049,.213,2.898,.638,.851,.425,1.559,1.004,2.125,1.737l-1.325,1.225c-.399-.601-.899-1.079-1.499-1.438s-1.333-.537-2.199-.537c-.9,0-1.691,.208-2.375,.625-.683,.416-1.216,.995-1.6,1.736-.383,.742-.575,1.596-.575,2.562s.192,1.82,.575,2.562c.384,.741,.917,1.32,1.6,1.737,.684,.416,1.475,.625,2.375,.625,.866,0,1.6-.18,2.199-.538,.6-.357,1.1-.837,1.499-1.437l1.325,1.225Z"/>
    <path d="M377.318,204.229h-.5c-.733,0-1.425,.191-2.075,.574-.649,.384-1.174,.983-1.574,1.8-.399,.816-.6,1.875-.6,3.174v5.149h-1.85v-12.297h1.824v2.774c.434-1.084,1.066-1.85,1.899-2.3s1.7-.675,2.6-.675h.275v1.8Z"/>
    <path d="M391.017,212.652c-.649,.833-1.433,1.487-2.35,1.962-.916,.475-1.966,.712-3.148,.712-1.3,0-2.462-.283-3.487-.85-1.024-.566-1.828-1.341-2.412-2.324-.583-.983-.874-2.108-.874-3.374s.278-2.392,.837-3.374c.559-.983,1.329-1.759,2.312-2.325,.983-.566,2.1-.85,3.35-.85,1.2,0,2.262,.279,3.187,.838,.925,.558,1.654,1.32,2.188,2.286,.533,.967,.8,2.083,.8,3.35v.725h-10.697c.149,1.283,.662,2.316,1.537,3.1,.874,.783,1.97,1.175,3.286,1.175,1.733,0,3.124-.759,4.174-2.274l1.3,1.225Zm-8.811-7.686c-.808,.741-1.295,1.72-1.462,2.937h8.723c-.149-1.217-.616-2.195-1.399-2.937-.783-.742-1.725-1.112-2.824-1.112-1.217,0-2.229,.37-3.037,1.112Z"/>
    <path d="M395.832,214.814c-.709-.342-1.259-.805-1.65-1.388s-.587-1.25-.587-1.999c0-.867,.241-1.604,.725-2.212,.483-.608,1.146-1.071,1.987-1.388s1.795-.475,2.861-.475h3.8v-.125c0-1.033-.334-1.858-1-2.475-.667-.616-1.566-.925-2.699-.925-.816,0-1.554,.175-2.212,.525-.658,.35-1.237,.824-1.737,1.424l-1.3-1.249c.684-.733,1.454-1.3,2.312-1.7,.857-.399,1.837-.6,2.937-.6s2.062,.204,2.887,.612c.824,.408,1.466,.979,1.925,1.712,.458,.733,.687,1.6,.687,2.6v7.773h-1.774v-1.725c-.5,.666-1.158,1.187-1.975,1.562s-1.725,.562-2.724,.562c-.934,0-1.754-.171-2.462-.512Zm5.436-1.775c.8-.491,1.366-1.153,1.7-1.986v-2.2h-3.55c-1.116,0-2.045,.204-2.786,.613-.742,.408-1.112,1.045-1.112,1.911,0,.733,.274,1.316,.824,1.75s1.275,.649,2.175,.649c1.033,0,1.949-.245,2.749-.737Z"/>
    <path d="M425.94,214.926v-7.099c0-1.316-.279-2.308-.837-2.975-.559-.666-1.304-.999-2.237-.999-.683,0-1.333,.191-1.949,.574-.616,.384-1.112,.983-1.487,1.8s-.562,1.875-.562,3.175v5.523h-1.85v-7.099c0-1.316-.279-2.308-.837-2.975-.559-.666-1.304-.999-2.237-.999-.683,0-1.333,.191-1.949,.574-.616,.384-1.112,.983-1.487,1.8s-.562,1.875-.562,3.175v5.523h-1.85v-12.297h1.825v2.524c.399-1.066,.999-1.82,1.799-2.263,.8-.441,1.65-.662,2.55-.662,1.05,0,1.929,.271,2.637,.812,.708,.541,1.212,1.32,1.513,2.337,.399-1.116,1.028-1.921,1.887-2.412s1.778-.737,2.762-.737c1.483,0,2.641,.463,3.475,1.388,.833,.925,1.249,2.262,1.249,4.011v7.299h-1.85Z"/>
    <path d="M433.693,214.476c-.983-.566-1.754-1.341-2.312-2.324-.559-.983-.838-2.108-.838-3.374s.279-2.392,.838-3.374c.558-.983,1.328-1.759,2.312-2.325s2.1-.85,3.35-.85c1.266,0,2.387,.283,3.361,.85s1.741,1.342,2.3,2.325c.558,.982,.837,2.107,.837,3.374s-.279,2.391-.837,3.374c-.559,.983-1.325,1.758-2.3,2.324s-2.096,.85-3.361,.85c-1.25,0-2.366-.283-3.35-.85Zm5.724-1.399c.684-.417,1.217-.996,1.6-1.737s.575-1.596,.575-2.562-.192-1.82-.575-2.562c-.383-.741-.916-1.32-1.6-1.736-.684-.417-1.475-.625-2.374-.625s-1.691,.208-2.375,.625c-.683,.416-1.216,.995-1.6,1.736-.383,.742-.575,1.596-.575,2.562s.192,1.82,.575,2.562c.384,.741,.917,1.32,1.6,1.737,.684,.416,1.475,.625,2.375,.625s1.69-.209,2.374-.625Z"/>
    <path d="M446.719,211.777c.583,.616,1.241,1.1,1.975,1.449,.733,.351,1.559,.525,2.475,.525,1,0,1.82-.213,2.462-.638s.962-.971,.962-1.637c0-.583-.271-1.037-.812-1.362-.541-.325-1.453-.579-2.736-.763-1.866-.267-3.179-.67-3.937-1.212-.758-.541-1.138-1.271-1.138-2.187,0-.75,.217-1.404,.65-1.963,.434-.558,1.033-.991,1.8-1.299,.767-.309,1.641-.463,2.624-.463,1.1,0,2.083,.2,2.949,.6,.866,.4,1.633,.967,2.3,1.7l-1.3,1.249c-.5-.616-1.075-1.1-1.725-1.449-.65-.35-1.392-.524-2.225-.524-.916,0-1.675,.191-2.274,.574-.6,.384-.899,.892-.899,1.524,0,.467,.254,.838,.762,1.112,.509,.275,1.371,.496,2.587,.663,1.933,.267,3.295,.695,4.087,1.287,.791,.591,1.187,1.412,1.187,2.462,0,.766-.229,1.445-.687,2.037-.459,.591-1.088,1.049-1.888,1.374s-1.716,.487-2.749,.487c-1.2,0-2.271-.204-3.212-.612s-1.787-.971-2.537-1.687l1.3-1.25Z"/>
    <path d="M94.446,246.317c.583,.617,1.241,1.101,1.975,1.45s1.559,.524,2.475,.524c1,0,1.82-.212,2.462-.637s.962-.971,.962-1.638c0-.583-.271-1.037-.812-1.362-.541-.324-1.453-.578-2.736-.762-1.866-.267-3.179-.671-3.937-1.212-.758-.542-1.138-1.271-1.138-2.188,0-.75,.217-1.403,.65-1.962s1.033-.991,1.8-1.3,1.641-.462,2.624-.462c1.1,0,2.083,.199,2.949,.6,.866,.399,1.633,.966,2.3,1.699l-1.3,1.25c-.5-.616-1.075-1.1-1.725-1.45-.65-.35-1.392-.524-2.225-.524-.916,0-1.675,.191-2.274,.575-.6,.383-.899,.892-.899,1.524,0,.467,.254,.837,.762,1.112,.509,.274,1.371,.495,2.587,.662,1.933,.267,3.295,.695,4.087,1.287,.791,.592,1.187,1.412,1.187,2.462,0,.767-.229,1.445-.687,2.037-.459,.592-1.088,1.05-1.888,1.375-.8,.324-1.716,.487-2.749,.487-1.2,0-2.271-.204-3.212-.612s-1.787-.971-2.537-1.688l1.3-1.25Z"/>
    <path d="M116.269,249.466v-1.999c-.416,.732-1.021,1.316-1.812,1.749-.792,.434-1.688,.65-2.687,.65-1.483,0-2.671-.441-3.562-1.325-.891-.883-1.337-2.157-1.337-3.824v-7.548h1.85v7.349c0,1.216,.296,2.141,.888,2.774,.591,.633,1.42,.949,2.486,.949,.934,0,1.779-.263,2.537-.787,.758-.525,1.296-1.237,1.612-2.137v-8.148h1.85v12.297h-1.825Z"/>
    <path d="M133.293,247.192c-.649,.833-1.433,1.487-2.35,1.962-.916,.476-1.966,.713-3.148,.713-1.3,0-2.462-.283-3.487-.85-1.024-.567-1.828-1.342-2.412-2.325-.583-.982-.874-2.107-.874-3.374s.278-2.391,.837-3.374,1.329-1.758,2.312-2.324c.983-.566,2.1-.85,3.35-.85,1.2,0,2.262,.278,3.187,.837s1.654,1.32,2.188,2.287c.533,.966,.8,2.083,.8,3.349v.726h-10.697c.149,1.282,.662,2.315,1.537,3.099,.874,.783,1.97,1.175,3.286,1.175,1.733,0,3.124-.758,4.174-2.274l1.3,1.225Zm-8.811-7.686c-.808,.741-1.295,1.721-1.462,2.937h8.723c-.149-1.216-.616-2.195-1.399-2.937s-1.725-1.112-2.824-1.112c-1.217,0-2.229,.371-3.037,1.112Z"/>
    <path d="M146.044,249.466v-7.098c0-1.316-.3-2.309-.9-2.975-.6-.667-1.407-1-2.424-1-.733,0-1.425,.191-2.075,.575-.649,.383-1.174,.983-1.574,1.8-.399,.816-.6,1.874-.6,3.174v5.523h-1.85v-12.297h1.824v2.574c.417-1.083,1.046-1.85,1.887-2.299,.842-.45,1.746-.675,2.712-.675,1.5,0,2.683,.462,3.55,1.387,.866,.925,1.3,2.262,1.3,4.012v7.298h-1.85Zm.675-17.37c-.167,.916-.463,1.554-.888,1.912-.425,.357-.887,.537-1.387,.537-.367,0-.726-.075-1.075-.226-.35-.149-.699-.357-1.05-.624-.616-.483-1.066-.726-1.35-.726-.25,0-.471,.13-.662,.388-.191,.259-.321,.654-.388,1.188l-1.374-.625c.166-.917,.462-1.554,.887-1.912s.888-.537,1.388-.537c.383,0,.745,.075,1.087,.225,.342,.15,.688,.358,1.037,.625,.616,.483,1.066,.725,1.35,.725,.25,0,.471-.129,.662-.388,.192-.258,.321-.653,.388-1.187l1.375,.625Z"/>
    <path d="M153.795,249.017c-.982-.567-1.753-1.342-2.312-2.325-.559-.982-.837-2.107-.837-3.374s.278-2.391,.837-3.374,1.329-1.758,2.312-2.324c.983-.566,2.1-.85,3.35-.85,1.267,0,2.387,.283,3.361,.85,.976,.566,1.741,1.341,2.3,2.324s.837,2.107,.837,3.374-.278,2.392-.837,3.374c-.559,.983-1.324,1.758-2.3,2.325-.975,.566-2.095,.85-3.361,.85-1.25,0-2.366-.283-3.35-.85Zm5.724-1.4c.684-.416,1.217-.995,1.6-1.736,.384-.742,.575-1.596,.575-2.562s-.191-1.82-.575-2.562c-.383-.741-.916-1.32-1.6-1.737-.683-.417-1.475-.625-2.374-.625s-1.691,.208-2.374,.625c-.684,.417-1.217,.996-1.6,1.737-.384,.741-.575,1.596-.575,2.562s.191,1.82,.575,2.562c.383,.741,.916,1.32,1.6,1.736,.683,.417,1.475,.625,2.374,.625s1.691-.208,2.374-.625Z"/>
    <path d="M166.821,246.317c.583,.617,1.241,1.101,1.975,1.45,.732,.35,1.558,.524,2.474,.524,1,0,1.821-.212,2.462-.637,.642-.425,.963-.971,.963-1.638,0-.583-.271-1.037-.812-1.362-.542-.324-1.454-.578-2.737-.762-1.866-.267-3.178-.671-3.937-1.212-.758-.542-1.137-1.271-1.137-2.188,0-.75,.217-1.403,.649-1.962,.434-.559,1.033-.991,1.8-1.3s1.642-.462,2.624-.462c1.101,0,2.083,.199,2.95,.6,.866,.399,1.633,.966,2.299,1.699l-1.3,1.25c-.5-.616-1.074-1.1-1.725-1.45-.649-.35-1.391-.524-2.225-.524-.916,0-1.674,.191-2.274,.575-.6,.383-.899,.892-.899,1.524,0,.467,.254,.837,.763,1.112,.508,.274,1.37,.495,2.587,.662,1.933,.267,3.295,.695,4.086,1.287,.792,.592,1.188,1.412,1.188,2.462,0,.767-.229,1.445-.688,2.037s-1.087,1.05-1.887,1.375c-.8,.324-1.717,.487-2.75,.487-1.199,0-2.27-.204-3.211-.612s-1.787-.971-2.537-1.688l1.3-1.25Z"/>
    <path d="M188.345,249.466l-5.299-12.297h2l4.249,10.348,4.273-10.348h1.899l-5.299,12.297h-1.824Z"/>
    <path d="M197.695,233.483c-.267-.258-.399-.57-.399-.938,0-.383,.133-.704,.399-.962,.267-.259,.583-.388,.95-.388,.383,0,.704,.129,.962,.388,.259,.258,.388,.579,.388,.962,0,.367-.129,.68-.388,.938-.258,.259-.579,.388-.962,.388-.367,0-.684-.129-.95-.388Zm.025,15.983v-12.297h1.85v12.297h-1.85Z"/>
    <path d="M203.32,246.317c.583,.617,1.241,1.101,1.975,1.45,.732,.35,1.558,.524,2.474,.524,1,0,1.821-.212,2.462-.637,.642-.425,.963-.971,.963-1.638,0-.583-.271-1.037-.812-1.362-.542-.324-1.454-.578-2.737-.762-1.866-.267-3.178-.671-3.937-1.212-.758-.542-1.137-1.271-1.137-2.188,0-.75,.217-1.403,.649-1.962,.434-.559,1.033-.991,1.8-1.3s1.642-.462,2.624-.462c1.101,0,2.083,.199,2.95,.6,.866,.399,1.633,.966,2.299,1.699l-1.3,1.25c-.5-.616-1.074-1.1-1.725-1.45-.649-.35-1.391-.524-2.225-.524-.916,0-1.674,.191-2.274,.575-.6,.383-.899,.892-.899,1.524,0,.467,.254,.837,.763,1.112,.508,.274,1.37,.495,2.587,.662,1.933,.267,3.295,.695,4.086,1.287,.792,.592,1.188,1.412,1.188,2.462,0,.767-.229,1.445-.688,2.037s-1.087,1.05-1.887,1.375c-.8,.324-1.717,.487-2.75,.487-1.199,0-2.27-.204-3.211-.612s-1.787-.971-2.537-1.688l1.3-1.25Z"/>
    <path d="M225.143,249.466v-1.999c-.417,.732-1.021,1.316-1.812,1.749-.791,.434-1.687,.65-2.687,.65-1.483,0-2.67-.441-3.562-1.325-.892-.883-1.337-2.157-1.337-3.824v-7.548h1.85v7.349c0,1.216,.295,2.141,.887,2.774,.592,.633,1.421,.949,2.487,.949,.933,0,1.778-.263,2.537-.787,.758-.525,1.295-1.237,1.611-2.137v-8.148h1.85v12.297h-1.824Z"/>
    <path d="M231.957,249.354c-.709-.342-1.259-.804-1.65-1.387-.392-.584-.587-1.25-.587-2,0-.866,.241-1.604,.725-2.212s1.146-1.07,1.987-1.387c.842-.317,1.795-.476,2.861-.476h3.8v-.125c0-1.033-.334-1.857-1-2.474-.667-.617-1.566-.925-2.699-.925-.816,0-1.554,.175-2.212,.524s-1.237,.825-1.737,1.425l-1.3-1.25c.684-.733,1.454-1.3,2.312-1.699,.857-.4,1.837-.6,2.937-.6s2.062,.204,2.887,.612c.824,.408,1.466,.979,1.925,1.712,.458,.733,.687,1.6,.687,2.6v7.772h-1.774v-1.725c-.5,.667-1.158,1.188-1.975,1.562s-1.725,.562-2.724,.562c-.934,0-1.754-.171-2.462-.513Zm5.436-1.774c.8-.491,1.366-1.154,1.7-1.987v-2.199h-3.55c-1.116,0-2.045,.204-2.786,.612-.742,.408-1.112,1.046-1.112,1.912,0,.733,.274,1.316,.824,1.749,.55,.434,1.275,.65,2.175,.65,1.033,0,1.949-.246,2.749-.737Z"/>
    <path d="M244.219,249.466v-17.995h1.85v17.995h-1.85Z"/>
    <path d="M261.266,247.192c-.649,.833-1.433,1.487-2.35,1.962-.916,.476-1.966,.713-3.148,.713-1.3,0-2.462-.283-3.487-.85-1.024-.567-1.828-1.342-2.412-2.325-.583-.982-.874-2.107-.874-3.374s.278-2.391,.837-3.374,1.329-1.758,2.312-2.324c.983-.566,2.1-.85,3.35-.85,1.2,0,2.262,.278,3.187,.837s1.654,1.32,2.188,2.287c.533,.966,.8,2.083,.8,3.349v.726h-10.697c.149,1.282,.662,2.315,1.537,3.099,.874,.783,1.97,1.175,3.286,1.175,1.733,0,3.124-.758,4.174-2.274l1.3,1.225Zm-8.811-7.686c-.808,.741-1.295,1.721-1.462,2.937h8.723c-.149-1.216-.616-2.195-1.399-2.937s-1.725-1.112-2.824-1.112c-1.217,0-2.229,.371-3.037,1.112Z"/>
    <path d="M264.844,246.317c.583,.617,1.241,1.101,1.975,1.45,.732,.35,1.558,.524,2.474,.524,1,0,1.821-.212,2.462-.637,.642-.425,.963-.971,.963-1.638,0-.583-.271-1.037-.812-1.362-.542-.324-1.454-.578-2.737-.762-1.866-.267-3.178-.671-3.937-1.212-.758-.542-1.137-1.271-1.137-2.188,0-.75,.217-1.403,.649-1.962,.434-.559,1.033-.991,1.8-1.3s1.642-.462,2.624-.462c1.101,0,2.083,.199,2.95,.6,.866,.399,1.633,.966,2.299,1.699l-1.3,1.25c-.5-.616-1.074-1.1-1.725-1.45-.649-.35-1.391-.524-2.225-.524-.916,0-1.674,.191-2.274,.575-.6,.383-.899,.892-.899,1.524,0,.467,.254,.837,.763,1.112,.508,.274,1.37,.495,2.587,.662,1.933,.267,3.295,.695,4.086,1.287,.792,.592,1.188,1.412,1.188,2.462,0,.767-.229,1.445-.688,2.037s-1.087,1.05-1.887,1.375c-.8,.324-1.717,.487-2.75,.487-1.199,0-2.27-.204-3.211-.612s-1.787-.971-2.537-1.688l1.3-1.25Z"/>
    <path d="M282.318,254.315v-17.146h1.824v2.375c.434-.851,1.092-1.525,1.975-2.025,.883-.499,1.858-.749,2.925-.749,1.199,0,2.266,.287,3.199,.862,.933,.574,1.662,1.354,2.187,2.337,.524,.982,.787,2.099,.787,3.349,0,1.267-.271,2.392-.812,3.374-.541,.983-1.291,1.758-2.249,2.325-.958,.566-2.054,.85-3.287,.85-1.066,0-2.008-.209-2.824-.625-.816-.417-1.441-.983-1.874-1.699v6.772h-1.85Zm1.85-9.022c.316,.883,.883,1.596,1.699,2.137,.816,.542,1.75,.812,2.8,.812,.916,0,1.716-.212,2.399-.637,.683-.426,1.22-1.009,1.611-1.75s.588-1.587,.588-2.537-.188-1.795-.562-2.537c-.375-.741-.896-1.324-1.562-1.749-.666-.425-1.44-.638-2.324-.638-.899,0-1.699,.226-2.399,.675-.699,.45-1.249,1.071-1.649,1.862-.399,.791-.6,1.712-.6,2.762v1.6Z"/>
    <path d="M299.63,249.354c-.708-.342-1.258-.804-1.649-1.387-.392-.584-.587-1.25-.587-2,0-.866,.241-1.604,.725-2.212s1.146-1.07,1.986-1.387c.842-.317,1.796-.476,2.862-.476h3.799v-.125c0-1.033-.333-1.857-1-2.474-.666-.617-1.565-.925-2.699-.925-.816,0-1.554,.175-2.212,.524s-1.237,.825-1.737,1.425l-1.299-1.25c.683-.733,1.453-1.3,2.312-1.699,.858-.4,1.837-.6,2.937-.6s2.062,.204,2.887,.612c.825,.408,1.467,.979,1.925,1.712s.688,1.6,.688,2.6v7.772h-1.774v-1.725c-.5,.667-1.158,1.188-1.975,1.562s-1.725,.562-2.725,.562c-.933,0-1.754-.171-2.462-.513Zm5.437-1.774c.8-.491,1.366-1.154,1.699-1.987v-2.199h-3.549c-1.116,0-2.046,.204-2.787,.612s-1.112,1.046-1.112,1.912c0,.733,.275,1.316,.825,1.749,.55,.434,1.274,.65,2.174,.65,1.033,0,1.95-.246,2.75-.737Z"/>
    <path d="M312.143,246.317c.583,.617,1.241,1.101,1.975,1.45,.732,.35,1.558,.524,2.474,.524,1,0,1.821-.212,2.462-.637,.642-.425,.963-.971,.963-1.638,0-.583-.271-1.037-.812-1.362-.542-.324-1.454-.578-2.737-.762-1.866-.267-3.178-.671-3.937-1.212-.758-.542-1.137-1.271-1.137-2.188,0-.75,.217-1.403,.649-1.962,.434-.559,1.033-.991,1.8-1.3s1.642-.462,2.624-.462c1.101,0,2.083,.199,2.95,.6,.866,.399,1.633,.966,2.299,1.699l-1.3,1.25c-.5-.616-1.074-1.1-1.725-1.45-.649-.35-1.391-.524-2.225-.524-.916,0-1.674,.191-2.274,.575-.6,.383-.899,.892-.899,1.524,0,.467,.254,.837,.763,1.112,.508,.274,1.37,.495,2.587,.662,1.933,.267,3.295,.695,4.086,1.287,.792,.592,1.188,1.412,1.188,2.462,0,.767-.229,1.445-.688,2.037s-1.087,1.05-1.887,1.375c-.8,.324-1.717,.487-2.75,.487-1.199,0-2.27-.204-3.211-.612s-1.787-.971-2.537-1.688l1.3-1.25Z"/>
    <path d="M326.23,249.354c-.709-.342-1.259-.804-1.65-1.387-.392-.584-.587-1.25-.587-2,0-.866,.241-1.604,.725-2.212s1.146-1.07,1.987-1.387c.842-.317,1.795-.476,2.861-.476h3.8v-.125c0-1.033-.334-1.857-1-2.474-.667-.617-1.566-.925-2.699-.925-.816,0-1.554,.175-2.212,.524s-1.237,.825-1.737,1.425l-1.3-1.25c.684-.733,1.454-1.3,2.312-1.699,.857-.4,1.837-.6,2.937-.6s2.062,.204,2.887,.612c.824,.408,1.466,.979,1.925,1.712,.458,.733,.687,1.6,.687,2.6v7.772h-1.774v-1.725c-.5,.667-1.158,1.188-1.975,1.562s-1.725,.562-2.724,.562c-.934,0-1.754-.171-2.462-.513Zm5.436-1.774c.8-.491,1.366-1.154,1.7-1.987v-2.199h-3.55c-1.116,0-2.045,.204-2.786,.612-.742,.408-1.112,1.046-1.112,1.912,0,.733,.274,1.316,.824,1.749,.55,.434,1.275,.65,2.175,.65,1.033,0,1.949-.246,2.749-.737Z"/>
    <path d="M347.914,249.466v-7.098c0-1.316-.3-2.309-.899-2.975-.6-.667-1.408-1-2.425-1-.733,0-1.425,.191-2.074,.575-.65,.383-1.175,.983-1.574,1.8-.4,.816-.601,1.874-.601,3.174v5.523h-1.85v-12.297h1.825v2.574c.416-1.083,1.045-1.85,1.887-2.299,.842-.45,1.745-.675,2.712-.675,1.5,0,2.683,.462,3.549,1.387s1.3,2.262,1.3,4.012v7.298h-1.85Z"/>
    <path d="M363.589,249.466v-1.975c-.433,.733-1.062,1.312-1.887,1.737-.825,.425-1.771,.638-2.837,.638-1.233,0-2.329-.283-3.287-.85-.958-.567-1.708-1.342-2.249-2.325-.542-.982-.812-2.107-.812-3.374,0-1.25,.271-2.366,.812-3.349,.541-.983,1.283-1.763,2.225-2.337,.941-.575,2.012-.862,3.212-.862,1.066,0,2.024,.241,2.874,.725s1.491,1.142,1.925,1.975v-7.998h1.85v17.995h-1.825Zm-8.535-3.611c.392,.741,.933,1.324,1.625,1.75,.691,.425,1.486,.637,2.387,.637,1.05,0,1.982-.271,2.799-.812,.816-.541,1.383-1.254,1.7-2.137v-1.6c0-1.05-.192-1.971-.575-2.762s-.921-1.412-1.612-1.862c-.691-.449-1.487-.675-2.387-.675-.883,0-1.666,.213-2.35,.638-.683,.425-1.216,1.008-1.6,1.749-.383,.742-.575,1.588-.575,2.537s.196,1.796,.588,2.537Z"/>
    <path d="M371.49,249.017c-.982-.567-1.753-1.342-2.312-2.325-.559-.982-.837-2.107-.837-3.374s.278-2.391,.837-3.374,1.329-1.758,2.312-2.324c.983-.566,2.1-.85,3.35-.85,1.267,0,2.387,.283,3.361,.85,.976,.566,1.741,1.341,2.3,2.324s.837,2.107,.837,3.374-.278,2.392-.837,3.374c-.559,.983-1.324,1.758-2.3,2.325-.975,.566-2.095,.85-3.361,.85-1.25,0-2.366-.283-3.35-.85Zm5.724-1.4c.684-.416,1.217-.995,1.6-1.736,.384-.742,.575-1.596,.575-2.562s-.191-1.82-.575-2.562c-.383-.741-.916-1.32-1.6-1.737-.683-.417-1.475-.625-2.374-.625s-1.691,.208-2.374,.625c-.684,.417-1.217,.996-1.6,1.737-.384,.741-.575,1.596-.575,2.562s.191,1.82,.575,2.562c.383,.741,.916,1.32,1.6,1.736,.683,.417,1.475,.625,2.374,.625s1.691-.208,2.374-.625Z"/>
    <path d="M389.142,254.315v-17.146h1.824v2.375c.434-.851,1.092-1.525,1.975-2.025,.883-.499,1.858-.749,2.925-.749,1.199,0,2.266,.287,3.199,.862,.933,.574,1.662,1.354,2.187,2.337,.524,.982,.787,2.099,.787,3.349,0,1.267-.271,2.392-.812,3.374-.541,.983-1.291,1.758-2.249,2.325-.958,.566-2.054,.85-3.287,.85-1.066,0-2.008-.209-2.824-.625-.816-.417-1.441-.983-1.874-1.699v6.772h-1.85Zm1.85-9.022c.316,.883,.883,1.596,1.699,2.137,.816,.542,1.75,.812,2.8,.812,.916,0,1.716-.212,2.399-.637,.683-.426,1.22-1.009,1.611-1.75s.588-1.587,.588-2.537-.188-1.795-.562-2.537c-.375-.741-.896-1.324-1.562-1.749-.666-.425-1.44-.638-2.324-.638-.899,0-1.699,.226-2.399,.675-.699,.45-1.249,1.071-1.649,1.862-.399,.791-.6,1.712-.6,2.762v1.6Z"/>
    <path d="M407.54,249.017c-.982-.567-1.753-1.342-2.312-2.325-.559-.982-.837-2.107-.837-3.374s.278-2.391,.837-3.374,1.329-1.758,2.312-2.324c.983-.566,2.1-.85,3.35-.85,1.267,0,2.387,.283,3.361,.85,.976,.566,1.741,1.341,2.3,2.324s.837,2.107,.837,3.374-.278,2.392-.837,3.374c-.559,.983-1.324,1.758-2.3,2.325-.975,.566-2.095,.85-3.361,.85-1.25,0-2.366-.283-3.35-.85Zm5.724-1.4c.684-.416,1.217-.995,1.6-1.736,.384-.742,.575-1.596,.575-2.562s-.191-1.82-.575-2.562c-.383-.741-.916-1.32-1.6-1.737-.683-.417-1.475-.625-2.374-.625s-1.691,.208-2.374,.625c-.684,.417-1.217,.996-1.6,1.737-.384,.741-.575,1.596-.575,2.562s.191,1.82,.575,2.562c.383,.741,.916,1.32,1.6,1.736,.683,.417,1.475,.625,2.374,.625s1.691-.208,2.374-.625Z"/>
    <path d="M426.915,238.769h-.5c-.733,0-1.425,.191-2.075,.575-.649,.383-1.174,.982-1.574,1.8-.399,.816-.6,1.874-.6,3.174v5.148h-1.85v-12.297h1.824v2.774c.434-1.083,1.066-1.85,1.899-2.3,.833-.449,1.7-.675,2.6-.675h.275v1.8Z"/>
    <path d="M434.291,249.466v-17.995h1.85v17.995h-1.85Z"/>
    <path d="M441.128,249.354c-.708-.342-1.258-.804-1.649-1.387-.392-.584-.587-1.25-.587-2,0-.866,.241-1.604,.725-2.212s1.146-1.07,1.986-1.387c.842-.317,1.796-.476,2.862-.476h3.799v-.125c0-1.033-.333-1.857-1-2.474-.666-.617-1.565-.925-2.699-.925-.816,0-1.554,.175-2.212,.524s-1.237,.825-1.737,1.425l-1.299-1.25c.683-.733,1.453-1.3,2.312-1.699,.858-.4,1.837-.6,2.937-.6s2.062,.204,2.887,.612c.825,.408,1.467,.979,1.925,1.712s.688,1.6,.688,2.6v7.772h-1.774v-1.725c-.5,.667-1.158,1.188-1.975,1.562s-1.725,.562-2.725,.562c-.933,0-1.754-.171-2.462-.513Zm5.437-1.774c.8-.491,1.366-1.154,1.699-1.987v-2.199h-3.549c-1.116,0-2.046,.204-2.787,.612s-1.112,1.046-1.112,1.912c0,.733,.275,1.316,.825,1.749,.55,.434,1.274,.65,2.174,.65,1.033,0,1.95-.246,2.75-.737Z"/>
    <path d="M453.641,246.317c.583,.617,1.241,1.101,1.975,1.45,.732,.35,1.558,.524,2.474,.524,1,0,1.821-.212,2.462-.637,.642-.425,.963-.971,.963-1.638,0-.583-.271-1.037-.812-1.362-.542-.324-1.454-.578-2.737-.762-1.866-.267-3.178-.671-3.937-1.212-.758-.542-1.137-1.271-1.137-2.188,0-.75,.217-1.403,.649-1.962,.434-.559,1.033-.991,1.8-1.3s1.642-.462,2.624-.462c1.101,0,2.083,.199,2.95,.6,.866,.399,1.633,.966,2.299,1.699l-1.3,1.25c-.5-.616-1.074-1.1-1.725-1.45-.649-.35-1.391-.524-2.225-.524-.916,0-1.674,.191-2.274,.575-.6,.383-.899,.892-.899,1.524,0,.467,.254,.837,.763,1.112,.508,.274,1.37,.495,2.587,.662,1.933,.267,3.295,.695,4.086,1.287,.792,.592,1.188,1.412,1.188,2.462,0,.767-.229,1.445-.688,2.037s-1.087,1.05-1.887,1.375c-.8,.324-1.717,.487-2.75,.487-1.199,0-2.27-.204-3.211-.612s-1.787-.971-2.537-1.688l1.3-1.25Z"/>
    <path d="M98.471,284.007c-.866,0-1.537-.237-2.012-.712-.476-.475-.713-1.146-.713-2.012v-7.998h-2.549v-1.575h2.549v-3.599h1.85v3.599h3.6v1.575h-3.6v7.848c0,.85,.425,1.274,1.274,1.274h2.5v1.6h-2.899Z"/>
    <path d="M110.595,273.31h-.5c-.733,0-1.425,.191-2.074,.575-.65,.383-1.175,.982-1.574,1.8-.4,.816-.601,1.874-.601,3.174v5.148h-1.85v-12.297h1.825v2.774c.433-1.083,1.066-1.85,1.899-2.3,.833-.449,1.699-.675,2.6-.675h.274v1.8Z"/>
    <path d="M124.294,281.733c-.649,.833-1.433,1.487-2.35,1.962-.916,.476-1.966,.713-3.148,.713-1.3,0-2.462-.283-3.487-.85-1.024-.567-1.828-1.342-2.412-2.325-.583-.982-.874-2.107-.874-3.374s.278-2.391,.837-3.374,1.329-1.758,2.312-2.324c.983-.566,2.1-.85,3.35-.85,1.2,0,2.262,.278,3.187,.837s1.654,1.32,2.188,2.287c.533,.966,.8,2.083,.8,3.349v.726h-10.697c.149,1.282,.662,2.315,1.537,3.099,.874,.783,1.97,1.175,3.286,1.175,1.733,0,3.124-.758,4.174-2.274l1.3,1.225Zm-8.811-7.686c-.808,.741-1.295,1.721-1.462,2.937h8.723c-.149-1.216-.616-2.195-1.399-2.937s-1.725-1.112-2.824-1.112c-1.217,0-2.229,.371-3.037,1.112Z"/>
    <path d="M127.872,280.858c.583,.617,1.241,1.101,1.975,1.45,.732,.35,1.558,.524,2.474,.524,1,0,1.821-.212,2.462-.637,.642-.425,.963-.971,.963-1.638,0-.583-.271-1.037-.812-1.362-.542-.324-1.454-.578-2.737-.762-1.866-.267-3.178-.671-3.937-1.212-.758-.542-1.137-1.271-1.137-2.188,0-.75,.217-1.403,.649-1.962,.434-.559,1.033-.991,1.8-1.3s1.642-.462,2.624-.462c1.101,0,2.083,.199,2.95,.6,.866,.399,1.633,.966,2.299,1.699l-1.3,1.25c-.5-.616-1.074-1.1-1.725-1.45-.649-.35-1.391-.524-2.225-.524-.916,0-1.674,.191-2.274,.575-.6,.383-.899,.892-.899,1.524,0,.467,.254,.837,.763,1.112,.508,.274,1.37,.495,2.587,.662,1.933,.267,3.295,.695,4.086,1.287,.792,.592,1.188,1.412,1.188,2.462,0,.767-.229,1.445-.688,2.037s-1.087,1.05-1.887,1.375c-.8,.324-1.717,.487-2.75,.487-1.199,0-2.27-.204-3.211-.612s-1.787-.971-2.537-1.688l1.3-1.25Z"/>
    <path d="M146.897,284.007v-10.722h-2.55v-1.575h2.55v-2.725c0-1.982,.991-2.974,2.974-2.974h2.475v1.55h-2.074c-.533,0-.921,.12-1.162,.362-.242,.241-.362,.629-.362,1.162v2.624h3.599v1.575h-3.599v10.722h-1.85Z"/>
    <path d="M156.333,283.895c-.708-.342-1.258-.804-1.649-1.387-.392-.584-.587-1.25-.587-2,0-.866,.241-1.604,.725-2.212s1.146-1.07,1.986-1.387c.842-.317,1.796-.476,2.862-.476h3.799v-.125c0-1.033-.333-1.857-1-2.474-.666-.617-1.565-.925-2.699-.925-.816,0-1.554,.175-2.212,.524s-1.237,.825-1.737,1.425l-1.299-1.25c.683-.733,1.453-1.3,2.312-1.699,.858-.4,1.837-.6,2.937-.6s2.062,.204,2.887,.612c.825,.408,1.467,.979,1.925,1.712s.688,1.6,.688,2.6v7.772h-1.774v-1.725c-.5,.667-1.158,1.188-1.975,1.562s-1.725,.562-2.725,.562c-.933,0-1.754-.171-2.462-.513Zm5.437-1.774c.8-.491,1.366-1.154,1.699-1.987v-2.199h-3.549c-1.116,0-2.046,.204-2.787,.612s-1.112,1.046-1.112,1.912c0,.733,.275,1.316,.825,1.749,.55,.434,1.274,.65,2.174,.65,1.033,0,1.95-.246,2.75-.737Z"/>
    <path d="M168.846,280.858c.583,.617,1.241,1.101,1.975,1.45,.732,.35,1.558,.524,2.474,.524,1,0,1.821-.212,2.462-.637,.642-.425,.963-.971,.963-1.638,0-.583-.271-1.037-.812-1.362-.542-.324-1.454-.578-2.737-.762-1.866-.267-3.178-.671-3.937-1.212-.758-.542-1.137-1.271-1.137-2.188,0-.75,.217-1.403,.649-1.962,.434-.559,1.033-.991,1.8-1.3s1.642-.462,2.624-.462c1.101,0,2.083,.199,2.95,.6,.866,.399,1.633,.966,2.299,1.699l-1.3,1.25c-.5-.616-1.074-1.1-1.725-1.45-.649-.35-1.391-.524-2.225-.524-.916,0-1.674,.191-2.274,.575-.6,.383-.899,.892-.899,1.524,0,.467,.254,.837,.763,1.112,.508,.274,1.37,.495,2.587,.662,1.933,.267,3.295,.695,4.086,1.287,.792,.592,1.188,1.412,1.188,2.462,0,.767-.229,1.445-.688,2.037s-1.087,1.05-1.887,1.375c-.8,.324-1.717,.487-2.75,.487-1.199,0-2.27-.204-3.211-.612s-1.787-.971-2.537-1.688l1.3-1.25Z"/>
    <path d="M193.143,281.733c-.65,.833-1.434,1.487-2.35,1.962-.917,.476-1.966,.713-3.149,.713-1.3,0-2.462-.283-3.486-.85-1.025-.567-1.829-1.342-2.412-2.325-.583-.982-.875-2.107-.875-3.374s.279-2.391,.838-3.374c.558-.983,1.328-1.758,2.312-2.324s2.1-.85,3.35-.85c1.199,0,2.262,.278,3.187,.837s1.653,1.32,2.187,2.287c.533,.966,.8,2.083,.8,3.349v.726h-10.697c.15,1.282,.662,2.315,1.537,3.099s1.971,1.175,3.287,1.175c1.732,0,3.124-.758,4.174-2.274l1.3,1.225Zm-8.811-7.686c-.809,.741-1.296,1.721-1.462,2.937h8.723c-.15-1.216-.616-2.195-1.399-2.937s-1.725-1.112-2.824-1.112c-1.217,0-2.229,.371-3.037,1.112Z"/>
    <path d="M196.72,280.858c.583,.617,1.241,1.101,1.975,1.45s1.559,.524,2.475,.524c1,0,1.82-.212,2.462-.637s.962-.971,.962-1.638c0-.583-.271-1.037-.812-1.362-.541-.324-1.453-.578-2.736-.762-1.866-.267-3.179-.671-3.937-1.212-.758-.542-1.138-1.271-1.138-2.188,0-.75,.217-1.403,.65-1.962s1.033-.991,1.8-1.3,1.641-.462,2.624-.462c1.1,0,2.083,.199,2.949,.6,.866,.399,1.633,.966,2.3,1.699l-1.3,1.25c-.5-.616-1.075-1.1-1.725-1.45-.65-.35-1.392-.524-2.225-.524-.916,0-1.675,.191-2.274,.575-.6,.383-.899,.892-.899,1.524,0,.467,.254,.837,.762,1.112,.509,.274,1.371,.495,2.587,.662,1.933,.267,3.295,.695,4.087,1.287,.791,.592,1.187,1.412,1.187,2.462,0,.767-.229,1.445-.687,2.037-.459,.592-1.088,1.05-1.888,1.375-.8,.324-1.716,.487-2.749,.487-1.2,0-2.271-.204-3.212-.612s-1.787-.971-2.537-1.688l1.3-1.25Z"/>
    <path d="M224.692,284.007v-1.975c-.434,.733-1.062,1.312-1.888,1.737-.824,.425-1.771,.638-2.837,.638-1.232,0-2.328-.283-3.286-.85-.958-.567-1.708-1.342-2.25-2.325-.541-.982-.812-2.107-.812-3.374,0-1.25,.271-2.366,.812-3.349,.542-.983,1.283-1.763,2.225-2.337,.941-.575,2.013-.862,3.212-.862,1.066,0,2.024,.241,2.874,.725,.851,.483,1.491,1.142,1.925,1.975v-7.998h1.85v17.995h-1.824Zm-8.536-3.611c.392,.741,.934,1.324,1.625,1.75,.691,.425,1.487,.637,2.387,.637,1.05,0,1.983-.271,2.8-.812,.816-.541,1.383-1.254,1.699-2.137v-1.6c0-1.05-.191-1.971-.575-2.762-.383-.791-.92-1.412-1.611-1.862-.691-.449-1.487-.675-2.388-.675-.883,0-1.666,.213-2.349,.638-.684,.425-1.217,1.008-1.6,1.749-.384,.742-.575,1.588-.575,2.537s.195,1.796,.587,2.537Z"/>
    <path d="M241.717,281.733c-.65,.833-1.434,1.487-2.35,1.962-.917,.476-1.966,.713-3.149,.713-1.3,0-2.462-.283-3.486-.85-1.025-.567-1.829-1.342-2.412-2.325-.583-.982-.875-2.107-.875-3.374s.279-2.391,.838-3.374c.558-.983,1.328-1.758,2.312-2.324s2.1-.85,3.35-.85c1.199,0,2.262,.278,3.187,.837s1.653,1.32,2.187,2.287c.533,.966,.8,2.083,.8,3.349v.726h-10.697c.15,1.282,.662,2.315,1.537,3.099s1.971,1.175,3.287,1.175c1.732,0,3.124-.758,4.174-2.274l1.3,1.225Zm-8.811-7.686c-.809,.741-1.296,1.721-1.462,2.937h8.723c-.15-1.216-.616-2.195-1.399-2.937s-1.725-1.112-2.824-1.112c-1.217,0-2.229,.371-3.037,1.112Z"/>
    <path d="M259.342,284.007v-7.098c0-1.316-.3-2.309-.899-2.975-.6-.667-1.408-1-2.425-1-.733,0-1.425,.191-2.074,.575-.65,.383-1.175,.983-1.574,1.8-.4,.816-.601,1.874-.601,3.174v5.523h-1.85v-12.297h1.825v2.574c.416-1.083,1.045-1.85,1.887-2.299,.842-.45,1.745-.675,2.712-.675,1.5,0,2.683,.462,3.549,1.387s1.3,2.262,1.3,4.012v7.298h-1.85Z"/>
    <path d="M273.742,284.007v-1.999c-.417,.732-1.021,1.316-1.812,1.749-.791,.434-1.687,.65-2.687,.65-1.483,0-2.67-.441-3.562-1.325-.892-.883-1.337-2.157-1.337-3.824v-7.548h1.85v7.349c0,1.216,.295,2.141,.887,2.774,.592,.633,1.421,.949,2.487,.949,.933,0,1.778-.263,2.537-.787,.758-.525,1.295-1.237,1.611-2.137v-8.148h1.85v12.297h-1.824Z"/>
    <path d="M290.767,281.733c-.65,.833-1.434,1.487-2.35,1.962-.917,.476-1.966,.713-3.149,.713-1.3,0-2.462-.283-3.486-.85-1.025-.567-1.829-1.342-2.412-2.325-.583-.982-.875-2.107-.875-3.374s.279-2.391,.838-3.374c.558-.983,1.328-1.758,2.312-2.324s2.1-.85,3.35-.85c1.199,0,2.262,.278,3.187,.837s1.653,1.32,2.187,2.287c.533,.966,.8,2.083,.8,3.349v.726h-10.697c.15,1.282,.662,2.315,1.537,3.099s1.971,1.175,3.287,1.175c1.732,0,3.124-.758,4.174-2.274l1.3,1.225Zm-8.811-7.686c-.809,.741-1.296,1.721-1.462,2.937h8.723c-.15-1.216-.616-2.195-1.399-2.937s-1.725-1.112-2.824-1.112c-1.217,0-2.229,.371-3.037,1.112Z"/>
    <path d="M294.344,280.858c.583,.617,1.241,1.101,1.975,1.45s1.559,.524,2.475,.524c1,0,1.82-.212,2.462-.637s.962-.971,.962-1.638c0-.583-.271-1.037-.812-1.362-.541-.324-1.453-.578-2.736-.762-1.866-.267-3.179-.671-3.937-1.212-.758-.542-1.138-1.271-1.138-2.188,0-.75,.217-1.403,.65-1.962s1.033-.991,1.8-1.3,1.641-.462,2.624-.462c1.1,0,2.083,.199,2.949,.6,.866,.399,1.633,.966,2.3,1.699l-1.3,1.25c-.5-.616-1.075-1.1-1.725-1.45-.65-.35-1.392-.524-2.225-.524-.916,0-1.675,.191-2.274,.575-.6,.383-.899,.892-.899,1.524,0,.467,.254,.837,.762,1.112,.509,.274,1.371,.495,2.587,.662,1.933,.267,3.295,.695,4.087,1.287,.791,.592,1.187,1.412,1.187,2.462,0,.767-.229,1.445-.687,2.037-.459,.592-1.088,1.05-1.888,1.375-.8,.324-1.716,.487-2.749,.487-1.2,0-2.271-.204-3.212-.612s-1.787-.971-2.537-1.688l1.3-1.25Z"/>
    <path d="M311.218,284.007c-.866,0-1.537-.237-2.012-.712-.476-.475-.713-1.146-.713-2.012v-7.998h-2.549v-1.575h2.549v-3.599h1.85v3.599h3.6v1.575h-3.6v7.848c0,.85,.425,1.274,1.274,1.274h2.5v1.6h-2.899Z"/>
    <path d="M323.342,273.31h-.5c-.733,0-1.425,.191-2.074,.575-.65,.383-1.175,.982-1.574,1.8-.4,.816-.601,1.874-.601,3.174v5.148h-1.85v-12.297h1.825v2.774c.433-1.083,1.066-1.85,1.899-2.3,.833-.449,1.699-.675,2.6-.675h.274v1.8Z"/>
    <path d="M327.918,283.558c-.983-.567-1.754-1.342-2.312-2.325-.559-.982-.838-2.107-.838-3.374s.279-2.391,.838-3.374c.558-.983,1.328-1.758,2.312-2.324s2.1-.85,3.35-.85c1.266,0,2.387,.283,3.361,.85s1.741,1.341,2.3,2.324c.558,.983,.837,2.107,.837,3.374s-.279,2.392-.837,3.374c-.559,.983-1.325,1.758-2.3,2.325-.975,.566-2.096,.85-3.361,.85-1.25,0-2.366-.283-3.35-.85Zm5.724-1.4c.684-.416,1.217-.995,1.6-1.736,.383-.742,.575-1.596,.575-2.562s-.192-1.82-.575-2.562-.916-1.32-1.6-1.737-1.475-.625-2.374-.625-1.691,.208-2.375,.625c-.683,.417-1.216,.996-1.6,1.737-.383,.741-.575,1.596-.575,2.562s.192,1.82,.575,2.562c.384,.741,.917,1.32,1.6,1.736,.684,.417,1.475,.625,2.375,.625s1.69-.208,2.374-.625Z"/>
    <path d="M345.568,288.856v-17.146h1.825v2.375c.433-.851,1.091-1.525,1.975-2.025,.883-.499,1.857-.749,2.924-.749,1.2,0,2.267,.287,3.199,.862,.934,.574,1.662,1.354,2.187,2.337,.525,.982,.788,2.099,.788,3.349,0,1.267-.271,2.392-.812,3.374-.542,.983-1.291,1.758-2.25,2.325-.958,.566-2.053,.85-3.286,.85-1.066,0-2.008-.209-2.824-.625-.816-.417-1.441-.983-1.875-1.699v6.772h-1.85Zm1.85-9.022c.316,.883,.884,1.596,1.7,2.137,.816,.542,1.749,.812,2.799,.812,.917,0,1.717-.212,2.399-.637,.684-.426,1.221-1.009,1.612-1.75s.587-1.587,.587-2.537-.188-1.795-.562-2.537c-.375-.741-.896-1.324-1.562-1.749-.667-.425-1.441-.638-2.324-.638-.9,0-1.7,.226-2.399,.675-.7,.45-1.25,1.071-1.649,1.862-.4,.791-.601,1.712-.601,2.762v1.6Z"/>
    <path d="M367.992,273.31h-.5c-.733,0-1.425,.191-2.075,.575-.649,.383-1.174,.982-1.574,1.8-.399,.816-.6,1.874-.6,3.174v5.148h-1.85v-12.297h1.824v2.774c.434-1.083,1.066-1.85,1.899-2.3,.833-.449,1.7-.675,2.6-.675h.275v1.8Z"/>
    <path d="M372.568,283.558c-.983-.567-1.754-1.342-2.312-2.325-.559-.982-.838-2.107-.838-3.374s.279-2.391,.838-3.374c.558-.983,1.328-1.758,2.312-2.324s2.1-.85,3.35-.85c1.266,0,2.387,.283,3.361,.85s1.741,1.341,2.3,2.324c.558,.983,.837,2.107,.837,3.374s-.279,2.392-.837,3.374c-.559,.983-1.325,1.758-2.3,2.325-.975,.566-2.096,.85-3.361,.85-1.25,0-2.366-.283-3.35-.85Zm5.724-1.4c.684-.416,1.217-.995,1.6-1.736,.383-.742,.575-1.596,.575-2.562s-.192-1.82-.575-2.562-.916-1.32-1.6-1.737-1.475-.625-2.374-.625-1.691,.208-2.375,.625c-.683,.417-1.216,.996-1.6,1.737-.383,.741-.575,1.596-.575,2.562s.192,1.82,.575,2.562c.384,.741,.917,1.32,1.6,1.736,.684,.417,1.475,.625,2.375,.625s1.69-.208,2.374-.625Z"/>
    <path d="M396.291,282.032c-.566,.733-1.278,1.312-2.137,1.737s-1.828,.638-2.912,.638c-1.249,0-2.361-.283-3.336-.85-.975-.567-1.741-1.342-2.3-2.325-.559-.982-.837-2.107-.837-3.374s.278-2.391,.837-3.374,1.329-1.758,2.312-2.324c.983-.566,2.1-.85,3.35-.85,1.083,0,2.05,.212,2.899,.637s1.558,1.004,2.124,1.737l-1.324,1.225c-.4-.6-.899-1.079-1.5-1.438-.6-.357-1.333-.537-2.199-.537-.899,0-1.691,.208-2.374,.625-.684,.417-1.217,.996-1.6,1.737-.384,.741-.575,1.596-.575,2.562s.191,1.82,.575,2.562c.383,.741,.916,1.32,1.6,1.736,.683,.417,1.475,.625,2.374,.625,.866,0,1.6-.179,2.199-.537,.601-.358,1.1-.838,1.5-1.438l1.324,1.225Z"/>
    <path d="M410.166,281.733c-.649,.833-1.433,1.487-2.35,1.962-.916,.476-1.966,.713-3.148,.713-1.3,0-2.462-.283-3.487-.85-1.024-.567-1.828-1.342-2.412-2.325-.583-.982-.874-2.107-.874-3.374s.278-2.391,.837-3.374,1.329-1.758,2.312-2.324c.983-.566,2.1-.85,3.35-.85,1.2,0,2.262,.278,3.187,.837s1.654,1.32,2.188,2.287c.533,.966,.8,2.083,.8,3.349v.726h-10.697c.149,1.282,.662,2.315,1.537,3.099,.874,.783,1.97,1.175,3.286,1.175,1.733,0,3.124-.758,4.174-2.274l1.3,1.225Zm-8.811-7.686c-.808,.741-1.295,1.721-1.462,2.937h8.723c-.149-1.216-.616-2.195-1.399-2.937s-1.725-1.112-2.824-1.112c-1.217,0-2.229,.371-3.037,1.112Z"/>
    <path d="M413.744,280.858c.583,.617,1.241,1.101,1.975,1.45,.732,.35,1.558,.524,2.474,.524,1,0,1.821-.212,2.462-.637,.642-.425,.963-.971,.963-1.638,0-.583-.271-1.037-.812-1.362-.542-.324-1.454-.578-2.737-.762-1.866-.267-3.178-.671-3.937-1.212-.758-.542-1.137-1.271-1.137-2.188,0-.75,.217-1.403,.649-1.962,.434-.559,1.033-.991,1.8-1.3s1.642-.462,2.624-.462c1.101,0,2.083,.199,2.95,.6,.866,.399,1.633,.966,2.299,1.699l-1.3,1.25c-.5-.616-1.074-1.1-1.725-1.45-.649-.35-1.391-.524-2.225-.524-.916,0-1.674,.191-2.274,.575-.6,.383-.899,.892-.899,1.524,0,.467,.254,.837,.763,1.112,.508,.274,1.37,.495,2.587,.662,1.933,.267,3.295,.695,4.086,1.287,.792,.592,1.188,1.412,1.188,2.462,0,.767-.229,1.445-.688,2.037s-1.087,1.05-1.887,1.375c-.8,.324-1.717,.487-2.75,.487-1.199,0-2.27-.204-3.211-.612s-1.787-.971-2.537-1.688l1.3-1.25Z"/>
    <path d="M428.918,283.558c-.983-.567-1.754-1.342-2.312-2.325-.559-.982-.838-2.107-.838-3.374s.279-2.391,.838-3.374c.558-.983,1.328-1.758,2.312-2.324s2.1-.85,3.35-.85c1.266,0,2.387,.283,3.361,.85s1.741,1.341,2.3,2.324c.558,.983,.837,2.107,.837,3.374s-.279,2.392-.837,3.374c-.559,.983-1.325,1.758-2.3,2.325-.975,.566-2.096,.85-3.361,.85-1.25,0-2.366-.283-3.35-.85Zm5.724-1.4c.684-.416,1.217-.995,1.6-1.736,.383-.742,.575-1.596,.575-2.562s-.192-1.82-.575-2.562-.916-1.32-1.6-1.737-1.475-.625-2.374-.625-1.691,.208-2.375,.625c-.683,.417-1.216,.996-1.6,1.737-.383,.741-.575,1.596-.575,2.562s.192,1.82,.575,2.562c.384,.741,.917,1.32,1.6,1.736,.684,.417,1.475,.625,2.375,.625s1.69-.208,2.374-.625Z"/>
    <path d="M105.144,316.573c-.566,.733-1.278,1.312-2.137,1.737s-1.828,.637-2.912,.637c-1.249,0-2.361-.283-3.336-.85s-1.741-1.341-2.3-2.324-.837-2.108-.837-3.374,.278-2.392,.837-3.374c.559-.983,1.329-1.759,2.312-2.325,.983-.566,2.1-.85,3.35-.85,1.083,0,2.05,.213,2.899,.638s1.558,1.004,2.124,1.737l-1.324,1.225c-.4-.601-.899-1.079-1.5-1.438-.6-.358-1.333-.537-2.199-.537-.899,0-1.691,.208-2.374,.625-.684,.416-1.217,.995-1.6,1.736-.384,.742-.575,1.596-.575,2.562s.191,1.82,.575,2.562c.383,.741,.916,1.32,1.6,1.737,.683,.416,1.475,.625,2.374,.625,.866,0,1.6-.18,2.199-.538,.601-.357,1.1-.837,1.5-1.437l1.324,1.225Z"/>
    <path d="M119.02,316.274c-.65,.833-1.434,1.487-2.35,1.962-.917,.475-1.966,.712-3.149,.712-1.3,0-2.462-.283-3.486-.85-1.025-.566-1.829-1.341-2.412-2.324s-.875-2.108-.875-3.374,.279-2.392,.838-3.374c.558-.983,1.328-1.759,2.312-2.325s2.1-.85,3.35-.85c1.199,0,2.262,.279,3.187,.838,.925,.558,1.653,1.32,2.187,2.286,.533,.967,.8,2.083,.8,3.35v.725h-10.697c.15,1.283,.662,2.316,1.537,3.1s1.971,1.175,3.287,1.175c1.732,0,3.124-.759,4.174-2.274l1.3,1.225Zm-8.811-7.686c-.809,.741-1.296,1.72-1.462,2.937h8.723c-.15-1.217-.616-2.195-1.399-2.937-.783-.742-1.725-1.112-2.824-1.112-1.217,0-2.229,.37-3.037,1.112Z"/>
    <path d="M131.77,318.548v-7.099c0-1.316-.3-2.308-.899-2.975-.6-.666-1.408-.999-2.425-.999-.733,0-1.425,.191-2.074,.574-.65,.384-1.175,.983-1.574,1.8-.4,.816-.601,1.875-.601,3.175v5.523h-1.85v-12.297h1.825v2.574c.416-1.083,1.045-1.85,1.887-2.3s1.745-.675,2.712-.675c1.5,0,2.683,.463,3.549,1.388s1.3,2.262,1.3,4.011v7.299h-1.85Z"/>
    <path d="M141.221,318.548c-.866,0-1.537-.237-2.012-.713-.475-.475-.712-1.146-.712-2.012v-7.998h-2.55v-1.574h2.55v-3.6h1.85v3.6h3.599v1.574h-3.599v7.848c0,.851,.425,1.275,1.274,1.275h2.499v1.6h-2.899Z"/>
    <path d="M153.346,307.851h-.5c-.733,0-1.425,.191-2.075,.574-.649,.384-1.174,.983-1.574,1.8-.399,.816-.6,1.875-.6,3.174v5.149h-1.85v-12.297h1.824v2.774c.434-1.084,1.066-1.85,1.899-2.3s1.7-.675,2.6-.675h.275v1.8Z"/>
    <path d="M157.334,318.436c-.708-.342-1.258-.805-1.649-1.388s-.587-1.25-.587-1.999c0-.867,.241-1.604,.725-2.212,.483-.608,1.146-1.071,1.986-1.388,.842-.316,1.796-.475,2.862-.475h3.799v-.125c0-1.033-.333-1.858-1-2.475-.666-.616-1.565-.925-2.699-.925-.816,0-1.554,.175-2.212,.525-.658,.35-1.237,.824-1.737,1.424l-1.299-1.249c.683-.733,1.453-1.3,2.312-1.7,.858-.399,1.837-.6,2.937-.6s2.062,.204,2.887,.612c.825,.408,1.467,.979,1.925,1.712,.458,.733,.688,1.6,.688,2.6v7.773h-1.774v-1.725c-.5,.666-1.158,1.187-1.975,1.562s-1.725,.562-2.725,.562c-.933,0-1.754-.171-2.462-.512Zm5.437-1.775c.8-.491,1.366-1.153,1.699-1.986v-2.2h-3.549c-1.116,0-2.046,.204-2.787,.613-.741,.408-1.112,1.045-1.112,1.911,0,.733,.275,1.316,.825,1.75s1.274,.649,2.174,.649c1.033,0,1.95-.245,2.75-.737Z"/>
    <path d="M169.597,318.548v-17.996h1.85v17.996h-1.85Z"/>
    <path d="M176.958,308.638c-.274,.274-.604,.412-.987,.412s-.712-.138-.987-.412c-.274-.275-.412-.604-.412-.987s.138-.713,.412-.987,.604-.412,.987-.412,.713,.137,.987,.412c.275,.274,.412,.604,.412,.987s-.137,.712-.412,.987Zm0,9.747c-.274,.275-.604,.413-.987,.413s-.712-.138-.987-.413-.412-.604-.412-.987,.138-.712,.412-.987c.275-.274,.604-.412,.987-.412s.713,.138,.987,.412,.412,.604,.412,.987-.137,.713-.412,.987Z"/>
    <path d="M185.346,302.565c-.267-.259-.399-.571-.399-.938,0-.384,.133-.704,.399-.963,.267-.258,.583-.387,.95-.387,.383,0,.704,.129,.962,.387s.388,.579,.388,.963c0,.366-.129,.679-.388,.938s-.579,.387-.962,.387c-.367,0-.684-.129-.95-.387Zm.025,15.983v-12.297h1.85v12.297h-1.85Z"/>
    <path d="M200.144,318.548v-7.099c0-1.316-.3-2.308-.9-2.975-.6-.666-1.407-.999-2.424-.999-.733,0-1.425,.191-2.075,.574-.649,.384-1.174,.983-1.574,1.8-.399,.816-.6,1.875-.6,3.175v5.523h-1.85v-12.297h1.824v2.574c.417-1.083,1.046-1.85,1.887-2.3,.842-.45,1.746-.675,2.712-.675,1.5,0,2.683,.463,3.55,1.388,.866,.925,1.3,2.262,1.3,4.011v7.299h-1.85Z"/>
    <path d="M205.57,315.399c.583,.616,1.241,1.1,1.975,1.449,.733,.351,1.559,.525,2.475,.525,1,0,1.82-.213,2.462-.638s.962-.971,.962-1.637c0-.583-.271-1.037-.812-1.362-.541-.325-1.453-.579-2.736-.763-1.866-.267-3.179-.67-3.937-1.212-.758-.541-1.138-1.271-1.138-2.187,0-.75,.217-1.404,.65-1.963,.434-.558,1.033-.991,1.8-1.299,.767-.309,1.641-.463,2.624-.463,1.1,0,2.083,.2,2.949,.6,.866,.4,1.633,.967,2.3,1.7l-1.3,1.249c-.5-.616-1.075-1.1-1.725-1.449-.65-.35-1.392-.524-2.225-.524-.916,0-1.675,.191-2.274,.574-.6,.384-.899,.892-.899,1.524,0,.467,.254,.838,.762,1.112,.509,.275,1.371,.496,2.587,.663,1.933,.267,3.295,.695,4.087,1.287,.791,.591,1.187,1.412,1.187,2.462,0,.766-.229,1.445-.687,2.037-.459,.591-1.088,1.049-1.888,1.374s-1.716,.487-2.749,.487c-1.2,0-2.271-.204-3.212-.612s-1.787-.971-2.537-1.687l1.3-1.25Z"/>
    <path d="M218.17,323.397v-17.146h1.825v2.374c.433-.85,1.091-1.524,1.975-2.024,.883-.5,1.857-.75,2.924-.75,1.2,0,2.267,.287,3.199,.862,.934,.575,1.662,1.354,2.187,2.337,.525,.983,.788,2.1,.788,3.35,0,1.266-.271,2.391-.812,3.374-.542,.983-1.291,1.758-2.25,2.324-.958,.566-2.053,.85-3.286,.85-1.066,0-2.008-.208-2.824-.625-.816-.416-1.441-.982-1.875-1.699v6.773h-1.85Zm1.85-9.022c.316,.883,.884,1.595,1.7,2.137,.816,.541,1.749,.812,2.799,.812,.917,0,1.717-.213,2.399-.638,.684-.425,1.221-1.008,1.612-1.75,.392-.741,.587-1.587,.587-2.536s-.188-1.796-.562-2.537c-.375-.741-.896-1.325-1.562-1.75-.667-.425-1.441-.637-2.324-.637-.9,0-1.7,.225-2.399,.675-.7,.449-1.25,1.07-1.649,1.861-.4,.792-.601,1.713-.601,2.763v1.6Z"/>
    <path d="M233.97,302.565c-.267-.259-.399-.571-.399-.938,0-.384,.133-.704,.399-.963,.267-.258,.583-.387,.95-.387,.383,0,.704,.129,.962,.387s.388,.579,.388,.963c0,.366-.129,.679-.388,.938s-.579,.387-.962,.387c-.367,0-.684-.129-.95-.387Zm.025,15.983v-12.297h1.85v12.297h-1.85Z"/>
    <path d="M245.943,307.851h-.5c-.733,0-1.425,.191-2.075,.574-.649,.384-1.174,.983-1.574,1.8-.399,.816-.6,1.875-.6,3.174v5.149h-1.85v-12.297h1.824v2.774c.434-1.084,1.066-1.85,1.899-2.3s1.7-.675,2.6-.675h.275v1.8Z"/>
    <path d="M249.932,318.436c-.708-.342-1.258-.805-1.649-1.388s-.587-1.25-.587-1.999c0-.867,.241-1.604,.725-2.212,.483-.608,1.146-1.071,1.986-1.388,.842-.316,1.796-.475,2.862-.475h3.799v-.125c0-1.033-.333-1.858-1-2.475-.666-.616-1.565-.925-2.699-.925-.816,0-1.554,.175-2.212,.525-.658,.35-1.237,.824-1.737,1.424l-1.299-1.249c.683-.733,1.453-1.3,2.312-1.7,.858-.399,1.837-.6,2.937-.6s2.062,.204,2.887,.612c.825,.408,1.467,.979,1.925,1.712,.458,.733,.688,1.6,.688,2.6v7.773h-1.774v-1.725c-.5,.666-1.158,1.187-1.975,1.562s-1.725,.562-2.725,.562c-.933,0-1.754-.171-2.462-.512Zm5.437-1.775c.8-.491,1.366-1.153,1.699-1.986v-2.2h-3.549c-1.116,0-2.046,.204-2.787,.613-.741,.408-1.112,1.045-1.112,1.911,0,.733,.275,1.316,.825,1.75s1.274,.649,2.174,.649c1.033,0,1.95-.245,2.75-.737Z"/>
    <path d="M273.142,316.573c-.566,.733-1.279,1.312-2.137,1.737-.858,.425-1.829,.637-2.912,.637-1.25,0-2.362-.283-3.337-.85s-1.741-1.341-2.299-2.324c-.559-.983-.838-2.108-.838-3.374s.279-2.392,.838-3.374c.558-.983,1.328-1.759,2.312-2.325s2.1-.85,3.35-.85c1.083,0,2.049,.213,2.898,.638,.851,.425,1.559,1.004,2.125,1.737l-1.325,1.225c-.399-.601-.899-1.079-1.499-1.438s-1.333-.537-2.199-.537c-.9,0-1.691,.208-2.375,.625-.683,.416-1.216,.995-1.6,1.736-.383,.742-.575,1.596-.575,2.562s.192,1.82,.575,2.562c.384,.741,.917,1.32,1.6,1.737,.684,.416,1.475,.625,2.375,.625,.866,0,1.6-.18,2.199-.538,.6-.357,1.1-.837,1.499-1.437l1.325,1.225Z"/>
    <path d="M275.794,302.565c-.267-.259-.399-.571-.399-.938,0-.384,.133-.704,.399-.963,.267-.258,.583-.387,.95-.387,.383,0,.704,.129,.962,.387s.388,.579,.388,.963c0,.366-.129,.679-.388,.938s-.579,.387-.962,.387c-.367,0-.684-.129-.95-.387Zm.025,15.983v-12.297h1.85v12.297h-1.85Z"/>
    <path d="M283.743,318.098c-.983-.566-1.754-1.341-2.312-2.324-.559-.983-.838-2.108-.838-3.374s.279-2.392,.838-3.374c.558-.983,1.328-1.759,2.312-2.325s2.1-.85,3.35-.85c1.266,0,2.387,.283,3.361,.85s1.741,1.342,2.3,2.325c.558,.982,.837,2.107,.837,3.374s-.279,2.391-.837,3.374c-.559,.983-1.325,1.758-2.3,2.324s-2.096,.85-3.361,.85c-1.25,0-2.366-.283-3.35-.85Zm5.724-1.399c.684-.417,1.217-.996,1.6-1.737s.575-1.596,.575-2.562-.192-1.82-.575-2.562c-.383-.741-.916-1.32-1.6-1.736-.684-.417-1.475-.625-2.374-.625s-1.691,.208-2.375,.625c-.683,.416-1.216,.995-1.6,1.736-.383,.742-.575,1.596-.575,2.562s.192,1.82,.575,2.562c.384,.741,.917,1.32,1.6,1.737,.684,.416,1.475,.625,2.375,.625s1.69-.209,2.374-.625Zm-2-12.822h-1.674l2.849-4.349h2.2l-3.375,4.349Z"/>
    <path d="M305.941,318.548v-7.099c0-1.316-.3-2.308-.899-2.975-.6-.666-1.408-.999-2.425-.999-.733,0-1.425,.191-2.074,.574-.65,.384-1.175,.983-1.574,1.8-.4,.816-.601,1.875-.601,3.175v5.523h-1.85v-12.297h1.825v2.574c.416-1.083,1.045-1.85,1.887-2.3s1.745-.675,2.712-.675c1.5,0,2.683,.463,3.549,1.388s1.3,2.262,1.3,4.011v7.299h-1.85Z"/>
    <path d="M310.77,321.573c.316-.45,.574-.934,.774-1.45s.325-.991,.375-1.425c-.35-.033-.634-.175-.85-.425-.217-.25-.325-.55-.325-.899,0-.384,.129-.708,.388-.975,.258-.267,.57-.4,.937-.4,.434,0,.788,.15,1.062,.45,.275,.3,.412,.691,.412,1.175,0,.6-.153,1.274-.462,2.024s-.662,1.392-1.062,1.925h-1.249Z"/>
    <path d="M323.031,318.436c-.709-.342-1.259-.805-1.65-1.388s-.587-1.25-.587-1.999c0-.867,.241-1.604,.725-2.212,.483-.608,1.146-1.071,1.987-1.388s1.795-.475,2.861-.475h3.8v-.125c0-1.033-.334-1.858-1-2.475-.667-.616-1.566-.925-2.699-.925-.816,0-1.554,.175-2.212,.525-.658,.35-1.237,.824-1.737,1.424l-1.3-1.249c.684-.733,1.454-1.3,2.312-1.7,.857-.399,1.837-.6,2.937-.6s2.062,.204,2.887,.612c.824,.408,1.466,.979,1.925,1.712,.458,.733,.687,1.6,.687,2.6v7.773h-1.774v-1.725c-.5,.666-1.158,1.187-1.975,1.562s-1.725,.562-2.724,.562c-.934,0-1.754-.171-2.462-.512Zm5.436-1.775c.8-.491,1.366-1.153,1.7-1.986v-2.2h-3.55c-1.116,0-2.045,.204-2.786,.613-.742,.408-1.112,1.045-1.112,1.911,0,.733,.274,1.316,.824,1.75s1.275,.649,2.175,.649c1.033,0,1.949-.245,2.749-.737Z"/>
    <path d="M353.139,318.548v-7.099c0-1.316-.279-2.308-.837-2.975-.559-.666-1.304-.999-2.237-.999-.683,0-1.333,.191-1.949,.574-.616,.384-1.112,.983-1.487,1.8s-.562,1.875-.562,3.175v5.523h-1.85v-7.099c0-1.316-.279-2.308-.837-2.975-.559-.666-1.304-.999-2.237-.999-.683,0-1.333,.191-1.949,.574-.616,.384-1.112,.983-1.487,1.8s-.562,1.875-.562,3.175v5.523h-1.85v-12.297h1.825v2.524c.399-1.066,.999-1.82,1.799-2.263,.8-.441,1.65-.662,2.55-.662,1.05,0,1.929,.271,2.637,.812,.708,.541,1.212,1.32,1.513,2.337,.399-1.116,1.028-1.921,1.887-2.412s1.778-.737,2.762-.737c1.483,0,2.641,.463,3.475,1.388,.833,.925,1.249,2.262,1.249,4.011v7.299h-1.85Z"/>
    <path d="M360.893,318.098c-.983-.566-1.754-1.341-2.312-2.324-.559-.983-.838-2.108-.838-3.374s.279-2.392,.838-3.374c.558-.983,1.328-1.759,2.312-2.325s2.1-.85,3.35-.85c1.266,0,2.387,.283,3.361,.85s1.741,1.342,2.3,2.325c.558,.982,.837,2.107,.837,3.374s-.279,2.391-.837,3.374c-.559,.983-1.325,1.758-2.3,2.324s-2.096,.85-3.361,.85c-1.25,0-2.366-.283-3.35-.85Zm5.724-1.399c.684-.417,1.217-.996,1.6-1.737s.575-1.596,.575-2.562-.192-1.82-.575-2.562c-.383-.741-.916-1.32-1.6-1.736-.684-.417-1.475-.625-2.374-.625s-1.691,.208-2.375,.625c-.683,.416-1.216,.995-1.6,1.736-.383,.742-.575,1.596-.575,2.562s.192,1.82,.575,2.562c.384,.741,.917,1.32,1.6,1.737,.684,.416,1.475,.625,2.375,.625s1.69-.209,2.374-.625Z"/>
    <path d="M380.267,307.851h-.5c-.733,0-1.425,.191-2.074,.574-.65,.384-1.175,.983-1.574,1.8-.4,.816-.601,1.875-.601,3.174v5.149h-1.85v-12.297h1.825v2.774c.433-1.084,1.066-1.85,1.899-2.3s1.699-.675,2.6-.675h.274v1.8Z"/>
    <path d="M398.815,306.251l-6.248,14.521c-.351,.816-.783,1.458-1.3,1.924-.517,.467-1.3,.7-2.35,.7h-1.225v-1.6h1.225c.533,0,.971-.134,1.312-.4s.62-.658,.837-1.174l.65-1.625-5.324-12.347h2l4.249,10.347,4.273-10.347h1.899Z"/>
    <path d="M415.166,318.548v-2c-.417,.733-1.021,1.316-1.812,1.75-.791,.433-1.687,.649-2.687,.649-1.483,0-2.67-.441-3.562-1.324-.892-.884-1.337-2.158-1.337-3.824v-7.548h1.85v7.348c0,1.217,.295,2.142,.887,2.774s1.421,.95,2.487,.95c.933,0,1.778-.263,2.537-.788,.758-.524,1.295-1.236,1.611-2.137v-8.147h1.85v12.297h-1.824Z"/>
    <path d="M429.916,318.548v-7.099c0-1.316-.3-2.308-.9-2.975-.6-.666-1.407-.999-2.424-.999-.733,0-1.425,.191-2.075,.574-.649,.384-1.174,.983-1.574,1.8-.399,.816-.6,1.875-.6,3.175v5.523h-1.85v-12.297h1.824v2.574c.417-1.083,1.046-1.85,1.887-2.3,.842-.45,1.746-.675,2.712-.675,1.5,0,2.683,.463,3.55,1.388,.866,.925,1.3,2.262,1.3,4.011v7.299h-1.85Z"/>
    <path d="M435.068,302.565c-.267-.259-.4-.571-.4-.938,0-.384,.134-.704,.4-.963,.267-.258,.583-.387,.949-.387,.384,0,.704,.129,.963,.387,.258,.259,.387,.579,.387,.963,0,.366-.129,.679-.387,.938-.259,.258-.579,.387-.963,.387-.366,0-.683-.129-.949-.387Zm.024,15.983v-12.297h1.85v12.297h-1.85Z"/>
    <path d="M443.017,318.098c-.982-.566-1.753-1.341-2.312-2.324s-.837-2.108-.837-3.374,.278-2.392,.837-3.374c.559-.983,1.329-1.759,2.312-2.325,.983-.566,2.1-.85,3.35-.85,1.267,0,2.387,.283,3.361,.85,.976,.566,1.741,1.342,2.3,2.325,.559,.982,.837,2.107,.837,3.374s-.278,2.391-.837,3.374-1.324,1.758-2.3,2.324c-.975,.566-2.095,.85-3.361,.85-1.25,0-2.366-.283-3.35-.85Zm5.724-1.399c.684-.417,1.217-.996,1.6-1.737,.384-.741,.575-1.596,.575-2.562s-.191-1.82-.575-2.562c-.383-.741-.916-1.32-1.6-1.736-.683-.417-1.475-.625-2.374-.625s-1.691,.208-2.374,.625c-.684,.416-1.217,.995-1.6,1.736-.384,.742-.575,1.596-.575,2.562s.191,1.82,.575,2.562c.383,.741,.916,1.32,1.6,1.737,.683,.416,1.475,.625,2.374,.625s1.691-.209,2.374-.625Zm-1.999-12.822h-1.675l2.85-4.349h2.199l-3.374,4.349Z"/>
    <path d="M465.216,318.548v-7.099c0-1.316-.3-2.308-.9-2.975-.6-.666-1.407-.999-2.424-.999-.733,0-1.425,.191-2.075,.574-.649,.384-1.174,.983-1.574,1.8-.399,.816-.6,1.875-.6,3.175v5.523h-1.85v-12.297h1.824v2.574c.417-1.083,1.046-1.85,1.887-2.3,.842-.45,1.746-.675,2.712-.675,1.5,0,2.683,.463,3.55,1.388,.866,.925,1.3,2.262,1.3,4.011v7.299h-1.85Z"/>
    <path d="M472.405,318.385c-.275,.275-.604,.413-.987,.413s-.713-.138-.987-.413c-.275-.274-.413-.604-.413-.987s.138-.712,.413-.987,.604-.412,.987-.412,.712,.138,.987,.412c.274,.275,.412,.604,.412,.987s-.138,.713-.412,.987Z"/>
  </g>
</svg>