<?xml version="1.0" encoding="UTF-8"?>
<svg id="a" data-name="Capa 1" xmlns="http://www.w3.org/2000/svg" width="45" height="57" viewBox="0 0 45 57">
  <path d="M37.085,2.194c-2.645-1.869-6.303-1.243-8.177,1.398l-3.197,4.514-1.174-.833c-.094-.067-.211-.094-.325-.074-.114,.019-.215,.083-.282,.177l-2.276,3.215c-.139,.196-.092,.467,.104,.606l1.996,1.413L11.896,29.356c-2.685,3.849-3.954,8.509-3.593,13.187,.016,.228,.206,.404,.435,.404,.038,0,.076-.005,.113-.015,2.25-.607,4.381-1.591,6.302-2.911,1.922-1.314,3.597-2.958,4.947-4.855l11.857-16.746,1.728,1.223c.196,.139,.467,.093,.606-.103h0l2.276-3.215c.139-.196,.092-.467-.104-.606l-1.174-.833,3.196-4.514c1.87-2.646,1.244-6.306-1.399-8.18h0ZM19.389,34.664c-1.291,1.815-2.893,3.388-4.732,4.644-1.692,1.162-3.554,2.053-5.52,2.641-.218-4.302,1.002-8.554,3.467-12.087l2.646-3.736,9.04,1.618-4.902,6.92Zm5.455-7.704l-9.04-1.618,8.656-12.228,6.785,4.804-6.401,9.043Zm8.988-8.278l-1.726-1.222-7.494-5.306h-.003l-1.993-1.411,1.773-2.504,1.174,.832h.002l8.861,6.273h.003l1.174,.831-1.772,2.508Zm3.94-8.813l-3.196,4.514-8.155-5.774,3.196-4.514c1.594-2.252,4.713-2.785,6.965-1.19,2.252,1.594,2.785,4.713,1.19,6.965h0Z"/>
  <path d="M8.27,46.581c-.29,.459-2.832,4.533-2.832,6.139,.021,1.767,1.47,3.183,3.237,3.162,1.738-.02,3.142-1.424,3.162-3.162,0-1.606-2.542-5.68-2.832-6.139-.145-.203-.427-.25-.63-.105-.041,.029-.076,.065-.105,.105Zm.368,8.469c-1.286-.001-2.328-1.044-2.33-2.33,0-.991,1.45-3.612,2.33-5.076,.88,1.464,2.33,4.085,2.33,5.076-.001,1.286-1.043,2.328-2.329,2.33h0Z"/>
</svg>