<?xml version="1.0" encoding="UTF-8"?>
<svg id="a" data-name="Capa 1" xmlns="http://www.w3.org/2000/svg" width="944.818" height="221.96" viewBox="0 0 944.818 221.96">
  <g>
    <rect x="628.969" y="28.135" width="26.992" height="5.361"/>
    <path d="M526.899,138.14c-3.257,3.767-7.343,6.672-12.257,8.713-4.917,2.043-10.245,3.064-15.989,3.064-7.535,0-14.204-1.786-20.011-5.362-5.811-3.572-10.374-8.743-13.692-15.511-3.321-6.765-4.978-14.808-4.978-24.129,0-9.446,1.69-17.522,5.074-24.224,3.381-6.702,8.01-11.873,13.882-15.511,5.872-3.639,12.574-5.458,20.107-5.458,8.681,0,15.895,2.076,21.64,6.223,5.745,4.15,9.638,10.054,11.681,17.714l4.788-2.49c-1.662-5.488-4.247-10.179-7.757-14.075-3.511-3.892-7.821-6.861-12.926-8.904-5.107-2.041-10.851-3.064-17.234-3.064-8.553,0-16.181,1.981-22.883,5.936-6.703,3.959-12.001,9.67-15.894,17.138-3.896,7.469-5.841,16.373-5.841,26.714s1.915,19.245,5.745,26.713c3.83,7.468,9.03,13.183,15.607,17.139,6.573,3.959,14.138,5.936,22.693,5.936,6.636,0,12.668-1.149,18.095-3.447,5.426-2.298,10.021-5.554,13.787-9.767,3.764-4.213,6.287-9.192,7.565-14.936l-4.979-1.723c-.894,5.107-2.967,9.545-6.222,13.309Z"/>
    <path d="M587.314,55.127c-7.661,0-14.204,2.363-19.628,7.085-5.427,4.724-9.287,10.723-11.585,18l-.384-23.171h-4.788v95.747h5.361v-54.959c0-6.765,1.341-13.022,4.022-18.767,2.681-5.745,6.287-10.371,10.82-13.883,4.53-3.51,9.605-5.266,15.224-5.266,3.447,0,5.999,.353,7.659,1.053,1.658,.703,3.128,1.628,4.404,2.776l1.916-4.596c-1.278-1.274-3.002-2.265-5.171-2.968-2.172-.7-4.788-1.053-7.851-1.053Z"/>
    <path d="M679.709,77.053c-3.254-6.954-7.913-12.352-13.979-16.181-6.066-3.829-13.374-5.746-21.927-5.746-8.169,0-15.512,1.981-22.02,5.938-6.513,3.957-11.713,9.639-15.605,17.04-3.898,7.408-5.845,16.343-5.845,26.813,0,10.336,1.981,19.242,5.938,26.714,3.957,7.466,9.319,13.183,16.088,17.139,6.763,3.957,14.426,5.932,22.978,5.932,5.746,0,11.109-.924,16.088-2.777,4.979-1.848,9.383-4.433,13.212-7.756,3.829-3.317,6.827-7.338,9-12.061l-4.212-2.301c-3.19,6.257-7.791,11.172-13.787,14.746-6.002,3.579-12.834,5.363-20.491,5.363s-14.461-1.784-20.393-5.363c-5.938-3.573-10.597-8.709-13.979-15.414-3.387-6.705-5.078-14.775-5.078-24.221h78.707c.128-.383,.192-.866,.192-1.441v-1.627c0-9.575-1.627-17.836-4.886-24.797Zm-73.844,23.077c.476-7.413,2.068-13.903,4.811-19.44,3.317-6.699,7.855-11.87,13.595-15.512,5.746-3.637,12.259-5.455,19.533-5.455,11.364,0,20.137,3.829,26.336,11.492,5.99,7.413,9.116,17.069,9.429,28.916h-73.704Z"/>
    <path d="M780.726,149.723c-7.024,0-10.533-4.212-10.533-12.637v-48.832c0-7.018-1.377-13.02-4.119-17.999-2.748-4.979-6.67-8.744-11.777-11.3-5.107-2.551-11.172-3.829-18.191-3.829-9.191,0-17.011,1.981-23.46,5.938-6.443,3.957-11.074,9.83-13.88,17.616l4.212,2.876c2.806-7.663,7.053-13.218,12.735-16.663,5.676-3.445,12.41-5.171,20.201-5.171,9.319,0,16.471,2.62,21.45,7.849,4.973,5.241,7.466,12.323,7.466,21.258v8.424l-39.833,7.849c-8.808,1.662-15.605,4.567-20.393,8.715-4.787,4.154-7.181,9.801-7.181,16.947,0,5.107,1.272,9.453,3.829,13.02,2.556,3.579,6.129,6.292,10.725,8.14,4.596,1.853,10.022,2.777,16.279,2.777,5.612,0,11.167-.959,16.657-2.87,5.49-1.917,10.214-4.851,14.17-8.808,2.504-2.504,4.416-5.421,5.746-8.744v2.039c0,4.851,.732,8.552,2.202,11.108,1.464,2.556,3.352,4.34,5.647,5.363,2.301,1.017,4.596,1.528,6.896,1.528,3.062,0,5.554-.575,7.466-1.72l.383-4.404c-1.789,1.023-4.02,1.528-6.699,1.528Zm-15.896-29.299c0,5.241-1.121,9.737-3.352,13.502-2.237,3.771-5.2,6.832-8.901,9.191-3.707,2.365-7.599,4.09-11.684,5.171-4.09,1.087-8.041,1.627-11.875,1.627-8.424,0-14.873-1.691-19.341-5.072-4.468-3.381-6.699-8.204-6.699-14.461,0-5.612,2.074-10.179,6.222-13.688,4.148-3.515,10.435-6.036,18.865-7.564l36.765-7.28v18.574Z"/>
    <path d="M841.236,142.833l2.295,4.404c-2.039,2.173-4.787,3.956-8.233,5.363-3.445,1.4-7.216,2.103-11.294,2.103-4.979,0-9.29-.959-12.927-2.87-3.643-1.917-6.356-4.816-8.14-8.715-1.789-3.893-2.684-8.715-2.684-14.455V59.722h-12.828v-4.596h12.828V28.134l5.363-1.534v28.527h37.915l.035,.116v4.479h-37.95v68.557c0,7.024,1.534,12.381,4.596,16.082,3.068,3.707,7.785,5.554,14.17,5.554,3.451,0,6.577-.604,9.383-1.818,2.806-1.208,5.299-2.969,7.472-5.264Z"/>
    <rect x="856.362" y="59.723" width="5.361" height="93.066"/>
    <polygon points="861.721 26.601 861.721 55.127 856.365 55.127 856.365 28.135 861.721 26.601"/>
    <path d="M937,55.127v4.596h-37.939v93.069h-5.357V59.722h-19.155v-4.596h19.155v-15.507c0-4.596,.569-8.68,1.72-12.259,1.15-3.573,2.876-6.606,5.171-9.092,2.301-2.492,5.107-4.404,8.424-5.746,3.323-1.342,7.088-2.01,11.3-2.01,3.573,0,6.577,.511,9,1.534,2.423,1.023,4.404,2.359,5.938,4.02l-1.917,4.212c-1.528-1.789-3.317-3.062-5.357-3.829-2.045-.767-4.537-1.15-7.471-1.15-6.769,0-12.032,2.138-15.797,6.414-3.771,4.282-5.653,10.313-5.653,18.098v15.315h37.939Z"/>
  </g>
  <g>
    <path d="M115.871,57.085h-37.392c-.767-.192-2.254-.447-4.456-.767-2.208-.32-4.619-.604-7.239-.86-2.62-.256-4.921-.383-6.902-.383-9.395,0-17.372,1.435-23.919,4.311-6.554,2.876-11.538,7.047-14.96,12.515-3.416,5.461-5.124,12.096-5.124,19.893,0,7.286,1.644,13.613,4.933,18.981,3.294,5.368,7.75,9.273,13.374,11.701-4.474,2.62-7.896,5.287-10.254,8.006-2.37,2.713-3.55,6.118-3.55,10.208,0,3.259,1.116,6.344,3.358,9.249,2.237,2.911,4.857,5.002,7.861,6.281-7.803,1.859-13.711,4.956-17.738,9.302-4.026,4.346-6.042,9.749-6.042,16.204,0,9.395,3.945,16.698,11.841,21.909,7.896,5.206,19.318,7.814,34.278,7.814,31.24,0,50.866-8.808,58.866-26.423,.325-.72,.697-1.981,.837-2.76,2.667-15.013-.087-25.866-8.267-32.564-6.17-5.049-15.135-7.576-26.894-7.576h-18.214c-3.579,0-6.565-.238-8.965-.715-2.399-.482-4.189-1.185-5.368-2.109-1.185-.93-1.772-2.092-1.772-3.503,0-1.4,.383-2.748,1.15-4.026,.767-1.278,1.882-2.492,3.352-3.643,3.004,.32,6.199,.575,9.586,.767,14.257,0,25.395-3.213,33.413-9.633,8.023-6.426,12.032-15.39,12.032-26.894,0-3.004-.383-5.851-1.15-8.535-.767-2.684-1.917-5.206-3.451-7.57l16.779-4.317v-14.862Zm-63.851,108.535h15.146c4.921,0,8.965,.32,12.131,.959,3.161,.633,5.525,1.737,7.094,3.306,1.563,1.563,2.347,3.689,2.347,6.374,0,3.323-1.342,6.187-4.026,8.581-2.684,2.399-6.536,4.253-11.556,5.56-5.014,1.313-11.01,1.97-17.976,1.97s-12.381-1.15-16.25-3.457c-3.869-2.301-5.798-5.461-5.798-9.488,0-2.748,.831-5.165,2.492-7.239,1.662-2.08,3.916-3.689,6.757-4.84,2.847-1.15,6.054-1.726,9.639-1.726Zm19.94-59.639c-2.556,3.393-6.583,5.084-12.079,5.084-5.432,0-9.476-1.691-12.131-5.084-2.649-3.387-3.974-7.989-3.974-13.804,0-6.455,1.342-11.3,4.026-14.525,2.684-3.224,6.71-4.84,12.079-4.84,5.304,0,9.284,1.615,11.934,4.84,2.655,3.225,3.98,8.07,3.98,14.525,0,5.816-1.278,10.417-3.835,13.804Z"/>
    <path d="M220.576,136.703c-4.596,0-6.896-2.423-6.896-7.274v-38.874c0-7.919-1.755-14.49-5.264-19.725-3.515-5.235-8.395-9.162-14.653-11.777-6.257-2.62-13.595-3.927-22.019-3.927-12.387,0-22.246,2.556-29.59,7.657-7.338,5.107-12.096,11.875-14.263,20.3l22.403,6.896c1.662-5.618,4.276-9.639,7.855-12.067,3.573-2.423,7.721-3.637,12.445-3.637,5.107,0,9.22,1.534,12.352,4.596,3.126,3.062,4.689,7.344,4.689,12.828v3.683l-32.936,6.658c-8.552,1.662-15.129,4.758-19.725,9.29-4.596,4.532-6.891,10.371-6.891,17.523,0,5.618,1.272,10.336,3.829,14.17,2.551,3.829,6.193,6.734,10.917,8.709,4.718,1.981,10.342,2.969,16.849,2.969,5.235,0,10.313-.895,15.228-2.678,4.909-1.789,9.092-4.375,12.544-7.756,1.069-1.052,1.999-2.185,2.812-3.381,.494,1.574,1.127,3.039,1.975,4.34,2.039,3.126,4.845,5.456,8.424,6.989,3.573,1.528,7.594,2.295,12.061,2.295,4.979,0,9.127-.831,12.451-2.487l1.528-16.279c-1.911,.639-3.957,.959-6.124,.959Zm-32.942-19.149c0,3.445-.569,6.385-1.72,8.808-1.15,2.429-2.748,4.34-4.787,5.746-2.045,1.406-4.34,2.429-6.896,3.062-2.551,.645-5.171,.959-7.849,.959-3.323,0-6.158-.825-8.523-2.487-2.365-1.662-3.544-4.084-3.544-7.28,0-3.317,1.115-5.711,3.352-7.181,2.231-1.464,5.519-2.649,9.865-3.544l20.102-4.02v5.938Z"/>
    <rect x="239.531" y="15.301" width="26.235" height="137.488"/>
    <rect x="291.842" y="15.301" width="26.235" height="137.488"/>
    <path d="M422.726,78.105c-4.148-7.402-9.894-13.084-17.232-17.04-7.344-3.957-15.867-5.938-25.564-5.938-9.575,0-18.069,1.981-25.471,5.938-7.408,3.957-13.183,9.639-17.331,17.04-4.148,7.408-6.222,16.343-6.222,26.813,0,10.336,2.074,19.242,6.222,26.714,4.148,7.466,9.923,13.183,17.331,17.139,7.402,3.957,15.896,5.932,25.471,5.932,9.697,0,18.22-1.975,25.564-5.932,7.338-3.957,13.084-9.673,17.232-17.139,4.148-7.472,6.222-16.378,6.222-26.714,0-10.469-2.074-19.405-6.222-26.813Zm-22.879,43.661c-1.789,4.474-4.375,7.82-7.756,10.057-3.387,2.231-7.443,3.347-12.16,3.347-4.857,0-8.97-1.115-12.352-3.347-3.387-2.237-5.973-5.583-7.756-10.057-1.789-4.468-2.684-10.08-2.684-16.849s.895-12.381,2.684-16.854c1.784-4.468,4.369-7.82,7.756-10.051,3.381-2.237,7.495-3.352,12.352-3.352,4.718,0,8.773,1.115,12.16,3.352,3.381,2.231,5.967,5.583,7.756,10.051,1.784,4.474,2.678,10.086,2.678,16.854s-.895,12.381-2.678,16.849Z"/>
  </g>
</svg>