<?xml version="1.0" encoding="UTF-8"?>
<svg id="a" data-name="Capa 1" xmlns="http://www.w3.org/2000/svg" width="45" height="45" viewBox="0 0 45 45">
  <g>
    <path d="M13.293,26.125s-.008,.009-.013,.012"/>
    <g>
      <path d="M30.889,19.76v-.002c-.244-.896-.665-1.718-1.223-2.429,0,0-.039-.05-.061-.077l.011-.007c.437-.319,.72-.834,.72-1.414,0-.633-.336-1.188-.841-1.494,.143-.059,.297-.095,.457-.105-.211-.169-.47-.281-.755-.31-.05-.006-.101-.009-.154-.009-.191,0-.375,.037-.542,.105,.151-.169,.34-.301,.554-.386,.16-.061,.332-.094,.514-.094,.031,0,.061,.002,.09,.004-.05-.048-.103-.09-.16-.129-.14-.097-.296-.171-.464-.215l-.022-.004c.002-.028,.002-.048,.002-.075,0-.681-.477-1.252-1.116-1.397-.013-.003-.044-.009-.064-.013,.117,.226,.185,.481,.191,.751-.584-.426-1.303-.676-2.08-.676-.764,0-1.469,.241-2.047,.652,.196-.033,.397-.051,.604-.051,.769,0,1.482,.244,2.062,.663-.356-.121-.736-.185-1.133-.185-1.197,0-2.255,.593-2.897,1.502-.154,.217-.283,.452-.384,.701,.09-.09,.185-.174,.286-.253,.602-.476,1.366-.76,2.194-.76,.349,0,.687,.051,1.004,.147-.494,.086-.868,.518-.868,1.035,0,.551,.42,1.002,.958,1.048l-.004,.009c-.33,.784-.606,1.592-.828,2.425-.068,.248-.129,.498-.185,.751-.029,.129-.057,.259-.083,.389-.084,.42-.156,.845-.211,1.276-.011,.07-.018,.14-.028,.209,.007-.07,.015-.141,.018-.211,.015-.167,.02-.334,.02-.505,0-.274-.017-.543-.05-.81l-.004-.028-.004-.018c-.062-.51-.184-1.002-.354-1.469-.094-.257-.2-.505-.323-.745-.075-.151-.158-.297-.244-.441v-.002c-.066-.11-.136-.217-.209-.321-.237-.343-.503-.663-.8-.957-.031-.033-.064-.066-.097-.097-.099-.094-.202-.187-.307-.275l-.015-.013c-.042-.035-.084-.07-.129-.103-.015-.015-.031-.026-.046-.039-1.153-.911-2.605-1.45-4.184-1.45-2.512,0-4.702,1.366-5.871,3.396,.905-.439,1.92-.685,2.994-.685,.532,0,1.048,.061,1.546,.174l.006,.002-.028,.015-.004,.004c-.066,.037-.132,.073-.198,.112-.066,.039-.13,.079-.195,.119-.064,.04-.127,.083-.189,.125-.062,.042-.125,.086-.185,.13-.061,.044-.121,.09-.18,.136-.031,.024-.061,.048-.09,.072-.029,.024-.059,.048-.086,.072-.05,.042-.101,.084-.151,.129-.057,.05-.112,.101-.167,.154-.02,.018-.04,.039-.061,.059-.013,.011-.028,.026-.04,.039l-.061,.061c-.037,.037-.075,.075-.11,.116-.042,.044-.084,.09-.125,.136-.053,.061-.106,.121-.16,.184-.064,.079-.129,.16-.191,.241-.039,.05-.075,.101-.112,.152l-.044,.061c-.004,.007-.009,.013-.015,.02l-.066,.099c-.013,.018-.024,.035-.035,.053-.022,.031-.042,.062-.061,.094-.026,.039-.048,.075-.072,.114-.046,.077-.092,.154-.136,.233l-.007,.017c-.037,.064-.072,.13-.105,.196l-.006,.011c-.007,.015-.015,.028-.02,.042-.016,.029-.031,.059-.046,.09-.016,.033-.031,.066-.046,.101-.018,.037-.035,.072-.05,.108-.016,.037-.033,.073-.046,.11-.004,.007-.007,.015-.009,.022-.011,.02-.02,.042-.028,.064l-.011,.028c-.02,.05-.039,.099-.057,.151-.035,.092-.066,.184-.095,.275-.007,.017-.011,.033-.017,.048-.007,.02-.013,.042-.018,.062-.009,.026-.017,.05-.024,.075-.002,.011-.006,.024-.009,.037-.016,.057-.033,.116-.048,.174-.042,.165-.079,.334-.108,.503-.009,.05-.018,.101-.024,.151-.011,.055-.018,.11-.024,.165l-.017,.134c-.002,.011-.004,.022-.004,.033l-.004,.026c-.006,.057-.011,.112-.015,.167-.002,.02-.004,.039-.004,.059-.006,.068-.009,.138-.011,.207-.004,.088-.006,.178-.006,.266,0,1.087,.253,2.111,.701,3.026-.013-.165-.018-.33-.018-.498,0-.09,.002-.18,.006-.268,0-.013,0-.024,.002-.037,0-.033,.002-.066,.006-.099,0-.031,.002-.061,.006-.092,.002-.044,.005-.088,.011-.132,.005-.068,.013-.134,.02-.2,.004-.031,.007-.062,.013-.094,.002-.02,.004-.039,.007-.059,.004-.029,.007-.059,.013-.086l.011-.073c.007-.046,.017-.09,.026-.136,.006-.033,.011-.066,.018-.097l.004-.018c.015-.073,.031-.147,.048-.218,.004-.009,.006-.018,.007-.029,.018-.07,.037-.14,.057-.209,.002-.013,.006-.026,.011-.039,.002-.011,.004-.02,.007-.029,.022-.081,.048-.16,.073-.239,.191,1.316,.756,2.512,1.584,3.474-.303-.777-.47-1.619-.47-2.502,0-.907,.176-1.774,.496-2.567-.016,.196-.026,.395-.026,.595,0,3.083,2.031,5.69,4.827,6.56-1.465-1.259-2.392-3.125-2.392-5.209,0-.448,.042-.887,.125-1.311,.009,1.507,.503,2.899,1.335,4.028l.006,.006c.811,1.102,1.948,1.953,3.266,2.412l.154,.051h.002c.268,.088,.543,.158,.826,.211h.002c.362,.069,.735,.107,1.115,.117,1.761-.094,2.342-1.164,2.479-1.206,2.387-1.078,4.052-3.475,4.052-6.264,0-.624-.083-1.23-.241-1.805Z"/>
      <path d="M24.416,21.133l-.009-.002"/>
    </g>
    <path d="M25.646,28.413c.016,.594,.011,2.648,.018,3.816,0,.09,.324,.33,.375,.406,.074,.111,.16,.216,.265,.298,.089,.07,.191,.122,.295,.168,.339,.149,.706,.232,1.076,.242,.145,.004,.295-.002,.43,.052s.25,.191,.224,.334c-.063-.116-.18-.201-.309-.225,.021,.118-.088,.227-.206,.251s-.238-.011-.353-.043-.239-.062-.353-.026c.154,.043,.271,.195,.271,.355-.068-.088-.152-.184-.263-.185-.047,0-.093,.018-.138,.03-.254,.067-1.338-.346-1.534-.415-.069-.024-.139-.052-.191-.103s-.083-.13-.058-.198c-.115-.042-.204-.149-.223-.27-.009-.055-.014-.125-.067-.142-.02-.006-.043-.002-.063,.004-.132,.037-.707,.516-.831,.572s-.285,.074-.387-.017c-.021-.019-.04-.043-.068-.05-.027-.007-.054,.004-.079,.015-.116,.054-.219,.135-.298,.234,.019-.145,.13-.262,.255-.338s.266-.119,.398-.182c.206-.099,.852-.639,.99-.821,.117-.153,.204-.335,.213-.528,.002-.04,0-.081-.017-.117-.04-.087-.147-.114-.238-.143-.435-.139-.765-.559-.796-1.014,.203,.306,.502,.594,.869,.604-.066-.324-.102-.654-.107-.985,0-.047-.002-.098-.029-.137-.021-.031-.056-.05-.085-.075-.097-.083-.12-.225-.11-.352s.203-1.015,.197-1.143l.93,.128Z"/>
    <path d="M27.777,28.781l.117,.24c.042,.087,.086,.175,.154,.243s.167,.113,.261,.093c-.098-.103-.148-.249-.132-.39,.073,.047,.148,.095,.199,.165s.076,.166,.039,.245c-.041,.087-.143,.127-.237,.148-.106,.025-.219,.037-.324,.007s-.202-.108-.228-.214c.052,.338,.348,.623,.688,.661-.129,.133-.313,.212-.498,.214,.11,.075,.257,.059,.389,.037,.2-.033,.401-.074,.583-.163s.346-.23,.423-.417c.08-.191,.062-.412-.005-.608s-.18-.373-.292-.547c-.041-.064-.085-.131-.151-.168-.037-.021-.079-.031-.12-.041-.611-.151-1.706-.515-2.317-.666l-.832,.445c.333,.081,1.151,.375,1.484,.456-.254,.29-.642,.457-1.027,.441,.224,.092,.479,.097,.713,.031s.445-.198,.62-.365c.161,.059,.329,.103,.499,.129"/>
  </g>
  <g>
    <path d="M12.387,40.814c-.032-.067-.033-.137-.001-.21,.011-.026,.027-.051,.049-.076l2.228-2.481c.032-.039,.073-.063,.123-.069,.05-.007,.098-.003,.145,.013,.045,.019,.083,.05,.113,.093,.031,.043,.046,.093,.044,.149l.004,2.071,1.489-1.436c.04-.04,.085-.064,.138-.072,.052-.008,.103-.001,.151,.019,.044,.022,.079,.054,.106,.096,.028,.042,.039,.086,.034,.133l-.241,3.327c-.003,.033-.009,.062-.02,.088-.03,.07-.081,.117-.154,.141-.072,.024-.139,.023-.2-.003-.051-.022-.092-.055-.122-.1-.03-.045-.042-.093-.036-.143l.212-2.75-1.423,1.413c-.038,.037-.082,.059-.131,.069s-.098,.004-.146-.017c-.048-.02-.086-.052-.113-.094-.027-.042-.041-.089-.041-.142l.05-1.996-1.829,2.062c-.033,.043-.076,.068-.128,.076-.052,.008-.106,0-.16-.023-.061-.026-.107-.072-.14-.139Z"/>
    <path d="M10.352,35.218c-.004-.068,.016-.126,.059-.177,.045-.053,.1-.08,.164-.083s.124,.02,.179,.068l1.378,1.181c.053,.045,.082,.102,.087,.171,.005,.069-.015,.129-.06,.182l-2.05,2.392c-.045,.053-.102,.082-.171,.087-.069,.005-.129-.015-.182-.06l-1.378-1.181c-.055-.048-.086-.104-.093-.169-.006-.065,.014-.125,.062-.18,.045-.053,.1-.081,.164-.083,.064-.003,.123,.02,.179,.068l1.176,1.008,.692-.808-.998-.855c-.055-.048-.086-.104-.093-.169s.013-.124,.059-.177c.048-.055,.103-.084,.166-.085s.122,.022,.177,.07l.998,.855,.75-.875-1.176-1.008c-.055-.048-.085-.105-.089-.173Z"/>
    <path d="M3.665,30.068c.057-.027,.117-.032,.183-.017,.068,.014,.118,.054,.149,.12,.021,.044,.03,.092,.027,.143-.018,.247,.026,.484,.132,.71,.111,.236,.261,.42,.45,.552,.189,.132,.401,.204,.635,.217,.235,.012,.473-.038,.715-.152,.261-.123,.462-.281,.602-.473,.14-.192,.216-.404,.23-.632,.013-.229-.034-.457-.14-.684-.11-.233-.265-.417-.468-.552-.037-.029-.065-.065-.086-.109-.033-.069-.032-.137,.003-.203,.029-.06,.071-.102,.125-.128,.038-.018,.078-.024,.121-.019s.081,.02,.117,.046c.127,.09,.247,.202,.36,.335s.204,.274,.273,.422c.144,.305,.208,.618,.194,.938-.014,.32-.115,.617-.301,.891-.186,.274-.452,.492-.799,.655-.318,.149-.639,.211-.964,.186-.325-.026-.621-.132-.889-.32-.267-.188-.475-.44-.625-.758-.144-.305-.203-.627-.178-.966,.005-.095,.05-.162,.135-.202Z"/>
    <path d="M5.281,24.162c.033-.027,.068-.043,.106-.049,.072-.012,.129,.003,.171,.043s.068,.094,.079,.159c.01,.065,.006,.122-.014,.171-.041,.112-.122,.212-.242,.298-.12,.087-.306,.151-.561,.192-.171,.028-.29,.1-.356,.216-.065,.117-.085,.257-.058,.422l.17,1.04,1.158-.189c.072-.012,.135,0,.188,.033,.053,.033,.085,.083,.096,.148,.013,.079,0,.151-.039,.215-.039,.064-.093,.102-.161,.113l-3.109,.508c-.069,.011-.131-.003-.187-.044s-.089-.095-.101-.163l-.236-1.447c-.03-.185-.013-.362,.053-.532,.066-.169,.171-.313,.315-.432,.144-.119,.316-.194,.515-.227,.192-.031,.38-.009,.563,.067,.183,.076,.329,.188,.438,.335,.044-.138,.119-.253,.224-.346,.105-.093,.234-.155,.387-.187,.193-.046,.324-.083,.391-.111s.112-.075,.133-.138c.018-.038,.044-.071,.077-.097Zm-1.467,1.162c-.074-.067-.168-.116-.28-.147-.113-.031-.234-.036-.364-.014-.165,.027-.296,.1-.395,.22s-.136,.252-.112,.396l.189,1.158,1.297-.212-.192-1.174c-.021-.085-.068-.16-.143-.228Z"/>
    <path d="M5.432,19.91c.053-.042,.113-.059,.179-.053,.069,.007,.123,.036,.161,.087,.039,.051,.054,.113,.047,.186l-.185,1.806c-.007,.069-.037,.126-.091,.169-.053,.044-.115,.062-.184,.055l-3.134-.321c-.069-.007-.126-.037-.169-.091-.043-.053-.062-.115-.055-.184l.185-1.806c.007-.073,.036-.13,.086-.172s.111-.059,.183-.052c.069,.007,.123,.036,.162,.087,.038,.051,.054,.113,.046,.186l-.158,1.541,1.059,.108,.134-1.308c.007-.073,.036-.13,.086-.172,.05-.042,.109-.059,.178-.052,.073,.007,.127,.037,.164,.087s.051,.113,.044,.185l-.134,1.308,1.147,.117,.158-1.541c.007-.073,.038-.13,.091-.171Z"/>
    <path d="M7.08,15.314c.065,.025,.11,.067,.136,.127s.027,.119,.005,.178c-.017,.046-.047,.082-.089,.108-.042,.027-.091,.042-.149,.047l-.832,.029-.574,1.506,.608,.572c.042,.035,.07,.076,.081,.123,.012,.047,.009,.094-.008,.139-.026,.068-.064,.113-.113,.136-.05,.022-.105,.021-.167-.002-.013-.005-.038-.018-.074-.039l-2.538-2.391c-.043-.043-.071-.089-.083-.141s-.005-.102,.021-.151c.018-.049,.048-.087,.089-.117,.041-.029,.089-.042,.143-.04l3.445-.105c.033,.001,.066,.008,.098,.021Zm-1.876,1.641l.433-1.136-1.582,.05,1.149,1.086Z"/>
    <path d="M6.602,9.928c.063-.013,.124,.001,.183,.044,.06,.042,.093,.095,.1,.157,.007,.062-.011,.123-.053,.183l-.537,.757,2.386,1.694c.057,.04,.09,.095,.101,.164,.01,.069-.007,.135-.051,.198-.044,.062-.101,.1-.17,.113-.069,.013-.132,0-.188-.041l-2.386-1.694-.535,.753c-.042,.06-.095,.096-.157,.109-.063,.013-.124-.002-.183-.044-.057-.04-.089-.092-.097-.156-.008-.063,.009-.125,.051-.185l1.38-1.944c.042-.06,.095-.096,.157-.109Z"/>
    <path d="M12.309,8.872c.067,.007,.122,.036,.165,.087,.045,.053,.063,.112,.055,.175-.008,.064-.04,.119-.096,.166l-1.39,1.167c-.053,.045-.114,.064-.183,.058-.069-.006-.125-.036-.17-.089l-2.025-2.413c-.045-.053-.064-.114-.058-.183,.006-.069,.035-.125,.089-.17l1.39-1.167c.056-.047,.117-.068,.182-.064,.065,.004,.121,.035,.168,.091,.045,.053,.063,.112,.055,.175-.008,.064-.04,.119-.096,.166l-1.187,.996,.684,.815,1.007-.845c.056-.047,.117-.068,.181-.064,.065,.004,.12,.033,.165,.087,.047,.056,.066,.115,.057,.177-.009,.062-.042,.117-.098,.164l-1.007,.845,.741,.883,1.187-.996c.056-.047,.118-.067,.185-.06Z"/>
    <path d="M18.523,2.75c.061,.03,.1,.077,.117,.141,.009,.034,.011,.073,.005,.117l-.449,3.385c-.01,.057-.033,.105-.069,.143s-.078,.065-.125,.078c-.044,.009-.089,.006-.135-.009-.045-.015-.086-.042-.123-.083l-2.117-2.685c-.021-.023-.037-.056-.049-.1-.02-.07-.01-.134,.028-.192,.038-.057,.088-.094,.148-.111,.101-.028,.189,.006,.266,.1l1.808,2.289,.323-2.88c.01-.053,.031-.099,.063-.136,.031-.037,.07-.063,.117-.075,.067-.019,.131-.013,.192,.018Z"/>
    <path d="M21.848,5.948c-.05,.051-.109,.078-.179,.082-.076,.004-.139-.018-.188-.064-.049-.046-.076-.106-.079-.179l-.151-3.141c-.003-.069,.018-.13,.065-.181,.046-.051,.108-.078,.184-.082,.07-.003,.131,.018,.183,.064s.081,.104,.084,.173l.151,3.142c.003,.073-.02,.135-.07,.186Z"/>
    <path d="M24.516,6.062c-.181-.101-.347-.244-.497-.43-.062-.073-.087-.149-.075-.228,.01-.062,.043-.114,.099-.156,.056-.042,.117-.058,.182-.048,.059,.009,.105,.036,.141,.08,.117,.149,.244,.265,.38,.348s.297,.14,.483,.169c.216,.034,.407,.014,.572-.062s.26-.189,.284-.341c.025-.179-.028-.329-.158-.45s-.34-.238-.628-.35c-.342-.128-.596-.29-.76-.485-.165-.195-.224-.438-.177-.731,.032-.203,.113-.372,.244-.508,.13-.136,.297-.23,.499-.283,.202-.052,.421-.06,.658-.022,.213,.034,.408,.1,.586,.199s.316,.214,.415,.346c.068,.081,.096,.161,.083,.24-.01,.062-.042,.113-.096,.154s-.114,.056-.179,.046c-.048-.008-.085-.028-.112-.06-.075-.103-.187-.199-.335-.285-.148-.087-.294-.142-.439-.165-.23-.037-.421-.018-.571,.055s-.238,.187-.263,.341c-.027,.168,.021,.308,.142,.419,.121,.111,.311,.218,.569,.323,.259,.101,.467,.204,.624,.31,.157,.106,.271,.237,.342,.392,.07,.156,.088,.347,.052,.573-.032,.199-.115,.367-.252,.504-.136,.137-.307,.233-.513,.288s-.424,.065-.654,.028c-.251-.04-.467-.11-.648-.211Z"/>
    <path d="M32.248,4.847c.02,.061,.015,.124-.016,.191l-.836,1.82c-.115,.25-.273,.449-.475,.597s-.426,.234-.672,.257c-.246,.023-.491-.022-.734-.133-.246-.113-.442-.271-.586-.473s-.226-.428-.245-.678c-.019-.25,.029-.5,.143-.749l.836-1.82c.03-.066,.078-.111,.141-.133,.064-.022,.13-.018,.2,.014,.06,.028,.103,.074,.128,.139,.025,.065,.024,.13-.005,.193l-.836,1.82c-.076,.164-.106,.33-.09,.495s.07,.314,.163,.445c.093,.131,.212,.229,.357,.296,.152,.07,.309,.098,.472,.085,.163-.013,.313-.067,.451-.163,.138-.096,.244-.226,.32-.39l.836-1.82c.031-.066,.074-.112,.132-.137,.057-.025,.119-.023,.186,.008,.067,.03,.11,.076,.129,.137Z"/>
    <path d="M34.808,10.923c-.045,.053-.1,.081-.165,.085-.065,.004-.121-.015-.169-.055-.037-.032-.061-.072-.072-.12-.011-.048-.009-.1,.007-.156l.254-.793-1.224-1.049-.744,.379c-.047,.028-.095,.04-.143,.035-.049-.005-.091-.023-.128-.055-.055-.047-.085-.098-.089-.152-.004-.054,.015-.106,.058-.156,.009-.01,.03-.029,.062-.057l3.107-1.582c.055-.026,.108-.037,.16-.031,.052,.006,.097,.029,.135,.071,.04,.034,.066,.075,.08,.123,.014,.048,.01,.098-.011,.149l-1.065,3.278c-.012,.031-.03,.059-.053,.085Zm-.911-2.32l.923,.791,.487-1.506-1.41,.715Z"/>
    <path d="M37.388,14.025c-.01,.064-.046,.117-.106,.159-.057,.04-.118,.053-.182,.04-.064-.013-.117-.049-.158-.109l-1.004-1.449c-.042-.06-.056-.123-.042-.19,.013-.066,.048-.119,.106-.159l2.59-1.794c.057-.039,.12-.053,.187-.041,.068,.012,.123,.05,.167,.113,.04,.057,.054,.12,.042,.189s-.046,.124-.103,.163l-2.397,1.66,.852,1.231c.042,.06,.057,.122,.047,.186Z"/>
    <path d="M42.625,20.322c-.121,.258-.308,.468-.56,.632-.252,.164-.545,.274-.877,.332-.336,.058-.65,.052-.943-.017s-.538-.205-.737-.407c-.199-.202-.326-.464-.382-.786l-.219-1.264c-.012-.068,.002-.131,.042-.187,.04-.056,.094-.091,.162-.102l3.105-.537c.068-.012,.131,.002,.187,.042,.056,.04,.09,.094,.102,.162l.219,1.264c.056,.322,.023,.612-.098,.869Zm-2.527,.342c.279,.132,.612,.164,.999,.097,.384-.066,.685-.209,.905-.429,.219-.22,.299-.503,.239-.849l-.164-.951-2.652,.458,.164,.951c.06,.35,.23,.59,.509,.722Z"/>
    <path d="M39.398,26.362c-.038,.017-.077,.023-.115,.018-.072-.008-.123-.038-.153-.088-.029-.051-.04-.109-.033-.174,.007-.066,.027-.119,.06-.161,.07-.097,.175-.171,.314-.221,.139-.051,.336-.061,.592-.032,.173,.02,.306-.017,.401-.111s.151-.224,.17-.39l.12-1.047-1.166-.133c-.072-.008-.13-.036-.172-.083-.042-.047-.059-.103-.052-.169,.009-.08,.041-.145,.096-.196,.055-.051,.117-.073,.186-.065l3.13,.358c.069,.008,.125,.039,.168,.093,.043,.054,.061,.115,.053,.185l-.167,1.456c-.021,.187-.087,.352-.196,.497-.11,.145-.25,.255-.421,.33-.171,.075-.357,.101-.557,.078-.194-.022-.368-.095-.524-.217s-.266-.27-.33-.442c-.08,.12-.183,.211-.309,.272s-.267,.086-.423,.075c-.199-.008-.334-.008-.407,0-.073,.009-.128,.041-.166,.096-.028,.032-.061,.056-.1,.072Zm1.728-.718c.053,.085,.13,.157,.23,.218,.1,.061,.215,.098,.347,.113,.166,.019,.312-.016,.44-.105,.127-.089,.199-.205,.216-.351l.133-1.166-1.306-.149-.135,1.182c-.003,.087,.022,.173,.076,.258Z"/>
    <path d="M38.083,30.412c-.063,.025-.125,.026-.186,.001-.065-.026-.108-.069-.131-.128-.023-.06-.021-.123,.007-.191l.676-1.684c.026-.065,.071-.11,.134-.138,.063-.027,.127-.027,.192-.002l2.924,1.174c.065,.026,.11,.07,.137,.134,.027,.063,.028,.127,.002,.192l-.676,1.684c-.027,.068-.07,.115-.13,.142s-.123,.027-.191,0c-.065-.026-.108-.068-.131-.128-.023-.06-.021-.123,.007-.191l.577-1.438-.987-.396-.49,1.22c-.027,.068-.07,.115-.13,.142-.059,.027-.121,.027-.186,.001-.068-.027-.112-.07-.134-.13-.021-.059-.018-.123,.009-.19l.49-1.22-1.07-.429-.577,1.438c-.027,.068-.072,.114-.135,.14Z"/>
    <path d="M35.231,34.375c-.056-.042-.087-.095-.096-.16-.008-.065,.007-.122,.044-.172,.029-.039,.068-.065,.115-.08,.048-.014,.1-.016,.156-.004l.808,.201,.966-1.29-.427-.717c-.031-.045-.046-.092-.044-.141s.017-.093,.046-.131c.044-.059,.092-.092,.146-.099,.053-.008,.107,.008,.16,.048,.011,.008,.031,.028,.061,.059l1.782,2.997c.03,.053,.044,.105,.041,.158-.003,.052-.023,.099-.062,.139-.031,.042-.071,.071-.118,.088s-.097,.016-.149,0l-3.341-.847c-.031-.01-.061-.026-.089-.047Zm2.255-1.061l-.729,.973,1.535,.387-.806-1.36Z"/>
    <path d="M33.238,40.348c-.067-.009-.121-.042-.162-.098l-1.864-2.546c-.041-.056-.057-.118-.048-.185s.045-.123,.106-.168c.062-.045,.126-.063,.193-.054s.122,.043,.165,.102l1.427,1.948-.089-1.835c.001-.04,.01-.079,.027-.117s.042-.068,.075-.087c.026-.023,.06-.038,.102-.042,.042-.005,.082-.002,.12,.009l1.754,.674-1.455-1.986c-.043-.059-.061-.12-.054-.184,.007-.063,.04-.117,.099-.16,.056-.041,.116-.055,.179-.043s.116,.048,.159,.107l1.864,2.546c.039,.053,.054,.115,.044,.184-.01,.069-.044,.126-.103,.169-.034,.025-.073,.04-.117,.047-.044,.007-.087,.003-.127-.01l-2.104-.781,.096,2.251c0,.095-.033,.166-.1,.216-.058,.038-.121,.053-.188,.044Z"/>
    <path d="M28.79,38.597c.207,.002,.421,.048,.642,.139,.09,.035,.148,.089,.175,.165,.021,.059,.017,.12-.012,.184-.029,.064-.074,.107-.137,.129-.056,.02-.11,.019-.162-.003-.174-.074-.341-.115-.501-.123-.16-.008-.328,.02-.505,.083-.206,.074-.364,.183-.473,.329s-.137,.291-.086,.435c.064,.169,.182,.276,.355,.319,.172,.044,.412,.046,.719,.007,.362-.052,.662-.031,.9,.061,.238,.092,.406,.278,.506,.556,.069,.193,.078,.381,.029,.563s-.15,.344-.303,.487c-.152,.143-.341,.254-.567,.335-.203,.072-.406,.108-.61,.107s-.38-.036-.53-.104c-.099-.039-.162-.096-.188-.171-.021-.059-.018-.119,.01-.181,.028-.062,.073-.104,.135-.126,.046-.016,.088-.017,.127,0,.115,.055,.259,.085,.431,.09,.172,.005,.326-.017,.464-.066,.22-.078,.378-.186,.475-.322,.097-.136,.12-.278,.067-.425-.057-.16-.166-.26-.325-.299-.16-.039-.378-.042-.654-.01-.275,.035-.508,.044-.696,.027-.189-.018-.352-.078-.488-.181s-.243-.262-.32-.478c-.068-.19-.075-.378-.021-.563,.054-.185,.158-.352,.312-.499s.341-.26,.56-.338c.239-.085,.462-.127,.67-.125Z"/>
  </g>
</svg>