<?xml version="1.0" encoding="UTF-8"?>
<svg id="a" data-name="Capa 1" xmlns="http://www.w3.org/2000/svg" width="45" height="45" viewBox="0 0 45 45">
  <path d="M28.542,23.102c-.179-.168-.458-.168-.636,0l-2.083,2.084-3.379-3.379c4.744-5.096,4.459-13.073-.636-17.817C16.711-.754,8.734-.469,3.99,4.626-.754,9.722-.469,17.699,4.626,22.444c4.84,4.507,12.34,4.507,17.181,0l3.379,3.379-2.084,2.083c-.176,.176-.176,.461,0,.636l14.723,14.722c1.502,1.502,3.937,1.502,5.438,0,1.502-1.502,1.502-3.937,0-5.438l-14.722-14.723ZM1.607,13.266c0-6.439,5.219-11.658,11.657-11.659,6.439,0,11.658,5.219,11.659,11.657,0,6.439-5.219,11.658-11.657,11.659-6.435-.007-11.65-5.222-11.659-11.657Zm41.02,29.361c-1.166,1.112-3,1.112-4.166,0l-14.402-14.402,4.167-4.167,14.402,14.402c1.15,1.149,1.151,3.013,.002,4.164l-.002,.002h0Z"/>
</svg>