<?xml version="1.0" encoding="UTF-8"?>
<svg id="a" data-name="Capa 1" xmlns="http://www.w3.org/2000/svg" width="40" height="40" viewBox="0 0 40 40">
  <path d="M35.796,15.532c-.005-.023-.013-.041-.019-.055l-.1,.021,.089-.052c-.005-.02-.013-.051-.036-.08-.013-.016-.027-.025-.036-.03l-4.788-3.366v-3.58c0-.188-.153-.341-.342-.341h-5.251l-5.118-3.586c-.119-.086-.276-.083-.394,0l-5.116,3.587h-5.248c-.188,0-.342,.152-.342,.341v3.576l-4.757,3.334c-.011,.008-.021,.017-.048,.044l-.022,.022c-.028,.036-.034,.075-.045,.119-.011,.019-.029,.051-.029,.095v19.679c0,.188,.152,.341,.341,.341h30.93c.077,0,.15-.029,.215-.085,.015-.012,.024-.021,.036-.033l.039-.042c.021-.034,.021-.066,.024-.095,.01-.016,.026-.045,.026-.086V15.581l-.01-.049ZM15.876,8.049l4.124-2.891,4.124,2.891H15.876Zm15.03,10.762v-6.008l3.99,2.797-3.99,3.211Zm4.217-2.517v18.342l-7.503-4.772-5.223-3.324,12.726-10.245Zm-16.958,10.698l1.62,1.304c.121,.1,.31,.099,.429,0l1.621-1.305,12.456,7.925H5.709l12.456-7.925Zm-8.388-7.63V8.732H30.223v10.63l-10.223,8.231-10.223-8.23Zm7.825,7.176l-12.726,8.098V16.294l12.726,10.244ZM5.104,15.599l3.992-2.798v6.011l-3.992-3.213Zm-.734-.191h0Z"/>
</svg>