<?xml version="1.0" encoding="UTF-8"?>
<svg id="a" data-name="Capa 1" xmlns="http://www.w3.org/2000/svg" width="45" height="45" viewBox="0 0 45 45">
  <path d="M40.13,34.872l-9.009-14.1c-1.127-1.763-1.722-3.802-1.722-5.893V1.565h1.308c.263,0,.476-.213,.476-.476s-.213-.476-.476-.476h-1.767l-.016-.003-12.847,.003h-1.785c-.263,0-.476,.213-.476,.476s.213,.476,.476,.476h1.31V14.878c.002,2.093-.593,4.13-1.72,5.894l-9.009,14.102c-1.236,1.934-1.315,4.29-.213,6.303,1.103,2.012,3.131,3.213,5.425,3.213h0l24.834-.002c2.295,0,4.323-1.202,5.425-3.214,1.102-2.012,1.023-4.368-.213-6.302h0Zm-.622,5.845c-.933,1.703-2.649,2.72-4.591,2.72l-24.834,.002h0c-1.941,0-3.657-1.016-4.59-2.719s-.866-3.697,.18-5.333l9.009-14.101c.247-.386,.463-.787,.663-1.195h5.08c.263,0,.476-.213,.476-.476s-.213-.476-.476-.476h-4.663c.519-1.353,.791-2.793,.791-4.259v-.899h3.9c.263,0,.476-.213,.476-.476s-.213-.476-.476-.476h-3.901V7.842h3.872c.263,0,.476-.213,.476-.476s-.213-.476-.476-.476h-3.873V1.565h11.896V14.879c0,2.274,.647,4.489,1.871,6.405l9.009,14.1c1.045,1.636,1.112,3.63,.179,5.333Z"/>
</svg>