<?xml version="1.0" encoding="UTF-8"?>
<svg id="a" xmlns="http://www.w3.org/2000/svg" width="60" height="60" viewBox="0 0 60 60">
  <rect x="2.5" y="2.5" width="55" height="55" rx="12.082" ry="12.082"/>
  <path d="M46.718,28.524c-.12-.121-.317-.122-.438,0l-.875,.875-.056-.055-5.856-5.857,.875-.876c.059-.058,.091-.136,.091-.219,0-.083-.032-.16-.091-.218l-2.188-2.187c-.121-.117-.315-.115-.438,0l-.875,.875-.056-.055-6.133-6.134,.875-.876c.121-.12,.121-.317,0-.438l-2.187-2.188c-.12-.121-.317-.121-.438,0l-2.187,2.188c-.12,.12-.12,.317,0,.438l2.187,2.19c.12,.121,.317,.121,.437,0l.875-.875,.056,.055,4.845,4.84-.365-.152c-2.842-1.184-6.016-1.007-8.709,.485l-.051,.028-.981-.98c-.117-.117-.32-.118-.438,0l-2.189,2.187c-.121,.12-.121,.317,0,.438l2.187,2.192c.12,.121,.317,.12,.438,0l2.187-2.188c.121-.12,.121-.317,0-.437l-.751-.752,.094-.049c1.376-.722,2.874-1.079,4.366-1.079,1.864,0,3.718,.556,5.317,1.654l.078,.053-.764,.764c-.121,.12-.121,.317,0,.437l.783,.784-.102,.047-25.061,11.578c-.154,.072-.223,.256-.152,.411,.045,.097,.139,.166,.245,.178l11.626,1.412,.007,.06,1.405,11.566c.017,.136,.122,.246,.257,.268,.018,.004,.035,.004,.051,.004,.119,0,.226-.067,.278-.174l12.057-24.736,.791,.791c.117,.118,.321,.117,.438,0l.714-.714,.052,.084c1.755,2.822,1.894,6.407,.362,9.356l-.049,.095-.789-.788c-.122-.117-.315-.115-.438,0l-2.184,2.185c-.121,.12-.121,.317,0,.437l2.191,2.189c.12,.12,.317,.121,.438,0l2.188-2.188c.059-.058,.091-.136,.091-.219,0-.083-.032-.16-.091-.218l-.946-.946,.028-.051c1.482-2.69,1.661-5.862,.491-8.702l-.149-.361,4.881,4.881-.875,.875c-.059,.058-.091,.136-.091,.219,0,.083,.033,.16,.09,.218l2.189,2.189c.12,.121,.317,.12,.438,0l2.187-2.189c.12-.12,.12-.317,0-.438l-2.192-2.187h0ZM29.146,15.329l-.056-.055-1.694-1.695,.055-.056,1.694-1.694,.056,.055,1.695,1.694-.055,.056-1.696,1.694h0Zm-2.581,6.469l-.055,.056-1.696,1.696-.056-.055-1.693-1.696,.055-.056,1.694-1.694,.056,.055,1.694,1.694h0Zm9.538,2.541l-11.304,23.195-.031-.263-1.282-10.564c-.017-.142-.128-.253-.27-.27l-10.786-1.31,.25-.115,23.52-10.87s-.096,.196-.096,.196Zm1.859-.196l-.056-.055-1.695-1.694,.055-.056,1.696-1.695,.056,.055,1.694,1.696-.055,.056-1.694,1.694h0Zm2.046,11.097l-.055,.056-1.696,1.694-.056-.055-1.694-1.694,.055-.056,1.694-1.695,.056,.055,1.695,1.696h0Zm6.491-2.559l-.056-.055-1.694-1.694,.055-.056,1.695-1.695,1.753,1.75-1.753,1.75h0Z" fill="#fff"/>
</svg>