<?xml version="1.0" encoding="UTF-8"?>
<svg id="a" xmlns="http://www.w3.org/2000/svg" width="60" height="60" viewBox="0 0 60 60">
  <rect x="2.5" y="2.5" width="55" height="55" rx="12.082" ry="12.082"/>
  <g>
    <path d="M48.708,11.002H11.292c-.162,0-.292,.131-.292,.292v7.172c0-.162,.131-.292,.292-.292h.292v-6.587H48.415v6.587h.292c.162,0,.292,.131,.292,.292v-7.172c0-.162-.131-.292-.292-.292h0Z" fill="#fff"/>
    <path d="M48.708,18.758h-.292v29.656H11.585V18.758h-.292c-.162,0-.292-.131-.292-.292v30.241c0,.162,.131,.292,.292,.292H48.708c.162,0,.292-.131,.292-.292V18.466c0,.162-.131,.292-.292,.292h0Z" fill="#fff"/>
    <rect x="11.585" y="18.174" width="36.83" height=".585" fill="#fff"/>
    <path d="M48.708,18.174h-.292v.585h.292c.162,0,.292-.131,.292-.292s-.131-.292-.292-.292Z" fill="#fff"/>
    <path d="M38.659,13.417c-.463,.151-.827,.514-.978,.978-.182,.537-.065,1.129,.308,1.556,.3,.343,.733,.539,1.188,.537,.102,0,.204-.009,.303-.028,.63-.12,1.124-.614,1.245-1.245,.053-.273,.033-.554-.056-.816-.283-.826-1.183-1.267-2.01-.983h0Zm1.491,1.692c-.009,.046-.022,.091-.038,.136-.185,.518-.754,.788-1.272,.603s-.788-.754-.603-1.272c.095-.285,.318-.507,.603-.603,.11-.036,.224-.055,.339-.056h0c.239,0,.47,.088,.65,.246,.268,.236,.391,.596,.322,.946h0Z" fill="#fff"/>
    <path d="M33.188,13.417c-.463,.151-.827,.514-.978,.978-.182,.537-.065,1.129,.307,1.556,.3,.343,.733,.539,1.188,.537,.102,0,.204-.009,.303-.028,.631-.12,1.124-.614,1.245-1.245,.053-.272,.033-.554-.056-.816-.283-.827-1.183-1.267-2.01-.984h0Zm1.491,1.692c-.009,.046-.022,.091-.038,.136-.185,.518-.754,.788-1.272,.603-.518-.185-.788-.754-.603-1.272,.095-.285,.318-.507,.603-.603,.11-.036,.224-.055,.34-.056h0c.239,0,.47,.088,.649,.246,.268,.236,.391,.596,.322,.946h0Z" fill="#fff"/>
    <path d="M44.643,13.332c-.872,.001-1.578,.709-1.576,1.58s.709,1.578,1.58,1.576c.87-.001,1.575-.706,1.576-1.576v-.005c-.001-.872-.709-1.578-1.58-1.576h0Zm.996,1.581c-.001,.549-.448,.993-.996,.991-.549-.001-.993-.448-.991-.996s.448-.993,.996-.991h0c.547,.004,.991,.448,.991,.996h0Z" fill="#fff"/>
    <path d="M29.357,14.619H13.514c-.162,0-.292,.131-.292,.292s.131,.292,.292,.292h15.843c.162,0,.292-.131,.292-.292s-.131-.292-.292-.292Z" fill="#fff"/>
    <path d="M14.338,29.478H31.193c.162,0,.292-.131,.292-.292v-6.706c0-.162-.131-.292-.292-.292H14.338c-.162,0-.292,.131-.292,.292v6.706c0,.162,.131,.292,.292,.292Zm.292-6.706H30.9v6.121H14.631s0-6.121,0-6.121Z" fill="#fff"/>
    <path d="M35.241,29.478h10.421c.162,0,.292-.131,.292-.292v-6.706c0-.162-.131-.292-.292-.292h-10.421c-.162,0-.292,.131-.292,.292v6.706c0,.162,.131,.292,.292,.292Zm.292-6.706h9.836v6.121h-9.836s0-6.121,0-6.121Z" fill="#fff"/>
    <path d="M14.338,34.013h12.031c.162,0,.292-.131,.292-.292s-.131-.292-.292-.292H14.338c-.162,0-.292,.131-.292,.292s.131,.292,.292,.292Z" fill="#fff"/>
    <path d="M14.338,39.354h12.031c.162,0,.292-.131,.292-.292s-.131-.292-.292-.292H14.338c-.162,0-.292,.131-.292,.292s.131,.292,.292,.292Z" fill="#fff"/>
    <path d="M26.369,44.11H14.338c-.162,0-.292,.131-.292,.292s.131,.292,.292,.292h12.031c.162,0,.292-.131,.292-.292s-.131-.292-.292-.292Z" fill="#fff"/>
    <path d="M38.358,33.429c-.162,0-.292,.131-.292,.292s.131,.292,.292,.292h7.573c.162,0,.292-.131,.292-.292s-.131-.292-.292-.292h-7.573Z" fill="#fff"/>
    <path d="M45.931,38.769h-7.573c-.162,0-.292,.131-.292,.292s.131,.292,.292,.292h7.573c.162,0,.292-.131,.292-.292s-.131-.292-.292-.292Z" fill="#fff"/>
    <path d="M45.931,44.11h-7.573c-.162,0-.292,.131-.292,.292s.131,.292,.292,.292h7.573c.162,0,.292-.131,.292-.292s-.131-.292-.292-.292Z" fill="#fff"/>
  </g>
</svg>