<?xml version="1.0" encoding="UTF-8"?>
<svg id="a" xmlns="http://www.w3.org/2000/svg" width="60" height="60" viewBox="0 0 60 60">
  <rect x="2.5" y="2.5" width="55" height="55" rx="12.082" ry="12.082"/>
  <g>
    <path d="M48.967,25.159c-.009-.02-.031-.051-.062-.085l-.036-.037-5.578-4.462v-4.237c0-.191-.156-.347-.348-.347h-5.491l-.036-.028-5.326-4.22c-1.255-.994-3.005-.992-4.26,.004l-5.322,4.244h-5.833c-.191,0-.348,.156-.348,.347v4.563l-5.234,4.174c-.029,.032-.052,.064-.065,.094-.016,.046-.024,.083-.026,.125l-.004,.029v23.329c0,.191,.156,.347,.348,.347H48.652c.191,0,.348-.156,.348-.347V25.308c-.005-.054-.013-.092-.025-.125l-.008-.024Zm-5.675-3.693l4.761,3.807-4.761,2.966v-6.773Zm-15.027-9.174c1-.795,2.396-.795,3.395-.003l4.674,3.703h-12.718l4.65-3.701h0Zm-11.241,4.394h25.573v11.986l-.062,.039-12.577,7.835-12.935-8.095s0-11.765,0-11.765Zm-.694,5.103v6.227l-4.381-2.742,4.381-3.486h0Zm-4.634,4.147l17.607,11.018-17.607,10.969s0-21.987,0-21.987Zm.696,22.371l17.566-10.943,17.487,10.943H12.392Zm35.915-.28l-17.692-11.071,17.692-11.022v22.093Z" fill="#fff"/>
    <path d="M23.006,21.799h4.872c.191,0,.348-.156,.348-.348s-.156-.347-.348-.347h-4.872c-.191,0-.348,.156-.348,.347s.156,.348,.348,.348Z" fill="#fff"/>
    <path d="M23.006,26.214h13.69c.191,0,.347-.156,.347-.347s-.156-.348-.347-.348h-13.69c-.191,0-.348,.156-.348,.348s.156,.347,.348,.347Z" fill="#fff"/>
    <path d="M23.006,29.93h13.69c.191,0,.347-.156,.347-.348s-.156-.347-.347-.347h-13.69c-.191,0-.348,.156-.348,.347s.156,.348,.348,.348Z" fill="#fff"/>
  </g>
</svg>