<?xml version="1.0" encoding="UTF-8"?>
<svg id="a" xmlns="http://www.w3.org/2000/svg" width="60" height="60" viewBox="0 0 60 60">
  <rect x="2.5" y="2.5" width="55" height="55" rx="12.082" ry="12.082"/>
  <g>
    <path d="M46.526,17.346h-12.809v-4.103c0-.199-.162-.36-.36-.36h-9.06c-.199,0-.36,.162-.36,.36v4.103h-2.324v-2.553c0-.199-.162-.36-.36-.36h-5.841c-.198,0-.36,.162-.36,.36v2.553h-1.578c-1.364,0-2.474,1.111-2.474,2.475v24.822c0,1.364,1.11,2.474,2.474,2.474H46.526c1.364,0,2.474-1.11,2.474-2.474V19.821c0-1.364-1.11-2.475-2.474-2.475Zm-21.87-3.743h8.341v3.743h-8.341v-3.743Zm-8.884,1.55h5.121v2.193h-5.121v-2.193Zm6.46,31.244H13.474c-.968,0-1.755-.787-1.755-1.755V19.821c0-.968,.787-1.755,1.755-1.755h8.758v28.331Zm26.049-1.755c0,.968-.787,1.755-1.755,1.755H22.952V18.066h23.574c.968,0,1.755,.787,1.755,1.755v24.822Z" fill="#fff"/>
    <path d="M35.826,21.98c-5.863,0-10.632,4.774-10.632,10.643s4.77,10.643,10.632,10.643,10.632-4.774,10.632-10.643-4.77-10.643-10.632-10.643Zm0,20.567c-5.465,0-9.912-4.452-9.912-9.923s4.447-9.923,9.912-9.923,9.912,4.452,9.912,9.923-4.447,9.923-9.912,9.923Z" fill="#fff"/>
    <path d="M35.826,24.941c-4.231,0-7.673,3.446-7.673,7.681s3.442,7.681,7.673,7.681,7.673-3.446,7.673-7.681-3.442-7.681-7.673-7.681Zm0,14.642c-3.834,0-6.953-3.123-6.953-6.961s3.119-6.962,6.953-6.962,6.953,3.123,6.953,6.961-3.119,6.962-6.953,6.962Z" fill="#fff"/>
    <path d="M35.904,27.942c-.199,0-.36,.162-.36,.36s.162,.36,.36,.36c2.139,0,3.879,1.743,3.879,3.884,0,.198,.162,.36,.36,.36s.36-.162,.36-.36c0-2.538-2.063-4.604-4.599-4.604Z" fill="#fff"/>
    <path d="M16.937,41.429c.198,0,.36-.162,.36-.36V24.022c0-.199-.162-.36-.36-.36s-.36,.162-.36,.36v17.047c0,.199,.162,.36,.36,.36h0Z" fill="#fff"/>
  </g>
</svg>