<?xml version="1.0" encoding="UTF-8"?>
<svg id="a" xmlns="http://www.w3.org/2000/svg" width="60" height="60" viewBox="0 0 60 60">
  <rect x="2.5" y="2.5" width="55" height="55" rx="12.082" ry="12.082"/>
  <g>
    <path d="M29.926,19.98h-.074c-.139,0-.26,.095-.294,.229-.363,1.453-3.661,11.606-3.693,11.708-.052,.159,.035,.33,.194,.382,.03,.01,.062,.015,.093,.015h7.511c.167,0,.303-.135,.303-.303,0-.032-.005-.064-.015-.094-.034-.103-3.368-10.292-3.731-11.709-.035-.135-.156-.229-.295-.228h0Zm-3.357,11.729c.539-1.661,2.564-7.921,3.323-10.458,.766,2.526,2.81,8.794,3.354,10.458,0,0-6.677,0-6.677,0Z" fill="#fff"/>
    <path d="M32.211,17.336c-.042-.122-.157-.205-.286-.205h-3.886c-.13,0-.245,.083-.287,.205l-8.473,24.937c-.054,.159,.031,.33,.19,.384,.031,.011,.064,.016,.097,.016h3.33c.13,0,.244-.081,.286-.204l2.521-7.29h8.412l2.592,7.292c.043,.121,.157,.201,.285,.201h3.44c.167,0,.302-.136,.302-.303,0-.033-.006-.066-.016-.098l-8.508-24.936Zm4.996,24.732l-2.593-7.293c-.043-.12-.157-.201-.285-.201h-8.842c-.129,0-.244,.082-.286,.204l-2.52,7.29h-2.691l8.267-24.332h3.451l8.303,24.331s-2.802,0-2.802,0Z" fill="#fff"/>
    <path d="M48.697,44.112h-1.791l-.058-28.224h1.551c.167,0,.303-.135,.303-.303v-4.184c0-.167-.135-.303-.303-.303h-3.888c-.167,0-.303,.135-.303,.303v1.595H15.791v-1.595c0-.167-.135-.303-.303-.303h-4.185c-.167,0-.303,.135-.303,.303v4.184c0,.167,.135,.303,.303,.303h1.79v28.224h-1.79c-.167,0-.303,.135-.303,.303v4.184c0,.167,.135,.303,.303,.303h4.186c.167,0,.303-.135,.303-.303v-1.79h28.418v1.79c0,.167,.135,.303,.303,.303h4.184c.167,0,.303-.135,.303-.303v-4.184c0-.167-.135-.303-.303-.303Zm-3.882-32.409h3.282v3.579h-3.282v-3.579ZM11.606,15.282v-3.579h3.58v3.579s-3.58,0-3.58,0Zm3.58,33.014h-3.58v-3.579h3.58v3.579Zm29.024-3.882v1.79H15.791v-1.79c0-.167-.135-.303-.303-.303h-1.79V15.888h1.79c.167,0,.303-.135,.303-.303v-1.984h28.418v1.984c0,.167,.135,.303,.303,.303h1.731l.058,28.224h-1.789c-.167,0-.303,.135-.303,.303h0Zm4.185,3.881h-3.579v-3.579h3.579v3.579Z" fill="#fff"/>
  </g>
</svg>