<?xml version="1.0" encoding="UTF-8"?>
<svg id="a" xmlns="http://www.w3.org/2000/svg" width="60" height="60" viewBox="0 0 60 60">
  <rect x="2.5" y="2.5" width="55" height="55" rx="12.082" ry="12.082"/>
  <g>
    <path d="M25.013,43.342h17.991c.189-.013,.338-.17,.338-.361V25.016c0-.096-.038-.188-.107-.256-.068-.068-.158-.105-.255-.105h0c-.096,0-.188,.038-.256,.107l-17.967,17.965c-.067,.068-.105,.157-.105,.255,0,.096,.037,.188,.105,.256s.159,.106,.255,.106Zm.917-.767l16.687-16.686v16.73H25.885l.045-.044h0Z" fill="#fff"/>
    <path d="M48.894,11.105c-.068-.068-.159-.105-.255-.105h0c-.096,0-.188,.038-.255,.107L11.103,48.385c-.065,.067-.102,.155-.103,.248-.002,.199,.157,.364,.356,.366H48.639c.096,0,.185-.037,.253-.104,.068-.068,.107-.158,.108-.255V11.361c0-.095-.039-.188-.107-.256h0ZM12.228,48.277l.045-.044L48.274,12.231V48.27h-7.442v-1.244c0-.199-.163-.361-.362-.361s-.361,.163-.361,.361v1.244h-5.661v-1.618c0-.199-.163-.361-.361-.361s-.362,.163-.362,.361v1.618h-5.906v-1.22c0-.199-.163-.362-.361-.362s-.362,.163-.362,.362v1.22h-5.661v-1.592c0-.199-.163-.361-.361-.361s-.361,.163-.361,.361v1.592h-6.118v.007s-2.364,0-2.364,0Z" fill="#fff"/>
  </g>
</svg>