<?xml version="1.0" encoding="UTF-8"?>
<svg id="a" xmlns="http://www.w3.org/2000/svg" width="60" height="60" viewBox="0 0 60 60">
  <rect x="2.5" y="2.5" width="55" height="55" rx="12.082" ry="12.082"/>
  <g>
    <path d="M13.208,15.989c.926,0,1.68-.754,1.68-1.68s-.754-1.68-1.68-1.68-1.68,.754-1.68,1.68,.754,1.68,1.68,1.68Zm0-2.752c.592,0,1.073,.482,1.073,1.073s-.482,1.073-1.073,1.073-1.074-.482-1.074-1.073,.482-1.073,1.074-1.073Z" fill="#fff"/>
    <path d="M18.621,15.989c.926,0,1.68-.754,1.68-1.68s-.754-1.68-1.68-1.68-1.68,.754-1.68,1.68,.754,1.68,1.68,1.68Zm0-2.752c.592,0,1.073,.482,1.073,1.073s-.482,1.073-1.073,1.073-1.073-.482-1.073-1.073,.482-1.073,1.073-1.073Z" fill="#fff"/>
    <path d="M24.036,15.989c.926,0,1.68-.754,1.68-1.68s-.754-1.68-1.68-1.68-1.68,.754-1.68,1.68,.754,1.68,1.68,1.68Zm0-2.752c.592,0,1.074,.482,1.074,1.073s-.482,1.073-1.074,1.073-1.073-.482-1.073-1.073,.482-1.073,1.073-1.073Z" fill="#fff"/>
    <path d="M12.976,31.649H46.748c.874,0,1.586-.711,1.586-1.586v-5.142c0-.875-.711-1.586-1.586-1.586H12.976c-.874,0-1.586,.711-1.586,1.586v5.142c0,.875,.711,1.586,1.586,1.586Zm0-7.708h7.063v7.102h-7.063c-.54,0-.98-.44-.98-.98v-5.142c0-.54,.439-.98,.98-.98h0Zm34.752,6.121c0,.54-.44,.98-.98,.98H20.646v-7.102h26.102c.54,0,.98,.44,.98,.98v5.142h0Z" fill="#fff"/>
    <g>
      <path d="M28.009,35.973h-11.561c-.166,0-.3,.135-.3,.3v7.244c0,.166,.134,.3,.3,.3h11.562c.166,0,.3-.135,.3-.3v-7.244c0-.166-.135-.3-.3-.3h0Zm-.3,.6v6.645h-10.962v-6.645h10.962Z" fill="#fff"/>
      <path d="M43.277,35.974h-11.562c-.166,0-.3,.135-.3,.3v7.244c0,.166,.134,.3,.3,.3h11.562c.166,0,.3-.134,.3-.3v-7.244c0-.166-.135-.3-.3-.3Zm-.3,.6v6.645h-10.962v-6.645h10.962Z" fill="#fff"/>
    </g>
    <path d="M48.081,10.152H11.919c-1.885,0-3.419,1.534-3.419,3.42V46.429c0,1.885,1.534,3.419,3.419,3.419H48.081c1.885,0,3.419-1.534,3.419-3.419V13.571c0-1.885-1.534-3.419-3.419-3.419h0Zm0,39.09H11.919c-1.551,0-2.813-1.262-2.813-2.813V18.312H50.893v28.117c0,1.551-1.262,2.813-2.813,2.813h0ZM11.919,10.759H48.081c1.551,0,2.813,1.262,2.813,2.813v4.135H9.107v-4.135c0-1.551,1.262-2.813,2.813-2.813h0Z" fill="#fff"/>
  </g>
</svg>