<?xml version="1.0" encoding="UTF-8"?>
<svg id="a" xmlns="http://www.w3.org/2000/svg" width="60" height="60" viewBox="0 0 60 60">
  <rect x="2.5" y="2.5" width="55" height="55" rx="12.082" ry="12.082"/>
  <g>
    <path d="M19.639,23.698h1.642l.011,.093,1.539,13.795c.021,.189,.18,.332,.37,.332h16.224c.194,0,.354-.146,.372-.34l.929-10.347c.009-.104-.026-.208-.096-.286-.07-.077-.171-.121-.276-.121H22.38l-.395-3.54c-.021-.189-.18-.331-.37-.331h-1.975c-.206,0-.373,.167-.373,.372s.167,.373,.373,.373h0Zm20.307,3.872l-.862,9.603h-15.55l-.011-.093-1.06-9.51s17.483,0,17.483,0Z" fill="#fff"/>
    <path d="M27.086,39.687c-1.304,0-2.365,1.061-2.365,2.365s1.061,2.365,2.365,2.365,2.365-1.061,2.365-2.365-1.061-2.365-2.365-2.365Zm0,3.985c-.893,0-1.619-.727-1.619-1.62s.726-1.619,1.619-1.619,1.619,.726,1.619,1.619-.726,1.62-1.619,1.62Z" fill="#fff"/>
    <path d="M35.898,39.687c-1.304,0-2.365,1.061-2.365,2.365s1.061,2.365,2.365,2.365,2.365-1.061,2.365-2.365-1.06-2.365-2.365-2.365Zm0,3.985c-.893,0-1.62-.727-1.62-1.62s.727-1.619,1.62-1.619,1.619,.726,1.619,1.619-.726,1.62-1.619,1.62Z" fill="#fff"/>
    <path d="M48.627,11.001H11.373c-.206,0-.373,.167-.373,.372V48.627c0,.205,.167,.372,.373,.372H48.627c.206,0,.373-.167,.373-.372V11.373c0-.205-.167-.372-.373-.372Zm-.372,37.254H11.746V19.866H48.254v28.388h0Zm0-29.133H11.746v-7.374H48.254v7.374h0Z" fill="#fff"/>
    <path d="M42.258,17.265c.141,.141,.386,.141,.527,0l1.376-1.376,1.376,1.376c.141,.141,.386,.141,.527,0,.07-.07,.11-.164,.11-.264s-.039-.193-.11-.264l-1.377-1.377,1.377-1.376c.07-.07,.11-.164,.11-.264s-.039-.193-.11-.264c-.141-.141-.386-.141-.527,0l-1.376,1.377-1.376-1.377c-.141-.141-.386-.141-.527,0-.07,.07-.11,.164-.11,.264s.039,.193,.11,.264l1.377,1.376-1.377,1.377c-.07,.07-.11,.164-.11,.264,0,.099,.039,.192,.11,.264Z" fill="#fff"/>
  </g>
</svg>