<?xml version="1.0" encoding="UTF-8"?>
<svg id="a" xmlns="http://www.w3.org/2000/svg" width="60" height="60" viewBox="0 0 60 60">
  <rect x="2.5" y="2.5" width="55" height="55" rx="12.082" ry="12.082"/>
  <g>
    <path d="M35.201,11.091c-.061-.058-.141-.091-.226-.091H16.73c-.186,0-.337,.151-.337,.337V48.663c0,.186,.151,.337,.337,.337h26.541c.186,0,.337-.151,.337-.337V19.129c0-.092-.039-.181-.106-.245l-8.3-7.793Zm.112,1.026l.088,.083,7.023,6.595h-7.111v-6.677Zm7.619,36.21H17.066V11.674h17.574v7.457c0,.186,.151,.337,.337,.337h7.956v28.859Z" fill="#fff"/>
    <path d="M33.098,22.169h-.003c-2.868,.003-5.204,2.34-5.207,5.208v.093h-5.856c-.186,0-.336,.151-.336,.336v9.743c0,.186,.151,.337,.336,.337h9.743c.186,0,.337-.151,.337-.337v-5.062l.061,.011c.305,.056,.616,.086,.923,.087h.064c2.843,0,5.173-2.294,5.208-5.145,.017-1.391-.51-2.705-1.481-3.701-.972-.996-2.273-1.554-3.664-1.571h-.126Zm-1.661,15.043h-9.067v-9.07h5.581l.007,.044c.303,1.905,1.624,3.48,3.446,4.11l.035,.012v4.903s-.002,0-.002,0Zm-2.809-9.07h2.809v3.453l-.072-.029c-1.423-.591-2.442-1.848-2.726-3.362l-.011-.061h0Zm9.005-.767c0,2.501-2.035,4.535-4.535,4.535h-.003c-.317,0-.634-.034-.943-.1l-.041-.009v-3.997c0-.186-.151-.336-.337-.336h-3.211v-.093c0-2.501,2.035-4.535,4.535-4.535s4.535,2.035,4.535,4.535Z" fill="#fff"/>
  </g>
</svg>