<?xml version="1.0" encoding="UTF-8"?>
<svg id="a" xmlns="http://www.w3.org/2000/svg" width="60" height="60" viewBox="0 0 60 60">
  <rect x="2.5" y="2.5" width="55" height="55" rx="12.082" ry="12.082"/>
  <g>
    <path d="M46.7,12.079H13.3c-1.267,.001-2.298,1.033-2.3,2.3v31.243c.001,1.267,1.033,2.298,2.3,2.3H46.7c1.267-.001,2.299-1.033,2.3-2.3V14.379c0-1.267-1.033-2.298-2.3-2.3Zm1.645,33.542c0,.906-.739,1.644-1.645,1.645H13.3c-.907,0-1.644-.739-1.644-1.645V20.674H48.345v24.948h0Zm0-25.602H11.655v-5.64c0-.906,.738-1.644,1.644-1.645H46.7c.906,0,1.644,.739,1.645,1.645v5.64Z" fill="#fff"/>
    <path d="M43.615,14.994h0c-.841,0-1.526,.686-1.526,1.527,0,.842,.686,1.527,1.528,1.528,.408,0,.791-.159,1.079-.448,.289-.289,.447-.672,.447-1.08,0-.842-.686-1.526-1.527-1.526h0Zm.616,2.145c-.165,.164-.383,.255-.616,.255h0c-.481,0-.872-.391-.872-.872s.392-.872,.873-.872,.872,.392,.872,.873c0,.233-.092,.452-.256,.617Z" fill="#fff"/>
    <path d="M38.844,14.994c-.842,0-1.527,.685-1.527,1.527,0,.841,.686,1.526,1.527,1.528,.842,0,1.527-.685,1.527-1.528s-.685-1.527-1.527-1.527Zm0,2.399c-.481,0-.872-.391-.872-.872,0-.48,.392-.872,.872-.872,.481,0,.872,.391,.872,.872s-.391,.872-.872,.872Z" fill="#fff"/>
    <path d="M34.071,14.994c-.842,0-1.527,.685-1.527,1.527,0,.841,.686,1.526,1.527,1.528,.842,0,1.527-.685,1.527-1.528s-.685-1.527-1.527-1.527Zm0,2.399c-.481,0-.872-.391-.872-.872,0-.48,.392-.872,.872-.872,.481,0,.872,.391,.872,.872s-.391,.872-.872,.872Z" fill="#fff"/>
    <path d="M22.552,34.207l3.114,2.914c.064,.06,.154,.089,.235,.088,.088-.003,.168-.04,.228-.104s.091-.148,.088-.235c-.003-.088-.04-.168-.104-.228l-2.855-2.675,.048-.044,2.807-2.628c.131-.123,.137-.329,.015-.461-.06-.064-.141-.101-.228-.104h-.012c-.075,0-.145,.024-.203,.071v.006l-.03,.019-3.102,2.904c-.132,.124-.139,.331-.016,.463l.014,.014h0Z" fill="#fff"/>
    <path d="M36.742,33.968l-2.855,2.675c-.064,.06-.1,.141-.104,.228-.003,.087,.028,.171,.088,.235,.124,.131,.331,.139,.464,.015l3.112-2.912c.063-.06,.1-.141,.104-.228,.003-.088-.028-.171-.088-.235l-.016-.016-3.112-2.912c-.063-.059-.144-.088-.224-.088-.088,0-.176,.035-.24,.104-.123,.132-.117,.339,.015,.463l2.855,2.67h0Z" fill="#fff"/>
    <path d="M26.879,40.817l.007,.003c.161,.073,.361-.004,.434-.162l5.954-13.103c.036-.079,.04-.168,.009-.25s-.092-.147-.171-.183c-.08-.036-.168-.04-.251-.009-.082,.031-.147,.092-.183,.171l-5.955,13.102c-.074,.162-.005,.353,.154,.431Z" fill="#fff"/>
  </g>
</svg>