<?xml version="1.0" encoding="UTF-8"?>
<svg id="a" xmlns="http://www.w3.org/2000/svg" width="60" height="60" viewBox="0 0 60 60">
  <rect x="2.5" y="2.5" width="55" height="55" rx="12.082" ry="12.082"/>
  <g>
    <path d="M48.627,48.251h-1.555V20.607c0-.206-.167-.373-.373-.373h-5.466c-.206,0-.373,.167-.373,.373v27.644h-3.049V31.347c0-.206-.167-.373-.373-.373h-5.466c-.206,0-.373,.167-.373,.373v16.905h-3.2v-13.463c0-.205-.167-.373-.373-.373h-5.466c-.206,0-.373,.167-.373,.373v13.463h-3.095V29.714c0-.206-.167-.373-.373-.373h-5.467c-.205,0-.373,.167-.373,.373v18.537h-1.508c-.206,0-.373,.167-.373,.373s.167,.373,.373,.373H48.627c.205,0,.373-.167,.373-.373s-.167-.373-.373-.373Zm-30.281,0h-4.72V30.086h4.719v18.165h0Zm9.308,0h-4.72v-13.09h4.72v13.09Zm9.411,0h-4.72V31.719h4.72v16.532Zm9.261,0h-4.72V20.98h4.72v27.271Z" fill="#fff"/>
    <path d="M21.914,20.816h4.019v6.726c0,.206,.167,.373,.373,.373h7.356c.206,0,.373-.167,.373-.373v-6.726h4.05c.147,0,.28-.087,.341-.22,.06-.135,.036-.292-.062-.401l-8.085-9.074c-.067-.074-.168-.117-.278-.117s-.212,.043-.279,.117l-8.085,9.073c-.097,.109-.122,.267-.062,.401,.06,.133,.194,.22,.341,.22h0Zm8.086-8.885l7.254,8.141h-3.591c-.205,0-.373,.167-.373,.373v6.726h-6.611v-6.727c0-.205-.167-.373-.373-.373h-3.56l7.254-8.14Z" fill="#fff"/>
  </g>
</svg>