<?xml version="1.0" encoding="UTF-8"?>
<svg id="a" xmlns="http://www.w3.org/2000/svg" width="60" height="60" viewBox="0 0 60 60">
  <rect x="2.5" y="2.5" width="55" height="55" rx="12.082" ry="12.082"/>
  <g>
    <path d="M40.077,36.199c-.13-.13-.34-.13-.47,0l-1.468,1.468-2.444-2.444c5.356-5.604,5.278-14.52-.231-20.029-5.588-5.588-14.68-5.587-20.267,0-2.689,2.688-4.199,6.335-4.198,10.136,.002,7.912,6.418,14.323,14.331,14.321,3.689,.006,7.235-1.415,9.896-3.959l2.444,2.444-1.468,1.468c-.13,.13-.13,.339,0,.47l8.122,8.121c.512,.515,1.21,.804,1.936,.803,.726,0,1.423-.289,1.937-.803,1.069-1.069,1.069-2.804,0-3.873l-8.121-8.122h0Zm-4.971-1.321c-.052,.015-.102,.043-.143,.085-.039,.04-.065,.087-.08,.137-5.338,5.219-13.925,5.182-19.216-.11-2.564-2.564-4.005-6.041-4.003-9.667,.003-7.546,6.122-13.66,13.667-13.658,3.625-.006,7.103,1.432,9.665,3.997,5.291,5.291,5.328,13.878,.111,19.216Zm12.622,12.845c-.81,.81-2.124,.81-2.935,0l-7.886-7.886,2.935-2.935,7.886,7.886c.81,.81,.81,2.125,0,2.935Z" fill="#fff"/>
    <path d="M33.376,17.282c-4.443-4.443-11.647-4.443-16.09,0-4.437,4.436-4.437,11.654,0,16.09,2.133,2.135,5.027,3.333,8.045,3.327,3.018,.006,5.912-1.191,8.045-3.327,2.219-2.218,3.327-5.131,3.327-8.045s-1.109-5.827-3.327-8.045Zm-8.045,18.759c-5.917,0-10.714-4.797-10.714-10.714s4.797-10.714,10.714-10.714c2.843-.007,5.571,1.123,7.576,3.138,2.009,2.009,3.138,4.734,3.138,7.576,0,5.917-4.797,10.714-10.714,10.714Z" fill="#fff"/>
    <path d="M25.782,25.524c-.154-.014-.305-.021-.456-.021-2.478,0-4.592,1.888-4.828,4.403-.016,.183,.118,.344,.3,.361,.01,0,.021,0,.031,0,.171,0,.315-.13,.33-.3,.185-1.975,1.729-3.551,3.702-3.773,2.299-.26,4.374,1.393,4.634,3.692,.021,.181,.185,.313,.368,.292,.181-.02,.312-.185,.292-.366-.258-2.284-2.083-4.074-4.372-4.288Z" fill="#fff"/>
    <path d="M25.331,24.013c1.436-.001,2.599-1.165,2.601-2.601,0-1.436-1.165-2.6-2.601-2.6s-2.6,1.164-2.6,2.6,1.164,2.601,2.6,2.601Zm0-4.538c.534,0,1.019,.217,1.369,.568,.35,.35,.568,.834,.569,1.369,0,1.07-.867,1.938-1.938,1.938s-1.936-.867-1.936-1.938,.867-1.937,1.936-1.937Z" fill="#fff"/>
  </g>
</svg>